<?xml version="1.0" standalone="no"?>
<!DOCTYPE svg PUBLIC "-//W3C//DTD SVG 20010904//EN"
 "http://www.w3.org/TR/2001/REC-SVG-20010904/DTD/svg10.dtd">
<svg version="1.0" xmlns="http://www.w3.org/2000/svg"
 width="4570.000000pt" height="4570.000000pt" viewBox="0 0 4570.000000 4570.000000"
 preserveAspectRatio="xMidYMid meet">

<g transform="translate(0.000000,4570.000000) scale(0.100000,-0.100000)"
fill="#000000" stroke="none">
<path d="M21285 44951 c-103 -6 -113 -9 -157 -39 -45 -31 -53 -33 -190 -42
-79 -6 -271 -15 -428 -20 -157 -4 -294 -11 -305 -15 -11 -4 -35 -14 -53 -22
-18 -8 -105 -20 -197 -28 -120 -10 -199 -23 -297 -49 -129 -33 -159 -39 -373
-71 -55 -8 -136 -25 -180 -39 -53 -17 -125 -28 -215 -35 -103 -8 -157 -18
-230 -42 -61 -19 -148 -37 -240 -49 -87 -11 -176 -28 -223 -44 -43 -15 -126
-34 -185 -42 -60 -9 -140 -29 -182 -45 -41 -16 -109 -34 -150 -40 -95 -13
-169 -31 -245 -59 -33 -12 -98 -28 -145 -37 -47 -8 -116 -28 -155 -44 -38 -17
-115 -38 -171 -48 -55 -11 -123 -30 -151 -44 -27 -14 -89 -33 -136 -42 -48 -9
-117 -30 -154 -47 -36 -16 -98 -36 -137 -45 -39 -8 -98 -27 -132 -43 -34 -17
-92 -36 -130 -44 -39 -8 -106 -30 -149 -49 -44 -19 -107 -41 -140 -48 -33 -7
-81 -25 -108 -41 -26 -15 -83 -36 -127 -47 -43 -11 -96 -31 -117 -45 -21 -14
-67 -33 -103 -42 -35 -9 -94 -31 -130 -49 -36 -18 -89 -38 -117 -45 -29 -6
-63 -20 -75 -29 -36 -28 -65 -41 -125 -57 -30 -8 -67 -22 -82 -32 -34 -24 -89
-49 -126 -57 -16 -4 -58 -23 -93 -42 -34 -19 -90 -43 -124 -55 -35 -11 -75
-30 -90 -43 -15 -12 -58 -32 -96 -44 -37 -11 -76 -29 -86 -40 -10 -11 -48 -30
-84 -41 -36 -12 -78 -32 -94 -45 -15 -13 -51 -31 -80 -40 -29 -9 -71 -30 -93
-45 -22 -15 -69 -40 -105 -54 -35 -14 -73 -35 -84 -45 -12 -10 -43 -27 -70
-37 -28 -10 -71 -33 -98 -51 -26 -18 -50 -33 -54 -33 -12 0 -80 -34 -104 -53
-14 -10 -52 -32 -85 -48 -62 -30 -177 -98 -230 -135 -17 -11 -50 -30 -75 -41
-25 -12 -62 -35 -83 -52 -21 -16 -48 -33 -60 -37 -12 -3 -47 -23 -78 -44 -31
-21 -74 -47 -97 -59 -23 -12 -42 -28 -42 -36 0 -23 51 -18 91 9 19 13 110 62
201 109 92 48 175 90 185 96 10 5 77 37 148 71 72 34 166 79 210 100 44 21
132 62 195 90 158 71 169 76 215 103 39 22 98 46 198 80 26 9 47 14 47 12 0
-2 -12 -17 -27 -34 -16 -16 -38 -41 -51 -56 -13 -14 -65 -53 -115 -87 -113
-74 -141 -96 -287 -221 -63 -54 -144 -123 -180 -154 -98 -84 -259 -233 -405
-374 -71 -70 -152 -146 -180 -170 -58 -51 -570 -563 -664 -665 -36 -38 -149
-157 -251 -264 -225 -235 -267 -281 -392 -430 -53 -63 -124 -144 -158 -180
-65 -68 -159 -180 -200 -240 -33 -47 -208 -270 -271 -345 -27 -33 -75 -96
-106 -140 -31 -44 -82 -111 -113 -150 -31 -38 -101 -136 -154 -217 -54 -81
-103 -154 -111 -161 -17 -18 -129 -190 -185 -287 -24 -41 -51 -84 -61 -95 -21
-25 -48 -70 -95 -160 -20 -38 -44 -81 -54 -95 -14 -20 -110 -200 -178 -335
-29 -58 -32 -65 -32 -74 0 -5 -18 -40 -40 -77 -22 -38 -45 -87 -51 -109 -6
-22 -22 -65 -36 -95 -14 -30 -33 -73 -43 -95 -17 -36 -58 -160 -140 -425 -17
-52 -50 -156 -75 -231 -38 -117 -64 -205 -104 -355 -5 -18 -16 -46 -25 -64 -9
-18 -16 -44 -16 -57 0 -12 -4 -23 -9 -23 -4 0 -11 -17 -13 -37 -3 -21 -19 -74
-36 -118 -37 -97 -88 -252 -106 -320 -7 -27 -32 -99 -56 -160 -23 -60 -46
-128 -51 -150 -9 -40 -21 -75 -53 -150 -9 -22 -21 -49 -25 -60 -13 -29 -26
-68 -61 -185 -30 -101 -43 -136 -60 -171 -5 -9 -12 -33 -15 -52 -4 -20 -13
-41 -21 -48 -8 -6 -14 -19 -14 -29 0 -15 -17 -59 -41 -102 -5 -10 -9 -26 -9
-35 0 -10 -7 -31 -15 -47 -8 -15 -15 -36 -15 -45 0 -9 -4 -21 -8 -26 -9 -10
-23 -56 -42 -132 -6 -23 -17 -49 -26 -57 -8 -8 -15 -19 -15 -23 1 -19 -33
-124 -40 -129 -5 -3 -9 -14 -9 -25 0 -10 -4 -19 -10 -19 -5 0 -10 -8 -10 -17
0 -10 -7 -31 -15 -47 -15 -27 -36 -98 -56 -183 -6 -23 -17 -47 -25 -54 -8 -6
-14 -20 -14 -30 0 -21 -20 -69 -29 -69 -3 0 -7 -19 -8 -42 -1 -25 -8 -47 -17
-54 -9 -6 -19 -26 -22 -45 -4 -19 -17 -48 -30 -66 -13 -17 -24 -44 -24 -60 -1
-15 -7 -39 -15 -53 -8 -14 -14 -35 -15 -48 0 -12 -8 -26 -18 -29 -28 -11 -41
-35 -42 -75 0 -21 -5 -38 -11 -38 -6 0 -9 -6 -6 -14 15 -39 -52 -216 -82 -216
-10 0 -12 -9 -8 -35 4 -26 2 -35 -9 -35 -7 0 -13 -8 -12 -17 5 -36 -14 -103
-28 -103 -10 0 -14 -13 -14 -45 0 -38 -3 -45 -20 -45 -17 0 -20 -7 -20 -40 0
-22 -4 -40 -8 -40 -13 0 -32 -47 -32 -79 0 -16 -6 -34 -14 -40 -8 -7 -17 -30
-21 -52 -4 -24 -12 -39 -21 -39 -8 0 -14 -10 -14 -25 0 -14 -4 -25 -10 -25 -5
0 -10 -18 -10 -40 0 -22 -4 -40 -10 -40 -5 0 -10 -9 -10 -20 0 -11 -4 -20 -9
-20 -5 0 -12 -20 -15 -45 -4 -25 -12 -45 -17 -45 -20 0 -36 -26 -43 -70 -16
-110 -19 -120 -32 -120 -8 0 -14 -4 -14 -10 0 -5 -7 -10 -16 -10 -20 0 -44
-24 -44 -44 0 -9 -4 -16 -10 -16 -5 0 -10 -16 -10 -35 0 -28 -4 -35 -20 -35
-18 0 -20 -7 -20 -75 0 -47 -4 -75 -11 -75 -29 0 -42 -31 -35 -86 l6 -54 -35
0 c-31 0 -35 -3 -35 -25 0 -14 -4 -25 -10 -25 -5 0 -10 -9 -10 -20 0 -13 -7
-20 -20 -20 -11 0 -20 -4 -20 -10 0 -6 -70 -10 -190 -10 -120 0 -190 4 -190
10 0 6 -7 10 -15 10 -13 0 -15 22 -15 140 0 118 2 140 15 140 10 0 15 10 15
30 0 20 -5 30 -15 30 -12 0 -15 16 -15 81 0 86 -10 109 -50 109 -32 0 -50 24
-50 67 0 27 6 43 20 53 11 8 20 22 20 32 0 11 7 18 20 18 13 0 20 7 20 20 0
13 -7 20 -20 20 -16 0 -20 7 -20 35 0 19 -4 35 -10 35 -5 0 -10 9 -10 20 0 11
5 20 10 20 6 0 10 35 10 85 0 78 2 85 20 85 13 0 20 7 20 20 0 11 -5 20 -12
20 -12 0 -7 91 13 270 5 47 12 133 15 193 5 83 9 107 20 107 10 0 14 11 13 38
0 20 4 60 11 87 6 28 9 62 6 78 -3 15 -2 27 3 27 4 0 11 48 14 107 3 59 11
109 17 113 6 4 8 14 4 23 -4 12 -1 17 10 17 19 0 35 52 18 58 -16 5 -15 22 1
22 8 0 14 6 14 13 3 96 14 201 23 218 7 11 10 30 7 40 -5 20 5 57 35 127 12
27 22 86 28 160 10 130 18 180 31 188 5 3 9 17 9 31 0 13 7 37 14 51 8 15 24
68 36 117 21 90 40 169 58 235 5 20 14 45 20 57 7 12 12 40 12 63 0 43 37 173
52 178 4 2 8 12 8 23 0 17 10 56 57 214 8 28 19 64 23 80 5 17 16 50 25 74 8
24 18 64 22 90 3 25 9 51 13 56 4 6 17 44 30 85 13 41 26 80 30 85 4 6 15 35
25 65 10 30 26 73 36 95 10 22 30 76 43 121 13 44 33 98 44 120 10 21 29 66
40 99 11 33 34 89 50 125 16 36 35 88 42 115 7 28 25 75 40 105 15 30 33 72
40 94 7 21 29 73 50 115 21 42 41 87 45 100 4 14 34 80 66 148 33 68 59 125
59 128 0 3 11 22 23 43 13 20 31 60 41 87 9 28 25 63 36 80 18 27 119 226 154
305 17 37 19 40 103 182 29 49 53 93 53 99 0 5 11 26 23 47 13 20 39 64 57 97
18 33 73 123 121 200 48 77 105 167 125 200 21 33 55 85 76 115 21 30 76 113
123 183 47 70 94 137 105 149 11 12 45 57 77 101 32 44 75 100 96 126 20 25
37 49 37 54 0 5 14 20 30 34 35 29 67 83 49 83 -6 0 -25 -16 -42 -35 -84 -92
-121 -135 -128 -148 -5 -8 -25 -32 -46 -54 -52 -55 -124 -147 -211 -266 -13
-18 -36 -48 -52 -67 -55 -65 -99 -125 -127 -170 -15 -25 -38 -56 -51 -70 -13
-14 -30 -38 -39 -55 -8 -16 -28 -43 -43 -60 -15 -16 -36 -46 -46 -65 -11 -19
-31 -51 -45 -70 -15 -19 -37 -53 -49 -75 -12 -22 -32 -51 -45 -65 -12 -14 -33
-45 -45 -69 -12 -24 -31 -53 -42 -65 -10 -12 -33 -47 -50 -78 -17 -32 -34 -58
-38 -58 -4 0 -19 -26 -35 -57 -15 -32 -41 -74 -56 -93 -15 -19 -36 -53 -45
-75 -9 -22 -29 -56 -45 -77 -16 -20 -36 -55 -44 -78 -8 -23 -28 -57 -45 -76
-16 -19 -34 -52 -40 -73 -6 -22 -21 -53 -34 -68 -27 -33 -51 -78 -59 -113 -4
-14 -22 -46 -41 -70 -19 -25 -40 -65 -46 -90 -7 -25 -22 -58 -34 -75 -32 -42
-56 -91 -56 -112 0 -11 -20 -50 -45 -87 -26 -40 -45 -81 -45 -96 0 -16 -16
-51 -36 -81 -20 -29 -43 -76 -51 -106 -7 -29 -27 -74 -44 -101 -16 -27 -37
-76 -46 -108 -8 -32 -30 -84 -49 -114 -18 -30 -36 -75 -40 -100 -3 -25 -22
-72 -41 -105 -20 -34 -41 -90 -50 -130 -8 -40 -27 -90 -44 -116 -19 -31 -34
-73 -43 -120 -7 -41 -21 -89 -32 -108 -46 -81 -53 -98 -54 -129 0 -53 -21
-123 -51 -172 -20 -32 -32 -72 -43 -138 -10 -63 -25 -113 -46 -153 -22 -42
-34 -83 -41 -142 -11 -94 -22 -134 -55 -197 -16 -31 -27 -76 -34 -143 -12
-120 -17 -140 -45 -197 -29 -57 -45 -134 -45 -213 -1 -77 -12 -131 -50 -227
-25 -64 -30 -97 -39 -232 -9 -136 -15 -172 -46 -265 -27 -83 -35 -123 -35
-180 0 -174 -22 -378 -53 -503 l-32 -125 -1 -1190 c-1 -654 -4 -1313 -8 -1463
-6 -277 1 -360 43 -562 11 -49 17 -127 26 -290 10 -185 16 -243 40 -365 39
-198 45 -235 56 -360 5 -69 24 -180 44 -260 19 -77 39 -192 45 -255 7 -74 21
-147 40 -205 30 -92 43 -161 55 -275 4 -35 22 -110 40 -166 19 -56 39 -141 45
-190 11 -96 17 -122 48 -200 11 -27 28 -99 37 -159 10 -61 32 -147 50 -195 18
-47 38 -123 45 -170 7 -47 27 -121 45 -165 18 -44 38 -116 45 -160 7 -44 25
-107 40 -140 36 -79 39 -87 49 -161 5 -34 25 -98 44 -141 19 -43 40 -109 46
-148 7 -38 25 -98 41 -131 16 -34 38 -100 48 -147 11 -47 32 -107 47 -134 14
-26 35 -88 46 -136 10 -49 28 -101 39 -117 23 -33 50 -103 50 -132 0 -11 18
-58 39 -104 22 -46 45 -109 51 -141 7 -32 26 -81 42 -109 16 -29 36 -81 45
-115 9 -35 25 -80 36 -99 39 -67 48 -90 54 -127 3 -21 23 -70 44 -108 21 -39
43 -92 49 -119 6 -27 26 -74 44 -105 19 -31 39 -79 46 -108 6 -28 27 -75 46
-104 19 -29 34 -60 34 -68 0 -26 24 -85 51 -126 15 -22 36 -71 47 -108 11 -37
32 -83 45 -101 14 -17 32 -56 41 -86 9 -29 29 -74 46 -100 16 -26 39 -72 50
-104 11 -32 30 -71 44 -87 13 -16 32 -54 41 -85 9 -31 31 -78 49 -104 18 -27
38 -68 44 -93 7 -25 27 -63 46 -85 18 -22 38 -60 44 -85 6 -24 25 -60 41 -80
16 -20 36 -60 45 -88 10 -29 31 -68 47 -89 16 -20 34 -53 40 -73 5 -19 25 -58
44 -86 19 -28 44 -74 55 -102 10 -29 30 -64 43 -78 13 -14 32 -46 41 -70 10
-25 31 -62 47 -83 17 -21 35 -54 40 -73 5 -19 26 -56 46 -82 19 -25 40 -61 44
-79 5 -17 23 -49 40 -70 17 -22 41 -61 54 -89 12 -27 33 -63 47 -80 14 -16 34
-51 46 -77 11 -26 30 -58 42 -70 12 -13 32 -45 44 -73 13 -27 30 -56 40 -64 9
-8 31 -42 47 -75 17 -34 41 -72 53 -86 13 -14 29 -40 36 -59 7 -18 28 -50 45
-71 17 -21 38 -53 45 -71 8 -19 28 -51 47 -71 18 -21 39 -54 48 -74 8 -20 28
-52 45 -71 17 -18 36 -48 44 -66 7 -18 24 -43 38 -57 14 -14 37 -47 51 -75 14
-27 36 -61 50 -73 14 -13 31 -38 38 -55 7 -18 30 -52 51 -76 21 -24 38 -49 38
-56 0 -6 15 -29 34 -51 18 -21 42 -57 54 -79 11 -22 32 -51 47 -65 15 -14 33
-41 41 -60 8 -19 30 -51 48 -70 19 -19 37 -44 40 -55 3 -12 22 -37 40 -57 19
-20 42 -50 51 -67 8 -17 26 -41 39 -54 13 -13 36 -43 51 -67 15 -24 36 -53 47
-64 11 -12 32 -39 46 -61 13 -22 39 -57 56 -77 83 -100 172 -215 194 -252 9
-16 38 -53 65 -83 26 -29 47 -57 47 -63 0 -5 13 -22 30 -37 16 -15 39 -42 52
-60 13 -17 42 -55 66 -85 23 -29 59 -75 80 -101 45 -59 119 -148 166 -202 55
-63 127 -147 181 -215 61 -75 53 -65 147 -175 187 -216 290 -332 388 -435 49
-51 85 -90 205 -225 191 -213 314 -342 681 -709 293 -293 612 -602 724 -700
112 -98 170 -150 214 -191 38 -36 157 -146 285 -262 75 -69 256 -225 317 -273
32 -25 74 -61 93 -80 20 -19 51 -46 69 -59 19 -13 44 -33 57 -45 22 -20 79
-70 175 -154 25 -21 66 -53 93 -71 26 -17 47 -35 47 -39 0 -4 15 -16 33 -26
17 -11 55 -39 82 -63 28 -24 68 -59 90 -78 22 -19 60 -52 85 -73 25 -22 65
-52 90 -67 25 -16 52 -36 60 -45 8 -9 34 -29 57 -43 23 -15 50 -35 60 -45 10
-10 39 -33 66 -51 26 -18 47 -36 47 -41 0 -5 21 -24 48 -41 26 -18 54 -40 62
-49 8 -10 34 -27 58 -39 24 -12 59 -37 80 -56 20 -19 41 -35 47 -35 6 0 32
-19 57 -43 44 -41 65 -56 156 -114 24 -16 66 -47 93 -70 27 -24 55 -43 62 -43
8 0 26 -14 43 -31 16 -17 52 -44 80 -60 28 -16 61 -40 74 -54 13 -14 32 -25
43 -25 10 0 38 -19 62 -42 50 -50 142 -116 200 -146 22 -11 49 -30 60 -42 11
-12 41 -33 66 -45 25 -13 51 -31 59 -40 8 -9 39 -29 69 -45 31 -15 65 -38 76
-50 11 -12 38 -31 59 -42 21 -11 48 -29 60 -40 12 -11 41 -30 66 -42 25 -11
59 -31 77 -43 41 -30 66 -29 83 2 12 22 11 27 -6 40 -10 8 -27 15 -37 15 -20
0 -47 23 -47 39 0 6 -4 11 -8 11 -4 0 -16 14 -26 31 -10 16 -29 34 -42 39 -25
10 -44 45 -44 81 0 18 2 18 24 7 33 -18 138 -119 210 -201 32 -38 80 -82 105
-100 25 -17 58 -44 75 -59 16 -15 33 -28 38 -28 5 0 28 -18 53 -41 24 -22 67
-57 94 -77 80 -59 166 -125 171 -132 3 -4 46 -37 95 -75 50 -38 122 -94 160
-124 39 -31 81 -64 95 -73 46 -32 84 -67 79 -73 -9 -8 -127 60 -347 201 -51
32 -107 68 -125 78 -18 11 -50 34 -72 51 -22 18 -59 42 -83 54 -23 12 -54 31
-67 43 -13 11 -56 38 -94 59 l-69 39 -24 -25 c-12 -14 -61 -65 -108 -113 -86
-88 -195 -215 -305 -358 -33 -42 -74 -93 -91 -113 -17 -20 -43 -54 -58 -76
-14 -22 -51 -74 -81 -115 -29 -41 -66 -95 -81 -120 -15 -25 -35 -54 -45 -65
-9 -11 -30 -44 -45 -73 -16 -29 -37 -62 -47 -73 -10 -10 -28 -41 -41 -69 -12
-27 -35 -65 -49 -84 -15 -19 -36 -56 -47 -81 -11 -25 -30 -60 -43 -78 -13 -18
-34 -58 -46 -89 -13 -31 -33 -71 -47 -89 -13 -18 -31 -55 -40 -83 -9 -28 -29
-72 -45 -97 -16 -25 -36 -70 -45 -98 -8 -29 -28 -74 -44 -99 -16 -26 -36 -76
-45 -112 -9 -36 -29 -87 -45 -115 -15 -27 -33 -75 -40 -105 -7 -30 -28 -93
-47 -138 -19 -46 -41 -117 -48 -157 -8 -40 -28 -106 -44 -148 -17 -42 -37
-120 -46 -174 -9 -54 -27 -134 -41 -177 -14 -44 -30 -114 -35 -155 -6 -42 -30
-186 -52 -321 l-42 -245 0 -660 c0 -702 -2 -657 50 -950 9 -49 24 -153 35
-230 10 -77 30 -175 44 -218 14 -43 30 -113 37 -155 11 -72 26 -128 63 -229 9
-23 23 -77 31 -120 9 -43 29 -106 45 -141 16 -34 37 -93 46 -130 9 -37 29 -92
44 -123 16 -30 36 -82 45 -115 9 -32 28 -78 41 -101 13 -22 36 -74 50 -115 14
-40 33 -80 41 -90 8 -9 27 -47 42 -85 16 -37 42 -90 60 -117 17 -28 31 -57 31
-66 0 -9 17 -44 39 -77 21 -33 42 -69 45 -81 4 -11 25 -49 48 -84 22 -34 49
-81 59 -103 10 -22 33 -61 51 -86 18 -26 41 -59 51 -75 85 -139 212 -318 347
-490 25 -31 58 -75 75 -98 16 -22 43 -57 61 -76 17 -19 68 -78 114 -130 147
-167 514 -529 655 -645 26 -22 67 -56 89 -76 23 -20 61 -50 86 -68 50 -36 122
-91 161 -126 26 -23 101 -75 192 -132 27 -18 59 -41 71 -51 12 -11 37 -28 56
-37 19 -10 53 -31 75 -47 50 -37 134 -88 205 -126 30 -17 79 -46 109 -66 29
-20 58 -36 65 -36 7 0 34 -14 62 -32 27 -17 76 -42 108 -55 33 -14 75 -35 95
-49 19 -13 58 -31 86 -40 27 -9 55 -20 60 -24 6 -5 47 -26 91 -49 129 -64 147
-96 164 -286 18 -203 48 -371 79 -441 23 -51 40 -60 140 -73 54 -7 87 -18 124
-41 48 -30 66 -35 204 -60 34 -6 94 -24 133 -41 38 -16 104 -34 145 -39 96
-12 113 -16 215 -50 49 -16 130 -33 190 -40 110 -12 220 -30 331 -54 151 -34
274 -37 1149 -34 l865 3 180 37 c99 20 236 41 303 48 78 7 158 22 215 39 51
16 133 34 182 41 122 16 178 29 244 55 49 20 105 32 237 51 18 2 62 21 99 40
57 30 84 38 178 48 103 12 112 15 137 43 20 22 31 50 39 99 7 38 21 116 31
174 10 58 24 166 29 240 27 332 31 356 70 412 36 51 78 82 231 168 96 54 179
105 230 140 25 17 67 45 94 63 142 94 203 136 295 207 32 25 91 70 131 100
288 218 829 748 1025 1006 22 29 67 87 100 130 129 167 194 259 310 439 17 25
44 67 62 93 18 26 46 73 62 106 17 32 36 65 43 73 18 21 91 153 133 241 19 40
44 85 55 100 11 15 28 50 38 77 10 28 29 70 44 95 15 25 34 70 44 100 10 30
30 75 46 100 15 25 34 72 43 104 8 33 28 86 45 118 17 31 37 86 45 122 8 35
28 93 45 127 16 34 34 88 40 118 13 66 40 162 50 176 14 20 30 80 46 169 8 50
28 134 44 186 16 52 36 149 44 215 8 66 24 166 35 223 48 240 51 297 51 965 0
667 -2 709 -50 967 -15 85 -33 199 -40 254 -6 54 -25 142 -41 195 -16 53 -36
136 -45 186 -8 49 -28 123 -44 165 -16 41 -36 110 -45 153 -8 43 -28 104 -44
135 -16 31 -34 84 -41 117 -7 33 -28 90 -46 126 -18 37 -40 95 -49 129 -9 35
-27 79 -41 99 -13 19 -34 65 -45 100 -12 36 -34 84 -48 107 -15 23 -33 61 -41
85 -8 24 -26 62 -41 85 -15 22 -39 69 -53 104 -14 35 -35 73 -45 84 -11 12
-29 42 -40 68 -11 25 -36 70 -55 98 -20 29 -36 56 -36 62 0 5 -19 38 -42 73
-24 35 -56 85 -73 111 -93 148 -243 361 -298 424 -18 20 -57 70 -87 110 -30
40 -103 128 -162 195 -126 143 -174 175 -235 153 -19 -7 -58 -34 -86 -60 -27
-27 -58 -48 -67 -48 -9 0 -41 -17 -71 -39 -30 -21 -74 -48 -99 -61 -25 -12
-54 -30 -65 -40 -24 -21 -128 -80 -205 -116 -30 -14 -70 -38 -90 -53 -19 -16
-56 -38 -81 -50 -26 -11 -60 -31 -75 -44 -16 -13 -49 -31 -74 -41 -25 -9 -63
-30 -85 -45 -22 -15 -62 -36 -90 -46 -27 -10 -62 -29 -76 -42 -14 -13 -50 -33
-80 -44 -30 -11 -65 -31 -79 -44 -14 -12 -51 -32 -84 -44 -32 -12 -77 -34
-100 -49 -22 -16 -56 -34 -74 -42 -18 -7 -50 -25 -71 -40 -55 -40 -96 -60
-125 -60 -59 0 -37 41 50 90 29 16 68 42 86 58 18 16 49 37 68 47 19 10 37 21
40 24 3 3 33 24 68 46 35 22 86 58 115 80 58 44 98 73 220 157 45 31 123 93
174 138 51 44 113 93 139 110 26 16 62 43 80 60 18 16 37 30 41 30 5 0 46 36
93 80 47 44 100 90 118 103 17 12 35 30 38 39 3 10 20 28 37 40 18 12 38 28
45 35 33 32 80 63 96 63 9 0 21 11 26 24 8 21 58 66 74 66 3 0 6 -10 6 -23 0
-25 -26 -67 -42 -67 -5 0 -30 -22 -55 -50 -25 -27 -51 -50 -58 -50 -8 0 -15
-10 -17 -22 -2 -14 -18 -29 -45 -42 -24 -12 -43 -29 -45 -41 -2 -11 -12 -24
-23 -30 -35 -18 -109 -72 -130 -94 -15 -17 -16 -24 -6 -30 7 -5 12 -11 12 -15
-2 -15 0 -16 22 -4 12 6 46 15 75 19 53 7 92 30 92 54 0 11 41 27 100 39 18 4
30 16 39 41 11 30 17 35 44 35 34 0 73 21 95 52 7 10 22 18 32 18 10 0 22 4
25 10 3 6 22 10 41 10 19 0 34 5 34 10 0 6 7 10 15 10 8 0 15 4 15 8 0 17 84
52 148 62 44 7 81 20 106 38 21 15 54 36 72 48 19 11 47 32 62 46 15 14 48 35
73 45 25 11 57 32 71 46 14 14 43 34 64 45 22 11 50 31 62 45 13 14 38 31 55
38 18 7 55 29 84 51 29 21 57 38 63 38 6 0 30 18 54 40 24 22 58 46 77 54 35
15 129 83 189 137 33 29 69 54 179 122 25 16 60 41 76 57 17 15 46 35 65 45
19 9 46 29 60 44 14 14 37 32 53 39 35 15 144 99 192 146 20 20 41 36 48 36 8
0 26 14 42 30 16 17 52 43 80 59 27 16 62 41 77 55 15 14 31 26 35 26 4 0 32
21 60 48 84 75 133 116 168 137 39 24 106 76 226 175 50 41 102 82 116 91 14
10 40 33 59 53 19 20 38 36 43 36 6 0 36 23 67 50 31 28 61 50 66 50 4 0 54
41 111 90 201 178 265 233 366 315 132 107 447 386 491 435 24 26 80 77 213
194 33 28 78 69 101 91 23 22 53 49 67 59 13 11 149 140 301 288 377 364 863
860 1013 1034 59 67 134 150 225 246 25 26 68 73 95 103 28 31 68 75 90 99 22
24 59 65 82 92 22 27 74 87 115 134 40 47 93 110 118 140 96 117 180 216 293
345 24 28 52 65 63 83 10 17 21 32 24 32 4 0 22 21 40 48 18 26 52 68 74 94
23 26 58 69 79 95 21 26 56 70 78 97 23 27 52 66 65 85 27 40 75 104 129 171
59 73 126 163 180 239 28 40 69 94 93 122 23 27 42 54 42 59 0 5 11 20 25 34
14 14 41 51 59 83 19 32 46 69 60 82 14 14 26 30 26 37 0 7 18 34 40 59 22 26
48 61 57 78 9 18 31 50 49 71 19 22 34 46 34 53 0 7 17 32 38 56 21 23 44 56
51 74 7 17 24 42 38 55 14 12 36 46 50 73 14 28 41 67 59 88 19 20 34 43 34
50 0 7 16 32 35 55 20 22 43 58 51 79 9 21 29 53 45 71 16 18 38 52 50 75 12
23 32 53 45 67 12 14 30 42 39 62 8 21 33 62 55 90 22 29 40 60 40 68 0 9 18
37 39 63 22 26 42 60 46 76 3 16 20 44 37 61 16 18 39 53 50 78 12 26 33 63
48 82 14 19 38 60 53 90 14 30 38 68 52 84 14 16 29 44 34 63 5 18 23 50 40
71 16 21 39 63 51 94 11 30 31 65 44 77 13 12 32 44 42 69 9 26 30 63 46 82
15 20 35 58 44 85 10 28 30 65 46 83 15 18 34 54 41 78 6 25 26 62 43 83 18
20 38 57 44 81 7 25 26 62 41 82 31 39 44 67 53 109 3 14 21 45 39 70 19 24
41 67 49 95 8 28 29 69 46 90 17 22 37 62 43 89 7 28 26 67 42 88 16 22 37 64
47 95 9 32 33 80 52 108 19 29 38 69 41 90 4 22 22 62 40 89 19 28 39 73 46
100 7 28 27 73 45 100 18 28 38 73 45 100 8 28 28 75 47 106 19 31 39 79 45
107 6 28 24 69 40 91 16 23 34 62 40 88 6 27 28 84 50 128 22 44 44 103 50
130 5 28 21 67 34 87 13 20 34 67 45 105 11 37 36 100 55 139 19 39 40 95 45
125 6 29 20 72 32 94 46 87 51 99 56 142 2 24 22 78 43 119 22 43 41 97 45
127 3 29 23 88 44 132 21 44 44 109 50 145 6 36 25 90 41 120 19 35 36 88 45
144 9 51 27 112 44 145 28 54 35 80 60 203 6 31 23 81 37 110 14 29 32 89 39
133 17 95 20 104 52 174 13 30 31 98 39 150 8 53 27 130 43 171 29 75 40 117
60 244 6 38 22 96 36 130 14 34 29 93 35 131 22 149 32 199 59 273 15 43 30
112 34 157 10 104 32 215 58 279 12 31 27 115 38 211 11 93 30 196 45 245 17
59 30 137 41 255 9 106 26 215 44 290 28 114 35 168 60 490 7 77 23 205 37
285 20 118 27 197 33 418 18 618 11 2438 -10 2662 -5 52 -23 149 -39 215 -32
125 -51 306 -51 470 0 79 -5 105 -36 196 -33 93 -38 121 -46 259 -9 139 -14
164 -44 242 -27 70 -35 109 -43 210 -12 134 -16 155 -55 240 -18 42 -28 87
-36 165 -8 87 -16 121 -44 182 -25 54 -38 102 -46 166 -8 66 -20 109 -45 160
-24 49 -37 96 -45 155 -7 52 -19 94 -31 111 -32 45 -49 95 -58 170 -7 50 -18
83 -40 117 -17 26 -35 72 -42 102 -19 95 -31 140 -38 140 -16 0 -45 68 -57
134 -9 43 -26 90 -45 121 -17 27 -37 77 -44 111 -7 36 -26 81 -43 107 -17 24
-36 66 -42 93 -12 50 -42 116 -66 144 -7 9 -18 38 -24 65 -6 28 -28 79 -49
115 -21 36 -44 86 -51 111 -6 25 -24 61 -39 78 -16 18 -36 59 -44 91 -9 32
-28 72 -42 88 -14 17 -33 53 -42 79 -9 26 -30 68 -48 93 -18 25 -38 63 -45 85
-7 22 -26 57 -42 78 -17 22 -38 60 -48 87 -10 27 -31 65 -48 87 -16 21 -35 55
-42 76 -6 21 -23 51 -37 67 -13 16 -37 56 -53 88 -15 32 -35 64 -45 72 -9 8
-28 39 -42 70 -13 30 -35 66 -48 80 -13 14 -31 42 -39 62 -9 21 -29 52 -45 70
-16 18 -35 49 -44 69 -8 20 -31 54 -50 75 -19 22 -37 49 -41 61 -4 12 -22 39
-41 60 -19 21 -40 52 -46 68 -7 17 -29 49 -48 71 -20 23 -48 61 -63 85 -15 24
-48 71 -73 104 -24 33 -60 83 -79 110 -19 28 -42 57 -51 65 -9 8 -32 37 -51
65 -18 27 -56 77 -84 110 -27 33 -64 80 -82 105 -17 25 -67 86 -109 135 -43
50 -94 108 -113 130 -19 22 -56 65 -83 96 -26 30 -73 84 -103 120 -125 146
-267 296 -480 509 -278 278 -369 362 -705 655 -27 24 -93 81 -145 127 -80 70
-161 138 -205 170 -71 53 -240 186 -284 224 -20 17 -61 48 -91 69 -30 21 -61
45 -68 52 -8 7 -28 21 -45 30 -18 8 -51 32 -74 52 -63 54 -136 107 -179 129
-22 11 -48 30 -59 42 -11 12 -33 29 -50 37 -16 9 -48 30 -70 48 -22 18 -58 42
-80 53 -22 11 -49 29 -61 40 -11 11 -36 28 -55 37 -19 10 -45 28 -59 41 -14
13 -53 37 -86 53 -33 16 -66 36 -74 46 -7 9 -37 28 -64 42 -28 14 -64 36 -81
48 -16 13 -53 34 -81 48 -27 14 -57 33 -65 43 -8 9 -40 30 -72 45 -32 15 -66
34 -76 43 -10 9 -49 32 -87 52 -149 77 -200 106 -234 129 -19 13 -57 33 -85
45 -27 12 -61 32 -75 44 -14 13 -52 33 -85 45 -33 13 -69 31 -81 42 -11 10
-48 30 -82 43 -33 13 -76 35 -94 49 -18 14 -59 34 -90 45 -31 11 -72 32 -91
46 -19 14 -58 34 -88 45 -30 10 -72 30 -93 45 -21 14 -62 33 -90 41 -28 8 -66
26 -86 39 -19 12 -64 33 -100 46 -36 13 -83 34 -104 48 -22 13 -71 35 -110 48
-39 14 -87 35 -107 49 -20 13 -66 31 -100 40 -35 9 -83 29 -107 45 -23 15 -66
34 -95 40 -29 7 -82 28 -118 46 -36 19 -92 41 -125 50 -32 8 -79 27 -103 41
-24 14 -78 34 -120 45 -41 10 -98 31 -126 47 -28 16 -77 34 -110 41 -33 8 -90
28 -126 46 -36 18 -100 40 -141 48 -42 9 -105 29 -140 45 -35 17 -95 36 -134
45 -39 8 -101 28 -137 44 -37 17 -106 38 -154 47 -47 9 -109 28 -136 42 -28
14 -96 33 -151 43 -56 11 -131 32 -168 49 -42 19 -103 36 -160 45 -51 8 -121
25 -155 39 -62 25 -106 36 -236 57 -38 6 -101 24 -141 40 -47 18 -115 34 -192
44 -66 9 -150 28 -189 42 -41 15 -127 34 -205 44 -74 10 -170 30 -213 44 -81
27 -148 39 -313 55 -55 6 -130 20 -165 31 -85 28 -211 50 -279 50 -87 0 -283
28 -352 51 -42 14 -112 24 -208 30 -80 5 -176 16 -215 25 -38 8 -117 21 -174
29 -57 8 -118 19 -135 24 -17 5 -119 12 -226 16 -107 3 -250 10 -318 15 -114
8 -129 11 -200 47 l-77 38 -1505 1 c-828 1 -1554 -2 -1615 -5z m-2150 -2041
c138 -16 286 -73 341 -132 43 -45 54 -86 54 -192 0 -102 -13 -159 -58 -261
-17 -38 -34 -88 -38 -109 -4 -22 -26 -80 -50 -130 -23 -50 -50 -113 -59 -141
-9 -27 -25 -63 -35 -80 -10 -16 -26 -59 -35 -94 -9 -36 -27 -85 -39 -110 -13
-25 -29 -64 -36 -86 -7 -22 -30 -76 -51 -120 -21 -44 -43 -100 -49 -125 -7
-25 -22 -65 -35 -90 -13 -25 -43 -92 -66 -150 -23 -58 -59 -150 -81 -205 -22
-55 -53 -135 -69 -178 -15 -42 -46 -117 -68 -165 -22 -48 -43 -100 -47 -117
-4 -16 -25 -68 -47 -115 -21 -47 -46 -107 -54 -134 -8 -26 -28 -74 -44 -106
-16 -32 -29 -66 -29 -75 0 -20 -108 -292 -145 -365 -13 -26 -29 -69 -36 -96
-6 -27 -19 -62 -28 -79 -9 -16 -29 -64 -45 -105 -16 -41 -44 -113 -62 -160
-19 -47 -45 -116 -58 -155 -39 -116 -70 -194 -120 -308 -25 -59 -49 -122 -53
-140 -3 -17 -26 -81 -50 -141 -23 -61 -43 -113 -43 -118 0 -4 -16 -43 -36 -85
-20 -43 -44 -105 -54 -138 -24 -80 -95 -265 -129 -340 -16 -33 -33 -86 -40
-119 -6 -32 -18 -73 -27 -90 -9 -17 -31 -74 -49 -126 -19 -52 -47 -126 -63
-165 -15 -38 -46 -122 -67 -185 -21 -63 -61 -171 -88 -240 -27 -69 -56 -145
-63 -170 -7 -25 -25 -76 -40 -115 -15 -38 -42 -115 -61 -170 -19 -54 -37 -104
-41 -110 -4 -5 -16 -37 -26 -70 -10 -33 -29 -91 -43 -130 -13 -38 -42 -124
-64 -190 -22 -66 -46 -133 -53 -150 -8 -16 -20 -50 -26 -75 -7 -25 -25 -79
-40 -120 -16 -41 -43 -120 -60 -175 -17 -55 -35 -109 -40 -120 -5 -11 -21 -63
-35 -115 -15 -52 -33 -110 -42 -130 -8 -19 -22 -57 -30 -85 -8 -27 -18 -54
-23 -60 -10 -13 -85 -256 -101 -325 -7 -30 -16 -62 -20 -70 -16 -32 -47 -118
-73 -205 -16 -49 -37 -114 -48 -142 -11 -29 -21 -58 -22 -65 -9 -52 -20 -90
-36 -133 -11 -27 -31 -93 -45 -145 -23 -83 -47 -156 -75 -225 -5 -11 -18 -63
-30 -115 -12 -52 -25 -99 -29 -105 -7 -10 -19 -47 -40 -120 -15 -54 -65 -207
-89 -275 -11 -30 -28 -95 -38 -144 -9 -49 -23 -101 -30 -115 -8 -14 -14 -37
-14 -50 0 -27 -51 -183 -82 -251 -11 -24 -26 -83 -33 -130 -8 -47 -18 -98 -24
-115 -22 -67 -43 -120 -51 -130 -4 -5 -11 -26 -14 -45 -15 -75 -26 -137 -32
-175 -3 -22 -12 -47 -19 -55 -18 -21 -55 -143 -55 -180 0 -16 -4 -30 -10 -30
-5 0 -10 -14 -10 -30 0 -17 -9 -48 -20 -69 -10 -21 -16 -41 -13 -45 3 -3 -1
-23 -9 -43 -22 -53 -46 -139 -54 -195 -3 -26 -12 -49 -20 -52 -8 -3 -14 -18
-14 -33 -1 -15 -7 -55 -15 -87 -8 -33 -12 -63 -9 -68 3 -4 -2 -11 -10 -14 -9
-3 -16 -16 -16 -28 0 -22 -19 -82 -33 -103 -4 -6 -4 -18 -1 -27 3 -9 1 -16 -5
-16 -6 0 -11 -9 -11 -20 0 -11 -4 -20 -10 -20 -5 0 -10 -25 -10 -55 0 -30 -4
-55 -10 -55 -5 0 -10 -18 -10 -40 0 -22 -4 -40 -9 -40 -6 0 -13 -20 -17 -45
-3 -26 -13 -52 -20 -60 -8 -7 -14 -34 -14 -59 0 -25 -4 -46 -10 -46 -5 0 -10
-15 -10 -34 0 -19 -5 -36 -12 -38 -14 -5 -12 -221 2 -226 16 -6 12 -121 -4
-138 -9 -8 -35 -14 -65 -14 l-51 0 0 -50 c0 -27 -4 -50 -10 -50 -5 0 -10 -11
-10 -25 0 -14 -4 -25 -10 -25 -5 0 -10 -9 -10 -20 0 -11 5 -20 10 -20 6 0 10
-52 10 -135 l0 -135 75 0 c43 0 75 -4 75 -10 0 -5 18 -10 40 -10 22 0 40 -4
40 -10 0 -7 363 -10 1070 -10 707 0 1070 3 1070 10 0 6 9 10 20 10 19 0 20 7
20 105 0 63 4 105 10 105 6 0 10 52 10 135 0 83 -4 135 -10 135 -6 0 -10 35
-10 85 0 50 4 85 10 85 6 0 10 9 10 20 0 16 7 20 35 20 l35 0 0 -175 c0 -110
-4 -175 -10 -175 -5 0 -10 -7 -10 -15 0 -8 9 -15 20 -15 19 0 20 -7 20 -155 0
-85 4 -155 9 -155 4 0 11 -28 14 -61 3 -34 10 -65 15 -68 18 -11 32 -284 32
-637 1 -347 11 -648 30 -882 9 -112 20 -158 41 -172 7 -5 21 -355 35 -855 3
-126 9 -232 13 -235 11 -8 31 -106 42 -200 5 -47 14 -98 20 -115 6 -16 14
-145 19 -285 11 -300 16 -351 32 -361 7 -4 12 -25 11 -46 -1 -20 5 -49 12 -64
17 -31 23 -84 30 -249 2 -69 7 -195 11 -280 7 -178 31 -280 65 -280 13 0 20
-8 21 -22 1 -13 4 2 7 32 3 30 6 -87 6 -260 0 -237 4 -331 14 -380 15 -65 40
-108 49 -82 2 6 10 12 18 12 15 0 15 -2 -1 -245 -5 -75 18 -327 35 -386 5 -20
21 -49 35 -65 29 -34 40 -92 32 -182 -5 -60 4 -219 18 -320 5 -37 10 -43 25
-39 30 8 40 -42 40 -207 0 -236 32 -409 86 -463 8 -8 13 -75 16 -207 l4 -195
30 -48 c41 -66 53 -119 53 -242 0 -145 28 -295 73 -384 14 -27 20 -67 24 -145
5 -125 17 -192 49 -282 15 -44 25 -101 30 -170 7 -111 43 -280 75 -353 12 -28
23 -86 29 -162 6 -66 19 -151 29 -190 43 -155 50 -184 62 -275 14 -114 32
-194 60 -275 12 -33 28 -109 36 -170 9 -60 28 -162 44 -225 17 -63 38 -160 49
-215 11 -55 34 -154 51 -220 18 -66 38 -161 46 -211 8 -49 23 -121 35 -160 11
-38 36 -142 55 -232 19 -89 46 -197 60 -240 14 -42 31 -122 39 -177 8 -55 25
-135 39 -178 14 -43 30 -104 37 -135 17 -84 56 -233 69 -267 6 -16 18 -68 26
-115 7 -47 23 -116 34 -155 22 -71 30 -103 81 -305 16 -64 38 -134 48 -156 11
-23 26 -84 32 -135 7 -55 24 -124 40 -166 16 -39 40 -125 54 -190 14 -65 34
-139 45 -165 11 -26 27 -98 35 -160 8 -62 22 -140 30 -173 17 -71 17 -71 11
-345 -14 -571 -24 -728 -55 -855 -16 -66 -32 -145 -36 -175 -9 -65 -37 -153
-75 -235 -15 -33 -34 -75 -41 -93 -8 -18 -39 -61 -69 -96 -42 -48 -74 -73
-136 -105 -45 -22 -86 -41 -91 -41 -25 0 -197 82 -235 112 -49 38 -245 231
-333 328 -63 69 -75 84 -179 220 -58 76 -91 117 -173 215 -14 17 -45 59 -69
95 -24 36 -62 90 -84 120 -22 30 -59 82 -82 115 -23 33 -56 78 -75 101 -18 23
-33 44 -33 48 0 4 -35 60 -78 123 -42 64 -85 130 -95 147 -11 17 -27 40 -37
51 -10 11 -29 43 -43 71 -14 27 -33 56 -42 64 -9 8 -28 37 -42 64 -14 28 -29
53 -33 56 -7 6 -115 165 -144 213 -10 18 -27 45 -38 60 -11 16 -35 58 -54 93
-19 36 -49 87 -67 114 -59 90 -92 143 -127 206 -19 35 -42 72 -50 81 -9 10
-27 43 -42 75 -15 31 -31 59 -36 62 -6 3 -26 40 -46 81 -20 41 -48 83 -61 94
-14 10 -25 28 -25 38 0 11 -11 35 -25 54 -27 37 -95 171 -95 188 0 5 -15 22
-34 36 -23 18 -37 39 -45 69 -6 24 -18 49 -27 57 -9 7 -33 50 -54 95 -20 44
-46 87 -58 95 -11 8 -27 39 -36 69 -9 30 -27 64 -39 75 -13 11 -34 52 -47 90
-15 43 -36 82 -56 102 -18 18 -36 51 -42 75 -7 25 -24 56 -42 73 -16 16 -30
37 -30 47 0 34 -32 103 -61 130 -19 18 -34 48 -44 85 -10 38 -24 65 -40 78
-14 12 -25 27 -25 35 0 7 -9 32 -19 54 -10 23 -27 58 -36 78 -9 20 -28 44 -41
53 -17 11 -24 25 -24 49 0 18 -9 44 -19 58 -11 13 -38 64 -61 113 -22 49 -49
99 -60 110 -10 11 -26 47 -35 80 -9 37 -24 67 -39 80 -15 12 -35 51 -50 94
-14 41 -39 91 -56 112 -20 25 -33 55 -37 86 -5 35 -15 55 -40 80 -18 19 -33
40 -33 49 0 35 -42 130 -70 159 -28 29 -37 54 -39 108 -1 10 -14 30 -29 45
-25 24 -72 137 -72 174 0 16 -41 58 -57 58 -15 0 -15 0 -18 67 -2 42 -8 59
-33 87 -20 23 -40 66 -57 121 -16 50 -34 90 -45 98 -23 16 -50 86 -50 127 0
19 -10 36 -28 52 -32 27 -37 37 -62 132 -12 45 -28 79 -48 100 -22 23 -31 45
-36 83 -4 35 -18 68 -41 103 -19 29 -35 65 -35 80 0 40 -32 111 -70 153 -19
23 -33 51 -36 74 -8 66 -24 112 -43 125 -17 12 -42 83 -58 160 -3 15 -20 42
-39 60 -28 27 -35 43 -40 91 -5 39 -16 72 -36 102 -17 25 -39 80 -50 122 -11
43 -32 94 -49 118 -17 24 -35 66 -43 106 -15 74 -29 104 -49 112 -8 3 -17 18
-20 34 -18 96 -42 166 -72 212 -25 37 -36 67 -40 106 -3 37 -14 68 -34 98 -17
23 -35 65 -41 92 -22 94 -43 149 -71 187 -17 24 -30 58 -34 91 -8 56 -28 112
-49 137 -8 8 -24 56 -36 105 -11 50 -37 119 -57 155 -22 40 -39 88 -45 130 -5
36 -18 74 -28 85 -9 11 -20 31 -24 45 -3 14 -18 70 -32 125 -14 55 -35 112
-45 126 -11 15 -31 71 -45 125 -14 54 -38 126 -53 159 -15 33 -34 87 -41 120
-7 33 -32 110 -56 172 -24 61 -44 125 -44 142 0 17 -9 50 -19 74 -34 76 -54
131 -62 172 -18 92 -27 123 -53 184 -15 35 -37 107 -48 160 -11 53 -30 121
-43 151 -13 30 -31 89 -40 130 -28 125 -55 220 -70 251 -8 15 -24 72 -35 126
-11 54 -31 133 -45 176 -14 43 -25 86 -25 97 0 10 -4 29 -9 42 -5 13 -14 48
-21 78 -6 30 -25 98 -40 150 -16 52 -36 140 -46 195 -9 55 -24 121 -34 146
-18 45 -49 173 -57 234 -13 104 -29 177 -51 224 -17 37 -27 86 -34 155 -10
115 -22 178 -48 256 -29 90 -38 138 -50 275 -9 102 -18 147 -42 210 -27 71
-32 100 -43 260 -9 126 -18 198 -32 240 -36 106 -42 147 -48 315 -6 193 -15
293 -25 300 -4 3 -20 39 -35 80 -26 72 -27 86 -35 355 -6 195 -15 318 -29 405
-35 216 -44 319 -45 520 -2 337 14 1061 25 1155 6 50 10 138 8 198 l-4 107 28
0 c15 0 28 -1 29 -2 6 -9 19 -425 31 -1008 8 -371 15 -676 16 -677 0 -2 8 -3
16 -3 9 0 15 -9 15 -25 0 -14 5 -25 10 -25 6 0 10 -13 10 -30 0 -16 -4 -30
-10 -30 -5 0 -10 -9 -10 -20 0 -13 7 -20 20 -20 13 0 20 -7 20 -20 0 -17 7
-20 40 -20 22 0 40 5 40 10 0 6 28 10 65 10 37 0 65 4 65 10 0 6 20 10 45 10
38 0 45 3 45 20 0 11 5 20 10 20 6 0 10 9 10 20 0 11 -4 20 -10 20 -5 0 -10
20 -10 45 0 38 3 45 20 45 17 0 20 7 20 40 0 22 5 40 10 40 6 0 10 9 10 20 0
11 -4 20 -10 20 -5 0 -10 24 -10 53 0 41 -4 56 -20 67 -11 8 -20 22 -20 32 0
15 -9 18 -45 18 l-45 0 0 85 c0 50 4 85 10 85 6 0 10 9 10 20 0 11 5 20 10 20
6 0 10 32 10 75 0 73 1 75 25 75 22 0 25 4 25 35 0 31 -3 35 -25 35 -18 0 -25
5 -25 20 0 11 5 20 10 20 6 0 10 14 10 30 0 17 -4 30 -10 30 -5 0 -10 9 -10
20 0 11 6 20 13 20 10 0 13 61 12 308 0 169 2 368 7 442 4 74 8 387 8 695 2
578 14 1035 30 1140 5 33 14 116 19 185 26 298 33 389 37 450 7 112 23 242 39
325 17 87 28 157 50 305 30 202 44 288 65 380 26 120 37 184 50 290 6 47 28
157 50 245 21 88 44 188 50 223 6 34 19 82 29 105 17 40 26 81 51 241 6 38 17
81 24 95 7 14 25 71 40 126 29 109 72 248 86 280 5 11 16 55 24 98 9 42 22 90
29 105 8 15 22 54 32 87 9 33 34 107 55 165 20 58 54 155 75 215 85 251 106
309 120 334 8 14 25 58 39 96 13 39 37 99 54 135 16 36 40 94 53 130 12 36 28
74 35 85 7 11 25 52 40 90 15 39 33 79 41 91 7 11 31 64 52 117 22 53 49 110
60 126 12 16 21 35 21 42 0 7 18 51 41 98 67 140 277 562 304 611 14 25 54 99
89 165 35 66 87 163 116 215 29 52 65 117 79 144 13 28 40 73 58 100 18 28 33
54 33 59 0 4 25 49 57 100 31 51 77 128 103 172 25 44 76 125 113 180 36 55
78 123 94 151 24 44 51 86 149 229 27 39 150 223 194 291 79 121 178 262 218
311 23 29 58 77 77 106 32 48 83 118 103 142 20 25 136 179 221 295 30 41 87
113 126 160 39 47 102 126 140 175 71 92 158 197 300 360 44 50 100 116 125
145 25 30 90 104 146 165 55 60 118 130 140 155 95 108 175 160 244 160 20 0
81 7 136 15 54 9 119 18 144 21 25 3 100 14 168 26 67 11 171 23 230 27 162
12 675 12 777 1z m-3335 -149 c0 -35 -17 -51 -52 -51 -37 0 -38 32 -2 65 31
29 54 23 54 -14z m11229 -6861 c11 -59 10 -73 -2 -90 l-14 -21 -7 23 c-9 33
-7 158 2 158 4 0 13 -31 21 -70z m113 -715 c4 -15 4 -33 0 -39 -3 -6 -5 -19
-4 -28 2 -11 -3 -18 -12 -18 -13 0 -16 12 -16 61 0 65 17 78 32 24z m-14102
-107 c0 -18 -5 -40 -10 -48 -7 -11 -10 -2 -10 33 0 26 5 47 10 47 6 0 10 -15
10 -32z m22970 -349 c0 -9 -6 -22 -14 -28 -11 -9 -15 -7 -19 12 -4 12 -3 33 0
46 6 23 7 23 20 6 7 -11 13 -26 13 -36z m-23040 -13 c0 -13 3 -31 6 -40 4 -12
0 -16 -15 -16 -18 0 -21 6 -21 40 0 29 4 40 15 40 9 0 15 -9 15 -24z m14253
-242 c9 -66 1 -214 -13 -228 -13 -13 -30 60 -30 129 0 154 27 216 43 99z
m8887 -113 c0 -36 -13 -81 -21 -75 -10 6 -12 77 -2 87 12 13 23 7 23 -12z
m-23226 -107 c-1 -58 -14 -97 -29 -82 -11 10 -18 106 -11 144 7 34 9 36 24 20
13 -13 17 -33 16 -82z m23300 -288 c4 -58 -8 -78 -16 -26 -5 32 2 94 9 87 2
-3 6 -30 7 -61z m-23381 -131 c9 -63 -3 -165 -18 -165 -19 0 -25 24 -25 105 0
40 3 80 6 89 12 31 31 16 37 -29z m14534 -433 c-2 -51 -7 -96 -11 -100 -26
-25 -50 96 -43 208 3 44 7 54 21 52 9 -2 16 3 17 10 1 7 5 -7 11 -32 5 -25 7
-87 5 -138z m-14624 -203 c4 -25 3 -105 -3 -184 -6 -77 -12 -165 -13 -195 -1
-41 -6 -56 -18 -58 -20 -4 -29 86 -29 297 0 118 3 151 16 169 22 32 37 23 47
-29z m23656 -17 c5 -20 8 -80 8 -132 -2 -77 -5 -95 -18 -98 -26 -5 -39 43 -39
144 0 125 27 173 49 86z m-8979 -437 c16 -38 21 -151 23 -550 2 -348 0 -400
-13 -400 -8 0 -21 14 -30 30 -12 25 -15 107 -18 468 -3 313 -1 442 7 450 6 6
12 22 12 37 1 20 2 21 6 5 2 -11 8 -29 13 -40z m9096 -142 c4 -193 4 -245 -2
-295 -9 -78 -27 -74 -48 10 -20 83 -21 174 -1 238 8 27 15 59 15 72 0 14 6 22
18 22 14 0 17 -9 18 -47z m-23842 -290 c3 -60 5 -204 4 -320 l-2 -213 -26 0
-26 0 -12 183 c-16 232 -15 319 2 384 16 61 23 73 40 73 10 0 15 -28 20 -107z
m23906 -326 c0 -13 6 -29 13 -35 16 -17 23 -632 7 -632 -5 0 -10 -7 -10 -15 0
-8 -4 -15 -9 -15 -10 0 -12 6 -27 65 -4 17 -9 37 -12 45 -8 28 -14 443 -7 527
6 73 9 83 26 83 13 0 19 -7 19 -23z m-29390 -577 c0 -5 25 -10 55 -10 30 0 55
5 55 10 0 17 90 12 108 -7 12 -12 13 -18 4 -21 -6 -2 -12 -17 -12 -33 0 -16
-4 -29 -10 -29 -5 0 -10 -7 -10 -15 0 -10 -10 -15 -30 -15 -16 0 -30 5 -30 11
0 17 -27 39 -49 39 -14 0 -21 6 -21 20 0 13 -7 20 -20 20 -13 0 -20 -7 -20
-20 0 -18 -7 -20 -60 -20 -53 0 -60 2 -60 20 0 11 -7 20 -15 20 -8 0 -15 5
-15 10 0 6 7 10 15 10 8 0 15 5 15 10 0 6 23 10 50 10 28 0 50 -4 50 -10z
m20384 -397 c3 -87 9 -317 12 -510 3 -194 9 -353 13 -353 4 0 11 -183 14 -407
4 -225 10 -429 13 -455 6 -42 10 -48 30 -48 17 0 24 6 24 20 0 11 5 20 10 20
6 0 10 7 10 15 0 13 266 15 2336 15 2011 0 2337 2 2350 14 10 11 14 40 14 105
0 54 4 91 10 91 6 0 10 38 10 95 0 57 4 95 10 95 6 0 10 23 10 50 0 28 -4 50
-10 50 -6 0 -10 35 -10 85 0 50 4 85 10 85 6 0 10 9 10 20 0 16 7 20 34 20
l33 0 8 -342 c16 -653 8 -1173 -19 -1216 -7 -11 -23 -161 -31 -292 -18 -271
-27 -359 -49 -490 -8 -52 -23 -165 -31 -250 -9 -85 -24 -198 -34 -250 -11 -52
-24 -129 -31 -170 -7 -41 -16 -82 -20 -90 -5 -9 -16 -81 -25 -160 -10 -85 -26
-172 -40 -210 -13 -37 -28 -115 -35 -180 -13 -125 -15 -137 -54 -285 -15 -55
-31 -136 -37 -180 -6 -44 -23 -119 -40 -167 -16 -48 -36 -138 -45 -204 -8 -65
-19 -123 -23 -129 -8 -9 -39 -99 -45 -128 -2 -7 -5 -19 -8 -27 -3 -8 -11 -49
-18 -90 -6 -41 -25 -115 -41 -165 -15 -49 -34 -117 -40 -150 -6 -33 -20 -87
-31 -120 -11 -33 -26 -85 -34 -115 -8 -30 -19 -69 -24 -86 -6 -17 -10 -44 -10
-60 0 -17 -4 -34 -8 -40 -4 -5 -14 -27 -21 -49 -7 -22 -20 -56 -29 -75 -9 -19
-17 -62 -20 -95 -2 -33 -10 -73 -17 -90 -42 -95 -68 -169 -86 -243 -10 -46
-28 -103 -39 -127 -11 -24 -29 -81 -40 -125 -10 -45 -30 -112 -44 -148 -13
-37 -32 -96 -41 -132 -9 -36 -30 -93 -45 -127 -16 -33 -36 -97 -44 -141 -8
-44 -31 -112 -50 -151 -19 -39 -37 -90 -41 -113 -9 -58 -26 -108 -46 -139 -10
-14 -27 -63 -39 -109 -12 -45 -32 -104 -44 -129 -13 -25 -29 -71 -36 -101 -13
-51 -51 -143 -85 -200 -8 -14 -15 -36 -15 -50 0 -35 -24 -108 -53 -166 -13
-27 -34 -80 -47 -119 -13 -38 -33 -90 -45 -115 -12 -25 -30 -72 -40 -105 -9
-33 -30 -88 -46 -121 -16 -34 -38 -93 -50 -130 -12 -38 -32 -87 -44 -109 -13
-22 -29 -62 -36 -90 -6 -27 -24 -73 -40 -101 -16 -27 -35 -75 -43 -105 -8 -29
-33 -93 -55 -140 -23 -48 -41 -94 -41 -103 0 -9 -17 -51 -39 -94 -21 -42 -44
-95 -51 -117 -14 -43 -37 -90 -58 -116 -7 -9 -21 -47 -32 -84 -11 -37 -26 -77
-33 -89 -8 -11 -31 -64 -52 -116 -20 -52 -50 -120 -65 -150 -16 -30 -34 -73
-40 -95 -7 -22 -20 -51 -30 -65 -9 -14 -29 -57 -44 -97 -15 -40 -35 -82 -44
-95 -25 -32 -39 -66 -53 -118 -6 -25 -19 -56 -28 -70 -9 -14 -22 -36 -28 -50
-33 -76 -43 -99 -43 -104 0 -4 -11 -23 -25 -44 -13 -20 -31 -57 -40 -82 -17
-49 -139 -300 -165 -340 -9 -14 -23 -45 -30 -70 -8 -25 -25 -62 -38 -83 -13
-21 -39 -73 -58 -115 -19 -42 -41 -83 -48 -92 -8 -8 -21 -37 -31 -65 -9 -27
-26 -66 -39 -85 -12 -19 -35 -64 -50 -100 -16 -36 -42 -84 -57 -107 -16 -23
-29 -50 -29 -60 0 -11 -14 -41 -31 -69 -18 -27 -47 -80 -66 -119 -18 -38 -42
-86 -53 -105 -11 -19 -55 -102 -97 -184 -43 -81 -106 -201 -141 -265 -34 -64
-69 -131 -78 -150 -9 -19 -26 -49 -39 -65 -13 -17 -31 -51 -41 -76 -10 -25
-28 -58 -40 -75 -12 -16 -34 -55 -48 -85 -14 -30 -39 -75 -56 -100 -16 -25
-30 -53 -30 -62 0 -10 -9 -27 -20 -38 -10 -10 -38 -54 -60 -97 -23 -43 -47
-85 -54 -93 -7 -8 -27 -40 -44 -71 -16 -31 -50 -88 -74 -125 -47 -72 -71 -113
-121 -204 -25 -45 -95 -157 -185 -295 -7 -11 -20 -33 -30 -48 -9 -15 -36 -56
-59 -90 -23 -34 -54 -83 -68 -110 -14 -26 -32 -55 -40 -65 -8 -9 -36 -49 -62
-88 -65 -96 -207 -300 -241 -345 -15 -20 -52 -71 -82 -114 -189 -268 -464
-574 -633 -705 -102 -80 -128 -87 -319 -77 -109 6 -124 9 -181 39 -38 20 -94
65 -147 118 -71 70 -97 106 -152 205 -36 66 -69 131 -73 145 -4 14 -20 50 -35
80 -15 30 -33 75 -40 100 -32 118 -56 179 -87 220 -19 24 -32 49 -29 55 2 7 9
45 15 86 40 282 55 364 81 444 16 50 34 127 39 171 5 45 21 110 35 144 14 34
37 119 51 189 14 69 39 164 54 211 16 47 34 129 41 183 6 54 22 129 35 168 14
39 43 153 66 252 23 100 45 196 50 212 14 54 37 159 54 250 9 50 29 135 45
190 30 109 43 163 60 270 7 39 23 108 37 155 13 47 30 141 38 210 9 87 21 142
38 180 13 30 27 71 32 90 4 19 11 53 16 75 5 22 14 90 18 150 7 89 15 122 39
175 39 83 52 158 52 288 0 94 3 110 24 147 42 71 67 186 73 335 6 127 8 139
41 209 39 83 41 98 45 293 2 123 4 139 23 160 48 52 76 228 72 444 -2 117 5
156 27 148 36 -14 65 148 65 374 1 73 6 130 14 152 8 19 23 58 34 85 27 67 32
108 42 330 10 226 16 272 41 298 10 11 20 31 23 46 12 60 25 267 26 420 1 127
4 166 15 178 48 48 64 151 74 503 8 265 16 330 41 365 4 6 11 30 15 55 4 25 9
54 11 65 6 29 14 238 18 466 3 135 8 204 17 220 7 13 16 43 21 67 4 23 13 63
18 90 14 64 39 508 40 712 0 92 7 213 16 275 24 172 52 661 54 975 2 173 18
459 35 615 8 72 19 319 25 550 5 231 12 439 15 463 2 23 5 622 6 1330 0 1027
3 1311 14 1407 8 66 14 157 15 203 l0 82 29 0 29 0 6 -157z m-20294 92 c0 -23
-4 -25 -45 -25 -25 0 -45 5 -45 10 0 22 26 39 58 40 28 0 32 -3 32 -25z
m29420 -179 c0 -31 5 -56 11 -58 8 -3 12 -40 13 -106 0 -56 4 -102 7 -102 7 0
15 -284 25 -872 4 -208 10 -378 15 -378 5 0 9 -13 9 -30 0 -16 5 -30 10 -30 6
0 10 9 10 20 0 16 7 20 30 20 17 0 30 5 30 10 0 6 11 10 25 10 14 0 25 -4 25
-10 0 -6 52 -10 135 -10 83 0 135 4 135 10 0 6 60 10 160 10 100 0 160 -4 160
-10 0 -6 60 -10 160 -10 100 0 160 4 160 10 0 6 55 10 145 10 90 0 145 -4 145
-10 0 -5 16 -10 35 -10 19 0 35 5 35 10 0 6 14 10 30 10 17 0 30 -4 30 -10 0
-6 45 -10 115 -10 70 0 115 4 115 10 0 6 18 10 41 10 61 0 69 14 69 119 0 54
4 91 10 91 6 0 10 25 10 55 0 48 2 55 20 55 13 0 20 7 20 20 0 11 5 20 10 20
6 0 10 -9 10 -20 0 -11 4 -20 9 -20 5 0 12 -25 16 -55 3 -30 11 -55 16 -55 19
0 -1 -221 -21 -228 -6 -2 -10 -13 -10 -25 0 -12 -7 -54 -16 -92 -9 -39 -18
-99 -20 -135 -5 -90 -25 -220 -34 -220 -23 0 -50 -140 -50 -260 0 -33 -24
-155 -39 -195 -37 -97 -41 -113 -47 -220 -3 -49 -9 -99 -14 -110 -4 -11 -17
-40 -28 -65 -11 -25 -22 -58 -25 -75 -25 -167 -52 -306 -64 -335 -8 -19 -25
-93 -39 -165 -14 -71 -26 -134 -28 -140 -2 -5 -6 -23 -11 -40 -4 -16 -11 -34
-15 -40 -5 -5 -11 -26 -14 -45 -14 -90 -40 -193 -72 -290 -19 -58 -41 -148
-49 -200 -7 -52 -20 -113 -28 -135 -20 -53 -64 -201 -72 -245 -4 -19 -19 -73
-35 -120 -16 -47 -31 -101 -35 -120 -12 -70 -28 -135 -35 -155 -9 -22 -26 -84
-60 -214 -12 -46 -32 -109 -46 -139 -13 -30 -29 -87 -35 -125 -6 -39 -26 -111
-44 -161 -18 -50 -43 -136 -55 -191 -12 -55 -26 -109 -31 -120 -18 -42 -40
-111 -54 -173 -9 -36 -22 -79 -30 -96 -21 -44 -112 -315 -140 -416 -21 -75
-43 -136 -76 -205 -5 -11 -20 -51 -33 -90 -14 -38 -37 -101 -52 -140 -14 -38
-30 -83 -34 -100 -9 -34 -82 -207 -128 -305 -17 -36 -38 -91 -47 -122 -9 -31
-24 -67 -34 -80 -10 -13 -24 -41 -30 -63 -12 -37 -30 -78 -130 -287 -22 -46
-57 -122 -79 -169 -22 -47 -45 -89 -51 -93 -6 -4 -11 -15 -11 -24 0 -16 -56
-128 -231 -467 -46 -88 -101 -196 -124 -241 -22 -45 -45 -87 -51 -95 -6 -8
-25 -39 -41 -69 -17 -30 -40 -71 -51 -90 -12 -19 -52 -90 -89 -158 -37 -68
-73 -131 -78 -140 -6 -9 -23 -39 -39 -67 -16 -27 -44 -73 -63 -102 -18 -28
-33 -54 -33 -58 0 -3 -6 -13 -12 -20 -7 -8 -31 -44 -53 -80 -22 -37 -54 -87
-71 -113 -17 -26 -44 -72 -61 -102 -26 -47 -51 -87 -108 -172 -5 -8 -45 -68
-88 -134 -44 -65 -88 -132 -100 -149 -12 -16 -42 -61 -68 -100 -26 -38 -88
-128 -138 -200 -49 -71 -116 -169 -148 -218 -32 -48 -89 -128 -128 -178 -38
-50 -84 -111 -100 -134 -17 -24 -42 -58 -55 -76 -134 -174 -215 -280 -265
-350 -33 -46 -94 -124 -135 -173 -41 -50 -101 -125 -132 -166 -69 -92 -129
-164 -233 -285 -44 -50 -105 -125 -135 -164 -88 -117 -197 -250 -274 -335 -39
-44 -84 -96 -101 -114 -29 -34 -110 -123 -150 -166 -11 -12 -51 -57 -90 -101
-38 -44 -84 -96 -102 -115 -17 -19 -40 -45 -50 -56 -43 -50 -279 -300 -404
-429 -76 -77 -179 -185 -230 -239 -107 -113 -765 -773 -915 -916 -478 -460
-695 -663 -849 -795 -39 -33 -77 -67 -85 -75 -8 -9 -28 -25 -43 -37 -15 -12
-71 -62 -125 -111 -148 -136 -307 -274 -394 -341 -54 -41 -179 -145 -253 -209
-126 -110 -269 -229 -355 -297 -57 -44 -142 -114 -190 -155 -48 -41 -115 -97
-149 -125 -34 -27 -84 -68 -110 -90 -27 -22 -77 -62 -111 -90 -34 -27 -79 -65
-99 -83 -20 -19 -56 -48 -81 -65 -25 -17 -47 -34 -50 -38 -3 -3 -25 -19 -50
-35 -53 -34 -119 -85 -168 -132 -19 -18 -49 -40 -66 -49 -17 -9 -47 -29 -67
-44 -23 -18 -49 -29 -68 -29 -27 0 -31 3 -31 28 0 24 7 32 40 47 31 14 40 24
40 43 0 16 13 35 37 56 21 17 77 70 125 119 48 48 91 87 94 87 3 0 32 23 63
50 31 28 106 93 166 146 159 139 169 148 301 268 144 133 434 423 564 565 52
57 120 129 150 160 47 48 96 103 193 215 10 12 31 36 45 55 15 18 38 45 52 60
43 46 113 125 170 191 30 35 73 84 95 109 73 83 83 95 114 141 13 19 32 42 41
50 35 31 299 355 396 485 53 71 88 115 140 174 38 42 51 60 140 188 23 32 50
65 59 73 9 8 35 41 58 75 22 33 43 62 47 65 12 9 117 155 130 180 7 14 23 36
36 50 29 32 84 107 174 239 39 58 83 118 96 134 14 16 33 46 44 66 10 20 33
52 49 71 17 19 31 42 31 51 0 9 10 24 21 35 12 10 45 56 74 100 29 45 58 85
64 88 6 4 11 16 11 27 0 11 15 34 34 52 19 18 49 59 67 92 18 33 38 63 45 67
6 4 21 29 32 56 12 27 29 55 38 63 20 16 96 127 139 203 17 29 42 69 57 88 15
19 34 51 43 71 8 20 23 41 34 46 10 6 24 25 31 43 8 18 44 77 82 132 38 54 77
113 86 130 20 37 210 333 294 458 32 47 58 89 58 93 0 3 40 70 89 148 145 233
261 424 268 444 4 10 25 46 47 80 23 34 61 97 85 140 24 43 77 134 118 203 41
69 78 132 83 140 45 80 119 215 141 255 14 28 43 82 64 120 21 39 57 108 82
154 24 46 53 96 64 112 10 15 26 47 34 70 9 24 21 50 29 59 7 8 32 56 56 105
24 50 51 99 60 110 10 11 20 34 24 50 4 17 22 55 40 85 19 30 37 65 40 78 4
12 27 57 50 100 24 42 49 95 57 117 7 22 20 49 29 60 9 11 23 36 30 55 7 19
35 78 61 130 71 145 124 257 158 337 16 40 41 89 55 110 14 21 26 49 26 63 0
14 12 45 26 70 15 25 46 91 69 147 24 56 50 109 58 117 8 8 18 37 22 63 4 26
22 75 40 108 18 33 36 76 40 95 4 19 26 76 49 125 24 50 49 113 56 140 7 28
21 62 31 76 10 14 35 77 56 140 21 63 46 125 55 139 8 14 26 66 38 115 13 50
31 99 41 110 10 11 24 49 33 85 20 88 51 175 77 216 12 20 25 64 30 104 5 43
16 81 28 98 18 23 48 119 82 253 4 20 20 58 33 85 15 29 30 82 36 128 6 50 19
95 34 121 13 22 34 87 46 145 23 109 53 201 76 235 8 11 14 43 14 72 0 70 18
149 46 203 20 38 49 166 78 341 4 21 15 48 25 60 11 15 21 50 26 89 16 153 36
261 53 292 24 43 42 116 42 170 0 62 44 283 69 345 15 39 22 91 30 216 5 91
14 173 19 183 46 86 66 195 77 424 7 153 19 238 46 338 25 94 38 257 39 463 0
151 13 289 44 454 8 44 17 123 20 175 11 201 17 287 23 355 3 39 8 257 10 485
2 242 8 417 13 420 6 4 5 65 -2 160 -7 104 -7 155 0 158 6 2 8 34 4 87 l-5 85
37 0 36 0 0 -54z m-28240 -490 c0 -18 3 -48 6 -65 7 -34 -7 -41 -32 -17 -16
16 -19 76 -4 76 6 0 10 9 10 20 0 11 5 20 10 20 6 0 10 -15 10 -34z m30310
-407 c0 -39 -5 -65 -14 -75 -16 -16 -76 -19 -76 -4 0 6 7 10 15 10 11 0 15 12
15 45 0 38 3 45 20 45 13 0 20 7 20 20 0 11 5 20 10 20 6 0 10 -27 10 -61z
m-31934 -63 c8 -8 14 -22 14 -30 0 -9 5 -16 10 -16 6 0 10 -9 10 -20 0 -11 -4
-20 -10 -20 -6 0 -10 -35 -10 -85 0 -71 -3 -85 -16 -85 -37 0 -44 25 -44 149
0 103 2 121 16 121 8 0 22 -6 30 -14z m1564 -36 c0 -5 -9 -10 -20 -10 -11 0
-20 5 -20 10 0 6 9 10 20 10 11 0 20 -4 20 -10z m28377 -397 c-2 -21 -4 -4 -4
37 0 41 2 58 4 38 2 -21 2 -55 0 -75z m-28377 27 c0 -33 -3 -40 -20 -40 -11 0
-20 5 -20 10 0 6 -7 10 -15 10 -10 0 -15 10 -15 30 0 28 3 30 35 30 34 0 35
-1 35 -40z m-1454 -54 c8 -8 14 -26 14 -41 0 -14 11 -37 25 -50 l24 -25 251 0
c160 0 250 4 250 10 0 6 57 10 150 10 93 0 150 -4 150 -10 0 -6 77 -10 210
-10 133 0 210 4 210 10 0 6 14 10 30 10 17 0 30 5 30 10 0 6 9 10 20 10 11 0
20 5 20 10 0 6 7 10 15 10 8 0 15 9 15 20 0 13 7 20 20 20 13 0 20 -7 20 -18
0 -10 9 -24 20 -32 11 -8 20 -22 20 -32 0 -10 4 -18 8 -18 13 0 31 -80 37
-165 3 -44 9 -123 15 -175 5 -52 10 -165 10 -250 0 -246 19 -588 36 -670 24
-112 45 -271 54 -400 4 -63 11 -136 15 -161 4 -26 8 -62 10 -80 2 -19 13 -68
25 -109 27 -95 45 -209 59 -384 7 -76 16 -147 22 -158 14 -26 59 -226 59 -262
0 -16 4 -43 10 -60 16 -49 67 -272 86 -371 9 -49 24 -112 34 -140 10 -27 23
-79 30 -115 14 -79 50 -206 79 -279 12 -30 28 -96 36 -147 8 -51 23 -114 34
-141 11 -26 34 -95 51 -153 18 -58 41 -127 52 -155 12 -27 32 -90 45 -139 13
-49 28 -94 32 -100 5 -6 27 -63 49 -126 22 -63 54 -153 71 -200 16 -47 30 -95
31 -107 0 -12 8 -37 18 -55 10 -18 28 -62 41 -98 12 -36 36 -93 52 -128 16
-35 29 -67 29 -71 0 -7 57 -160 100 -266 4 -11 16 -42 25 -70 10 -27 33 -80
51 -116 19 -36 34 -74 34 -85 0 -10 16 -53 36 -94 20 -41 39 -84 44 -95 4 -11
20 -51 35 -90 14 -38 32 -77 39 -85 7 -8 19 -37 25 -65 7 -27 26 -74 43 -103
16 -28 37 -73 47 -100 9 -26 32 -75 49 -110 18 -35 41 -90 52 -124 10 -33 25
-67 33 -76 9 -10 28 -48 43 -87 15 -38 38 -86 51 -106 13 -20 34 -65 47 -100
12 -35 34 -84 48 -109 14 -25 32 -63 39 -85 7 -22 28 -62 47 -89 19 -27 40
-69 48 -95 7 -25 29 -70 48 -99 19 -30 37 -65 41 -79 3 -14 26 -61 51 -103 24
-42 44 -83 44 -91 0 -8 11 -31 25 -52 14 -20 35 -58 45 -83 11 -25 35 -69 54
-97 19 -29 43 -74 54 -102 10 -27 33 -72 50 -99 18 -28 32 -54 32 -58 0 -5 19
-39 41 -76 23 -37 56 -94 74 -127 18 -33 49 -91 70 -130 20 -38 45 -81 55 -95
10 -14 30 -50 45 -80 15 -30 33 -62 40 -70 7 -8 28 -44 47 -80 18 -36 43 -79
54 -95 12 -17 25 -41 29 -55 4 -14 17 -38 29 -55 12 -16 38 -56 57 -89 19 -32
44 -75 57 -95 12 -20 27 -47 33 -60 5 -14 25 -45 43 -70 18 -25 46 -68 61 -96
15 -27 40 -68 56 -89 16 -22 29 -45 29 -52 0 -7 15 -32 33 -56 17 -24 43 -63
57 -88 13 -25 38 -64 55 -87 16 -24 49 -73 73 -110 62 -100 168 -263 191 -298
65 -94 112 -169 132 -207 12 -24 25 -45 28 -48 12 -10 69 -86 130 -175 34 -49
95 -137 136 -195 41 -58 74 -109 74 -113 1 -5 14 -25 30 -45 35 -44 88 -118
135 -188 19 -29 41 -60 50 -70 8 -11 44 -59 80 -109 36 -49 79 -107 97 -128
17 -21 39 -51 48 -68 9 -16 35 -53 58 -82 23 -28 70 -90 105 -137 34 -47 69
-92 78 -100 8 -8 31 -37 50 -65 19 -27 59 -82 90 -121 30 -40 82 -106 115
-149 33 -43 67 -85 75 -95 8 -10 51 -64 95 -121 44 -56 135 -166 203 -243 149
-170 186 -213 292 -336 46 -52 95 -109 109 -125 14 -17 39 -46 55 -65 37 -46
152 -172 249 -275 42 -45 92 -99 110 -120 17 -20 50 -56 72 -79 22 -23 85 -91
139 -152 55 -60 141 -150 190 -200 117 -117 186 -193 186 -205 0 -5 6 -9 14
-9 7 0 25 -15 39 -33 29 -39 53 -66 125 -149 28 -33 52 -64 52 -69 0 -4 9 -11
20 -14 11 -3 20 -12 20 -18 0 -7 13 -24 28 -37 15 -14 31 -33 35 -43 5 -14 0
-17 -33 -17 -36 0 -41 4 -59 38 -12 24 -31 42 -53 51 -18 7 -44 28 -56 47 -12
19 -26 34 -32 34 -5 0 -24 15 -42 33 -18 19 -41 38 -50 43 -48 26 -680 649
-901 889 -95 102 -202 216 -590 620 -31 33 -90 95 -130 139 -39 43 -122 130
-183 195 -61 64 -137 145 -169 181 -32 36 -90 99 -129 141 -39 42 -91 99 -116
126 -45 51 -268 290 -325 349 -86 90 -237 257 -360 399 -179 208 -203 234
-299 335 -100 105 -230 257 -363 426 -56 71 -134 165 -175 209 -95 105 -179
202 -198 229 -17 26 -150 184 -239 286 -77 87 -63 69 -155 195 -95 128 -151
201 -190 246 -118 136 -353 443 -493 644 -64 91 -136 187 -206 275 -7 8 -37
51 -67 95 -30 44 -57 82 -60 85 -10 9 -100 141 -100 146 0 3 -33 50 -72 105
-40 55 -78 108 -84 117 -70 106 -183 282 -193 301 -7 13 -59 94 -115 180 -56
86 -120 188 -143 226 -22 39 -58 100 -79 136 -22 37 -48 82 -59 100 -11 18
-29 49 -40 68 -11 20 -34 59 -51 86 -17 28 -40 71 -51 96 -11 24 -32 63 -46
86 -48 76 -278 526 -376 738 -29 61 -63 133 -78 160 -14 28 -34 75 -45 104
-10 30 -25 65 -33 77 -8 12 -30 60 -49 106 -19 46 -46 106 -60 133 -13 28 -27
64 -31 80 -4 17 -25 67 -46 112 -21 44 -39 87 -39 95 0 8 -4 18 -8 23 -5 6
-26 55 -47 110 -21 55 -59 152 -85 215 -25 63 -56 147 -69 185 -12 39 -30 88
-40 110 -11 22 -25 67 -34 100 -8 33 -28 92 -45 130 -16 39 -41 104 -55 145
-14 41 -34 100 -45 130 -11 30 -25 80 -32 110 -7 30 -26 83 -41 118 -16 34
-29 68 -29 75 0 15 -42 151 -71 232 -11 33 -23 69 -25 80 -7 39 -23 91 -58
192 -20 56 -36 110 -36 119 0 10 -4 31 -10 48 -49 154 -79 260 -85 306 -4 30
-16 75 -28 100 -22 50 -35 96 -42 155 -7 51 -25 134 -36 160 -30 74 -57 169
-63 220 -8 76 -26 157 -37 171 -12 15 -46 147 -54 209 -10 86 -28 169 -41 195
-12 25 -31 111 -40 180 -13 99 -37 230 -49 265 -28 81 -45 164 -45 222 0 33
-7 73 -14 89 -8 16 -20 56 -26 89 -6 33 -16 83 -21 110 -6 28 -10 61 -10 75
-1 51 -28 227 -44 285 -41 148 -46 415 -8 415 8 0 13 13 13 35 0 38 19 47 46
21z m3214 -6421 c0 -8 -4 -15 -10 -15 -5 0 -10 7 -10 15 0 8 5 15 10 15 6 0
10 -7 10 -15z m21096 -721 c-3 -8 -10 -14 -16 -14 -14 0 -13 33 3 49 10 10 13
9 15 -4 2 -9 1 -23 -2 -31z m-186 -479 c0 -14 -4 -25 -10 -25 -11 0 -14 33 -3
43 11 11 13 8 13 -18z m-20362 -33 c3 -25 0 -31 -11 -26 -16 6 -29 42 -21 56
11 18 29 1 32 -30z m112 -218 c0 -8 -4 -12 -10 -9 -5 3 -10 10 -10 16 0 5 5 9
10 9 6 0 10 -7 10 -16z m70 -155 c0 -5 -4 -9 -10 -9 -5 0 -10 7 -10 16 0 8 5
12 10 9 6 -3 10 -10 10 -16z m20010 -64 c0 -16 -6 -25 -15 -25 -9 0 -15 9 -15
25 0 16 6 25 15 25 9 0 15 -9 15 -25z m-19913 -117 c-3 -8 -6 -5 -6 6 -1 11 2
17 5 13 3 -3 4 -12 1 -19z m19813 -127 c0 -20 -17 -37 -27 -28 -7 8 7 47 18
47 5 0 9 -9 9 -19z m-19733 -33 c-3 -8 -6 -5 -6 6 -1 11 2 17 5 13 3 -3 4 -12
1 -19z m19648 -187 c-4 -17 -13 -31 -21 -31 -17 0 -18 33 -3 62 16 29 33 8 24
-31z m-19535 -16 c0 -8 -4 -15 -9 -15 -5 0 -11 7 -15 15 -3 9 0 15 9 15 8 0
15 -7 15 -15z m65 -115 c18 -34 18 -40 5 -40 -12 0 -41 55 -33 64 10 9 11 8
28 -24z m93 -152 c13 -13 16 -50 5 -61 -9 -10 -32 25 -33 51 0 24 10 28 28 10z
m19205 -130 c10 -37 -21 -75 -38 -47 -8 12 13 69 25 69 4 0 10 -10 13 -22z
m-19113 -55 c0 -24 -25 -9 -28 17 -3 21 -2 22 12 11 9 -7 16 -20 16 -28z m110
-184 c0 -11 -4 -19 -9 -19 -10 0 -21 24 -21 47 0 13 3 13 15 3 8 -7 15 -21 15
-31z m18905 -6 c-8 -46 -12 -53 -31 -53 -19 0 -18 40 2 68 24 34 37 27 29 -15z
m-79 -175 c-3 -7 -7 -25 -10 -40 -4 -16 -11 -28 -16 -28 -11 0 -13 40 -4 64 7
19 35 22 30 4z m-18658 -107 c3 -16 -1 -22 -10 -19 -7 3 -15 15 -16 27 -3 16
1 22 10 19 7 -3 15 -15 16 -27z m80 -157 c-3 -14 -5 -12 -10 9 -3 19 -2 25 4
19 6 -6 8 -18 6 -28z m18475 29 c-7 -2 -13 -11 -13 -19 0 -8 -4 -14 -10 -14
-12 0 -12 3 -4 24 3 9 14 16 23 15 10 0 11 -2 4 -6z m-18363 -183 c0 -11 -4
-21 -9 -24 -13 -8 -34 21 -27 39 7 20 36 8 36 -15z m18290 0 c0 -29 -11 -50
-26 -50 -18 0 -19 66 -1 73 18 6 27 -1 27 -23z m-18222 -125 c6 -14 8 -25 4
-25 -12 0 -32 23 -32 37 0 22 16 15 28 -12z m18132 -75 c0 -28 -33 -79 -52
-80 -14 0 -8 45 8 68 15 22 44 30 44 12z m-18029 -84 c5 -17 6 -32 3 -35 -11
-11 -39 18 -42 43 -5 39 29 31 39 -8z m17939 -91 c0 -32 -29 -105 -42 -105
-14 0 -4 95 12 115 18 22 30 18 30 -10z m-17860 -42 c0 -7 -4 -13 -9 -13 -16
0 -33 30 -27 46 6 16 8 15 21 -2 8 -10 15 -25 15 -31z m99 -137 c7 -13 11 -32
9 -42 -3 -15 -8 -12 -26 17 -26 42 -27 49 -9 49 8 0 19 -11 26 -24z m17666
-63 c-6 -34 -47 -103 -61 -103 -7 0 2 50 16 85 25 64 56 76 45 18z m-17589
-90 c-12 -13 -49 34 -42 53 6 16 10 14 28 -14 11 -18 18 -36 14 -39z m17514
-53 c0 -31 -25 -83 -50 -105 l-23 -20 6 54 c6 54 28 91 54 91 7 0 13 -9 13
-20z m-17401 -86 c6 -15 9 -29 6 -32 -7 -8 -45 29 -45 45 0 23 26 14 39 -13z
m17297 -149 c-6 -31 -43 -85 -59 -85 -11 0 -8 45 4 77 6 15 20 39 32 51 19 21
22 21 25 7 2 -9 1 -32 -2 -50z m-17139 -87 c11 -13 28 -37 37 -55 9 -18 22
-36 28 -40 14 -9 40 -73 30 -73 -14 0 -52 45 -52 61 0 10 -13 25 -29 33 -25
13 -51 58 -51 87 0 16 16 10 37 -13z m17070 -35 c-3 -10 -8 -34 -11 -54 -4
-23 -19 -47 -43 -70 -23 -22 -34 -27 -30 -16 4 10 7 34 7 52 0 24 9 45 31 70
34 38 53 46 46 18z m-112 -250 c-16 -48 -40 -83 -57 -83 -4 0 -8 18 -8 40 0
32 6 46 28 65 15 14 32 29 37 34 17 15 17 -6 0 -56z m-16791 42 c18 -14 46
-60 46 -76 0 -32 -58 17 -69 59 -10 35 -6 39 23 17z m86 -131 c0 -8 -4 -14
-10 -14 -5 0 -10 4 -10 9 0 5 -3 18 -7 28 -6 16 -5 16 10 4 9 -7 17 -20 17
-27z m16629 -56 c-5 -24 -11 -53 -14 -65 -3 -15 -13 -23 -25 -23 -31 0 -28 73
5 105 35 36 44 32 34 -17z m-16499 -134 c0 -17 -22 -14 -28 4 -2 7 3 12 12 12
9 0 16 -7 16 -16z m38 -45 c9 -12 22 -26 27 -33 18 -21 55 -75 55 -81 0 -17
-32 0 -51 28 -13 17 -27 34 -31 35 -8 4 -38 56 -38 67 0 12 22 3 38 -16z
m16345 -82 c-17 -29 -43 -44 -43 -24 0 4 0 19 0 35 0 16 11 39 28 57 l27 30 3
-33 c2 -19 -4 -46 -15 -65z m-16215 -95 c2 -7 -2 -10 -12 -6 -9 3 -16 11 -16
16 0 13 23 5 28 -10z m16152 -11 c0 -29 -36 -92 -57 -98 -9 -3 -11 9 -6 49 7
60 17 78 44 78 14 0 19 -7 19 -29z m-16065 -111 c8 -16 15 -32 15 -36 0 -14
-38 28 -43 47 -8 29 11 23 28 -11z m15955 -129 c-11 -23 -24 -41 -29 -41 -13
0 -41 -64 -41 -94 0 -15 -14 -41 -34 -63 -18 -21 -42 -63 -52 -93 -10 -30 -30
-73 -45 -95 -14 -22 -31 -61 -39 -87 -7 -29 -26 -60 -45 -80 -18 -17 -39 -50
-46 -72 -34 -107 -89 -163 -89 -91 0 29 8 45 44 81 35 37 46 57 56 104 9 44
21 67 46 91 20 20 36 47 40 68 9 46 28 84 59 115 13 13 27 37 30 53 16 77 29
108 55 132 16 14 39 52 51 83 12 32 28 58 38 60 24 5 25 -25 1 -71z m-15870
25 c21 -24 22 -56 1 -56 -12 0 -20 13 -31 50 -10 36 -1 38 30 6z m142 -194
c39 -53 84 -110 100 -127 53 -56 138 -160 138 -168 0 -5 11 -23 25 -39 14 -17
33 -44 41 -60 l16 -30 -31 18 c-17 10 -31 22 -31 26 0 4 -19 28 -42 53 -24 25
-54 63 -67 84 -13 22 -32 42 -43 44 -10 3 -25 22 -33 42 -9 20 -22 38 -30 41
-7 3 -26 30 -41 61 -16 30 -38 63 -51 73 -30 23 -60 102 -33 85 6 -4 43 -50
82 -103z m406 -522 c21 -42 13 -52 -17 -22 -26 25 -61 78 -61 92 0 22 58 -30
78 -70z m14896 -124 c-2 -42 -31 -89 -59 -95 -16 -3 -17 3 -13 43 7 55 33 99
56 94 13 -3 17 -13 16 -42z m-14720 -99 c6 -9 7 -19 3 -23 -9 -9 -37 15 -37
33 0 18 20 12 34 -10z m122 -139 c43 -51 95 -111 116 -133 71 -78 128 -146
145 -173 9 -15 34 -48 55 -73 21 -26 38 -53 38 -60 0 -8 -12 1 -26 19 -14 17
-32 32 -39 32 -8 0 -20 10 -26 22 -7 13 -23 31 -36 42 -13 10 -35 36 -49 57
-13 22 -40 49 -59 61 -19 13 -35 28 -35 35 0 7 -14 23 -31 35 -26 19 -143 180
-144 198 0 3 -4 11 -8 18 -5 7 -3 12 5 12 8 0 50 -42 94 -92z m14494 39 c-14
-66 -70 -106 -70 -52 0 49 51 117 72 97 4 -4 3 -24 -2 -45z m-76 -109 c-1 -13
-3 -33 -3 -44 -1 -12 -17 -45 -36 -73 -19 -28 -35 -55 -35 -60 0 -19 -46 -97
-72 -124 -18 -17 -28 -38 -28 -57 0 -32 -30 -70 -55 -70 -11 0 -15 11 -15 36
0 46 16 74 41 74 13 0 23 8 27 23 3 12 25 61 49 109 24 48 51 110 59 138 14
46 33 69 60 70 6 0 10 -10 8 -22z m2336 -276 c0 -4 -20 -30 -45 -59 -25 -28
-45 -56 -45 -62 0 -6 -13 -20 -30 -33 -16 -12 -30 -28 -30 -35 0 -15 -45 -46
-60 -41 -6 2 4 19 23 38 19 19 38 43 43 52 5 9 35 46 67 82 53 61 77 78 77 58z
m-16332 -159 c7 -11 130 -146 232 -252 142 -150 158 -171 122 -171 -20 0 -41
20 -61 61 -7 14 -26 33 -42 43 -16 9 -34 26 -40 37 -5 11 -21 24 -35 29 -14 6
-31 25 -40 45 -8 20 -25 40 -38 45 -13 5 -28 22 -34 39 -6 16 -20 34 -31 41
-18 9 -91 110 -91 125 0 9 50 -27 58 -42z m13718 -121 c-38 -73 -71 -81 -63
-16 3 34 13 54 38 81 l34 34 3 -35 c2 -19 -4 -48 -12 -64z m-82 -120 c10 -17
-28 -77 -49 -77 -40 0 -13 84 27 85 9 0 19 -4 22 -8z m2366 4 c0 -3 -4 -8 -10
-11 -5 -3 -10 -1 -10 4 0 6 5 11 10 11 6 0 10 -2 10 -4z m-54 -58 c-9 -13 -22
-34 -28 -48 -6 -14 -28 -41 -47 -60 -20 -20 -65 -69 -101 -110 -36 -41 -85
-95 -110 -121 -47 -48 -86 -94 -121 -141 -11 -16 -29 -28 -39 -28 -17 0 -18 4
-8 30 5 17 18 36 27 43 9 6 72 75 140 152 151 171 280 305 294 305 5 0 2 -10
-7 -22z m-2446 -151 c0 -23 -35 -66 -45 -56 -2 3 1 22 7 42 13 41 38 50 38 14z
m-53 -98 c13 -13 1 -72 -18 -92 -21 -20 -49 -28 -49 -14 0 11 16 75 25 105 5
15 27 16 42 1z m-92 -168 c9 -29 -5 -70 -28 -86 -32 -22 -37 -19 -37 23 0 62
50 111 65 63z m2115 -119 c0 -12 -39 -52 -50 -52 -18 0 -10 27 13 43 25 18 37
21 37 9z m-2200 -17 c17 -20 2 -74 -25 -89 -11 -6 -23 -15 -27 -21 -4 -5 -8
13 -8 42 0 68 31 103 60 68z m-12297 -235 c444 -459 793 -808 1376 -1378 173
-169 328 -323 345 -342 51 -57 71 -74 103 -91 17 -10 39 -33 48 -52 9 -20 26
-38 39 -41 13 -3 31 -17 40 -31 l17 -26 -38 7 c-41 7 -66 22 -58 34 3 5 -9 13
-27 19 -33 11 -168 130 -168 148 0 9 -56 61 -123 116 -57 46 -107 95 -107 105
0 5 -10 17 -22 25 -13 8 -101 92 -197 186 -95 94 -180 173 -190 176 -9 3 -36
31 -61 61 -25 31 -56 66 -70 80 -66 65 -122 114 -129 114 -4 0 -13 11 -19 25
-6 14 -18 25 -26 25 -8 0 -17 9 -21 20 -3 10 -27 38 -53 60 -26 23 -54 54 -64
68 -10 15 -88 101 -175 192 -265 275 -375 391 -469 488 -49 51 -90 99 -92 107
-2 8 -7 15 -12 15 -11 0 -30 33 -36 63 -4 23 35 -13 189 -173z m14407 152 c0
-19 -91 -112 -109 -112 -19 0 -12 19 14 36 13 9 27 26 31 37 14 48 64 78 64
39z m-2214 -147 c-21 -21 -46 -19 -46 4 0 24 53 46 58 24 2 -7 -3 -20 -12 -28z
m2028 -63 c-16 -33 -34 -42 -34 -19 0 14 39 61 46 54 2 -2 -3 -18 -12 -35z
m-2115 -41 c18 -12 7 -57 -18 -71 -16 -8 -21 -6 -26 9 -6 20 10 71 22 71 5 0
14 -4 22 -9z m-9836 -83 c-3 -6 -12 -3 -20 5 -9 9 -12 20 -8 28 6 9 11 8 21
-6 7 -10 11 -22 7 -27z m11849 10 c-28 -28 -49 -19 -22 10 12 12 26 20 32 16
6 -4 2 -14 -10 -26z m-4102 -94 c0 -84 -6 -104 -30 -104 -33 0 -41 102 -13
171 15 38 17 40 30 23 8 -11 13 -46 13 -90z m2016 9 c-4 -16 -22 -51 -40 -79
-19 -27 -44 -70 -56 -93 -12 -24 -36 -59 -54 -77 -18 -19 -39 -53 -46 -76 -8
-24 -21 -54 -30 -68 -10 -14 -23 -42 -29 -62 -7 -21 -16 -40 -21 -43 -16 -10
-100 -144 -100 -160 0 -9 -13 -24 -29 -33 -20 -11 -32 -27 -36 -51 -4 -19 -20
-47 -36 -63 -16 -16 -32 -42 -35 -56 -5 -24 -78 -102 -95 -102 -4 0 -11 14
-14 32 -7 29 -3 36 44 81 42 40 51 55 51 82 0 24 8 42 27 60 15 14 31 25 34
25 4 0 9 12 12 28 3 15 15 36 26 47 12 11 30 28 40 39 19 18 51 100 51 131 0
8 15 25 34 36 23 13 36 29 40 52 4 18 19 50 35 72 16 22 34 59 40 81 6 23 26
55 46 74 20 19 43 51 52 70 30 66 102 109 89 53z m2014 20 c0 -12 -33 -43 -46
-43 -9 0 -7 8 8 25 21 24 38 32 38 18z m-11700 -70 c0 -21 -3 -24 -12 -15 -17
17 -19 42 -2 42 9 0 14 -10 14 -27z m11570 -65 c-1 -18 -21 -43 -47 -56 -35
-19 -37 3 -4 37 32 33 51 40 51 19z m-11480 -73 c6 -8 10 -22 8 -31 -3 -17 -4
-17 -20 0 -19 18 -24 46 -9 46 5 0 14 -7 21 -15z m11397 -32 c2 -6 -14 -24
-36 -39 -22 -16 -42 -39 -46 -51 -3 -13 -11 -23 -18 -23 -7 0 -48 -40 -92 -89
-44 -49 -87 -92 -95 -95 -9 -3 -24 -20 -34 -36 -9 -17 -34 -41 -54 -54 -20
-13 -57 -45 -82 -71 -94 -98 -185 -187 -227 -218 -23 -18 -43 -38 -43 -44 0
-13 -50 -43 -70 -43 -19 0 9 40 34 50 13 4 32 24 43 43 12 19 33 43 48 53 15
11 46 39 69 63 23 24 70 71 105 105 35 33 101 96 145 139 45 43 92 89 106 102
14 13 30 30 36 37 6 7 22 22 35 34 13 11 53 51 87 88 60 63 81 75 89 49z
m-9238 -85 c1 -10 -3 -18 -9 -18 -5 0 -10 17 -9 38 0 30 2 33 9 17 5 -11 9
-28 9 -37z m5325 -46 c6 -40 1 -73 -17 -109 -26 -55 -55 0 -42 79 14 81 48 98
59 30z m-7394 7 c0 -6 -4 -7 -10 -4 -5 3 -10 11 -10 16 0 6 5 7 10 4 6 -3 10
-11 10 -16z m87 -129 c32 -39 47 -80 29 -80 -8 0 -28 27 -45 61 -30 58 -42
104 -18 65 7 -10 22 -31 34 -46z m2027 -14 c18 -39 41 -178 32 -201 -9 -26
-45 -18 -57 13 -28 72 -31 222 -4 222 7 0 20 -15 29 -34z m-1939 -123 c20 -21
49 -64 65 -95 16 -31 34 -59 40 -63 6 -4 21 -28 35 -54 13 -26 35 -55 49 -65
14 -9 26 -25 26 -35 0 -35 29 -86 64 -111 20 -14 41 -40 47 -58 6 -18 18 -36
25 -39 35 -13 72 -133 41 -133 -22 0 -57 40 -64 71 -3 17 -16 37 -28 45 -13 8
-37 42 -55 76 -18 34 -44 73 -56 88 -13 14 -34 46 -47 70 -58 109 -85 154
-129 217 -39 57 -68 123 -52 123 2 0 20 -17 39 -37z m7121 -38 c15 -36 18 -92
8 -119 -6 -16 -43 -23 -45 -8 -8 45 5 162 18 162 2 0 11 -16 19 -35z m-5076
-196 c6 -10 10 -52 10 -93 l0 -76 -29 0 c-27 0 -30 4 -40 50 -15 71 -14 110 5
131 18 20 40 15 54 -12z m4989 -223 c0 -23 -8 -61 -18 -85 l-18 -43 -17 37
c-20 42 -17 125 5 151 20 25 49 -11 48 -60z m1651 35 c15 -29 12 -49 -10 -71
-12 -12 -37 -50 -56 -85 -20 -36 -41 -68 -47 -73 -14 -9 -37 -47 -37 -62 0
-12 -81 -132 -111 -164 -11 -11 -19 -25 -19 -30 0 -6 -14 -22 -30 -35 -22 -17
-30 -32 -30 -56 0 -25 -11 -43 -49 -83 -27 -29 -53 -62 -57 -74 -4 -13 -20
-34 -35 -47 -17 -14 -29 -34 -29 -48 0 -28 -14 -58 -42 -87 -10 -11 -35 -49
-55 -83 -24 -41 -46 -66 -63 -72 -23 -7 -26 -14 -22 -39 8 -55 -68 -97 -95
-52 -23 36 21 100 68 100 25 0 27 3 24 37 -3 48 3 63 26 63 10 0 19 5 19 11 0
6 11 25 25 43 14 18 25 44 25 58 0 29 24 54 63 63 25 7 27 11 27 54 0 45 2 49
39 69 43 24 51 38 51 86 0 29 5 35 40 49 36 14 40 19 40 50 0 27 7 40 33 60
19 15 40 45 50 73 26 69 39 94 48 94 18 0 59 49 59 71 0 25 62 99 84 99 7 0
13 16 15 42 1 23 4 45 7 50 9 15 33 8 44 -11z m1600 1 c0 -12 -71 -76 -92 -85
-27 -10 -22 -1 28 48 45 43 64 54 64 37z m-8151 -123 c12 -35 15 -118 5 -143
-3 -9 -14 -16 -24 -16 -42 0 -64 148 -26 176 28 20 33 18 45 -17z m-1665 -164
c15 -19 33 -50 41 -69 8 -18 26 -41 40 -50 16 -11 25 -26 25 -43 0 -20 15 -41
55 -78 30 -29 55 -59 55 -69 0 -24 18 -56 52 -89 27 -27 33 -48 29 -91 -2 -27
-6 -29 -29 -17 -11 6 -26 28 -33 48 -6 21 -28 56 -48 79 -56 63 -68 79 -86
117 -9 19 -24 43 -34 53 -9 11 -23 40 -30 67 -10 33 -21 51 -39 60 -24 12 -65
93 -55 110 10 16 32 5 57 -28z m6484 -52 c-3 -52 -5 -58 -27 -61 -36 -5 -43 9
-30 61 10 41 19 51 52 56 4 0 7 -25 5 -56z m-4718 -112 c17 -33 12 -126 -8
-152 -24 -29 -47 -20 -69 25 -14 31 -15 41 -3 78 20 65 59 88 80 49z m7485
-91 c0 -10 -12 -16 -33 -18 -31 -3 -33 -2 -22 18 13 24 55 24 55 0z m-94 -93
c-5 -14 -21 -24 -46 -29 -21 -5 -40 -6 -43 -3 -3 3 9 18 26 34 36 35 76 34 63
-2z m-2779 6 c32 -29 16 -163 -21 -163 -35 0 -49 129 -18 168 12 16 17 15 39
-5z m-4531 -89 c25 -71 25 -155 -1 -177 -30 -25 -37 -22 -60 31 -16 34 -21 61
-18 98 4 49 33 106 52 101 5 -2 18 -25 27 -53z m7214 -22 c-3 -7 -13 -12 -22
-11 -35 3 -44 -1 -53 -26 -5 -14 -16 -25 -24 -25 -7 0 -22 -12 -31 -27 -25
-40 -83 -93 -100 -93 -41 0 4 56 165 205 l54 49 8 -29 c4 -17 6 -36 3 -43z
m-10215 40 c19 -9 39 -27 45 -40 6 -12 19 -22 31 -22 20 0 70 -47 60 -57 -8
-9 -75 18 -88 35 -7 10 -24 25 -38 34 -14 10 -38 29 -55 43 -26 21 -27 25 -10
24 11 0 36 -8 55 -17z m1530 -172 c40 -43 25 -107 -16 -66 -8 8 -14 19 -14 25
0 6 -4 11 -10 11 -5 0 -10 14 -10 30 0 38 14 38 50 0z m5941 -50 c13 -44 4
-143 -15 -159 -19 -16 -56 -2 -58 23 0 11 0 48 1 81 4 102 48 135 72 55z
m2484 -10 c3 -5 -1 -10 -10 -10 -9 0 -13 5 -10 10 3 6 8 10 10 10 2 0 7 -4 10
-10z m-8340 -51 c12 -19 -4 -61 -23 -57 -30 6 -28 68 2 68 8 0 18 -5 21 -11z
m1467 -12 c9 -8 22 -34 28 -60 10 -39 9 -53 -5 -91 -30 -78 -78 -55 -79 37 -1
121 12 147 56 114z m6788 -37 c0 -5 -7 -10 -15 -10 -8 0 -15 5 -15 10 0 6 7
10 15 10 8 0 15 -4 15 -10z m-44 -46 c-3 -9 -6 -20 -6 -25 0 -15 -73 -40 -100
-34 l-25 7 25 19 c52 41 117 61 106 33z m-8130 -30 c39 -30 45 -67 15 -84 -16
-8 -25 -4 -50 27 -40 48 -40 73 -3 82 2 1 19 -11 38 -25z m6881 -109 c7 -21
-16 -102 -34 -117 -8 -6 -23 -28 -33 -49 -11 -20 -25 -43 -33 -50 -26 -28
-157 -218 -157 -230 0 -5 -16 -26 -36 -46 -20 -21 -45 -57 -55 -80 -11 -23
-30 -51 -44 -61 -13 -11 -30 -32 -37 -48 -19 -46 -93 -145 -138 -188 -22 -21
-48 -52 -57 -70 -31 -60 -123 -184 -141 -188 -29 -8 -162 29 -203 56 -21 14
-43 26 -49 26 -5 0 -10 3 -10 8 0 4 -46 7 -103 7 l-103 0 -69 42 c-59 35 -81
43 -145 49 -115 10 -125 28 -57 96 42 42 44 45 50 120 6 82 27 128 58 128 22
0 35 -68 26 -134 -7 -49 6 -108 29 -131 9 -8 14 -21 11 -28 -6 -15 63 -31 173
-43 92 -9 160 -32 160 -54 0 -25 97 -33 170 -13 52 14 100 51 100 77 0 6 13
25 28 41 15 17 34 44 41 62 7 17 20 34 29 37 62 23 87 47 99 96 6 25 18 39 41
50 18 9 34 25 37 38 3 12 7 33 10 46 3 14 11 31 18 38 7 7 26 36 42 63 31 55
51 74 77 75 16 0 38 51 38 88 0 6 5 12 11 12 5 0 23 15 40 32 21 23 29 43 29
69 0 27 6 39 23 48 12 6 31 23 42 37 42 53 93 104 104 104 6 0 14 -7 18 -15z
m-1213 -46 c24 -120 -16 -239 -55 -166 -18 31 -18 160 0 180 22 28 48 21 55
-14z m-5569 -19 c0 -29 -4 -36 -22 -38 -20 -3 -23 1 -23 31 0 38 7 49 30 45
10 -2 15 -15 15 -38z m1378 3 c18 -36 32 -183 17 -183 -5 0 -10 -7 -10 -15 0
-21 -47 -19 -59 3 -5 9 -14 42 -19 72 -19 104 34 196 71 123z m-1281 -95 c12
-18 23 -38 24 -45 1 -7 16 -27 33 -44 32 -32 41 -75 19 -97 -9 -9 -1 -16 33
-30 67 -29 109 -68 109 -103 0 -16 5 -29 11 -29 21 0 49 -42 49 -73 0 -18 12
-43 31 -66 16 -20 41 -49 55 -66 14 -16 28 -34 32 -38 4 -5 21 -16 38 -26 20
-12 34 -32 42 -59 7 -23 27 -53 47 -71 19 -17 35 -33 35 -37 0 -4 12 -17 26
-29 27 -24 122 -43 133 -28 27 38 149 74 263 76 64 2 78 5 78 18 0 14 24 27
107 60 13 5 59 12 104 15 49 4 86 13 95 22 11 11 14 37 13 108 -2 92 -3 95
-35 128 -25 26 -34 45 -39 87 -13 102 19 159 68 123 25 -18 26 -24 27 -106 0
-79 2 -89 24 -111 14 -14 34 -56 46 -98 12 -41 31 -86 41 -101 30 -41 25 -73
-13 -91 -104 -48 -224 -77 -323 -77 -82 0 -114 -10 -151 -48 -32 -33 -36 -35
-136 -42 -98 -7 -106 -9 -167 -49 -71 -46 -126 -54 -153 -23 -9 9 -39 57 -66
106 -28 48 -60 94 -70 102 -27 18 -184 244 -221 315 -7 14 -33 48 -58 75 -55
59 -128 169 -137 206 -3 15 -18 35 -32 44 -34 23 -75 105 -60 121 21 22 54 14
78 -19z m5386 -131 c6 -7 14 -42 18 -78 5 -51 3 -72 -10 -97 -18 -35 -30 -39
-52 -17 -20 20 -20 89 1 153 18 54 25 61 43 39z m-1932 -2689 c50 -44 214
-229 214 -242 0 -5 9 -19 19 -30 11 -12 23 -33 26 -48 6 -24 4 -28 -13 -28
-13 0 -24 10 -30 29 -6 16 -21 37 -35 45 -13 9 -29 27 -35 41 -6 14 -17 25
-24 25 -7 0 -40 25 -72 55 -91 83 -138 94 -190 43 -66 -64 -126 -98 -126 -70
0 8 53 67 167 189 30 31 55 29 99 -9z m340 -415 c22 -24 54 -81 54 -98 0 -3
-10 -5 -23 -5 -27 0 -62 34 -72 70 -3 14 -9 33 -11 43 -8 27 21 21 52 -10z
m-746 -8 c0 -26 -14 -33 -25 -15 -9 14 1 40 15 40 5 0 10 -11 10 -25z m-43
-61 c4 -13 -44 -40 -54 -29 -5 4 -2 10 5 12 6 3 12 11 12 20 0 16 31 14 37 -3z
m-62 -109 c0 -28 -5 -41 -16 -43 -23 -4 -38 36 -25 65 17 37 41 24 41 -22z
m955 23 c11 -12 20 -35 20 -53 0 -21 6 -33 21 -40 12 -6 41 -48 65 -95 24 -47
47 -90 52 -96 18 -21 29 -50 36 -91 l6 -43 -34 0 c-38 0 -40 3 -51 82 -3 26
-10 50 -16 53 -5 4 -9 15 -9 27 0 12 -8 22 -20 25 -27 7 -50 53 -50 98 0 31
-3 35 -25 35 -29 0 -45 26 -45 74 0 29 5 37 27 45 1 1 11 -9 23 -21z m-1022
-125 c-3 -44 -5 -48 -30 -51 -34 -4 -35 5 -7 58 28 53 41 51 37 -7z m-102
-177 c3 -13 4 -38 2 -57 -2 -28 -8 -35 -29 -37 -23 -3 -25 1 -27 37 -4 65 40
112 54 57z m1401 -238 c11 -37 18 -70 15 -73 -13 -13 -53 -3 -77 20 -21 21
-25 35 -25 80 0 41 4 56 18 64 25 15 46 -12 69 -91z m-1479 29 l3 -57 -35 0
c-35 0 -35 0 -29 38 10 60 21 84 41 80 13 -2 18 -15 20 -61z m1545 -177 c31
-57 35 -105 10 -132 -37 -41 -49 -22 -56 92 -7 106 5 116 46 40z m-1649 -32
c10 -39 6 -82 -9 -102 -8 -11 -16 -18 -19 -15 -13 15 -26 52 -26 74 0 56 41
89 54 43z m1730 -190 c8 -18 17 -57 21 -85 6 -48 5 -53 -13 -53 -35 0 -56 36
-56 94 2 82 24 102 48 44z m-1824 -108 c0 -5 -7 -10 -15 -10 -8 0 -15 5 -15
10 0 6 7 10 15 10 8 0 15 -4 15 -10z m1280 -113 c47 -6 91 -17 98 -24 7 -7 27
-13 43 -13 16 0 51 -10 77 -23 26 -13 67 -30 92 -37 25 -7 52 -19 60 -25 8 -6
31 -18 50 -25 19 -8 44 -22 54 -32 23 -21 86 -25 86 -5 0 27 51 115 70 120 16
4 20 -2 26 -38 3 -24 3 -52 0 -62 -3 -11 -2 -44 4 -74 8 -42 17 -60 44 -84 32
-28 36 -40 59 -150 32 -151 50 -217 77 -279 15 -35 23 -86 31 -180 13 -186 36
-341 60 -413 22 -67 19 -97 -11 -113 -52 -28 -1692 -36 -2260 -11 -225 10
-254 26 -216 122 10 24 16 70 16 117 0 43 5 125 10 183 6 57 14 165 19 241 10
140 34 228 63 228 17 0 98 74 98 89 0 7 9 9 24 5 18 -4 28 1 42 20 11 14 34
46 53 71 18 25 40 45 47 45 8 0 14 3 14 8 0 4 15 16 32 27 96 60 148 97 148
106 0 5 8 9 18 9 10 0 24 9 32 20 8 11 24 20 35 20 12 0 36 11 55 25 19 14 40
25 47 25 8 0 33 9 57 19 66 30 128 51 156 51 14 0 36 7 49 16 12 9 46 20 74
24 76 12 369 10 467 -3z m-1357 -176 c11 -56 -14 -161 -38 -161 -27 0 -34 82
-13 150 15 48 43 54 51 11z"/>
<path d="M12515 42156 c-21 -13 -46 -34 -54 -46 -14 -22 -14 -22 7 -16 39 13
110 56 116 71 8 22 -22 18 -69 -9z"/>
<path d="M12383 42068 c-13 -6 -23 -17 -23 -25 0 -17 4 -16 40 2 50 26 33 47
-17 23z"/>
<path d="M12248 41973 c-10 -2 -18 -9 -18 -14 0 -14 16 -11 30 6 7 8 11 14 9
14 -2 -1 -12 -3 -21 -6z"/>
<path d="M9630 39658 c-22 -24 -27 -43 -7 -32 22 13 47 37 47 46 0 15 -19 8
-40 -14z"/>
<path d="M26757 12044 c-17 -17 -5 -43 25 -53 26 -9 35 -8 47 4 12 12 13 20 5
33 -11 17 -64 29 -77 16z"/>
</g>
</svg>
