<?xml version="1.0" encoding="UTF-8"?>
<svg version="1.1" xmlns="http://www.w3.org/2000/svg" width="4570" height="4570">
<path d="M0 0 C9.48100006 16.42849005 18.39534326 33.09757087 27 50 C27.86842529 51.69600342 27.86842529 51.69600342 28.75439453 53.42626953 C73.55476086 141.03893122 106.39458943 235.16284732 164 460 C164.31553833 461.54642181 164.31553833 461.54642181 164.63745117 463.12408447 C185.57195852 565.91187464 198.153316 670.21243937 203.6875 774.9375 C203.74843842 776.09009308 203.80937683 777.24268616 203.87216187 778.4302063 C205.33917438 806.54773586 206.14049163 834.66195809 206.5625 862.8125 C206.60556672 865.57097237 206.64945516 868.32943147 206.69335938 871.08789062 C206.79839304 877.7252189 206.90045656 884.36258723 207 891 C207.31932999 890.49218491 207.63865997 889.98436981 207.96766663 889.46116638 C214.37736635 879.27414634 220.82391358 869.11867559 227.4375 859.0625 C228.52702777 857.40074332 229.61655264 855.7389847 230.70574951 854.07701111 C231.78348692 852.43263708 232.86171022 850.78858154 233.93994141 849.14453125 C237.01108063 844.45665815 240.06982977 839.76079076 243.125 835.0625 C243.65319336 834.25208252 244.18138672 833.44166504 244.72558594 832.60668945 C246.94334363 829.19779504 249.14755162 825.78405305 251.28515625 822.32421875 C251.91292969 821.30972656 252.54070312 820.29523437 253.1875 819.25 C253.69667969 818.40953125 254.20585937 817.5690625 254.73046875 816.703125 C255.14941406 816.14109375 255.56835938 815.5790625 256 815 C256.66 815 257.32 815 258 815 C266.96917636 833.31686075 275.63297127 851.74888625 284.00138855 870.34751892 C286.05246551 874.90506089 288.1160597 879.45669162 290.18869019 884.00447083 C314.84737174 938.1235992 337.41583165 993.20306633 358 1049 C358.26774231 1049.72521851 358.53548462 1050.45043701 358.81134033 1051.19763184 C388.87291972 1132.71253749 415.97216043 1216.45903196 437 1359 C437.54527344 1358.31035156 438.09054687 1357.62070313 438.65234375 1356.91015625 C452.17190355 1340.0627048 467.85951588 1327.85165659 487 1318 C487.74749512 1317.60603027 488.49499023 1317.21206055 489.26513672 1316.80615234 C528.89961523 1296.08122192 574.72059884 1287.93613659 619 1285 C619.77939941 1284.94360352 620.55879883 1284.88720703 621.36181641 1284.82910156 C705.35465044 1278.91830042 768.79169051 1306.1703066 833.25878906 1359.56298828 C835.7815772 1361.64503132 838.3309177 1363.69406795 840.875 1365.75 C845.26118314 1369.34048875 849.48915411 1373.07838721 853.6796875 1376.89453125 C855.70154184 1378.72917685 857.74678522 1380.52768786 859.8125 1382.3125 C868.68053315 1390.05867353 877.20253707 1398.11702152 885.47314453 1406.49462891 C888.24578675 1409.29088962 891.03963934 1411.97054015 894.0625 1414.5 C898.098918 1417.92969129 901.59436967 1421.82352465 905.14550781 1425.73901367 C909.08023556 1430.05823249 913.1571672 1434.20583227 917.3125 1438.3125 C921.37824986 1442.33912476 925.33149072 1446.37622501 929.03125 1450.74609375 C931.93845041 1454.07437675 934.97562864 1457.27833597 938 1460.5 C942.76551016 1465.58691941 947.47586767 1470.69584486 952 1476 C952.87477272 1477.0210281 953.74979699 1478.04184071 954.625 1479.0625 C956.14078689 1480.83045619 957.65607027 1482.59882968 959.16967773 1484.36865234 C962.43615754 1488.1860376 965.72243716 1491.98533323 969.02197266 1495.77416992 C974.80626332 1502.41906672 980.46079983 1509.14834009 986 1516 C987.4156763 1517.72997757 988.8323708 1519.45912237 990.25 1521.1875 C991.36375 1522.55068359 991.36375 1522.55068359 992.5 1523.94140625 C993.81627729 1525.55178924 995.13294981 1527.16185388 996.453125 1528.76904297 C1003.19040735 1536.97159916 1009.78343852 1545.25896574 1016.1965332 1553.71777344 C1019.7025776 1558.33345901 1023.28811424 1562.87213374 1026.9375 1567.375 C1031.98522583 1573.62207014 1036.76787418 1580.04030573 1041.50317383 1586.52636719 C1045.96173566 1592.62390001 1050.52463003 1598.63396045 1055.125 1604.625 C1060.95712555 1612.23632378 1066.58667273 1619.95531263 1072.0703125 1627.8203125 C1075.17846644 1632.27526301 1078.36912267 1636.66844279 1081.5625 1641.0625 C1086.00448338 1647.18901312 1090.36139389 1653.36385011 1094.62744141 1659.61401367 C1098.00596897 1664.56334502 1101.42486791 1669.48315295 1104.85693359 1674.39550781 C1112.3822028 1685.1721313 1119.77679803 1696.01898607 1127 1707 C1127.55844604 1707.8484549 1127.55844604 1707.8484549 1128.12817383 1708.71405029 C1139.13805904 1725.44179164 1150.11169022 1742.1928131 1161 1759 C1153.84532429 1733.73696965 1146.54689864 1708.51651175 1139.1875 1683.3125 C1138.96885033 1682.56365791 1138.75020065 1681.81481583 1138.52492523 1681.04328156 C1136.7060719 1674.8141733 1134.88697799 1668.58513528 1133.06755447 1662.35619354 C1127.69113174 1643.94950387 1122.32743861 1625.5391126 1116.96694946 1607.1277771 C1115.70912262 1602.80764199 1114.45086259 1598.4876332 1113.1924839 1594.16765881 C1112.24544812 1590.91622992 1111.29872955 1587.66470873 1110.35210419 1584.41316032 C1109.91593583 1582.91515723 1109.47965661 1581.4171864 1109.04325104 1579.9192524 C1108.83878105 1579.21738241 1108.63431107 1578.51551243 1108.42364502 1577.79237366 C1108.2242098 1577.10788808 1108.02477459 1576.4234025 1107.81929588 1575.71817493 C1107.24712117 1573.75012974 1106.67855036 1571.78106757 1106.1100769 1569.81195068 C1105.34969671 1567.20084167 1104.57694512 1564.59676683 1103.78567505 1561.99517822 C1103.22092972 1560.10675201 1103.22092972 1560.10675201 1102.64477539 1558.18017578 C1102.30418594 1557.0610379 1101.9635965 1555.94190002 1101.61268616 1554.78884888 C1101 1552 1101 1552 1102 1549 C1107.32704174 1554.06576994 1112.04878114 1559.41471877 1116.6484375 1565.14453125 C1119.01489388 1568.01808542 1121.47758303 1570.76282617 1124 1573.5 C1128.41881919 1578.31190433 1132.57233762 1583.28269633 1136.671875 1588.3671875 C1138.17431738 1590.21430784 1139.69516863 1592.04527845 1141.21875 1593.875 C1147.7377751 1601.71319914 1154.09471937 1609.63916646 1160.24731445 1617.76855469 C1163.73407988 1622.36958172 1167.30232174 1626.89064988 1170.9375 1631.375 C1177.29276691 1639.24452582 1183.25422749 1647.38929856 1189.21337891 1655.56054688 C1190.97863231 1657.97082455 1192.75801345 1660.36991035 1194.54296875 1662.765625 C1200.95433356 1671.38128486 1207.20840298 1680.07409039 1213.21118164 1688.98046875 C1215.87362957 1692.92496791 1218.58458672 1696.82407212 1221.3722229 1700.68148804 C1227.41204458 1709.0489988 1233.1218213 1717.61640646 1238.77636719 1726.24780273 C1240.36314221 1728.66940365 1241.95465558 1731.08783564 1243.546875 1733.50585938 C1253.81115974 1749.12009047 1263.81394171 1764.89541446 1273.5 1780.875 C1273.85784576 1781.46495758 1274.21569153 1782.05491516 1274.5843811 1782.66275024 C1280.72323081 1792.79240165 1286.69890463 1803.00583356 1292.49902344 1813.33349609 C1294.09669163 1816.17177391 1295.70806911 1819.00200979 1297.3203125 1821.83203125 C1309.25253289 1842.85922904 1320.23468032 1864.3570286 1331 1886 C1331.31477295 1886.6317514 1331.6295459 1887.26350281 1331.95385742 1887.91439819 C1351.84059139 1927.85177491 1368.93293459 1968.90984752 1383.375 2011.125 C1383.66248108 2011.96471344 1383.94996216 2012.80442688 1384.24615479 2013.66958618 C1385.05175256 2016.03072564 1385.85167436 2018.3936788 1386.6484375 2020.7578125 C1387.008237 2021.81758049 1387.008237 2021.81758049 1387.37530518 2022.89875793 C1389 2027.76461044 1389 2027.76461044 1389 2030 C594.69 2030 -199.62 2030 -1018 2030 C-1016.87428862 2014.24004072 -1016.87428862 2014.24004072 -1016.25073242 2008.86230469 C-1016.10884491 2007.62855103 -1015.9669574 2006.39479736 -1015.82077026 2005.12365723 C-1015.59044601 2003.16752502 -1015.59044601 2003.16752502 -1015.35546875 2001.171875 C-1015.18837498 1999.73743977 -1015.02139671 1998.30299108 -1014.85452271 1996.86853027 C-1014.30505124 1992.16161378 -1013.7468813 1987.45574758 -1013.1875 1982.75 C-1013.09020473 1981.92968796 -1012.99290947 1981.10937592 -1012.89266586 1980.26420593 C-1001.55874087 1884.75163503 -988.01928643 1789.48106646 -967 1661 C-966.85821571 1660.14545227 -966.71643143 1659.29090454 -966.57035065 1658.41046143 C-951.90896268 1570.05408555 -935.06545614 1482.14341241 -905 1338 C-904.84198662 1337.2821936 -904.68397324 1336.56438721 -904.52117157 1335.8248291 C-885.10717078 1247.68582833 -863.59303249 1159.92893338 -791.35787964 918.99450684 C-790.02059438 915.03488426 -788.68954378 911.07336036 -787.37109375 907.10742188 C-773.01571857 863.92837973 -757.38343746 821.05782618 -740 779 C-739.43754643 777.6285991 -738.87555696 776.2570078 -738.31396484 774.88525391 C-720.53567624 731.48439993 -701.20775838 688.83263969 -680 647 C-679.67 647 -679.34 647 -679 647 C-678.7877899 654.85270326 -679.61914028 662.46587114 -680.56054688 670.25292969 C-680.72849003 671.6746439 -680.89596258 673.09641376 -681.06300354 674.51823425 C-681.42174189 677.56324297 -681.78373893 680.60783965 -682.14833069 683.65215302 C-682.7249784 688.46752543 -683.29407732 693.28377209 -683.86218262 698.10015869 C-684.76135223 705.7158888 -685.6653411 713.33103747 -686.57150412 720.94593835 C-688.19535443 734.59190702 -689.81418888 748.23846795 -691.42643976 761.88581204 C-691.99216379 766.67253652 -692.56104751 771.45887177 -693.13246918 776.2449193 C-693.48714522 779.22003457 -693.83945801 782.19542638 -694.19117546 785.17089272 C-694.35462375 786.54927203 -694.5190782 787.92753246 -694.684618 789.30566216 C-694.91063079 791.18829782 -695.13271859 793.07140344 -695.35461426 794.95452881 C-695.4799781 796.00751034 -695.60534195 797.06049187 -695.7345047 798.14538193 C-695.98000567 800.78502004 -696.05034747 803.35115814 -696 806 C-694.00620171 801.64338659 -692.01296792 797.28651542 -690.02017212 792.92944336 C-689.29680209 791.34800809 -688.57331116 789.76662811 -687.84970093 788.18530273 C-683.90151233 779.55674586 -679.95988911 770.92545485 -676.0546875 762.27734375 C-668.74026247 746.08774202 -661.2426662 730.01335932 -653.47167969 714.03613281 C-651.68062591 710.34111876 -649.9132534 706.63519226 -648.14916992 702.92724609 C-643.04407974 692.20058986 -637.87355292 681.50540053 -632.68438721 670.81921387 C-631.87028552 669.14175554 -631.05721001 667.46379869 -630.24530029 665.78527832 C-625.48543252 655.94859911 -620.58348243 646.20789303 -615.46308899 636.55360413 C-612.41786349 630.8116084 -609.48514678 625.02399796 -606.625 619.1875 C-602.48933881 610.83399745 -598.12839265 602.63127146 -593.62597656 594.47045898 C-589.76382663 587.45305939 -586.04842075 580.36779165 -582.375 573.25 C-577.54944653 563.91677356 -572.57572169 554.69170086 -567.42089844 545.53710938 C-565.78133741 542.6095633 -564.15953622 539.67252888 -562.5390625 536.734375 C-554.83257557 522.77241333 -546.95787521 508.92325745 -538.8671875 495.1796875 C-536.87146055 491.78110646 -534.88787365 488.37556165 -532.90625 484.96875 C-524.1085279 469.85779368 -515.12188759 454.88405636 -505.88378906 440.03662109 C-504.12692038 437.20459249 -502.38537837 434.36381054 -500.6484375 431.51953125 C-488.97369668 412.50250607 -476.44923069 394.03818923 -464.02124023 375.50927734 C-461.50709065 371.75993789 -459.00526017 368.00266807 -456.5078125 364.2421875 C-453.50759625 359.73889418 -450.44627492 355.28623731 -447.3125 350.875 C-446.80686523 350.16182617 -446.30123047 349.44865234 -445.78027344 348.71386719 C-444.18956252 346.47396632 -442.5952026 344.23670367 -441 342 C-440.48808105 341.28038086 -439.97616211 340.56076172 -439.44873047 339.81933594 C-420.02735513 312.55459493 -399.41302143 286.0633172 -377.50585938 260.74853516 C-375.93737592 258.92728378 -374.38142859 257.09592884 -372.828125 255.26171875 C-363.66610109 244.45856641 -363.66610109 244.45856641 -358.66503906 239.66601562 C-357.04754162 238.0475695 -355.58368136 236.37009624 -354.109375 234.62109375 C-349.26638763 229.05200889 -344.02855589 223.87901377 -338.80297852 218.67260742 C-337.066064 216.941053 -335.33456111 215.20421641 -333.60351562 213.46679688 C-327.90417443 207.76362448 -322.16128997 202.2080878 -316 197 C-314.74957524 195.90822462 -313.50088393 194.81446083 -312.25390625 193.71875 C-293.1107465 177 -293.1107465 177 -290 177 C-292.39567214 187.36154583 -295.27377165 197.5677744 -298.2578125 207.7734375 C-298.45230736 208.43905952 -298.64680222 209.10468155 -298.84719086 209.79047394 C-300.68441585 216.0739826 -302.53064476 222.35484048 -304.37841797 228.63525391 C-305.39809512 232.10211506 -306.41357184 235.57018611 -307.42672348 239.0389595 C-307.991715 240.9684629 -308.56159761 242.89653199 -309.13162231 244.82455444 C-311.08360952 251.50643299 -312.79833859 258.14089148 -314 265 C-313.36835937 264.18660156 -312.73671875 263.37320312 -312.0859375 262.53515625 C-301.2375024 248.61749829 -289.99009983 235.04511805 -278.45458984 221.69287109 C-276.99769473 219.9973171 -275.55382521 218.29148974 -274.11328125 216.58203125 C-267.02294251 208.18936114 -259.60371405 200.157449 -252.04370117 192.18725586 C-250.60711008 190.64975501 -249.18674582 189.09700989 -247.77856445 187.53344727 C-239.47500414 178.32313462 -230.72489066 169.57320012 -221.94702148 160.81665039 C-219.3040134 158.1790307 -216.66643019 155.5360701 -214.02929688 152.89257812 C-212.32844575 151.1923874 -210.62728466 149.49250669 -208.92578125 147.79296875 C-207.75986198 146.62401314 -207.75986198 146.62401314 -206.57038879 145.43144226 C-202.43646835 141.31501983 -198.22609383 137.35294755 -193.79516602 133.55705261 C-190.66810057 130.84476563 -187.69128808 127.97210346 -184.6875 125.125 C-179.46533366 120.20959937 -174.15100768 115.55479904 -168.546875 111.078125 C-165.9299167 108.94281547 -163.43157221 106.71469637 -160.9375 104.4375 C-156.12509075 100.0632693 -151.11800125 96.00922336 -146 92 C-145.00871094 91.21367188 -144.01742187 90.42734375 -142.99609375 89.6171875 C-139.34614974 86.7249143 -135.67611205 83.85891421 -132 81 C-131.2378418 80.40654785 -130.47568359 79.8130957 -129.69042969 79.20166016 C-92.81207903 50.5683496 -53.32296495 25.18109157 -11.625 4.125 C-10.79291016 3.70202637 -9.96082031 3.27905273 -9.10351562 2.84326172 C-8.33974609 2.46443848 -7.57597656 2.08561523 -6.7890625 1.6953125 C-6.12600098 1.36547363 -5.46293945 1.03563477 -4.77978516 0.69580078 C-3 0 -3 0 0 0 Z M-316 266 C-315 268 -315 268 -315 268 Z M-698 809 C-697 811 -697 811 -697 811 Z " fill="#53185E" transform="translate(2099,1048)"/>
</svg>
