<?xml version="1.0" encoding="UTF-8"?>
<svg version="1.1" xmlns="http://www.w3.org/2000/svg" width="4570" height="4570">
<path d="M0 0 C1.29740112 0.00115814 2.59480225 0.00231628 3.93151855 0.00350952 C33.77620963 0.05589351 63.07039545 2.15361852 92.625 6.3125 C92.625 6.9725 92.625 7.6325 92.625 8.3125 C93.30820313 8.33828125 93.99140625 8.3640625 94.6953125 8.390625 C105.84162913 9.01778348 116.68234156 11.1923323 127.625 13.3125 C127.625 13.9725 127.625 14.6325 127.625 15.3125 C128.92308594 15.43882812 130.22117187 15.56515625 131.55859375 15.6953125 C136.34852902 16.22950602 140.98980158 17.12555264 145.6875 18.1875 C146.43837891 18.34863281 147.18925781 18.50976562 147.96289062 18.67578125 C152.34561415 19.65308693 156.44427941 20.92484715 160.62231445 22.56298828 C164.77940485 24.11879317 169.08495886 25.22583236 173.35742188 26.41796875 C177.95772022 27.73233971 182.22919979 29.40194005 186.625 31.3125 C188.92683057 32.07467867 191.23936686 32.80545504 193.5625 33.5 C195.27759766 34.01626953 195.27759766 34.01626953 197.02734375 34.54296875 C197.88457031 34.79691406 198.74179688 35.05085937 199.625 35.3125 C199.625 35.9725 199.625 36.6325 199.625 37.3125 C200.181875 37.42207031 200.73875 37.53164063 201.3125 37.64453125 C206.65841031 38.75525248 211.55563816 40.28475526 216.625 42.3125 C216.625 42.9725 216.625 43.6325 216.625 44.3125 C217.66140625 44.48652344 217.66140625 44.48652344 218.71875 44.6640625 C221.99953272 45.3960651 224.98887291 46.47847904 228.125 47.6875 C229.78015625 48.31785156 229.78015625 48.31785156 231.46875 48.9609375 C234.3895267 50.21166614 236.92902032 51.64417445 239.625 53.3125 C241.51148939 54.28909847 243.4079267 55.24665605 245.3125 56.1875 C246.35277344 56.703125 247.39304687 57.21875 248.46484375 57.75 C250.02912109 58.5234375 250.02912109 58.5234375 251.625 59.3125 C253.54216502 60.26983598 255.45887877 61.22807657 257.375 62.1875 C258.60476563 62.80238281 258.60476563 62.80238281 259.859375 63.4296875 C260.44203125 63.72101562 261.0246875 64.01234375 261.625 64.3125 C261.625 64.9725 261.625 65.6325 261.625 66.3125 C262.20765625 66.44140625 262.7903125 66.5703125 263.390625 66.703125 C271.70008563 68.96934154 279.1315557 74.62718663 286.1875 79.375 C288.82728532 81.14994999 291.46862746 82.83186714 294.25 84.375 C297.35523393 86.15763429 300.16513431 88.09764899 303.046875 90.20703125 C304.82273181 91.45101015 306.64075412 92.43943181 308.625 93.3125 C308.625 93.9725 308.625 94.6325 308.625 95.3125 C309.181875 95.580625 309.73875 95.84875 310.3125 96.125 C314.26429472 98.15429999 317.4912606 100.1787606 320.625 103.3125 C321.35460938 103.74433594 322.08421875 104.17617187 322.8359375 104.62109375 C325.96363428 106.51786225 328.85800834 108.6439977 331.75 110.875 C332.3176709 111.31191162 332.8853418 111.74882324 333.47021484 112.19897461 C338.18185453 115.87315886 342.58432194 119.82692745 346.9609375 123.89453125 C349.52810359 126.22455443 352.16564401 128.40060975 354.875 130.5625 C360.30190673 134.93374044 365.36204204 139.64418046 370.41113281 144.44042969 C373.00990226 146.90337012 375.58304032 149.2789798 378.3828125 151.515625 C380.41879763 153.14725071 381.98595113 154.73378364 383.625 156.75 C386.15013213 159.77503139 388.80243812 162.55714198 391.625 165.3125 C396.87697018 170.45319962 401.8419583 175.73410057 406.625 181.3125 C407.7901896 182.64712433 408.95686055 183.98045679 410.125 185.3125 C410.70121094 185.97121094 411.27742188 186.62992188 411.87109375 187.30859375 C413.05004558 188.65559216 414.22974541 190.00193623 415.41015625 191.34765625 C417.15117479 193.33356531 418.88902342 195.32218267 420.625 197.3125 C421.11742188 197.87582031 421.60984375 198.43914062 422.1171875 199.01953125 C426.43223263 203.99932658 430.55469502 209.13132288 434.625 214.3125 C435.48544922 215.38951172 435.48544922 215.38951172 436.36328125 216.48828125 C437.625 218.3125 437.625 218.3125 437.625 220.3125 C438.285 220.3125 438.945 220.3125 439.625 220.3125 C440.7734375 221.921875 440.7734375 221.921875 442 224.0625 C443.3482988 226.41114952 444.57258967 228.26041723 446.5 230.17578125 C449.10967921 232.79985207 451.16514158 235.70958148 453.25 238.75 C453.64445312 239.31009766 454.03890625 239.87019531 454.4453125 240.44726562 C456.63859759 243.62234218 458.35701664 246.66534356 459.625 250.3125 C460.285 250.3125 460.945 250.3125 461.625 250.3125 C462.9140625 251.9921875 462.9140625 251.9921875 464.25 254.1875 C464.69601563 254.90679688 465.14203125 255.62609375 465.6015625 256.3671875 C466.625 258.3125 466.625 258.3125 466.625 260.3125 C467.285 260.3125 467.945 260.3125 468.625 260.3125 C470.10546875 262.33203125 470.10546875 262.33203125 471.8125 265.125 C472.43382813 266.13046875 473.05515625 267.1359375 473.6953125 268.171875 C474.65050781 269.72648437 474.65050781 269.72648437 475.625 271.3125 C476.80943432 273.16862651 477.99683942 275.02286133 479.1875 276.875 C481.50581504 280.52555943 483.80490457 284.18653422 486.0625 287.875 C486.55621094 288.68066406 487.04992188 289.48632812 487.55859375 290.31640625 C488.625 292.3125 488.625 292.3125 488.625 294.3125 C489.285 294.3125 489.945 294.3125 490.625 294.3125 C491.46348804 295.76787568 492.29563934 297.22690373 493.125 298.6875 C493.5890625 299.49960938 494.053125 300.31171875 494.53125 301.1484375 C495.625 303.3125 495.625 303.3125 495.625 305.3125 C496.285 305.3125 496.945 305.3125 497.625 305.3125 C498.62984204 307.26835325 499.62873805 309.22726237 500.625 311.1875 C501.181875 312.27804687 501.73875 313.36859375 502.3125 314.4921875 C503.625 317.3125 503.625 317.3125 503.625 319.3125 C504.285 319.3125 504.945 319.3125 505.625 319.3125 C506.46319158 320.93499941 507.2954116 322.56058497 508.125 324.1875 C508.5890625 325.09242188 509.053125 325.99734375 509.53125 326.9296875 C510.625 329.3125 510.625 329.3125 510.625 331.3125 C511.285 331.3125 511.945 331.3125 512.625 331.3125 C513.46290789 333.10203185 514.29519396 334.89419695 515.125 336.6875 C515.5890625 337.68523437 516.053125 338.68296875 516.53125 339.7109375 C517.625 342.3125 517.625 342.3125 517.625 344.3125 C518.285 344.3125 518.945 344.3125 519.625 344.3125 C520.06070313 345.18390625 520.49640625 346.0553125 520.9453125 346.953125 C521.23075928 347.52385742 521.51620605 348.09458984 521.81030273 348.68261719 C522.44054292 349.94342503 523.07025688 351.20449605 523.69946289 352.46582031 C525.26289365 355.59819936 526.83532569 358.72493909 528.42578125 361.84375 C528.96589844 362.9059375 529.50601563 363.968125 530.0625 365.0625 C530.55621094 366.02671875 531.04992188 366.9909375 531.55859375 367.984375 C532.625 370.3125 532.625 370.3125 532.625 372.3125 C533.285 372.3125 533.945 372.3125 534.625 372.3125 C539.17115304 381.29051733 543.63268995 390.30855389 548 399.375 C548.42845215 400.25438232 548.8569043 401.13376465 549.29833984 402.03979492 C551.55232321 406.74584988 553.37328471 411.24374083 554.625 416.3125 C555.285 416.3125 555.945 416.3125 556.625 416.3125 C557.46486084 418.24717942 558.29668027 420.18535129 559.125 422.125 C559.5890625 423.20394531 560.053125 424.28289062 560.53125 425.39453125 C561.625 428.3125 561.625 428.3125 561.625 431.3125 C562.285 431.3125 562.945 431.3125 563.625 431.3125 C564.62919637 433.7691947 565.62850501 436.22768353 566.625 438.6875 C566.91117188 439.38617187 567.19734375 440.08484375 567.4921875 440.8046875 C569.625 446.0859375 569.625 446.0859375 569.625 448.3125 C570.285 448.3125 570.945 448.3125 571.625 448.3125 C572.46239781 450.4359016 573.29480283 452.5612728 574.125 454.6875 C574.5890625 455.87085938 575.053125 457.05421875 575.53125 458.2734375 C576.625 461.3125 576.625 461.3125 576.625 463.3125 C577.285 463.3125 577.945 463.3125 578.625 463.3125 C579.46239781 465.4359016 580.29480283 467.5612728 581.125 469.6875 C581.5890625 470.87085938 582.053125 472.05421875 582.53125 473.2734375 C583.625 476.3125 583.625 476.3125 583.625 478.3125 C584.285 478.3125 584.945 478.3125 585.625 478.3125 C586.62899524 480.93603518 587.62834445 483.56117795 588.625 486.1875 C589.05425781 487.30705078 589.05425781 487.30705078 589.4921875 488.44921875 C591.625 494.0859375 591.625 494.0859375 591.625 496.3125 C592.285 496.3125 592.945 496.3125 593.625 496.3125 C594.20507812 497.78009766 594.20507812 497.78009766 594.796875 499.27734375 C598.18660239 507.85775259 598.18660239 507.85775259 601.875 516.3125 C603.51654296 519.91705475 604.64556532 523.47638083 605.625 527.3125 C606.285 527.3125 606.945 527.3125 607.625 527.3125 C608.31335937 529.0140625 608.31335937 529.0140625 609.015625 530.75 C609.63525123 532.27090074 610.25505228 533.79173028 610.875 535.3125 C611.17535156 536.05628906 611.47570313 536.80007813 611.78515625 537.56640625 C613.55954483 541.90799533 615.47219592 546.12538563 617.60302734 550.30322266 C619.40144701 553.83905493 621.10671109 557.4188034 622.8125 561 C623.16763672 561.73283203 623.52277344 562.46566406 623.88867188 563.22070312 C625.63833433 566.90263038 627.08494588 570.22582183 627.625 574.3125 C628.285 574.3125 628.945 574.3125 629.625 574.3125 C630.6294134 576.6023234 631.62867612 578.8941599 632.625 581.1875 C632.91117188 581.83847656 633.19734375 582.48945312 633.4921875 583.16015625 C635.625 588.0859375 635.625 588.0859375 635.625 590.3125 C636.285 590.3125 636.945 590.3125 637.625 590.3125 C638.46290789 592.10203185 639.29519396 593.89419695 640.125 595.6875 C640.5890625 596.68523438 641.053125 597.68296875 641.53125 598.7109375 C642.625 601.3125 642.625 601.3125 642.625 603.3125 C643.285 603.3125 643.945 603.3125 644.625 603.3125 C645.46290789 605.10203185 646.29519396 606.89419695 647.125 608.6875 C647.5890625 609.68523438 648.053125 610.68296875 648.53125 611.7109375 C649.625 614.3125 649.625 614.3125 649.625 616.3125 C650.285 616.3125 650.945 616.3125 651.625 616.3125 C651.97691406 616.97894531 652.32882813 617.64539062 652.69140625 618.33203125 C655.96766929 624.44829254 659.47094579 630.31385112 663.3046875 636.09765625 C664.625 638.3125 664.625 638.3125 664.625 640.3125 C665.285 640.3125 665.945 640.3125 666.625 640.3125 C667.8515625 641.9296875 667.8515625 641.9296875 669.25 644.1875 C672.69473014 649.5310326 676.57983989 654.41444469 680.625 659.3125 C681.16382812 659.97636719 681.70265625 660.64023438 682.2578125 661.32421875 C684.66146243 664.22495859 687.059688 666.76175858 690 669.125 C690.86625 669.846875 691.7325 670.56875 692.625 671.3125 C692.625 671.9725 692.625 672.6325 692.625 673.3125 C693.32625 673.56 694.0275 673.8075 694.75 674.0625 C698.02014548 675.48430238 700.766122 677.18496288 703.625 679.3125 C703.625 679.9725 703.625 680.6325 703.625 681.3125 C704.32625 681.580625 705.0275 681.84875 705.75 682.125 C714.29623288 685.65496575 714.29623288 685.65496575 715.625 688.3125 C717.44608055 689.33230511 719.3081372 690.27957254 721.1875 691.1875 C722.82138672 691.98220703 722.82138672 691.98220703 724.48828125 692.79296875 C725.52339844 693.29441406 726.55851562 693.79585937 727.625 694.3125 C729.04277789 695.03950366 730.45963728 695.7683055 731.875 696.5 C735.68992324 698.41547616 739.60662419 699.87736578 743.625 701.3125 C743.625 701.9725 743.625 702.6325 743.625 703.3125 C744.45902344 703.43753906 745.29304688 703.56257813 746.15234375 703.69140625 C749.88800993 704.35954002 753.52707456 705.2623827 757.1875 706.25 C757.83396484 706.41951172 758.48042969 706.58902344 759.14648438 706.76367188 C761.91919356 707.50550556 764.59804438 708.30163788 767.26171875 709.375 C786.6034271 717.04774381 818.63827761 715.24597302 837.734375 707.109375 C840.01349552 706.14875395 842.34118688 705.40710437 844.6875 704.625 C860.03752071 699.03929802 873.12680144 689.64243498 885.625 679.3125 C886.36105469 678.71308594 887.09710937 678.11367187 887.85546875 677.49609375 C888.88607422 676.63177734 888.88607422 676.63177734 889.9375 675.75 C890.53175781 675.25371094 891.12601563 674.75742188 891.73828125 674.24609375 C893.63550936 672.46023673 893.63550936 672.46023673 894.64111328 670.55712891 C897.55473706 665.61260794 897.55473706 665.61260794 900.69458008 664.73217773 C903.12318929 664.58733484 905.44783381 664.65068892 907.875 664.8125 C909.11636719 664.84730469 909.11636719 664.84730469 910.3828125 664.8828125 C916.41278699 665.10028699 916.41278699 665.10028699 917.625 666.3125 C919.930196 666.80625811 922.24469093 667.2568182 924.5625 667.6875 C940.80586817 670.8477405 956.79367554 677.09161703 970.625 686.3125 C970.625 686.9725 970.625 687.6325 970.625 688.3125 C971.19734375 688.42207031 971.7696875 688.53164062 972.359375 688.64453125 C976.6125729 689.89849132 980.03437302 692.77864618 983.625 695.3125 C984.53378906 695.94285156 984.53378906 695.94285156 985.4609375 696.5859375 C991.01464232 700.58751521 996.11520585 705.1353545 1001.25830078 709.64282227 C1003.89262863 711.9515398 1006.51847911 714.22847909 1009.26953125 716.3984375 C1014.1228184 720.34223635 1018.27444237 725.03117845 1022.5 729.625 C1023.29108154 730.48375732 1023.29108154 730.48375732 1024.09814453 731.35986328 C1028.01025525 735.61811467 1031.85689331 739.92603735 1035.625 744.3125 C1036.16898438 744.93898438 1036.71296875 745.56546875 1037.2734375 746.2109375 C1044.625 754.71006098 1044.625 754.71006098 1044.625 757.3125 C1045.615 757.6425 1046.605 757.9725 1047.625 758.3125 C1048.90625 760.0546875 1048.90625 760.0546875 1050.125 762.1875 C1051.72918656 764.97425998 1053.31986185 767.08034776 1055.625 769.3125 C1059.625 774.9125 1059.625 774.9125 1059.625 777.3125 C1060.285 777.3125 1060.945 777.3125 1061.625 777.3125 C1062.9140625 778.9921875 1062.9140625 778.9921875 1064.25 781.1875 C1064.69601563 781.90679688 1065.14203125 782.62609375 1065.6015625 783.3671875 C1066.625 785.3125 1066.625 785.3125 1066.625 787.3125 C1067.285 787.3125 1067.945 787.3125 1068.625 787.3125 C1070.1328125 789.4296875 1070.1328125 789.4296875 1071.75 792.1875 C1072.28882812 793.09242188 1072.82765625 793.99734375 1073.3828125 794.9296875 C1074.625 797.3125 1074.625 797.3125 1074.625 799.3125 C1075.285 799.3125 1075.945 799.3125 1076.625 799.3125 C1077.46348804 800.76787568 1078.29563934 802.22690373 1079.125 803.6875 C1079.5890625 804.49960938 1080.053125 805.31171875 1080.53125 806.1484375 C1081.625 808.3125 1081.625 808.3125 1081.625 810.3125 C1082.285 810.3125 1082.945 810.3125 1083.625 810.3125 C1084.46319158 811.93499941 1085.2954116 813.56058497 1086.125 815.1875 C1086.5890625 816.09242188 1087.053125 816.99734375 1087.53125 817.9296875 C1088.625 820.3125 1088.625 820.3125 1088.625 822.3125 C1089.285 822.3125 1089.945 822.3125 1090.625 822.3125 C1091.62984204 824.26835325 1092.62873805 826.22726237 1093.625 828.1875 C1094.181875 829.27804687 1094.73875 830.36859375 1095.3125 831.4921875 C1096.625 834.3125 1096.625 834.3125 1096.625 836.3125 C1097.285 836.3125 1097.945 836.3125 1098.625 836.3125 C1099.46290789 838.10203185 1100.29519396 839.89419695 1101.125 841.6875 C1101.5890625 842.68523438 1102.053125 843.68296875 1102.53125 844.7109375 C1103.625 847.3125 1103.625 847.3125 1103.625 849.3125 C1104.285 849.3125 1104.945 849.3125 1105.625 849.3125 C1106.46264268 851.26899397 1107.29499059 853.22775556 1108.125 855.1875 C1108.5890625 856.27804687 1109.053125 857.36859375 1109.53125 858.4921875 C1110.625 861.3125 1110.625 861.3125 1110.625 863.3125 C1111.285 863.3125 1111.945 863.3125 1112.625 863.3125 C1113.6294134 865.6023234 1114.62867612 867.8941599 1115.625 870.1875 C1115.91117188 870.83847656 1116.19734375 871.48945312 1116.4921875 872.16015625 C1118.625 877.0859375 1118.625 877.0859375 1118.625 879.3125 C1119.285 879.3125 1119.945 879.3125 1120.625 879.3125 C1121.46239781 881.4359016 1122.29480283 883.5612728 1123.125 885.6875 C1123.5890625 886.87085938 1124.053125 888.05421875 1124.53125 889.2734375 C1125.625 892.3125 1125.625 892.3125 1125.625 894.3125 C1126.285 894.3125 1126.945 894.3125 1127.625 894.3125 C1128.4644882 896.41421867 1129.29639656 898.51896625 1130.125 900.625 C1130.5890625 901.79675781 1131.053125 902.96851563 1131.53125 904.17578125 C1132.625 907.3125 1132.625 907.3125 1132.625 910.3125 C1133.285 910.3125 1133.945 910.3125 1134.625 910.3125 C1135.31335937 912.08753906 1135.31335937 912.08753906 1136.015625 913.8984375 C1136.45902222 915.04034546 1136.45902222 915.04034546 1136.91137695 916.20532227 C1137.55646425 917.86699001 1138.20082693 919.52893923 1138.84448242 921.19116211 C1140.49360876 925.44113901 1142.17882834 929.66889935 1143.9375 933.875 C1145.72091275 938.27612589 1146.72336853 942.65407074 1147.625 947.3125 C1148.285 947.3125 1148.945 947.3125 1149.625 947.3125 C1149.79104736 947.87646484 1149.95709473 948.44042969 1150.12817383 949.02148438 C1150.89493864 951.61938888 1151.66619077 954.21594125 1152.4375 956.8125 C1152.69853516 957.699375 1152.95957031 958.58625 1153.22851562 959.5 C1154.62844056 964.2009825 1156.14879304 968.79776266 1157.9128418 973.37353516 C1159.16338799 976.7783476 1160.13298399 980.26287737 1161.125 983.75 C1162.42000971 988.23901238 1163.71402568 992.71109484 1165.25 997.125 C1167.48093397 1003.65207538 1169.625 1010.39057148 1169.625 1017.3125 C1170.285 1017.3125 1170.945 1017.3125 1171.625 1017.3125 C1171.79628418 1018.04364014 1171.96756836 1018.77478027 1172.14404297 1019.52807617 C1172.92535555 1022.85300699 1173.71261486 1026.17650225 1174.5 1029.5 C1174.76941406 1030.65048828 1175.03882812 1031.80097656 1175.31640625 1032.98632812 C1175.58066406 1034.09814453 1175.84492188 1035.20996094 1176.1171875 1036.35546875 C1176.35808105 1037.37664795 1176.59897461 1038.39782715 1176.84716797 1039.44995117 C1177.56048471 1042.29350413 1177.56048471 1042.29350413 1178.64306641 1044.85083008 C1179.67779763 1047.44486164 1180.28142725 1049.92246639 1180.84375 1052.65625 C1181.05386719 1053.65527344 1181.26398437 1054.65429688 1181.48046875 1055.68359375 C1181.91015625 1057.76953125 1182.33984375 1059.85546875 1182.76953125 1061.94140625 C1182.97964844 1062.94042969 1183.18976562 1063.93945312 1183.40625 1064.96875 C1183.59251953 1065.87431641 1183.77878906 1066.77988281 1183.97070312 1067.71289062 C1184.56402421 1070.32287524 1184.56402421 1070.32287524 1185.61132812 1072.74633789 C1186.78111645 1075.70771676 1187.42073425 1078.59643325 1188.0625 1081.71484375 C1188.31773437 1082.93494141 1188.57296875 1084.15503906 1188.8359375 1085.41210938 C1189.09632813 1086.67861328 1189.35671875 1087.94511719 1189.625 1089.25 C1190.14258735 1091.75978618 1190.6633138 1094.26892748 1191.1875 1096.77734375 C1191.41566406 1097.887146 1191.64382812 1098.99694824 1191.87890625 1100.14038086 C1192.61735432 1103.27999334 1193.5972724 1106.25756559 1194.625 1109.3125 C1195.44694117 1112.8113219 1196.08814853 1116.34267417 1196.75 1119.875 C1196.93175781 1120.80763672 1197.11351563 1121.74027344 1197.30078125 1122.70117188 C1197.47222656 1123.60544922 1197.64367188 1124.50972656 1197.8203125 1125.44140625 C1198.05258545 1126.66452515 1198.05258545 1126.66452515 1198.28955078 1127.91235352 C1198.63858496 1130.4097007 1198.68268566 1132.79421309 1198.625 1135.3125 C1199.285 1135.3125 1199.945 1135.3125 1200.625 1135.3125 C1200.88192627 1136.71943115 1200.88192627 1136.71943115 1201.14404297 1138.15478516 C1201.78453156 1141.65559692 1202.43073479 1145.15533414 1203.07861328 1148.65478516 C1203.35750226 1150.16556843 1203.63486903 1151.67663358 1203.91064453 1153.18798828 C1204.30876052 1155.36828416 1204.71245503 1157.54748637 1205.1171875 1159.7265625 C1205.2381076 1160.39555573 1205.35902771 1161.06454895 1205.48361206 1161.7538147 C1206.03287907 1164.68485249 1206.67855798 1167.47183304 1207.62939453 1170.30053711 C1208.80272659 1173.85016869 1209.45220917 1177.41263241 1210.0625 1181.08984375 C1210.18810303 1181.81941788 1210.31370605 1182.548992 1210.44311523 1183.30067444 C1210.84151159 1185.61638418 1211.23389229 1187.93304894 1211.625 1190.25 C1212.01639301 1192.56332595 1212.40925679 1194.876351 1212.80688477 1197.18861389 C1213.05326474 1198.62160621 1213.2961705 1200.05520202 1213.53491211 1201.48948669 C1214.28710933 1205.86817274 1215.38664059 1210.04972156 1216.625 1214.3125 C1217.44432764 1218.31454859 1218.08761063 1222.34423802 1218.75 1226.375 C1219.02263672 1227.96924805 1219.02263672 1227.96924805 1219.30078125 1229.59570312 C1219.47222656 1230.62759766 1219.64367188 1231.65949219 1219.8203125 1232.72265625 C1220.05258545 1234.11689819 1220.05258545 1234.11689819 1220.28955078 1235.53930664 C1220.6463348 1238.488877 1220.68131841 1241.34430102 1220.625 1244.3125 C1221.285 1244.3125 1221.945 1244.3125 1222.625 1244.3125 C1222.79628418 1245.4269751 1222.96756836 1246.5414502 1223.14404297 1247.68969727 C1223.78439228 1251.84828012 1224.43063792 1256.00592926 1225.07861328 1260.16333008 C1225.35755183 1261.95833037 1225.63491868 1263.75357567 1225.91064453 1265.54907227 C1226.3086304 1268.13885394 1226.71237371 1270.72768416 1227.1171875 1273.31640625 C1227.29856766 1274.50901817 1227.29856766 1274.50901817 1227.48361206 1275.72572327 C1228.02811419 1279.17617928 1228.66062129 1282.43649333 1229.62719727 1285.80102539 C1230.8216581 1290.00458062 1231.47261132 1294.17349603 1232.09765625 1298.4921875 C1232.22563095 1299.34555695 1232.35360565 1300.19892639 1232.48545837 1301.07815552 C1232.89052894 1303.78063826 1233.28967691 1306.48394154 1233.6875 1309.1875 C1234.21531648 1312.76895411 1234.74866554 1316.3495239 1235.28515625 1319.9296875 C1235.40496353 1320.75564423 1235.52477081 1321.58160095 1235.64820862 1322.43258667 C1235.90887296 1326.18544054 1235.90887296 1326.18544054 1237.625 1329.3125 C1238.07028199 1331.74189775 1238.46114293 1334.15857997 1238.81640625 1336.6015625 C1238.98075417 1337.7065358 1238.98075417 1337.7065358 1239.14842224 1338.83383179 C1239.37992766 1340.39884191 1239.60927941 1341.96417186 1239.83666992 1343.52978516 C1240.1831485 1345.90763607 1240.53932748 1348.28388883 1240.89648438 1350.66015625 C1241.12038575 1352.18220439 1241.34371086 1353.70433744 1241.56640625 1355.2265625 C1241.67263809 1355.93100494 1241.77886993 1356.63544739 1241.88832092 1357.36123657 C1242.51494721 1361.73996648 1242.72237194 1365.90525176 1242.625 1370.3125 C1243.285 1370.3125 1243.945 1370.3125 1244.625 1370.3125 C1244.801521 1371.60986084 1244.97804199 1372.90722168 1245.15991211 1374.24389648 C1245.81354611 1379.03956819 1246.47269431 1383.83446827 1247.13354492 1388.62915039 C1247.41924033 1390.70771866 1247.70342309 1392.78649541 1247.98608398 1394.86547852 C1248.39172866 1397.84707345 1248.80273897 1400.82788575 1249.21484375 1403.80859375 C1249.34092514 1404.74400497 1249.46700653 1405.6794162 1249.59690857 1406.64317322 C1249.71695755 1407.50399002 1249.83700653 1408.36480682 1249.96069336 1409.25170898 C1250.0650621 1410.01337875 1250.16943085 1410.77504852 1250.27696228 1411.55979919 C1250.4603168 1413.33309756 1250.4603168 1413.33309756 1251.625 1414.3125 C1251.91832189 1415.89768439 1252.15389228 1417.4936161 1252.36523438 1419.09179688 C1252.50207642 1420.109552 1252.63891846 1421.12730713 1252.77990723 1422.17590332 C1252.92472534 1423.28316772 1253.06954346 1424.39043213 1253.21875 1425.53125 C1253.37033569 1426.65946167 1253.52192139 1427.78767334 1253.67810059 1428.95007324 C1254.32960271 1433.8000328 1254.97118661 1438.65129342 1255.61376953 1443.50244141 C1256.08288324 1447.03333865 1256.5569347 1450.56354839 1257.03125 1454.09375 C1257.17606812 1455.2010144 1257.32088623 1456.30827881 1257.47009277 1457.44909668 C1257.60693481 1458.46685181 1257.74377686 1459.48460693 1257.88476562 1460.53320312 C1258.00388306 1461.43397583 1258.12300049 1462.33474854 1258.24572754 1463.26281738 C1258.4222282 1465.2986098 1258.4222282 1465.2986098 1259.625 1466.3125 C1260.07162781 1469.09492457 1260.46247287 1471.86551058 1260.81640625 1474.66015625 C1260.92597153 1475.50541367 1261.0355368 1476.35067108 1261.14842224 1477.22154236 C1261.37997995 1479.01778143 1261.60932909 1480.81430634 1261.83666992 1482.61108398 C1262.18305323 1485.3399674 1262.53926392 1488.06743863 1262.89648438 1490.79492188 C1263.12039301 1492.54158968 1263.34371829 1494.28833239 1263.56640625 1496.03515625 C1263.67263809 1496.8438063 1263.77886993 1497.65245636 1263.88832092 1498.48561096 C1264.50978531 1503.46995628 1264.72217307 1508.28926167 1264.625 1513.3125 C1265.285 1513.3125 1265.945 1513.3125 1266.625 1513.3125 C1267.34335001 1519.00427757 1268.05520884 1524.69681674 1268.76123047 1530.39013672 C1269.00198791 1532.32427533 1269.24447534 1534.25819945 1269.48876953 1536.19189453 C1269.84088875 1538.9815411 1270.18664853 1541.77191601 1270.53125 1544.5625 C1270.69530334 1545.845802 1270.69530334 1545.845802 1270.8626709 1547.1550293 C1271.48456114 1552.25077539 1271.72850368 1557.17871769 1271.625 1562.3125 C1272.285 1562.3125 1272.945 1562.3125 1273.625 1562.3125 C1273.71047592 1563.03690781 1273.79595184 1563.76131561 1273.88401794 1564.50767517 C1274.68878055 1571.32145657 1275.49767117 1578.13473643 1276.31124783 1584.94747066 C1276.72940772 1588.45030866 1277.14594681 1591.95332383 1277.55883789 1595.45678711 C1278.03315762 1599.48088298 1278.51442489 1603.50412088 1278.99609375 1607.52734375 C1279.14404892 1608.79086166 1279.29200409 1610.05437958 1279.44444275 1611.35618591 C1279.58451248 1612.517314 1279.72458221 1613.67844208 1279.86889648 1614.87475586 C1279.99103012 1615.90289902 1280.11316376 1616.93104218 1280.23899841 1617.99034119 C1280.38622523 1620.26758776 1280.38622523 1620.26758776 1281.625 1621.3125 C1281.88929073 1622.92905942 1282.09378659 1624.55545386 1282.2734375 1626.18359375 C1282.39025879 1627.22136963 1282.50708008 1628.25914551 1282.62744141 1629.32836914 C1282.75038574 1630.45750732 1282.87333008 1631.58664551 1283 1632.75 C1283.19408447 1634.47561157 1283.19408447 1634.47561157 1283.39208984 1636.23608398 C1283.94820372 1641.18174084 1284.49409481 1646.1285148 1285.04101562 1651.07519531 C1285.44052678 1654.67552922 1285.84512758 1658.27526573 1286.25 1661.875 C1286.37294434 1663.00413818 1286.49588867 1664.13327637 1286.62255859 1665.29663086 C1286.73937988 1666.33440674 1286.85620117 1667.37218262 1286.9765625 1668.44140625 C1287.07791504 1669.35994385 1287.17926758 1670.27848145 1287.28369141 1671.22485352 C1287.4137321 1673.29581612 1287.4137321 1673.29581612 1288.625 1674.3125 C1288.88970079 1675.99045306 1289.09399047 1677.67798895 1289.2734375 1679.3671875 C1289.44866943 1680.98391357 1289.44866943 1680.98391357 1289.62744141 1682.63330078 C1289.75038574 1683.80618652 1289.87333008 1684.97907227 1290 1686.1875 C1290.19408447 1687.97969971 1290.19408447 1687.97969971 1290.39208984 1689.80810547 C1290.94824 1694.94494716 1291.49410989 1700.08287035 1292.04101562 1705.22070312 C1292.44050739 1708.96002177 1292.8451171 1712.69876191 1293.25 1716.4375 C1293.37294434 1717.61038574 1293.49588867 1718.78327148 1293.62255859 1719.99169922 C1293.79779053 1721.60842529 1293.79779053 1721.60842529 1293.9765625 1723.2578125 C1294.07791504 1724.21187988 1294.17926758 1725.16594727 1294.28369141 1726.14892578 C1294.4035955 1728.28719022 1294.4035955 1728.28719022 1295.625 1729.3125 C1295.92105805 1731.32735277 1296.15532308 1733.35131265 1296.36523438 1735.37695312 C1296.50207642 1736.67499878 1296.63891846 1737.97304443 1296.77990723 1739.3104248 C1296.85139481 1740.00836655 1296.92288239 1740.70630829 1296.99653625 1741.42539978 C1297.21960833 1743.6021255 1297.44810994 1745.77821879 1297.67810059 1747.95422363 C1298.24819693 1753.35903387 1298.80875501 1758.76482599 1299.36968994 1764.17059326 C1299.84376045 1768.73572981 1300.32137208 1773.30046833 1300.80378723 1777.86473083 C1301.02947286 1780.01432326 1301.24986019 1782.16441823 1301.47009277 1784.3145752 C1301.60693481 1785.61262085 1301.74377686 1786.9106665 1301.88476562 1788.24804688 C1302.00388306 1789.39752808 1302.12300049 1790.54700928 1302.24572754 1791.73132324 C1302.35180469 1794.23823729 1302.35180469 1794.23823729 1303.625 1795.3125 C1303.89043612 1797.1132126 1304.09435347 1798.92303541 1304.2734375 1800.734375 C1304.39025879 1801.89227539 1304.50708008 1803.05017578 1304.62744141 1804.24316406 C1304.75038574 1805.50354492 1304.87333008 1806.76392578 1305 1808.0625 C1305.19764355 1810.02318312 1305.39529189 1811.98386576 1305.5932312 1813.94451904 C1306.01139003 1818.10104164 1306.42158885 1822.25835741 1306.83325195 1826.41552734 C1307.17216315 1829.83490631 1307.51276693 1833.25409555 1307.85791016 1836.67285156 C1308.11689941 1839.24210239 1308.37185983 1841.81176291 1308.62255859 1844.38183594 C1308.73937988 1845.53973633 1308.85620117 1846.69763672 1308.9765625 1847.890625 C1309.07791504 1848.91575195 1309.17926758 1849.94087891 1309.28369141 1850.99707031 C1309.38354786 1853.26985784 1309.38354786 1853.26985784 1310.625 1854.3125 C1310.8648518 1855.85114675 1311.04389242 1857.39934097 1311.19750977 1858.94897461 C1311.29753799 1859.93768051 1311.39756622 1860.92638641 1311.50062561 1861.9450531 C1311.60483322 1863.02408401 1311.70904083 1864.10311493 1311.81640625 1865.21484375 C1311.98075417 1866.87514366 1311.98075417 1866.87514366 1312.14842224 1868.56898499 C1312.38005363 1870.92183088 1312.609399 1873.27490274 1312.83666992 1875.62817383 C1313.18304456 1879.20400386 1313.53923113 1882.77875811 1313.89648438 1886.35351562 C1314.12039054 1888.64056645 1314.34371575 1890.92767424 1314.56640625 1893.21484375 C1314.67263809 1894.27565659 1314.77886993 1895.33646942 1314.88832092 1896.4294281 C1315.49002279 1902.74653142 1315.75900346 1908.96741703 1315.625 1915.3125 C1316.285 1915.3125 1316.945 1915.3125 1317.625 1915.3125 C1317.71047592 1916.22260834 1317.79595184 1917.13271667 1317.88401794 1918.07040405 C1318.68910211 1926.63495999 1319.49801014 1935.19914419 1320.31124783 1943.76292992 C1320.72923457 1948.16597497 1321.14572585 1952.56915094 1321.55883789 1956.97265625 C1321.95734774 1961.21992678 1322.35973556 1965.46681342 1322.76484871 1969.71345901 C1322.91894624 1971.33608483 1323.07163082 1972.95884545 1323.22289848 1974.58173752 C1323.43452515 1976.84962079 1323.65110861 1979.11697866 1323.86889648 1981.38427734 C1323.99103012 1982.67667328 1324.11316376 1983.96906921 1324.23899841 1985.30062866 C1324.44604719 1988.22949905 1324.44604719 1988.22949905 1325.625 1990.3125 C1325.88476979 1992.39745221 1326.0913404 1994.48910872 1326.2734375 1996.58227539 C1326.35902924 1997.54590752 1326.35902924 1997.54590752 1326.4463501 1998.52900696 C1326.56980472 1999.9246226 1326.6913909 2001.32040449 1326.81134033 2002.71632576 C1327.00105658 2004.92244268 1327.1958747 2007.12805513 1327.39208984 2009.33360291 C1327.87829268 2014.81033508 1328.35603359 2020.28779853 1328.83325195 2025.76531982 C1329.23678125 2030.39440786 1329.64386165 2035.02315483 1330.05596924 2039.65148735 C1330.24843538 2041.82994679 1330.43555766 2044.00882501 1330.62255859 2046.1877594 C1330.7402887 2047.51590338 1330.85827584 2048.84402461 1330.9765625 2050.17211914 C1331.07791504 2051.33634903 1331.17926758 2052.50057892 1331.28369141 2053.7000885 C1331.34504262 2056.23572392 1331.34504262 2056.23572392 1332.625 2057.3125 C1332.86626721 2059.08607105 1333.04454985 2060.86825287 1333.19750977 2062.65161133 C1333.29753799 2063.79402786 1333.39756622 2064.9364444 1333.50062561 2066.11347961 C1333.65693703 2067.98510017 1333.65693703 2067.98510017 1333.81640625 2069.89453125 C1333.98075417 2071.81406868 1333.98075417 2071.81406868 1334.14842224 2073.77238464 C1334.38083342 2076.49343884 1334.60988489 2079.2147506 1334.83666992 2081.9362793 C1335.12490701 2085.39170259 1335.42163426 2088.84633134 1335.72105503 2092.30080128 C1336.00773066 2095.62330157 1336.286673 2098.94643924 1336.56640625 2102.26953125 C1336.67263809 2103.49501175 1336.77886993 2104.72049225 1336.88832092 2105.98310852 C1337.50251814 2113.44589679 1337.75574132 2120.82518739 1337.625 2128.3125 C1336.14 2128.8075 1336.14 2128.8075 1334.625 2129.3125 C1334.13 2130.7975 1334.13 2130.7975 1333.625 2132.3125 C1331.98593425 2133.28255932 1330.34031519 2134.24362023 1328.66015625 2135.140625 C1325.7832737 2136.79717925 1323.22843834 2138.80524636 1320.6171875 2140.84765625 C1318.3697905 2142.50015404 1316.02069621 2143.88457741 1313.625 2145.3125 C1311.98947014 2146.42213601 1310.36453155 2147.54752725 1308.75 2148.6875 C1307.88246094 2149.29851563 1307.01492187 2149.90953125 1306.12109375 2150.5390625 C1304.01151174 2152.03788916 1301.91049154 2153.54753893 1299.8125 2155.0625 C1297.99182067 2156.34768541 1296.14393584 2157.59972591 1294.23046875 2158.7421875 C1291.65461235 2160.29465268 1289.20638822 2161.95311726 1286.75 2163.6875 C1285.88503906 2164.2959375 1285.02007813 2164.904375 1284.12890625 2165.53125 C1281.96950484 2167.06742323 1279.82749036 2168.62453464 1277.6875 2170.1875 C1274.625 2172.3125 1274.625 2172.3125 1271.625 2173.3125 C1271.0475 2173.910625 1270.47 2174.50875 1269.875 2175.125 C1267.64578768 2177.29228976 1265.42059022 2178.62776146 1262.69921875 2180.09765625 C1259.22337306 2182.13341521 1256.0144369 2184.55082777 1252.76171875 2186.921875 C1250.625 2188.3125 1250.625 2188.3125 1248.625 2188.3125 C1248.625 2188.9725 1248.625 2189.6325 1248.625 2190.3125 C1246.9453125 2191.6015625 1246.9453125 2191.6015625 1244.75 2192.9375 C1244.03070312 2193.38351563 1243.31140625 2193.82953125 1242.5703125 2194.2890625 C1240.625 2195.3125 1240.625 2195.3125 1238.625 2195.3125 C1238.625 2195.9725 1238.625 2196.6325 1238.625 2197.3125 C1236.5703125 2198.79296875 1236.5703125 2198.79296875 1233.75 2200.5 C1228.22695182 2203.91566232 1222.91574289 2207.55019394 1217.625 2211.3125 C1211.51953089 2215.65416692 1205.35337218 2219.80495569 1198.97265625 2223.734375 C1196.89693898 2225.12969909 1195.36273213 2226.54040594 1193.625 2228.3125 C1191.95160487 2229.26403841 1190.27679697 2230.2133357 1188.58984375 2231.140625 C1185.71247079 2232.85675202 1183.11732426 2234.90195459 1180.4609375 2236.9375 C1178.2713984 2238.57732503 1175.99581774 2239.9492798 1173.625 2241.3125 C1172.20362776 2242.15881324 1170.78728426 2243.01360676 1169.375 2243.875 C1168.68921875 2244.28878906 1168.0034375 2244.70257812 1167.296875 2245.12890625 C1165.47351063 2246.22247374 1165.47351063 2246.22247374 1164.625 2248.3125 C1162.93225821 2249.30823046 1161.23582354 2250.29858602 1159.515625 2251.24609375 C1156.78493962 2252.78633571 1154.224646 2254.561718 1151.625 2256.3125 C1149.50883186 2257.60484622 1147.38973258 2258.89130756 1145.26171875 2260.1640625 C1143.46895932 2261.22849993 1143.46895932 2261.22849993 1142.625 2263.3125 C1135.62173736 2267.67302202 1135.62173736 2267.67302202 1131.625 2268.3125 C1131.625 2268.9725 1131.625 2269.6325 1131.625 2270.3125 C1129.47265625 2271.75 1129.47265625 2271.75 1126.6875 2273.3125 C1123.00112792 2275.17327895 1123.00112792 2275.17327895 1120.625 2278.3125 C1118.97634499 2279.25458857 1117.32517591 2280.19261403 1115.66015625 2281.10546875 C1112.80358516 2282.7996731 1110.23036749 2284.80373746 1107.6171875 2286.84765625 C1105.3697905 2288.50015404 1103.02069621 2289.88457741 1100.625 2291.3125 C1098.98947014 2292.42213601 1097.36453155 2293.54752725 1095.75 2294.6875 C1094.88246094 2295.29851563 1094.01492187 2295.90953125 1093.12109375 2296.5390625 C1091.01151174 2298.03788916 1088.91049154 2299.54753893 1086.8125 2301.0625 C1083.625 2303.3125 1083.625 2303.3125 1081.25 2304.71484375 C1078.51647098 2306.37855412 1075.99835479 2308.20719589 1073.4375 2310.125 C1069.0687844 2313.3381579 1064.6267128 2316.21119172 1059.9140625 2318.890625 C1057.30564357 2320.51087157 1055.02243143 2322.39385076 1052.625 2324.3125 C1050.25951753 2325.96298405 1047.84952192 2327.54355739 1045.4375 2329.125 C1040.03611002 2332.68622514 1034.71469947 2336.32769335 1029.48046875 2340.1328125 C1027.625 2341.3125 1027.625 2341.3125 1025.625 2341.3125 C1025.625 2341.9725 1025.625 2342.6325 1025.625 2343.3125 C1024.54980606 2343.38544785 1023.47461212 2343.45839569 1022.36683655 2343.53355408 C1012.25682135 2344.22008402 1002.14714679 2344.91144589 992.03778934 2345.6075964 C986.83989103 2345.96537645 981.64188597 2346.32142552 976.44360352 2346.67358398 C971.43129663 2347.0132064 966.41931453 2347.35729029 961.40752983 2347.70453072 C959.49099143 2347.83651782 957.57433971 2347.96686972 955.65757942 2348.09559441 C952.98242416 2348.27552572 950.30772307 2348.46115566 947.63305664 2348.64819336 C946.8324884 2348.70070251 946.03192017 2348.75321167 945.20709229 2348.80731201 C941.61312235 2348.75819339 941.61312235 2348.75819339 938.625 2350.3125 C935.91191556 2350.58214366 933.21677159 2350.79051764 930.49682617 2350.9609375 C929.64479111 2351.01799866 928.79275604 2351.07505981 927.91490173 2351.1338501 C926.05816742 2351.25757678 924.20128818 2351.37914267 922.34428978 2351.49884033 C919.40658704 2351.68823378 916.46929966 2351.88317316 913.53205872 2352.07958984 C907.29254236 2352.49573399 901.05254062 2352.90430547 894.8125 2353.3125 C887.59393191 2353.78557597 880.37558164 2354.26171875 873.15758705 2354.74346924 C870.26176101 2354.93542572 867.36566508 2355.12285869 864.4695282 2355.31005859 C862.6934579 2355.42785847 860.91740027 2355.5458495 859.14135742 2355.6640625 C858.33444458 2355.71500061 857.52753174 2355.76593872 856.69616699 2355.81842041 C853.2179423 2356.05395155 849.99556463 2356.46458594 846.625 2357.3125 C844.91719695 2357.35506207 843.20784642 2357.35328439 841.5 2357.3125 C837.92116131 2357.15933513 837.92116131 2357.15933513 834.625 2358.3125 C831.85879703 2358.57662152 829.10794482 2358.78747888 826.33569336 2358.9609375 C825.47869339 2359.01799866 824.62169342 2359.07505981 823.73872375 2359.1338501 C821.87489523 2359.25740987 820.01093456 2359.37898841 818.14686394 2359.49884033 C815.20151365 2359.68835772 812.2565628 2359.88323796 809.31166077 2360.07958984 C801.99835529 2360.56610782 794.6844642 2361.04357173 787.37054443 2361.52075195 C781.19142029 2361.92416856 775.0125602 2362.33125062 768.8340168 2362.74346924 C765.92423732 2362.93605099 763.01413545 2363.12312163 760.10398865 2363.31005859 C758.33094471 2363.42778274 756.55791819 2363.54576954 754.78491211 2363.6640625 C753.56072067 2363.74046967 753.56072067 2363.74046967 752.3117981 2363.81842041 C748.66256456 2363.75076903 748.66256456 2363.75076903 745.625 2365.3125 C743.37132938 2365.55570307 741.1105247 2365.73292929 738.84887695 2365.88500977 C738.13970123 2365.93392365 737.43052551 2365.98283752 736.69985962 2366.03323364 C734.33795895 2366.19482405 731.97566533 2366.34955579 729.61328125 2366.50390625 C727.9667125 2366.61430638 726.32016223 2366.72498236 724.67362976 2366.83592224 C721.2076623 2367.06836683 717.74149172 2367.29743063 714.27514648 2367.52416992 C709.86945085 2367.8126189 705.46435509 2368.10926355 701.05938435 2368.40855503 C697.64914555 2368.63931136 694.23861815 2368.86555543 690.82799339 2369.09052849 C689.2066867 2369.19799964 687.58546841 2369.3068144 685.96434975 2369.41708565 C676.16279225 2370.08087031 666.45421727 2370.46248881 656.625 2370.3125 C656.625 2370.9725 656.625 2371.6325 656.625 2372.3125 C655.51444244 2372.38544785 654.40388489 2372.45839569 653.25967407 2372.53355408 C642.81153185 2373.22041126 632.3636965 2373.91177646 621.91614723 2374.6075964 C616.54450625 2374.96520782 611.17276859 2375.32121063 605.80078125 2375.67358398 C600.61991763 2376.01347932 595.43934609 2376.35753891 590.25895309 2376.70453072 C588.27903515 2376.83640546 586.29901536 2376.96676012 584.31889725 2377.09559441 C581.55297351 2377.27581293 578.7874559 2377.46135394 576.02197266 2377.64819336 C575.19694748 2377.70070251 574.3719223 2377.75321167 573.52189636 2377.80731201 C569.44150013 2378.01088202 569.44150013 2378.01088202 565.625 2379.3125 C564.27602411 2379.48286078 562.92027271 2379.60125063 561.56359863 2379.69177246 C560.71391006 2379.75060104 559.8642215 2379.80942963 558.98878479 2379.87004089 C558.05469284 2379.93032974 557.12060089 2379.99061859 556.15820312 2380.05273438 C555.17601303 2380.1195491 554.19382294 2380.18636383 553.18186951 2380.25520325 C551.04466799 2380.40004266 548.90733152 2380.54290092 546.7698822 2380.68403625 C543.39159383 2380.90721824 540.01370089 2381.1356893 536.63586426 2381.36560059 C528.24615278 2381.93552357 519.85582614 2382.49617527 511.46551514 2383.05718994 C504.37916461 2383.53136821 497.29306315 2384.00899448 490.20726013 2384.49128723 C486.87151015 2384.71687268 483.53544461 2384.93731053 480.19934082 2385.15759277 C478.16347571 2385.29556456 476.1276268 2385.43377571 474.09179688 2385.57226562 C473.15770493 2385.63255447 472.22361298 2385.69284332 471.26121521 2385.75495911 C470.41152664 2385.81378769 469.56183807 2385.87261627 468.68640137 2385.93322754 C467.94603386 2385.98262733 467.20566635 2386.03202713 466.44286346 2386.08292389 C464.52840237 2386.22262246 464.52840237 2386.22262246 462.625 2387.3125 C459.85879703 2387.57662152 457.10794482 2387.78747888 454.33569336 2387.9609375 C453.47869339 2388.01799866 452.62169342 2388.07505981 451.73872375 2388.1338501 C449.87489523 2388.25740987 448.01093456 2388.37898841 446.14686394 2388.49884033 C443.20151365 2388.68835772 440.2565628 2388.88323796 437.31166077 2389.07958984 C429.99835529 2389.56610782 422.6844642 2390.04357173 415.37054443 2390.52075195 C409.19142029 2390.92416856 403.0125602 2391.33125062 396.8340168 2391.74346924 C393.92423732 2391.93605099 391.01413545 2392.12312163 388.10398865 2392.31005859 C386.33094471 2392.42778274 384.55791819 2392.54576954 382.78491211 2392.6640625 C381.56072067 2392.74046967 381.56072067 2392.74046967 380.3117981 2392.81842041 C376.66256456 2392.75076903 376.66256456 2392.75076903 373.625 2394.3125 C370.86550259 2394.58218977 368.12367239 2394.79056367 365.35742188 2394.9609375 C364.0575106 2395.04652924 364.0575106 2395.04652924 362.7313385 2395.1338501 C360.84349153 2395.25756268 358.95550304 2395.37912967 357.06739807 2395.49884033 C354.08430708 2395.6880991 351.10163881 2395.88306101 348.11901855 2396.07958984 C340.71056586 2396.56653092 333.30147328 2397.04344185 325.89239502 2397.52075195 C319.63636387 2397.92416043 313.38059684 2398.33128866 307.12513733 2398.74346924 C304.17768944 2398.93609883 301.22992052 2399.12315955 298.28210449 2399.31005859 C296.48557779 2399.42778687 294.68906802 2399.5457739 292.89257812 2399.6640625 C292.06552872 2399.71500061 291.23847931 2399.76593872 290.3863678 2399.81842041 C286.69768296 2399.74338975 286.69768296 2399.74338975 283.625 2401.3125 C282.3022089 2401.48975693 280.97088889 2401.6040519 279.63916016 2401.69177246 C278.78098694 2401.75060104 277.92281372 2401.80942963 277.03863525 2401.87004089 C276.09002625 2401.93032974 275.14141724 2401.99061859 274.1640625 2402.05273438 C273.17065857 2402.1195491 272.17725464 2402.18636383 271.15374756 2402.25520325 C268.98925145 2402.40019317 266.82461104 2402.54304064 264.65985107 2402.68403625 C261.23989204 2402.90690872 257.82035682 2403.13547196 254.40087891 2403.36560059 C245.90725126 2403.93600608 237.41296797 2404.49639823 228.91870117 2405.05718994 C221.74668522 2405.53106628 214.57493561 2406.00865453 207.40350342 2406.49128723 C204.02395932 2406.71714875 200.64408098 2406.93745103 197.26416016 2407.15759277 C195.20473433 2407.29554451 193.14532578 2407.43375453 191.0859375 2407.57226562 C189.66302399 2407.6626989 189.66302399 2407.6626989 188.21136475 2407.75495911 C187.35319153 2407.81378769 186.49501831 2407.87261627 185.61083984 2407.93322754 C184.48589615 2408.00732723 184.48589615 2408.00732723 183.33822632 2408.08292389 C181.59509623 2408.14009445 181.59509623 2408.14009445 180.625 2409.3125 C177.86550259 2409.58218977 175.12367239 2409.79056367 172.35742188 2409.9609375 C171.49081436 2410.01799866 170.62420685 2410.07505981 169.7313385 2410.1338501 C167.84349153 2410.25756268 165.95550304 2410.37912967 164.06739807 2410.49884033 C161.08430708 2410.6880991 158.10163881 2410.88306101 155.11901855 2411.07958984 C147.71056586 2411.56653092 140.30147328 2412.04344185 132.89239502 2412.52075195 C126.63636387 2412.92416043 120.38059684 2413.33128866 114.12513733 2413.74346924 C111.17768944 2413.93609883 108.22992052 2414.12315955 105.28210449 2414.31005859 C103.48557779 2414.42778687 101.68906802 2414.5457739 99.89257812 2414.6640625 C98.65200401 2414.74046967 98.65200401 2414.74046967 97.3863678 2414.81842041 C93.69768296 2414.74338975 93.69768296 2414.74338975 90.625 2416.3125 C87.90135091 2416.58213696 85.19557072 2416.79051607 82.46508789 2416.9609375 C81.18221642 2417.04652924 81.18221642 2417.04652924 79.87342834 2417.1338501 C78.01014047 2417.25756614 76.14670896 2417.37913286 74.28315926 2417.49884033 C71.33759888 2417.68814637 68.39246173 2417.88310006 65.44737244 2418.07958984 C59.19441631 2418.49571687 52.94099124 2418.90450505 46.6875 2419.3125 C39.44731818 2419.78515857 32.20735263 2420.2607729 24.96783257 2420.74346924 C22.05975287 2420.93587265 19.15136663 2421.12305864 16.24293518 2421.31005859 C14.46670914 2421.42781088 12.69049873 2421.54579928 10.91430664 2421.6640625 C10.10020325 2421.71500061 9.28609985 2421.76593872 8.44732666 2421.81842041 C4.40501597 2422.01917283 4.40501597 2422.01917283 0.625 2423.3125 C-0.72397589 2423.48286078 -2.07972729 2423.60125063 -3.43640137 2423.69177246 C-4.28608994 2423.75060104 -5.1357785 2423.80942963 -6.01121521 2423.87004089 C-7.41235313 2423.96047417 -7.41235313 2423.96047417 -8.84179688 2424.05273438 C-9.82398697 2424.1195491 -10.80617706 2424.18636383 -11.81813049 2424.25520325 C-13.95533201 2424.40004266 -16.09266848 2424.54290092 -18.2301178 2424.68403625 C-21.60840617 2424.90721824 -24.98629911 2425.1356893 -28.36413574 2425.36560059 C-36.75384722 2425.93552357 -45.14417386 2426.49617527 -53.53448486 2427.05718994 C-60.62083539 2427.53136821 -67.70693685 2428.00899448 -74.79273987 2428.49128723 C-78.12848985 2428.71687268 -81.46455539 2428.93731053 -84.80065918 2429.15759277 C-86.83652429 2429.29556456 -88.8723732 2429.43377571 -90.90820312 2429.57226562 C-92.30934105 2429.6626989 -92.30934105 2429.6626989 -93.73878479 2429.75495911 C-94.58847336 2429.81378769 -95.43816193 2429.87261627 -96.31359863 2429.93322754 C-97.05396614 2429.98262733 -97.79433365 2430.03202713 -98.55713654 2430.08292389 C-100.47159763 2430.22262246 -100.47159763 2430.22262246 -102.375 2431.3125 C-104.66720151 2431.54992444 -106.9653939 2431.73013345 -109.26464844 2431.88500977 C-109.97397018 2431.93392365 -110.68329193 2431.98283752 -111.41410828 2432.03323364 C-113.77059009 2432.19450114 -116.12744079 2432.3494015 -118.484375 2432.50390625 C-120.12951256 2432.6143356 -121.77463361 2432.72501127 -123.41973877 2432.83592224 C-126.87974166 2433.06817101 -130.33993658 2433.29725079 -133.80029297 2433.52416992 C-138.19809794 2433.81283477 -142.59532274 2434.10944052 -146.99242783 2434.40855503 C-150.3983767 2434.63928664 -153.80461291 2434.8655337 -157.21094513 2435.09052849 C-158.82946223 2435.19797962 -160.44788955 2435.30679329 -162.06621552 2435.41708565 C-171.85768445 2436.08158055 -181.55577296 2436.46226047 -191.375 2436.3125 C-191.375 2436.9725 -191.375 2437.6325 -191.375 2438.3125 C-200.91161791 2438.97003011 -210.44857471 2439.62234673 -219.98598671 2440.26825714 C-224.41596341 2440.56843151 -228.84580946 2440.87030951 -233.27539062 2441.17626953 C-237.56100636 2441.47221945 -241.84692057 2441.763448 -246.13306808 2442.05158997 C-247.75718714 2442.16157109 -249.3811976 2442.27316999 -251.00508499 2442.38652039 C-260.81843624 2443.07024878 -270.53223201 2443.46776231 -280.375 2443.3125 C-280.375 2443.9725 -280.375 2444.6325 -280.375 2445.3125 C-282.30392593 2445.44071388 -282.30392593 2445.44071388 -284.27182007 2445.57151794 C-296.36817317 2446.37611275 -308.46421801 2447.18520592 -320.55997276 2447.99874783 C-326.77909012 2448.41688969 -332.99830656 2448.83342469 -339.21777344 2449.24633789 C-345.21560419 2449.64459511 -351.2131428 2450.04700721 -357.21049881 2450.45234871 C-359.50301757 2450.60654971 -361.79563896 2450.7592323 -364.08835983 2450.91039848 C-367.29014551 2451.12175812 -370.49152955 2451.33842762 -373.69287109 2451.55639648 C-374.64880661 2451.61825638 -375.60474213 2451.68011627 -376.58964539 2451.74385071 C-377.89375618 2451.83426132 -377.89375618 2451.83426132 -379.22421265 2451.92649841 C-380.3607834 2452.00254633 -380.3607834 2452.00254633 -381.52031517 2452.08013058 C-383.46614542 2452.21950901 -383.46614542 2452.21950901 -385.375 2453.3125 C-387.27866886 2453.50042133 -389.18776887 2453.63448544 -391.09765625 2453.7421875 C-392.2686084 2453.8138916 -393.43956055 2453.8855957 -394.64599609 2453.95947266 C-395.89719238 2454.03472168 -397.14838867 2454.1099707 -398.4375 2454.1875 C-408.13810854 2454.81314668 -417.53766274 2455.75280582 -427.0546875 2457.7265625 C-430.24102127 2458.28885669 -433.14799105 2458.42105382 -436.375 2458.3125 C-436.375 2458.9725 -436.375 2459.6325 -436.375 2460.3125 C-440.53653511 2461.03092847 -444.69912741 2461.74278025 -448.86279297 2462.44873047 C-450.27715903 2462.68946675 -451.69122833 2462.93195375 -453.10498047 2463.17626953 C-455.14473958 2463.52844781 -457.18550595 2463.87418081 -459.2265625 2464.21875 C-460.45197754 2464.42822266 -461.67739258 2464.63769531 -462.93994141 2464.85351562 C-466.13701291 2465.28070073 -469.15501327 2465.39871116 -472.375 2465.3125 C-472.375 2465.9725 -472.375 2466.6325 -472.375 2467.3125 C-473.55006104 2467.51407715 -474.72512207 2467.7156543 -475.93579102 2467.92333984 C-480.31797525 2468.67613656 -484.69927049 2469.43400228 -489.08032227 2470.19335938 C-490.97233805 2470.52057803 -492.86458845 2470.84644321 -494.75708008 2471.17089844 C-497.48582576 2471.63897057 -500.21367538 2472.11199166 -502.94140625 2472.5859375 C-503.78022842 2472.72873138 -504.6190506 2472.87152527 -505.48329163 2473.01864624 C-510.22252225 2473.84766496 -514.74915784 2474.97003768 -519.375 2476.3125 C-521.64064989 2476.7534864 -523.9134414 2477.15907455 -526.19140625 2477.53125 C-527.45017578 2477.74136719 -528.70894531 2477.95148437 -530.00585938 2478.16796875 C-532.63075722 2478.59827987 -535.25575766 2479.02796559 -537.88085938 2479.45703125 C-539.13833984 2479.66714844 -540.39582031 2479.87726562 -541.69140625 2480.09375 C-542.83037354 2480.28001953 -543.96934082 2480.46628906 -545.14282227 2480.65820312 C-548.37015017 2481.24326401 -548.37015017 2481.24326401 -551.375 2482.3125 C-554.59925574 2483.38725191 -557.70566922 2483.98290442 -561.05859375 2484.53125 C-562.31607422 2484.74136719 -563.57355469 2484.95148437 -564.86914062 2485.16796875 C-566.17044922 2485.38066406 -567.47175781 2485.59335938 -568.8125 2485.8125 C-571.39514047 2486.23588368 -573.97719568 2486.66285611 -576.55859375 2487.09375 C-577.69868896 2487.28001953 -578.83878418 2487.46628906 -580.01342773 2487.65820312 C-583.54265285 2488.34513197 -586.92026433 2489.32109497 -590.375 2490.3125 C-595.20932719 2491.29909739 -600.07423294 2492.10642008 -604.9375 2492.9375 C-606.25199376 2493.16904028 -607.56644723 2493.40080936 -608.88085938 2493.6328125 C-610.13833984 2493.849375 -611.39582031 2494.0659375 -612.69140625 2494.2890625 C-613.83037354 2494.48580566 -614.96934082 2494.68254883 -616.14282227 2494.88525391 C-619.2644585 2495.29788805 -622.23072034 2495.3903861 -625.375 2495.3125 C-625.375 2495.9725 -625.375 2496.6325 -625.375 2497.3125 C-626.91039429 2497.56942627 -626.91039429 2497.56942627 -628.47680664 2497.83154297 C-632.29991916 2498.47237626 -636.12212647 2499.11847625 -639.9440918 2499.76611328 C-641.59359166 2500.04487924 -643.24332875 2500.3222454 -644.89331055 2500.59814453 C-647.27457473 2500.99658016 -649.65492031 2501.40016006 -652.03515625 2501.8046875 C-652.76460953 2501.9256076 -653.49406281 2502.04652771 -654.24562073 2502.17111206 C-658.72887727 2502.93928343 -663.00076841 2504.04507262 -667.375 2505.3125 C-669.55624293 2505.75110527 -671.74428451 2506.15708278 -673.9375 2506.53125 C-675.14664062 2506.74136719 -676.35578125 2506.95148437 -677.6015625 2507.16796875 C-680.1171875 2507.59765625 -682.6328125 2508.02734375 -685.1484375 2508.45703125 C-686.35757812 2508.66714844 -687.56671875 2508.87726562 -688.8125 2509.09375 C-689.90433594 2509.28001953 -690.99617188 2509.46628906 -692.12109375 2509.65820312 C-695.4247851 2510.27601057 -695.4247851 2510.27601057 -698.79296875 2511.29882812 C-702.58304445 2512.37137408 -706.37142413 2513.10144378 -710.25 2513.75 C-710.97815918 2513.87560303 -711.70631836 2514.00120605 -712.45654297 2514.13061523 C-715.53842584 2514.66209964 -718.62180615 2515.18465276 -721.70507812 2515.70800781 C-723.97059768 2516.09389301 -726.23529754 2516.48435261 -728.5 2516.875 C-729.52843018 2517.04696899 -729.52843018 2517.04696899 -730.57763672 2517.22241211 C-734.94735024 2517.97675251 -739.11729539 2519.08874313 -743.375 2520.3125 C-745.62893636 2520.75328732 -747.89000078 2521.15891002 -750.15625 2521.53125 C-751.41050781 2521.74136719 -752.66476562 2521.95148437 -753.95703125 2522.16796875 C-756.56901042 2522.59765625 -759.18098958 2523.02734375 -761.79296875 2523.45703125 C-763.04722656 2523.66714844 -764.30148437 2523.87726562 -765.59375 2524.09375 C-766.72748047 2524.28001953 -767.86121094 2524.46628906 -769.02929688 2524.65820312 C-772.55187166 2525.34708961 -775.92875228 2526.31422223 -779.375 2527.3125 C-783.21113555 2528.12350963 -787.07357642 2528.77258007 -790.9375 2529.4375 C-791.95263672 2529.61925781 -792.96777344 2529.80101563 -794.01367188 2529.98828125 C-798.84922258 2530.82842265 -803.44520579 2531.56530996 -808.375 2531.3125 C-808.375 2531.9725 -808.375 2532.6325 -808.375 2533.3125 C-809.43412598 2533.48378418 -810.49325195 2533.65506836 -811.58447266 2533.83154297 C-815.53256486 2534.47138957 -819.47956202 2535.11778506 -823.42626953 2535.76611328 C-825.13105807 2536.04523157 -826.8361343 2536.32259874 -828.54150391 2536.59814453 C-830.9998108 2536.99566409 -833.45699702 2537.39957421 -835.9140625 2537.8046875 C-836.67055084 2537.9256076 -837.42703918 2538.04652771 -838.20645142 2538.17111206 C-842.44172804 2538.87654738 -846.29728296 2539.93968318 -850.375 2541.3125 C-852.96857418 2541.83673855 -855.54424032 2542.31714437 -858.15234375 2542.75 C-858.88191788 2542.87560303 -859.611492 2543.00120605 -860.36317444 2543.13061523 C-862.67888418 2543.52901159 -864.99554894 2543.92139229 -867.3125 2544.3125 C-869.62582595 2544.70389301 -871.938851 2545.09675679 -874.25111389 2545.49438477 C-875.68410621 2545.74076474 -877.11770202 2545.9836705 -878.55198669 2546.22241211 C-882.93145832 2546.97474428 -887.10846267 2548.08620441 -891.375 2549.3125 C-893.64064989 2549.7534864 -895.9134414 2550.15907455 -898.19140625 2550.53125 C-899.45017578 2550.74136719 -900.70894531 2550.95148437 -902.00585938 2551.16796875 C-904.63075722 2551.59827987 -907.25575766 2552.02796559 -909.88085938 2552.45703125 C-911.13833984 2552.66714844 -912.39582031 2552.87726562 -913.69140625 2553.09375 C-914.83037354 2553.28001953 -915.96934082 2553.46628906 -917.14282227 2553.65820312 C-920.34320188 2554.30606304 -923.2815535 2555.27907546 -926.375 2556.3125 C-928.52426839 2556.74991434 -930.68304727 2557.14232285 -932.84765625 2557.49609375 C-934.07806641 2557.70169922 -935.30847656 2557.90730469 -936.57617188 2558.11914062 C-937.85041016 2558.32732422 -939.12464844 2558.53550781 -940.4375 2558.75 C-948.78516528 2560.11755033 -957.02642209 2561.636688 -965.25610352 2563.59643555 C-970.24433574 2564.741679 -975.27001154 2565.63083868 -980.3125 2566.5 C-981.79459961 2566.76586914 -981.79459961 2566.76586914 -983.30664062 2567.03710938 C-988.04835411 2567.86189366 -992.54047491 2568.54972712 -997.375 2568.3125 C-997.375 2568.9725 -997.375 2569.6325 -997.375 2570.3125 C-998.40383301 2570.48378418 -999.43266602 2570.65506836 -1000.49267578 2570.83154297 C-1004.32895052 2571.47153636 -1008.16413182 2572.11788801 -1011.99902344 2572.76611328 C-1013.65530973 2573.04517909 -1015.3118832 2573.32254624 -1016.96875 2573.59814453 C-1019.3575567 2573.99580045 -1021.74524577 2574.3996614 -1024.1328125 2574.8046875 C-1025.23473434 2574.98606766 -1025.23473434 2574.98606766 -1026.35891724 2575.17111206 C-1030.53061116 2575.88582249 -1034.37421884 2576.95807413 -1038.375 2578.3125 C-1040.61798024 2578.77304161 -1042.87050653 2579.18866342 -1045.12890625 2579.56640625 C-1046.39541016 2579.78103516 -1047.66191406 2579.99566406 -1048.96679688 2580.21679688 C-1050.29033468 2580.43637825 -1051.61390268 2580.65577767 -1052.9375 2580.875 C-1055.54320406 2581.31241217 -1058.14852245 2581.75208784 -1060.75390625 2582.19140625 C-1061.9044751 2582.3829126 -1063.05504395 2582.57441895 -1064.24047852 2582.77172852 C-1068.20051811 2583.45491939 -1072.07020058 2584.23347793 -1075.9609375 2585.2421875 C-1081.25707115 2586.58175392 -1086.62002639 2587.50395702 -1092 2588.4375 C-1093.010625 2588.61925781 -1094.02125 2588.80101563 -1095.0625 2588.98828125 C-1099.88326673 2589.82970116 -1104.45923132 2590.56416051 -1109.375 2590.3125 C-1109.375 2590.9725 -1109.375 2591.6325 -1109.375 2592.3125 C-1110.39859619 2592.48378418 -1111.42219238 2592.65506836 -1112.47680664 2592.83154297 C-1116.29991916 2593.47237626 -1120.12212647 2594.11847625 -1123.9440918 2594.76611328 C-1125.59359166 2595.04487924 -1127.24332875 2595.3222454 -1128.89331055 2595.59814453 C-1131.27457473 2595.99658016 -1133.65492031 2596.40016006 -1136.03515625 2596.8046875 C-1137.12933617 2596.98606766 -1137.12933617 2596.98606766 -1138.24562073 2597.17111206 C-1142.72796716 2597.93912749 -1147.00460978 2599.03317343 -1151.375 2600.3125 C-1155.21113555 2601.12350963 -1159.07357642 2601.77258007 -1162.9375 2602.4375 C-1163.95263672 2602.61925781 -1164.96777344 2602.80101563 -1166.01367188 2602.98828125 C-1170.84922258 2603.82842265 -1175.44520579 2604.56530996 -1180.375 2604.3125 C-1180.375 2604.9725 -1180.375 2605.6325 -1180.375 2606.3125 C-1181.51864014 2606.50884033 -1182.66228027 2606.70518066 -1183.84057617 2606.9074707 C-1188.1446082 2607.64740426 -1192.44778208 2608.3922318 -1196.75073242 2609.13842773 C-1198.60174414 2609.4587426 -1200.45297628 2609.77778673 -1202.30444336 2610.09545898 C-1211.75559306 2611.71791913 -1221.14026111 2613.3980911 -1230.46704102 2615.64477539 C-1235.35758734 2616.76774107 -1240.29975261 2617.56441367 -1245.25 2618.375 C-1247.20634526 2618.69548024 -1249.16209637 2619.01961198 -1251.1171875 2619.34765625 C-1251.9613623 2619.4856665 -1252.80553711 2619.62367676 -1253.67529297 2619.76586914 C-1256.51259391 2620.30210142 -1256.51259391 2620.30210142 -1259.77758789 2621.29663086 C-1263.24883038 2622.2768711 -1266.63373299 2622.94999492 -1270.19140625 2623.53125 C-1271.45017578 2623.74136719 -1272.70894531 2623.95148437 -1274.00585938 2624.16796875 C-1276.63075722 2624.59827987 -1279.25575766 2625.02796559 -1281.88085938 2625.45703125 C-1283.13833984 2625.66714844 -1284.39582031 2625.87726562 -1285.69140625 2626.09375 C-1286.83037354 2626.28001953 -1287.96934082 2626.46628906 -1289.14282227 2626.65820312 C-1292.35747247 2627.23835444 -1292.35747247 2627.23835444 -1295.29296875 2628.29882812 C-1298.93825719 2629.49775379 -1302.59408266 2630.14238609 -1306.37109375 2630.75 C-1307.12286392 2630.87560303 -1307.87463409 2631.00120605 -1308.64918518 2631.13061523 C-1311.03622358 2631.52915936 -1313.42421634 2631.92149247 -1315.8125 2632.3125 C-1318.19716152 2632.70378448 -1320.58151888 2633.09658762 -1322.96510315 2633.49438477 C-1324.44260254 2633.74092624 -1325.92071433 2633.98383645 -1327.39952087 2634.22241211 C-1331.83664381 2634.96223342 -1336.05880422 2636.06115942 -1340.375 2637.3125 C-1342.55624293 2637.75110527 -1344.74428451 2638.15708278 -1346.9375 2638.53125 C-1348.14664062 2638.74136719 -1349.35578125 2638.95148437 -1350.6015625 2639.16796875 C-1353.1171875 2639.59765625 -1355.6328125 2640.02734375 -1358.1484375 2640.45703125 C-1359.35757812 2640.66714844 -1360.56671875 2640.87726562 -1361.8125 2641.09375 C-1362.90433594 2641.28001953 -1363.99617188 2641.46628906 -1365.12109375 2641.65820312 C-1368.43557207 2642.27898761 -1368.43557207 2642.27898761 -1371.85913086 2643.3125 C-1375.30157442 2644.29161595 -1378.66114851 2644.95447409 -1382.19140625 2645.53125 C-1383.45017578 2645.74136719 -1384.70894531 2645.95148437 -1386.00585938 2646.16796875 C-1388.63075722 2646.59827987 -1391.25575766 2647.02796559 -1393.88085938 2647.45703125 C-1395.13833984 2647.66714844 -1396.39582031 2647.87726562 -1397.69140625 2648.09375 C-1398.83037354 2648.28001953 -1399.96934082 2648.46628906 -1401.14282227 2648.65820312 C-1404.35747247 2649.23835444 -1404.35747247 2649.23835444 -1407.29296875 2650.29882812 C-1410.93825719 2651.49775379 -1414.59408266 2652.14238609 -1418.37109375 2652.75 C-1419.12286392 2652.87560303 -1419.87463409 2653.00120605 -1420.64918518 2653.13061523 C-1423.03622358 2653.52915936 -1425.42421634 2653.92149247 -1427.8125 2654.3125 C-1430.19716152 2654.70378448 -1432.58151888 2655.09658762 -1434.96510315 2655.49438477 C-1436.44260254 2655.74092624 -1437.92071433 2655.98383645 -1439.39952087 2656.22241211 C-1443.8357754 2656.96208863 -1448.06252962 2658.049436 -1452.375 2659.3125 C-1456.21113555 2660.12350963 -1460.07357642 2660.77258007 -1463.9375 2661.4375 C-1464.95263672 2661.61925781 -1465.96777344 2661.80101563 -1467.01367188 2661.98828125 C-1471.84922258 2662.82842265 -1476.44520579 2663.56530996 -1481.375 2663.3125 C-1481.375 2663.9725 -1481.375 2664.6325 -1481.375 2665.3125 C-1482.39859619 2665.48378418 -1483.42219238 2665.65506836 -1484.47680664 2665.83154297 C-1488.29991916 2666.47237626 -1492.12212647 2667.11847625 -1495.9440918 2667.76611328 C-1497.59359166 2668.04487924 -1499.24332875 2668.3222454 -1500.89331055 2668.59814453 C-1503.27457473 2668.99658016 -1505.65492031 2669.40016006 -1508.03515625 2669.8046875 C-1508.76460953 2669.9256076 -1509.49406281 2670.04652771 -1510.24562073 2670.17111206 C-1514.72809823 2670.93914995 -1519.00548881 2672.02912485 -1523.375 2673.3125 C-1527.72946981 2674.2978487 -1532.11227191 2675.11450193 -1536.5 2675.9375 C-1538.19189453 2676.28167969 -1538.19189453 2676.28167969 -1539.91796875 2676.6328125 C-1546.85441614 2677.92331434 -1553.49574943 2678.48855306 -1560.53564453 2678.45629883 C-1561.43548695 2678.45377074 -1562.33532936 2678.45124266 -1563.26243973 2678.44863796 C-1575.4238858 2678.35714515 -1587.56740383 2677.72969416 -1599.71247768 2677.13385701 C-1603.15641686 2676.96573798 -1606.60059677 2676.80267958 -1610.04473877 2676.63877869 C-1615.80002254 2676.36408729 -1621.55509501 2676.08526955 -1627.31005859 2675.80395508 C-1633.96362039 2675.47877612 -1640.6174974 2675.16076317 -1647.27157378 2674.846304 C-1653.70628713 2674.54201587 -1660.14073439 2674.23241124 -1666.57508087 2673.92046928 C-1669.30385367 2673.78829254 -1672.03270905 2673.65806073 -1674.76165009 2673.52940559 C-1678.54804611 2673.34979765 -1682.33409712 2673.16414995 -1686.12011719 2672.97680664 C-1687.25237228 2672.92429749 -1688.38462738 2672.87178833 -1689.55119324 2672.81768799 C-1690.5739888 2672.7658284 -1691.59678436 2672.71396881 -1692.65057373 2672.66053772 C-1693.54416973 2672.61721345 -1694.43776573 2672.57388918 -1695.3584404 2672.52925205 C-1697.375 2672.3125 -1697.375 2672.3125 -1698.375 2671.3125 C-1700.0005123 2671.14571301 -1701.63287847 2671.04530261 -1703.26524353 2670.97119141 C-1704.32391129 2670.92077698 -1705.38257904 2670.87036255 -1706.47332764 2670.81842041 C-1708.23051117 2670.74201324 -1708.23051117 2670.74201324 -1710.02319336 2670.6640625 C-1711.86201836 2670.57847076 -1711.86201836 2670.57847076 -1713.73799133 2670.4911499 C-1716.410017 2670.36738572 -1719.08205825 2670.24534972 -1721.75428581 2670.12615967 C-1725.97677789 2669.93770108 -1730.19892089 2669.74211451 -1734.42103577 2669.54541016 C-1743.38460267 2669.12883276 -1752.3485336 2668.72037536 -1761.3125 2668.3125 C-1770.98496263 2667.87226363 -1780.6573459 2667.43052402 -1790.32934099 2666.98011589 C-1794.52928898 2666.78479987 -1798.7294088 2666.59392871 -1802.92971218 2666.40641785 C-1806.15244208 2666.26145502 -1809.37490322 2666.11072143 -1812.59741211 2665.9609375 C-1814.3515593 2665.88453033 -1814.3515593 2665.88453033 -1816.1411438 2665.80657959 C-1817.20263138 2665.75616516 -1818.26411896 2665.70575073 -1819.35777283 2665.65380859 C-1820.74681021 2665.59077042 -1820.74681021 2665.59077042 -1822.16390896 2665.52645874 C-1824.375 2665.3125 -1824.375 2665.3125 -1826.375 2664.3125 C-1827.82444378 2664.17295057 -1829.2793004 2664.08710015 -1830.734375 2664.03125 C-1831.60320313 2663.99386719 -1832.47203125 2663.95648437 -1833.3671875 2663.91796875 C-1834.27726562 2663.88316406 -1835.18734375 2663.84835938 -1836.125 2663.8125 C-1837.91159423 2663.74299273 -1839.69806249 2663.6701557 -1841.484375 2663.59375 C-1842.67498535 2663.54831055 -1842.67498535 2663.54831055 -1843.88964844 2663.50195312 C-1846.7570933 2663.28337383 -1849.54186438 2662.79868059 -1852.375 2662.3125 C-1852.47782211 2598.84983124 -1852.57322104 2535.38715273 -1852.62905884 2471.92442322 C-1852.62988718 2470.98537079 -1852.63071552 2470.04631836 -1852.63156897 2469.0788098 C-1852.64952581 2448.67137879 -1852.66614699 2428.2639469 -1852.68139198 2407.85651368 C-1852.68887609 2397.84892234 -1852.6966554 2387.84133123 -1852.70458984 2377.83374023 C-1852.7053744 2376.83785699 -1852.70615895 2375.84197374 -1852.70696728 2374.81591222 C-1852.73254195 2342.52807965 -1852.77761469 2310.24031003 -1852.83278332 2277.9525156 C-1852.88936658 2244.77659992 -1852.9263098 2211.60071907 -1852.93848994 2178.42475595 C-1852.94021891 2173.74043513 -1852.94217273 2169.05611442 -1852.94426346 2164.37179375 C-1852.944668 2163.44983918 -1852.94507253 2162.52788462 -1852.94548933 2161.57799204 C-1852.95258362 2146.72842419 -1852.98042265 2131.87896399 -1853.0159922 2117.02944006 C-1853.05129742 2102.10585841 -1853.06481248 2087.18238362 -1853.05600826 2072.25876165 C-1853.05143979 2063.388913 -1853.06365513 2054.51945503 -1853.09978526 2045.64967681 C-1853.12226988 2039.72582045 -1853.12299267 2033.80222018 -1853.10599088 2027.8783462 C-1853.09692424 2024.50189599 -1853.10065753 2021.12678598 -1853.12429909 2017.75031687 C-1853.14829987 2014.11179794 -1853.13545048 2010.47520468 -1853.11328697 2006.83671665 C-1853.12904905 2005.79026137 -1853.14481114 2004.74380608 -1853.16105086 2003.66564003 C-1853.06317915 1996.57907029 -1851.32930517 1991.54010277 -1846.375 1986.3125 C-1845.715 1986.3125 -1845.055 1986.3125 -1844.375 1986.3125 C-1844.11460937 1985.58804688 -1843.85421875 1984.86359375 -1843.5859375 1984.1171875 C-1842.33726599 1981.22510316 -1840.85696959 1978.97562874 -1839 1976.4375 C-1836.17988907 1972.50465219 -1833.6846333 1968.56222527 -1831.375 1964.3125 C-1830.715 1964.3125 -1830.055 1964.3125 -1829.375 1964.3125 C-1829.106875 1963.61125 -1828.83875 1962.91 -1828.5625 1962.1875 C-1826.65721078 1957.57469452 -1824.91032902 1953.82988318 -1821.375 1950.3125 C-1820.60837804 1949.21268192 -1819.88129975 1948.08464905 -1819.1875 1946.9375 C-1818.75953125 1946.23496094 -1818.3315625 1945.53242188 -1817.890625 1944.80859375 C-1817.39046875 1943.98488281 -1816.8903125 1943.16117188 -1816.375 1942.3125 C-1815.75109375 1941.31347656 -1815.1271875 1940.31445312 -1814.484375 1939.28515625 C-1810.20374947 1932.41491566 -1806.16046652 1925.46760528 -1802.375 1918.3125 C-1801.715 1918.3125 -1801.055 1918.3125 -1800.375 1918.3125 C-1800.1378125 1917.65378906 -1799.900625 1916.99507812 -1799.65625 1916.31640625 C-1798.00887768 1912.45412175 -1795.96270747 1908.88848058 -1793.875 1905.25 C-1793.07206233 1903.8429351 -1792.2699524 1902.43539746 -1791.46875 1901.02734375 C-1791.11490234 1900.40980225 -1790.76105469 1899.79226074 -1790.39648438 1899.15600586 C-1789.33162312 1897.23421634 -1788.34427066 1895.28398564 -1787.375 1893.3125 C-1786.715 1893.3125 -1786.055 1893.3125 -1785.375 1893.3125 C-1785.13910156 1892.49136719 -1784.90320312 1891.67023438 -1784.66015625 1890.82421875 C-1783.12517789 1886.62985538 -1781.05734792 1882.9728041 -1778.8125 1879.125 C-1777.99634396 1877.71620484 -1777.18244609 1876.30609841 -1776.37109375 1874.89453125 C-1776.01200928 1874.27811768 -1775.6529248 1873.6617041 -1775.28295898 1873.02661133 C-1774.23053085 1871.15345658 -1774.23053085 1871.15345658 -1773.375 1868.3125 C-1772.715 1868.3125 -1772.055 1868.3125 -1771.375 1868.3125 C-1771.1275 1867.4875 -1770.88 1866.6625 -1770.625 1865.8125 C-1769.18795189 1861.78876529 -1767.35145485 1858.09270976 -1765.375 1854.3125 C-1764.715 1854.3125 -1764.055 1854.3125 -1763.375 1854.3125 C-1763.106875 1853.466875 -1762.83875 1852.62125 -1762.5625 1851.75 C-1761.3271405 1848.17395933 -1759.898012 1844.77389092 -1758.375 1841.3125 C-1757.715 1841.3125 -1757.055 1841.3125 -1756.375 1841.3125 C-1756.106875 1840.466875 -1755.83875 1839.62125 -1755.5625 1838.75 C-1754.3271405 1835.17395933 -1752.898012 1831.77389092 -1751.375 1828.3125 C-1750.715 1828.3125 -1750.055 1828.3125 -1749.375 1828.3125 C-1749.1275 1827.4875 -1748.88 1826.6625 -1748.625 1825.8125 C-1747.18947182 1821.7930211 -1745.32138412 1818.09877914 -1743.375 1814.3125 C-1742.11991252 1811.81503835 -1740.87274117 1809.31363818 -1739.625 1806.8125 C-1739.00533393 1805.57285387 -1738.38555183 1804.33326574 -1737.765625 1803.09375 C-1737.30671875 1802.1759375 -1736.8478125 1801.258125 -1736.375 1800.3125 C-1735.715 1800.3125 -1735.055 1800.3125 -1734.375 1800.3125 C-1734.2925 1799.673125 -1734.21 1799.03375 -1734.125 1798.375 C-1733.07979628 1794.10708483 -1731.23408174 1790.28142333 -1729.375 1786.3125 C-1728.715 1786.3125 -1728.055 1786.3125 -1727.375 1786.3125 C-1726.88 1784.58 -1726.88 1784.58 -1726.375 1782.8125 C-1724.54587339 1777.26326565 -1721.91072528 1772.16837473 -1719.24414062 1766.98632812 C-1717.44111657 1763.47949766 -1715.75907841 1760.01293762 -1714.375 1756.3125 C-1713.715 1756.3125 -1713.055 1756.3125 -1712.375 1756.3125 C-1712.18164062 1755.72082031 -1711.98828125 1755.12914063 -1711.7890625 1754.51953125 C-1710.43085281 1750.3978355 -1709.05449415 1746.3174476 -1707.375 1742.3125 C-1706.715 1742.3125 -1706.055 1742.3125 -1705.375 1742.3125 C-1705.21209473 1741.77737793 -1705.04918945 1741.24225586 -1704.88134766 1740.69091797 C-1702.97421831 1734.67872193 -1700.51778485 1729.09806643 -1697.75 1723.4375 C-1696.94383731 1721.77415166 -1696.13908652 1720.11011808 -1695.3359375 1718.4453125 C-1694.80685791 1717.36080811 -1694.80685791 1717.36080811 -1694.26708984 1716.25439453 C-1693.26761487 1714.17146263 -1693.26761487 1714.17146263 -1692.375 1711.3125 C-1691.715 1711.3125 -1691.055 1711.3125 -1690.375 1711.3125 C-1690.18164062 1710.64863281 -1689.98828125 1709.98476562 -1689.7890625 1709.30078125 C-1687.20276801 1700.53042619 -1687.20276801 1700.53042619 -1685.375 1696.3125 C-1684.715 1696.3125 -1684.055 1696.3125 -1683.375 1696.3125 C-1683.18164062 1695.73242188 -1682.98828125 1695.15234375 -1682.7890625 1694.5546875 C-1680.58203125 1687.93359375 -1680.58203125 1687.93359375 -1678.375 1681.3125 C-1677.715 1681.3125 -1677.055 1681.3125 -1676.375 1681.3125 C-1676.19324219 1680.755625 -1676.01148438 1680.19875 -1675.82421875 1679.625 C-1674.12637815 1674.47053009 -1672.31077765 1669.38239385 -1670.375 1664.3125 C-1669.715 1664.3125 -1669.055 1664.3125 -1668.375 1664.3125 C-1668.25253906 1663.60738281 -1668.13007812 1662.90226562 -1668.00390625 1662.17578125 C-1667.34094799 1659.15746817 -1666.39324425 1656.39360558 -1665.3125 1653.5 C-1664.95027344 1652.52417969 -1664.58804688 1651.54835938 -1664.21484375 1650.54296875 C-1663.93769531 1649.80691406 -1663.66054687 1649.07085938 -1663.375 1648.3125 C-1662.715 1648.3125 -1662.055 1648.3125 -1661.375 1648.3125 C-1661.18164062 1647.64863281 -1660.98828125 1646.98476562 -1660.7890625 1646.30078125 C-1658.20276801 1637.53042619 -1658.20276801 1637.53042619 -1656.375 1633.3125 C-1655.715 1633.3125 -1655.055 1633.3125 -1654.375 1633.3125 C-1654.25769531 1632.61769531 -1654.14039063 1631.92289063 -1654.01953125 1631.20703125 C-1652.30861084 1623.52344323 -1648.93564289 1616.12018908 -1645.2890625 1609.16796875 C-1643.71841211 1605.9796827 -1642.56950344 1602.65710963 -1641.375 1599.3125 C-1640.715 1599.3125 -1640.055 1599.3125 -1639.375 1599.3125 C-1639.25382812 1598.59449219 -1639.13265625 1597.87648438 -1639.0078125 1597.13671875 C-1638.36267084 1594.2574754 -1637.42779418 1591.82768663 -1636.25 1589.125 C-1633.91095433 1583.64436221 -1631.71315645 1578.11973059 -1629.5625 1572.5625 C-1629.24845215 1571.75143799 -1628.9344043 1570.94037598 -1628.61083984 1570.10473633 C-1627.86439062 1568.17444264 -1627.11952232 1566.24353772 -1626.375 1564.3125 C-1625.715 1564.3125 -1625.055 1564.3125 -1624.375 1564.3125 C-1624.2925 1563.549375 -1624.21 1562.78625 -1624.125 1562 C-1623.08722135 1556.8975883 -1621.23212968 1552.1669506 -1619.375 1547.3125 C-1618.715 1547.3125 -1618.055 1547.3125 -1617.375 1547.3125 C-1617.21644531 1546.64605469 -1617.05789063 1545.97960938 -1616.89453125 1545.29296875 C-1615.37200067 1539.27855237 -1613.38973756 1533.88380977 -1610.69921875 1528.30078125 C-1608.65665904 1523.69146508 -1607.18998244 1518.89178653 -1605.68359375 1514.0859375 C-1605.25175781 1513.17070312 -1604.81992188 1512.25546875 -1604.375 1511.3125 C-1603.055 1510.9825 -1601.735 1510.6525 -1600.375 1510.3125 C-1600.045 1541.3325 -1599.715 1572.3525 -1599.375 1604.3125 C-1598.715 1602.6625 -1598.055 1601.0125 -1597.375 1599.3125 C-1596.715 1599.3125 -1596.055 1599.3125 -1595.375 1599.3125 C-1594.98441406 1598.00732422 -1594.98441406 1598.00732422 -1594.5859375 1596.67578125 C-1593.37017703 1593.2991046 -1591.87259328 1590.55420781 -1590 1587.5 C-1587.05185594 1582.5700138 -1584.53725879 1577.63085081 -1582.375 1572.3125 C-1581.715 1572.3125 -1581.055 1572.3125 -1580.375 1572.3125 C-1580.106875 1571.44625 -1579.83875 1570.58 -1579.5625 1569.6875 C-1578.40388013 1566.39458036 -1576.99290161 1563.40122125 -1575.375 1560.3125 C-1574.715 1560.3125 -1574.055 1560.3125 -1573.375 1560.3125 C-1573.106875 1559.466875 -1572.83875 1558.62125 -1572.5625 1557.75 C-1571.3271405 1554.17395933 -1569.898012 1550.77389092 -1568.375 1547.3125 C-1567.715 1547.3125 -1567.055 1547.3125 -1566.375 1547.3125 C-1566.13007812 1546.4771875 -1565.88515625 1545.641875 -1565.6328125 1544.78125 C-1564.20489345 1540.84338627 -1562.34346112 1537.4263074 -1560.25 1533.8125 C-1559.85184082 1533.11543945 -1559.45368164 1532.41837891 -1559.04345703 1531.70019531 C-1558.22263743 1530.2643308 -1557.39955496 1528.82975751 -1556.57421875 1527.39648438 C-1555.46010546 1525.46039499 -1554.35331811 1523.52038123 -1553.25 1521.578125 C-1549.46889209 1514.92808663 -1545.62966774 1508.31523226 -1541.72265625 1501.73828125 C-1540.26529873 1499.29054375 -1540.26529873 1499.29054375 -1539.375 1496.3125 C-1538.715 1496.3125 -1538.055 1496.3125 -1537.375 1496.3125 C-1537.1275 1495.4875 -1536.88 1494.6625 -1536.625 1493.8125 C-1535.18795189 1489.78876529 -1533.35145485 1486.09270976 -1531.375 1482.3125 C-1530.715 1482.3125 -1530.055 1482.3125 -1529.375 1482.3125 C-1529.106875 1481.44625 -1528.83875 1480.58 -1528.5625 1479.6875 C-1527.40388013 1476.39458036 -1525.99290161 1473.40122125 -1524.375 1470.3125 C-1523.715 1470.3125 -1523.055 1470.3125 -1522.375 1470.3125 C-1522.106875 1469.44625 -1521.83875 1468.58 -1521.5625 1467.6875 C-1520.40388013 1464.39458036 -1518.99290161 1461.40122125 -1517.375 1458.3125 C-1516.715 1458.3125 -1516.055 1458.3125 -1515.375 1458.3125 C-1515.1275 1457.4875 -1514.88 1456.6625 -1514.625 1455.8125 C-1513.18795189 1451.78876529 -1511.35145485 1448.09270976 -1509.375 1444.3125 C-1508.715 1444.3125 -1508.055 1444.3125 -1507.375 1444.3125 C-1506.9728125 1443.2915625 -1506.9728125 1443.2915625 -1506.5625 1442.25 C-1505.21446694 1438.91539191 -1503.79963702 1435.61506763 -1502.375 1432.3125 C-1501.715 1432.3125 -1501.055 1432.3125 -1500.375 1432.3125 C-1500.1378125 1431.65378906 -1499.900625 1430.99507812 -1499.65625 1430.31640625 C-1498.00887768 1426.45412175 -1495.96270747 1422.88848058 -1493.875 1419.25 C-1493.07206233 1417.8429351 -1492.2699524 1416.43539746 -1491.46875 1415.02734375 C-1490.93797852 1414.10103149 -1490.93797852 1414.10103149 -1490.39648438 1413.15600586 C-1489.33162312 1411.23421634 -1488.34427066 1409.28398564 -1487.375 1407.3125 C-1486.715 1407.3125 -1486.055 1407.3125 -1485.375 1407.3125 C-1485.106875 1406.44625 -1484.83875 1405.58 -1484.5625 1404.6875 C-1483.40388013 1401.39458036 -1481.99290161 1398.40122125 -1480.375 1395.3125 C-1479.715 1395.3125 -1479.055 1395.3125 -1478.375 1395.3125 C-1478.106875 1394.44625 -1477.83875 1393.58 -1477.5625 1392.6875 C-1476.40388013 1389.39458036 -1474.99290161 1386.40122125 -1473.375 1383.3125 C-1472.715 1383.3125 -1472.055 1383.3125 -1471.375 1383.3125 C-1471.1275 1382.6525 -1470.88 1381.9925 -1470.625 1381.3125 C-1469.05682955 1377.54889093 -1467.22994954 1373.9413576 -1465.375 1370.3125 C-1464.715 1370.3125 -1464.055 1370.3125 -1463.375 1370.3125 C-1463.106875 1369.44625 -1462.83875 1368.58 -1462.5625 1367.6875 C-1461.40388013 1364.39458036 -1459.99290161 1361.40122125 -1458.375 1358.3125 C-1457.715 1358.3125 -1457.055 1358.3125 -1456.375 1358.3125 C-1456.00181641 1357.02859375 -1456.00181641 1357.02859375 -1455.62109375 1355.71875 C-1454.27833231 1352.04825478 -1452.54064187 1349.10233086 -1450.4375 1345.8125 C-1447.8382276 1341.73139941 -1445.47107578 1337.67549158 -1443.375 1333.3125 C-1442.715 1333.3125 -1442.055 1333.3125 -1441.375 1333.3125 C-1441.106875 1332.44625 -1440.83875 1331.58 -1440.5625 1330.6875 C-1437.72295014 1322.61720041 -1437.72295014 1322.61720041 -1434.9140625 1319.8984375 C-1433.16943295 1318.10067202 -1432.26024966 1316.38147342 -1431.1875 1314.125 C-1430.84332031 1313.40957031 -1430.49914063 1312.69414062 -1430.14453125 1311.95703125 C-1429.89058594 1311.41433594 -1429.63664062 1310.87164063 -1429.375 1310.3125 C-1428.715 1310.3125 -1428.055 1310.3125 -1427.375 1310.3125 C-1427.1275 1309.466875 -1426.88 1308.62125 -1426.625 1307.75 C-1425.23526373 1303.92822526 -1423.46379162 1300.79381937 -1421.375 1297.3125 C-1420.715 1297.3125 -1420.055 1297.3125 -1419.375 1297.3125 C-1419.106875 1296.44625 -1418.83875 1295.58 -1418.5625 1294.6875 C-1417.40388013 1291.39458036 -1415.99290161 1288.40122125 -1414.375 1285.3125 C-1413.715 1285.3125 -1413.055 1285.3125 -1412.375 1285.3125 C-1412.106875 1284.61125 -1411.83875 1283.91 -1411.5625 1283.1875 C-1410.3068551 1280.1475176 -1408.87264877 1277.2397226 -1407.375 1274.3125 C-1406.715 1274.3125 -1406.055 1274.3125 -1405.375 1274.3125 C-1405.1275 1273.466875 -1404.88 1272.62125 -1404.625 1271.75 C-1403.23526373 1267.92822526 -1401.46379162 1264.79381937 -1399.375 1261.3125 C-1398.715 1261.3125 -1398.055 1261.3125 -1397.375 1261.3125 C-1397.106875 1260.44625 -1396.83875 1259.58 -1396.5625 1258.6875 C-1395.40388013 1255.39458036 -1393.99290161 1252.40122125 -1392.375 1249.3125 C-1391.715 1249.3125 -1391.055 1249.3125 -1390.375 1249.3125 C-1390.106875 1248.61125 -1389.83875 1247.91 -1389.5625 1247.1875 C-1388.3068551 1244.1475176 -1386.87264877 1241.2397226 -1385.375 1238.3125 C-1384.715 1238.3125 -1384.055 1238.3125 -1383.375 1238.3125 C-1383.10300781 1237.58546875 -1382.83101562 1236.8584375 -1382.55078125 1236.109375 C-1381.4137113 1233.40458402 -1380.10536147 1231.05387524 -1378.5625 1228.5625 C-1375.70141698 1223.88072778 -1373.00371144 1219.12792715 -1370.375 1214.3125 C-1369.715 1214.3125 -1369.055 1214.3125 -1368.375 1214.3125 C-1368.12234375 1213.62671875 -1367.8696875 1212.9409375 -1367.609375 1212.234375 C-1366.18488324 1208.86247678 -1364.45334687 1205.72585085 -1362.625 1202.5625 C-1362.27083008 1201.94560303 -1361.91666016 1201.32870605 -1361.55175781 1200.69311523 C-1359.09009604 1196.44513939 -1356.47153314 1192.33961393 -1353.6953125 1188.2890625 C-1351.75478592 1185.38401383 -1350.0655847 1182.36855696 -1348.375 1179.3125 C-1347.715 1179.3125 -1347.055 1179.3125 -1346.375 1179.3125 C-1346.13007812 1178.45785156 -1345.88515625 1177.60320312 -1345.6328125 1176.72265625 C-1344.27362758 1173.03766112 -1342.42601024 1169.98456006 -1340.25 1166.75 C-1339.44419853 1165.52547191 -1338.63953832 1164.30019215 -1337.8359375 1163.07421875 C-1337.42827148 1162.45466309 -1337.02060547 1161.83510742 -1336.60058594 1161.19677734 C-1334.64070295 1158.18355486 -1332.75419642 1155.12648255 -1330.875 1152.0625 C-1330.2253125 1151.00546875 -1329.575625 1149.9484375 -1328.90625 1148.859375 C-1327.40447185 1146.43610663 -1327.40447185 1146.43610663 -1326.375 1144.3125 C-1325.715 1144.3125 -1325.055 1144.3125 -1324.375 1144.3125 C-1324.106875 1143.61125 -1323.83875 1142.91 -1323.5625 1142.1875 C-1322.3068551 1139.1475176 -1320.87264877 1136.2397226 -1319.375 1133.3125 C-1318.715 1133.3125 -1318.055 1133.3125 -1317.375 1133.3125 C-1317.106875 1132.61125 -1316.83875 1131.91 -1316.5625 1131.1875 C-1315.3068551 1128.1475176 -1313.87264877 1125.2397226 -1312.375 1122.3125 C-1311.715 1122.3125 -1311.055 1122.3125 -1310.375 1122.3125 C-1310.148125 1121.6525 -1309.92125 1120.9925 -1309.6875 1120.3125 C-1308.31335218 1117.1715907 -1306.66111178 1114.4570073 -1304.80859375 1111.58203125 C-1302.66670752 1108.19119773 -1300.69499247 1104.70161609 -1298.70703125 1101.21875 C-1298.26746094 1100.5896875 -1297.82789063 1099.960625 -1297.375 1099.3125 C-1296.715 1099.3125 -1296.055 1099.3125 -1295.375 1099.3125 C-1295.148125 1098.6525 -1294.92125 1097.9925 -1294.6875 1097.3125 C-1293.30860622 1094.1607428 -1291.64499056 1091.43624628 -1289.79296875 1088.546875 C-1288.29275575 1086.18290301 -1286.86307893 1083.78463997 -1285.4375 1081.375 C-1282.94582743 1077.19854365 -1280.30956017 1073.14544933 -1277.57421875 1069.125 C-1276.33134781 1067.3256718 -1276.33134781 1067.3256718 -1275.375 1065.3125 C-1274.715 1065.3125 -1274.055 1065.3125 -1273.375 1065.3125 C-1273.106875 1064.61125 -1272.83875 1063.91 -1272.5625 1063.1875 C-1271.3068551 1060.1475176 -1269.87264877 1057.2397226 -1268.375 1054.3125 C-1267.715 1054.3125 -1267.055 1054.3125 -1266.375 1054.3125 C-1266.1275 1053.631875 -1265.88 1052.95125 -1265.625 1052.25 C-1264.13302092 1048.74384917 -1262.30664489 1045.59629632 -1260.375 1042.3125 C-1259.715 1042.3125 -1259.055 1042.3125 -1258.375 1042.3125 C-1258.106875 1041.61125 -1257.83875 1040.91 -1257.5625 1040.1875 C-1255.65592291 1035.57157651 -1253.9061272 1031.83488679 -1250.375 1028.3125 C-1246.52514391 1023.0391677 -1243.21443954 1017.40872938 -1239.8828125 1011.80078125 C-1236.9683328 1006.9911347 -1233.94873027 1002.25854419 -1230.41015625 997.8828125 C-1228.39650782 995.33966343 -1226.65918944 992.74754597 -1224.9375 990 C-1224.33679687 989.04867187 -1223.73609375 988.09734375 -1223.1171875 987.1171875 C-1222.02558892 985.35986064 -1220.94554594 983.59524427 -1219.8828125 981.8203125 C-1218.76097698 979.95501203 -1217.57447512 978.12884804 -1216.375 976.3125 C-1215.715 976.3125 -1215.055 976.3125 -1214.375 976.3125 C-1214.106875 975.61125 -1213.83875 974.91 -1213.5625 974.1875 C-1211.4101419 968.97652775 -1209.35289508 965.29039508 -1205.375 961.3125 C-1204.31488057 959.34370677 -1203.30029151 957.34814133 -1202.375 955.3125 C-1201.715 955.3125 -1201.055 955.3125 -1200.375 955.3125 C-1200.11460937 954.58804688 -1199.85421875 953.86359375 -1199.5859375 953.1171875 C-1198.33726599 950.22510316 -1196.85696959 947.97562874 -1195 945.4375 C-1192.17988907 941.50465219 -1189.6846333 937.56222527 -1187.375 933.3125 C-1186.715 933.3125 -1186.055 933.3125 -1185.375 933.3125 C-1185.106875 932.590625 -1184.83875 931.86875 -1184.5625 931.125 C-1183.37598638 928.31483617 -1182.10014361 925.82833443 -1180.375 923.3125 C-1179.715 923.3125 -1179.055 923.3125 -1178.375 923.3125 C-1178.11460937 922.58804688 -1177.85421875 921.86359375 -1177.5859375 921.1171875 C-1176.33726599 918.22510316 -1174.85696959 915.97562874 -1173 913.4375 C-1170.17988907 909.50465219 -1167.6846333 905.56222527 -1165.375 901.3125 C-1164.715 901.3125 -1164.055 901.3125 -1163.375 901.3125 C-1163.106875 900.590625 -1162.83875 899.86875 -1162.5625 899.125 C-1161.37598638 896.31483617 -1160.10014361 893.82833443 -1158.375 891.3125 C-1157.715 891.3125 -1157.055 891.3125 -1156.375 891.3125 C-1156.106875 890.590625 -1155.83875 889.86875 -1155.5625 889.125 C-1154.37598638 886.31483617 -1153.10014361 883.82833443 -1151.375 881.3125 C-1150.715 881.3125 -1150.055 881.3125 -1149.375 881.3125 C-1149.1275 880.631875 -1148.88 879.95125 -1148.625 879.25 C-1146.27739267 873.73312278 -1143.69558529 869.498067 -1139.375 865.3125 C-1138.42023269 863.92973355 -1137.46991527 862.54319801 -1136.5625 861.12890625 C-1135.1181985 858.91969507 -1133.59049515 856.77715389 -1132.0625 854.625 C-1128.87788643 850.10776917 -1125.93129413 845.47387894 -1123.05078125 840.7578125 C-1121.36348778 838.29570128 -1119.51490669 836.38210174 -1117.375 834.3125 C-1116.44526849 832.95110744 -1115.51985437 831.58630268 -1114.62890625 830.19921875 C-1113.01172464 827.76588941 -1111.28824841 825.42002528 -1109.5625 823.0625 C-1104.03238522 815.49065453 -1098.64402795 807.85907029 -1093.63671875 799.9296875 C-1093.22035156 799.39601563 -1092.80398438 798.86234375 -1092.375 798.3125 C-1091.715 798.3125 -1091.055 798.3125 -1090.375 798.3125 C-1090.106875 797.590625 -1089.83875 796.86875 -1089.5625 796.125 C-1087.98674422 792.39294683 -1086.36718418 789.27267824 -1083.4375 786.4375 C-1081.59279667 784.53689657 -1080.56820877 783.0361568 -1079.3125 780.75 C-1077.7002029 777.88947289 -1076.62652966 776.50195741 -1074.375 774.3125 C-1071.2100732 770.41254922 -1068.35118459 766.35766592 -1065.75 762.0625 C-1063.91265739 759.03939635 -1061.87890808 756.81640808 -1059.375 754.3125 C-1058.34481581 752.60360623 -1057.40519498 750.87181158 -1056.5 749.09375 C-1055.375 747.3125 -1055.375 747.3125 -1053.52734375 745.4921875 C-1050.94690722 742.87896866 -1048.96655193 739.97932569 -1046.9375 736.9375 C-1044.66172263 733.53773485 -1042.36829483 730.2378318 -1039.7265625 727.109375 C-1038.01570831 725.07453846 -1036.55426261 723.19355356 -1035.1875 720.9375 C-1034.589375 720.07125 -1033.99125 719.205 -1033.375 718.3125 C-1032.715 718.3125 -1032.055 718.3125 -1031.375 718.3125 C-1031.106875 717.590625 -1030.83875 716.86875 -1030.5625 716.125 C-1028.31099596 710.79249042 -1025.44943821 707.38693821 -1021.375 703.3125 C-1020.69231862 701.98729497 -1020.0242959 700.65437818 -1019.375 699.3125 C-1018.04166667 697.97916667 -1016.70833333 696.64583333 -1015.375 695.3125 C-1014.67375 694.24 -1013.9725 693.1675 -1013.25 692.0625 C-1012.63125 691.155 -1012.0125 690.2475 -1011.375 689.3125 C-1010.715 689.3125 -1010.055 689.3125 -1009.375 689.3125 C-1009.1275 688.59191406 -1008.88 687.87132812 -1008.625 687.12890625 C-1007.24597971 684.02180117 -1005.55885228 681.84733901 -1003.375 679.25 C-1000.58682954 675.99002639 -1000.58682954 675.99002639 -998.4375 672.31640625 C-996.92471452 669.46324835 -994.66874469 667.57241364 -992.375 665.3125 C-990.88145677 663.42314142 -989.42356645 661.50512858 -988 659.5625 C-984.73924161 655.1518384 -981.44005828 650.7834347 -978.05859375 646.46484375 C-976.89905096 644.98245842 -975.74575477 643.49517267 -974.59765625 642.00390625 C-971.85411174 638.4439021 -969.08823516 634.94278308 -966.125 631.5625 C-963.8561037 628.96347329 -962.13986545 626.2806828 -960.375 623.3125 C-959.04307239 621.97776242 -957.70954601 620.64461956 -956.375 619.3125 C-955.10281682 617.78908736 -953.85368688 616.24620608 -952.625 614.6875 C-951.59246094 613.38232422 -951.59246094 613.38232422 -950.5390625 612.05078125 C-949.82492187 611.14714844 -949.11078125 610.24351562 -948.375 609.3125 C-946.26463276 606.68749934 -944.15234238 604.06406235 -942.0390625 601.44140625 C-940.74512932 599.78602225 -939.5404724 598.06070861 -938.375 596.3125 C-937.715 596.3125 -937.055 596.3125 -936.375 596.3125 C-936.106875 595.755625 -935.83875 595.19875 -935.5625 594.625 C-932.24559107 588.16575629 -932.24559107 588.16575629 -929.609375 585.58203125 C-926.81016335 582.73877606 -924.43302403 579.65668411 -922 576.5 C-918.23727772 571.66399088 -914.42517236 566.91225327 -910.375 562.3125 C-908.87445162 560.56647933 -907.37849796 558.81659317 -905.8828125 557.06640625 C-904.86358417 555.88082719 -903.83732472 554.70126218 -902.8046875 553.52734375 C-900.43615203 550.81959591 -898.29970737 548.19842026 -896.3125 545.1875 C-894.26029486 542.14229237 -891.9999543 539.87640885 -889.375 537.3125 C-884.53716332 532.02604187 -880.02640205 526.46961572 -875.50390625 520.9140625 C-870.60287909 514.92491738 -865.47682597 509.13037172 -860.375 503.3125 C-859.8078125 502.6628125 -859.240625 502.013125 -858.65625 501.34375 C-855.5787674 497.81863357 -852.48647672 494.30766556 -849.375 490.8125 C-846.76598494 487.87925782 -844.15800213 484.94521189 -841.5625 482 C-841.01980469 481.38511719 -840.47710938 480.77023437 -839.91796875 480.13671875 C-838.31077585 478.29043637 -838.31077585 478.29043637 -836.80078125 476.08203125 C-836.33027344 475.49808594 -835.85976562 474.91414063 -835.375 474.3125 C-834.715 474.3125 -834.055 474.3125 -833.375 474.3125 C-833.148125 473.755625 -832.92125 473.19875 -832.6875 472.625 C-831.01391899 469.67630964 -828.77206987 467.70956987 -826.375 465.3125 C-825.52028145 464.16140845 -824.68735296 462.99387133 -823.875 461.8125 C-821.66446268 458.62103675 -819.19656171 455.99298362 -816.375 453.3125 C-813.89164538 450.88971501 -811.5430052 448.5225065 -809.375 445.8125 C-806.49100893 442.20751116 -803.17648199 439.09394494 -799.875 435.875 C-797.30246981 433.3050025 -797.30246981 433.3050025 -794.875 430.3125 C-791.7658959 426.58157507 -788.34892535 423.26207722 -784.875 419.875 C-782.30246981 417.3050025 -782.30246981 417.3050025 -779.875 414.3125 C-777.49908306 411.46139967 -775.02873209 408.90451739 -772.375 406.3125 C-770.3462338 404.28786571 -768.32167204 402.2590718 -766.296875 400.23046875 C-764.74903923 398.68577899 -763.1889334 397.15338946 -761.625 395.625 C-759.3388232 393.34996883 -759.3388232 393.34996883 -757.375 390.8125 C-755.2069948 388.1024935 -752.85835462 385.73528499 -750.375 383.3125 C-749.075625 381.95125 -749.075625 381.95125 -747.75 380.5625 C-745.375 378.3125 -745.375 378.3125 -742.375 377.3125 C-742.045 400.7425 -741.715 424.1725 -741.375 448.3125 C-736.86395991 442.51875222 -736.86395991 442.51875222 -732.37109375 436.7109375 C-728.35269607 431.49407034 -724.16168219 426.47444613 -719.80859375 421.53515625 C-717.44095518 418.82334967 -715.30108377 416.20050571 -713.3125 413.1875 C-711.26029486 410.14229237 -708.9999543 407.87640885 -706.375 405.3125 C-704.0032585 402.67912755 -701.69408929 399.99222521 -699.375 397.3125 C-698.27100438 396.06234893 -697.16683694 394.81234957 -696.0625 393.5625 C-692.21091132 389.17186279 -688.50887323 384.65937743 -684.8046875 380.14453125 C-681.76335853 376.59957385 -678.47099108 373.37804688 -675.125 370.125 C-671.81036294 366.73503028 -668.67156671 363.2053405 -665.515625 359.66796875 C-663.94074966 357.93503111 -662.29971513 356.26165342 -660.625 354.625 C-658.75775007 352.70588202 -657.37288593 350.94135163 -655.875 348.75 C-653.73041511 345.64705374 -651.40704001 343.58653001 -648.375 341.3125 C-645.68664749 338.75856511 -643.24988743 336.16236492 -640.875 333.3125 C-638.50385733 330.46712879 -636.02520627 327.89645112 -633.375 325.3125 C-632.1375 324.075 -632.1375 324.075 -630.875 322.8125 C-629.6375 321.575 -629.6375 321.575 -628.375 320.3125 C-627.488125 319.384375 -626.60125 318.45625 -625.6875 317.5 C-623.375 315.3125 -623.375 315.3125 -621.375 315.3125 C-621.148125 314.735 -620.92125 314.1575 -620.6875 313.5625 C-619.0341307 310.72815264 -616.94536056 309.34487811 -614.375 307.3125 C-612.68767723 305.32989574 -611.02133943 303.3292658 -609.375 301.3125 C-606.79886387 298.60425432 -604.20984565 296.17768012 -601.3125 293.8125 C-598.38761559 291.49554406 -598.38761559 291.49554406 -596.53125 288.9375 C-594.22328628 286.12780503 -591.7905068 284.06008372 -588.9375 281.8125 C-585.16543196 278.83261871 -581.74930615 275.73433159 -578.375 272.3125 C-575.63315935 269.79126722 -572.86391443 267.30253545 -570.09375 264.8125 C-567.44703596 262.37873996 -564.91497441 259.85664514 -562.375 257.3125 C-561.20024361 256.25648243 -560.01335902 255.21373746 -558.8125 254.1875 C-555.85344992 251.62892286 -552.95746584 249.01394721 -550.08959961 246.35351562 C-544.89393585 241.53579384 -539.57807431 236.95896345 -534.05078125 232.51953125 C-530.43043524 229.53340643 -526.99519166 226.36299205 -523.56640625 223.16015625 C-521.54889472 221.45911712 -519.73234791 220.44525159 -517.375 219.3125 C-516.6634375 218.3534375 -516.6634375 218.3534375 -515.9375 217.375 C-514.03543652 214.86427621 -512.08188207 213.93662924 -509.375 212.3125 C-507.25702554 210.49592959 -505.19434216 208.63131886 -503.14453125 206.73828125 C-501.375 205.3125 -501.375 205.3125 -499.375 205.3125 C-499.375 204.6525 -499.375 203.9925 -499.375 203.3125 C-497.78118494 202.01659429 -496.12175218 200.80097306 -494.4375 199.625 C-489.30394084 195.98352526 -484.31878191 192.20572825 -479.375 188.3125 C-464.09758065 176.3125 -464.09758065 176.3125 -461.375 176.3125 C-461.375 175.6525 -461.375 174.9925 -461.375 174.3125 C-459.4765625 172.8046875 -459.4765625 172.8046875 -457 171.1875 C-456.18789062 170.64867187 -455.37578125 170.10984375 -454.5390625 169.5546875 C-452.375 168.3125 -452.375 168.3125 -450.375 168.3125 C-450.045 167.3225 -449.715 166.3325 -449.375 165.3125 C-447.7589609 164.36981052 -446.13676803 163.43600079 -444.484375 162.55859375 C-441.20603209 160.62194303 -438.33525793 158.20487841 -435.390625 155.80078125 C-433.375 154.3125 -433.375 154.3125 -430.375 153.3125 C-429.776875 152.69375 -429.17875 152.075 -428.5625 151.4375 C-426.05961035 149.00612148 -423.49121926 147.83598497 -420.375 146.3125 C-420.045 145.6525 -419.715 144.9925 -419.375 144.3125 C-412.37173736 139.95197798 -412.37173736 139.95197798 -408.375 139.3125 C-408.375 138.6525 -408.375 137.9925 -408.375 137.3125 C-406.50390625 136.015625 -406.50390625 136.015625 -403.9375 134.5625 C-399.58659077 132.0471306 -395.41791198 129.36939558 -391.28515625 126.51171875 C-389.375 125.3125 -389.375 125.3125 -386.375 124.3125 C-385.9625 123.879375 -385.55 123.44625 -385.125 123 C-383.15004472 121.09557884 -381.01196869 119.87808795 -378.6171875 118.5625 C-374.67637687 116.3655324 -370.8225933 114.01645786 -366.94921875 111.703125 C-364.375 110.3125 -364.375 110.3125 -362.375 110.3125 C-362.375 109.6525 -362.375 108.9925 -362.375 108.3125 C-361.61574219 107.98636719 -360.85648438 107.66023438 -360.07421875 107.32421875 C-358.58341797 106.66873047 -358.58341797 106.66873047 -357.0625 106 C-355.58330078 105.35611328 -355.58330078 105.35611328 -354.07421875 104.69921875 C-351.57317673 103.41431293 -350.28161169 102.29833379 -348.375 100.3125 C-346.421875 99.20703125 -346.421875 99.20703125 -344.125 98.125 C-339.84418167 96.04945172 -335.62821876 93.87581794 -331.4375 91.625 C-330.13677625 90.92957994 -328.83599302 90.23427113 -327.53515625 89.5390625 C-325.42727494 88.41157943 -323.32003335 87.28296086 -321.21435547 86.15136719 C-271.20247129 59.3125 -271.20247129 59.3125 -262.375 59.3125 C-262.375 58.6525 -262.375 57.9925 -262.375 57.3125 C-260.08467689 56.47530617 -257.79289043 55.6426071 -255.5 54.8125 C-254.84902344 54.57402344 -254.19804687 54.33554687 -253.52734375 54.08984375 C-248.6015625 52.3125 -248.6015625 52.3125 -246.375 52.3125 C-246.375 51.6525 -246.375 50.9925 -246.375 50.3125 C-243.62762623 49.30472971 -240.87750048 48.30608554 -238.125 47.3125 C-237.34769531 47.02632812 -236.57039063 46.74015625 -235.76953125 46.4453125 C-234.63837891 46.03925781 -234.63837891 46.03925781 -233.484375 45.625 C-232.79311523 45.37363281 -232.10185547 45.12226562 -231.38964844 44.86328125 C-229.375 44.3125 -229.375 44.3125 -225.375 44.3125 C-225.375 43.6525 -225.375 42.9925 -225.375 42.3125 C-224.1684375 41.91417969 -222.961875 41.51585937 -221.71875 41.10546875 C-220.10413954 40.57039435 -218.48955773 40.03523348 -216.875 39.5 C-216.08351563 39.23896484 -215.29203125 38.97792969 -214.4765625 38.70898438 C-210.69579285 37.45389281 -206.94211177 36.16569698 -203.22265625 34.73828125 C-198.51924085 32.94943553 -193.69470057 31.68564751 -188.83984375 30.375 C-185.86695978 29.46336027 -183.1545745 28.32864352 -180.3190918 27.07080078 C-176.43749847 25.55676978 -172.36086154 24.70273245 -168.3125 23.75 C-161.76330559 22.21153099 -161.76330559 22.21153099 -155.3203125 20.29296875 C-151.37358503 18.97913772 -147.37082807 18.08639137 -143.3125 17.1875 C-142.52294922 17.00574219 -141.73339844 16.82398438 -140.91992188 16.63671875 C-137.00570648 15.76397667 -133.41380185 15.06870914 -129.375 15.3125 C-129.375 14.6525 -129.375 13.9925 -129.375 13.3125 C-128.28968994 13.135979 -127.20437988 12.95945801 -126.08618164 12.77758789 C-122.07313741 12.12379076 -118.06097945 11.46469062 -114.04907227 10.80395508 C-112.31005316 10.5183183 -110.57079468 10.23413501 -108.83129883 9.95141602 C-106.33611241 9.54561953 -103.84182361 9.13466378 -101.34765625 8.72265625 C-100.56536148 8.59657486 -99.78306671 8.47049347 -98.97706604 8.34059143 C-95.37305482 8.01274191 -95.37305482 8.01274191 -92.375 6.3125 C-87.89684618 5.61488671 -83.38738112 5.14544538 -78.8840332 4.63793945 C-76.6645777 4.38656144 -74.44658357 4.12462486 -72.22851562 3.86132812 C-48.18636777 1.07146732 -24.19619634 -0.06762525 0 0 Z M-1601.375 1606.3125 C-1600.375 1608.3125 -1600.375 1608.3125 -1600.375 1608.3125 Z " fill="#591662" transform="translate(2542.375,945.6875)"/>
</svg>
