<?xml version="1.0" standalone="no"?>
<!DOCTYPE svg PUBLIC "-//W3C//DTD SVG 20010904//EN"
 "http://www.w3.org/TR/2001/REC-SVG-20010904/DTD/svg10.dtd">
<svg version="1.0" xmlns="http://www.w3.org/2000/svg"
 width="13333.000000pt" height="7500.000000pt" viewBox="0 0 13333.000000 7500.000000"
 preserveAspectRatio="xMidYMid meet">

<g transform="translate(0.000000,7500.000000) scale(0.100000,-0.100000)"
fill="#000000" stroke="none">
<path d="M0 37500 l0 -37500 66665 0 66665 0 0 37500 0 37500 -66665 0 -66665
0 0 -37500z m10415 37240 c63 -36 85 -75 85 -152 0 -77 -24 -117 -90 -151 -89
-46 -175 -22 -230 62 -59 92 -27 192 79 248 59 31 93 29 156 -7z m63873 -314
c171 -90 115 -343 -75 -339 -65 2 -84 12 -133 74 -34 43 -40 58 -40 99 0 87
92 180 177 180 24 0 56 -6 71 -14z m56392 -734 c58 -36 83 -80 83 -146 0 -67
-22 -107 -79 -145 -56 -37 -115 -41 -172 -12 -121 62 -139 204 -36 290 70 58
126 61 204 13z m-125156 -162 c14 -5 43 -25 65 -45 52 -47 67 -110 46 -182
-23 -77 -75 -115 -160 -117 -72 -1 -107 18 -149 78 -54 78 -50 124 17 210 47
59 117 81 181 56z m56382 -726 c109 -52 147 -182 77 -265 -120 -143 -351 -42
-318 139 9 51 26 74 81 111 54 36 106 40 160 15z m50297 -2440 c70 -35 98 -80
99 -154 0 -77 -18 -116 -69 -151 -87 -61 -176 -43 -247 48 -29 38 -36 55 -36
92 0 48 12 73 59 125 50 55 131 72 194 40z m20110 -167 c45 -19 105 -89 113
-132 12 -66 -1 -105 -56 -160 l-50 -50 -68 0 c-59 0 -71 3 -105 30 -53 42 -67
73 -67 149 0 61 3 69 35 105 61 67 128 87 198 58z m-88852 -744 c68 -35 94
-77 93 -153 0 -73 -19 -108 -79 -147 -67 -44 -116 -45 -181 0 -92 61 -117 147
-66 228 36 55 51 68 104 84 60 19 68 18 129 -12z m20139 -183 c56 -43 80 -86
80 -142 0 -59 -17 -94 -65 -136 -43 -38 -70 -46 -136 -40 -93 9 -149 74 -149
172 1 70 10 90 63 136 64 55 144 59 207 10z m21445 -1559 c132 -61 143 -228
20 -309 -82 -54 -145 -42 -222 41 -67 73 -69 143 -6 217 60 70 130 87 208 51z
m-68725 -913 c50 -34 72 -71 78 -126 7 -74 -12 -117 -70 -163 -41 -32 -58 -39
-94 -39 -55 0 -87 16 -137 68 -65 67 -69 142 -11 217 38 50 69 64 140 65 47 0
68 -5 94 -22z m70356 -870 c84 -56 107 -147 62 -238 -29 -56 -78 -83 -153 -82
-85 1 -133 36 -171 127 -19 46 -7 95 37 149 71 84 143 99 225 44z m8547 -1432
c47 -19 113 -95 121 -139 28 -149 -153 -261 -281 -174 -52 36 -76 88 -71 158
4 53 9 64 43 99 66 67 122 84 188 56z m-27605 -1275 c93 -48 126 -141 86 -241
-13 -31 -29 -48 -68 -70 -65 -38 -119 -40 -170 -5 -116 79 -135 173 -53 262
68 74 133 91 205 54z m17256 -1891 c45 -22 104 -99 107 -140 4 -51 -2 -70 -42
-120 -67 -84 -149 -103 -227 -53 -115 75 -111 251 8 311 55 27 101 28 154 2z
m-68745 -906 c42 -17 93 -82 106 -137 11 -44 -37 -133 -92 -167 -70 -45 -96
-47 -161 -13 -97 51 -129 144 -84 246 17 38 30 52 64 67 52 24 114 25 167 4z
m55395 -111 c64 -46 79 -74 80 -145 0 -77 -20 -118 -75 -155 -32 -21 -51 -26
-98 -26 -67 1 -93 14 -140 74 -35 42 -49 98 -37 144 9 37 93 123 130 135 46
14 96 4 140 -27z m34719 23 c48 -17 72 -39 109 -95 37 -59 37 -104 -2 -163
-42 -63 -60 -77 -114 -87 -81 -15 -149 11 -186 72 -60 99 -22 220 85 268 47
22 58 22 108 5z m-103458 -932 c53 -41 75 -83 75 -144 0 -53 -20 -98 -59 -135
-29 -27 -40 -30 -113 -34 l-80 -3 -48 51 c-75 80 -79 153 -12 226 57 62 80 75
138 75 43 0 58 -5 99 -36z m34735 21 c15 -8 46 -36 67 -61 34 -42 38 -53 38
-103 0 -48 -5 -62 -35 -103 -44 -58 -65 -68 -144 -68 -78 0 -121 25 -153 90
-28 53 -29 101 -4 155 16 37 65 84 101 98 29 11 101 7 130 -8z m51234 -389
c37 -15 77 -63 101 -119 21 -50 8 -99 -41 -155 -63 -74 -128 -91 -202 -53 -99
51 -133 162 -78 256 44 75 138 105 220 71z m-68723 -919 c19 -13 47 -46 63
-78 27 -52 29 -60 18 -95 -18 -59 -47 -100 -91 -129 -101 -67 -225 -6 -262
129 -9 35 -7 45 20 100 37 75 69 94 157 95 47 1 69 -4 95 -22z m107377 -71
c63 -33 102 -96 102 -166 0 -98 -77 -180 -168 -180 -61 0 -98 18 -137 65 -44
55 -59 95 -51 140 8 41 65 113 109 138 38 21 108 22 145 3z m-68768 -896 c51
-14 107 -75 119 -130 25 -113 -42 -209 -154 -218 -72 -6 -107 9 -155 71 -34
43 -40 56 -40 99 0 57 15 90 63 136 49 48 101 61 167 42z m-1154 -1991 c64
-44 84 -81 84 -156 0 -58 -3 -66 -37 -104 -47 -52 -81 -69 -138 -69 l-45 0 0
180 0 180 46 0 c34 0 56 -7 90 -31z m19391 -1105 c59 -34 87 -93 81 -171 -5
-60 -26 -95 -77 -130 -93 -63 -207 -24 -269 94 -37 68 20 181 113 225 49 23
91 18 152 -18z m18283 -722 c52 -25 103 -114 97 -168 -9 -86 -102 -174 -184
-174 -87 0 -173 93 -173 186 1 75 53 151 115 167 44 11 112 6 145 -11z
m-87029 -184 c58 -39 79 -77 79 -150 0 -92 -41 -146 -130 -169 -63 -16 -124 2
-169 49 -73 78 -77 153 -12 225 78 87 147 100 232 45z m18291 -724 c37 -19 88
-109 88 -155 0 -45 -50 -123 -99 -156 -104 -70 -260 25 -261 157 0 46 42 135
72 151 55 30 145 31 200 3z m102523 -1073 c59 -40 85 -84 85 -145 0 -63 -23
-110 -72 -149 -127 -102 -322 31 -279 190 20 75 127 149 196 137 17 -3 48 -18
70 -33z m-68735 -912 c59 -47 70 -69 70 -147 0 -45 -6 -66 -25 -95 -64 -93
-202 -102 -278 -18 -42 47 -58 95 -47 147 11 58 18 69 63 105 53 44 62 47 119
48 40 1 54 -5 98 -40z m45912 -934 c48 -32 68 -76 68 -152 0 -71 -22 -111 -81
-150 -83 -55 -178 -29 -244 67 -43 62 -41 122 6 184 67 89 164 108 251 51z
m-2717 -149 c69 -29 125 -108 125 -178 0 -41 -6 -54 -43 -100 -34 -42 -53 -55
-92 -66 -43 -13 -55 -12 -100 2 -58 18 -87 44 -110 98 -38 92 3 195 97 241 41
21 78 21 123 3z m-66045 -748 c58 -30 84 -75 85 -148 0 -75 -17 -111 -73 -150
-65 -46 -117 -51 -177 -16 -69 41 -105 97 -105 162 0 44 5 60 33 96 60 79 150
100 237 56z m-2721 -148 c38 -11 105 -70 127 -112 24 -47 18 -109 -17 -162
-17 -26 -45 -54 -62 -62 -43 -23 -138 -21 -179 3 -103 60 -115 213 -24 288 66
53 96 62 155 45z m79762 -6261 c115 -39 169 -158 120 -265 -22 -49 -61 -79
-123 -95 -85 -23 -165 27 -211 130 -16 37 -18 50 -8 82 15 51 87 127 136 144
50 17 45 17 86 4z m-44825 -4531 c25 -23 52 -54 60 -69 17 -34 18 -106 1 -134
-28 -47 -64 -88 -89 -101 -35 -18 -131 -18 -167 0 -123 64 -133 234 -19 316
35 26 50 30 105 30 61 0 65 -2 109 -42z"/>
</g>
</svg>
