<?xml version="1.0" encoding="UTF-8"?>
<svg version="1.1" xmlns="http://www.w3.org/2000/svg" width="381" height="1080">
<path d="M0 0 C1.32 0 2.64 0 4 0 C4 118.8 4 237.6 4 360 C-121.73 360 -247.46 360 -377 360 C-377 319.08 -377 278.16 -377 236 C-252.59 236 -128.18 236 0 236 C0 158.12 0 80.24 0 0 Z " fill="#A92520" transform="translate(377,360)"/>
<path d="M0 0 C1.32 0 2.64 0 4 0 C4 85.8 4 171.6 4 260 C-121.07 260.33 -246.14 260.66 -375 261 C-375.33 285.75 -375.66 310.5 -376 336 C-250.6 336 -125.2 336 4 336 C4 343.92 4 351.84 4 360 C-121.73 360 -247.46 360 -377 360 C-377 319.08 -377 278.16 -377 236 C-252.59 236 -128.18 236 0 236 C0 158.12 0 80.24 0 0 Z " fill="#851622" transform="translate(377,360)"/>
<path d="M0 0 C1.32 0 2.64 0 4 0 C4 82.17 4 164.34 4 249 C-121.73 249 -247.46 249 -377 249 C-377 244.71 -377 240.42 -377 236 C-252.59 236 -128.18 236 0 236 C0 158.12 0 80.24 0 0 Z " fill="#F7DA76" transform="translate(377,360)"/>
<path d="M0 0 C125.73 0 251.46 0 381 0 C381 4.29 381 8.58 381 13 C255.27 13 129.54 13 0 13 C0 8.71 0 4.42 0 0 Z " fill="#EFC24D" transform="translate(0,707)"/>
<path d="M0 0 C0.68102783 -0.01095703 1.36205566 -0.02191406 2.0637207 -0.03320312 C8.02796146 0.13515116 11.555503 2.36385512 15.73828125 6.44140625 C16.21652344 7.01761719 16.69476563 7.59382812 17.1875 8.1875 C17.92419922 9.05568359 17.92419922 9.05568359 18.67578125 9.94140625 C22.2392923 14.94425075 21.24988392 21.79267129 20.875 27.625 C19.13111172 33.51062295 14.72926175 37.10054559 9.875 40.625 C4.53572521 43.2378366 -1.56061344 43.70924873 -7.26953125 41.97265625 C-13.59731267 39.15358728 -18.55246864 34.09706985 -21.125 27.625 C-22.00264997 20.64075393 -22.13626786 14.09468227 -17.70703125 8.34765625 C-17.18496094 7.77917969 -16.66289062 7.21070313 -16.125 6.625 C-15.61324219 6.02558594 -15.10148437 5.42617188 -14.57421875 4.80859375 C-10.22529354 0.65252553 -5.85611131 0.06935834 0 0 Z " fill="#F9D044" transform="translate(36.125,637.375)"/>
<path d="M0 0 C5.18271227 1.94264985 9.95874201 5.58825656 12.40234375 10.69140625 C14.09392029 17.22553525 14.36721608 24.49741463 11.89453125 30.83203125 C9.01524574 35.4867475 5.46126705 39.65032516 0 41 C-2.72157473 41.26627147 -5.33761856 41.4453294 -8.0625 41.5 C-8.74747559 41.51877197 -9.43245117 41.53754395 -10.13818359 41.55688477 C-16.0014183 41.48255011 -19.43772948 39.43166936 -23.609375 35.47265625 C-28.28274417 29.69496354 -29.4757175 25.09537163 -29.30859375 17.78125 C-28.5254752 10.72327016 -24.99363282 6.46214682 -19.5859375 2.12890625 C-14.3528949 -1.59609205 -6.18323717 -0.85606895 0 0 Z " fill="#F9CC3B" transform="translate(203,638)"/>
<path d="M0 0 C5.18271227 1.94264985 9.95874201 5.58825656 12.40234375 10.69140625 C14.09392029 17.22553525 14.36721608 24.49741463 11.89453125 30.83203125 C9.00932869 35.49631314 5.46241656 39.62766875 0 41 C-7.05778012 41.83686165 -14.68127861 42.71796446 -20.75 38.375 C-25.11209697 34.30178363 -28.63648076 29.68882637 -29.23828125 23.58203125 C-29.4107757 17.14526456 -28.94666809 12.23934488 -25 7 C-17.66658449 -0.48041048 -10.18251582 -1.40976893 0 0 Z " fill="#F9D046" transform="translate(363,638)"/>
<path d="M0 0 C0.70382812 -0.02900391 1.40765625 -0.05800781 2.1328125 -0.08789062 C8.23778391 -0.16164957 11.70327523 1.82984378 16.11328125 6.12890625 C16.59152344 6.70511719 17.06976563 7.28132812 17.5625 7.875 C18.29919922 8.74318359 18.29919922 8.74318359 19.05078125 9.62890625 C22.60672953 14.62113332 21.74225878 21.49681413 21.25 27.3125 C19.55476299 33.06200866 14.93879278 36.87097229 10.25 40.3125 C7.15083704 41.86208148 3.89928151 41.57931073 0.5 41.625 C-0.20382812 41.65400391 -0.90765625 41.68300781 -1.6328125 41.71289062 C-7.73778391 41.78664957 -11.20327523 39.79515622 -15.61328125 35.49609375 C-16.09152344 34.91988281 -16.56976563 34.34367188 -17.0625 33.75 C-17.55363281 33.17121094 -18.04476563 32.59242188 -18.55078125 31.99609375 C-22.10672953 27.00386668 -21.24225878 20.12818587 -20.75 14.3125 C-19.05476299 8.56299134 -14.43879278 4.75402771 -9.75 1.3125 C-6.65083704 -0.23708148 -3.39928151 0.04568927 0 0 Z " fill="#F8CC3D" transform="translate(276.75,637.6875)"/>
<path d="M0 0 C4.64863916 2.90539947 8.74522826 6.45192644 10.15625 11.90234375 C11.06279806 19.0183449 11.47628749 25.81324829 7.59375 32.08984375 C3.32709368 37.28829857 0.10124311 39.5531473 -6.56640625 40.34375 C-12.62306221 40.71205053 -18.4567328 40.95355192 -23.59375 37.27734375 C-27.95584697 33.20412738 -31.48023076 28.59117012 -32.08203125 22.484375 C-32.25469386 16.04133337 -31.74799092 11.17187138 -27.84375 5.90234375 C-20.51443285 -1.77972129 -9.95832305 -3.84380327 0 0 Z " fill="#F9CC3C" transform="translate(125.84375,639.09765625)"/>
<path d="M0 0 C0 0.66 0 1.32 0 2 C0.61875 2.28875 1.2375 2.5775 1.875 2.875 C4.77486884 4.41022468 5.82381462 5.46174558 6.8515625 8.6015625 C7.10679687 9.59929688 7.36203125 10.59703125 7.625 11.625 C8.01558594 13.12933594 8.01558594 13.12933594 8.4140625 14.6640625 C8.60742188 15.43492187 8.80078125 16.20578125 9 17 C9.66 17 10.32 17 11 17 C13.97969948 22.43356963 12.98956227 27.54249327 11.3515625 33.265625 C8.87060956 39.77528133 4.50901379 44.78355417 -1 49 C-4.171875 50.21484375 -4.171875 50.21484375 -7 51 C-7.61875 51.20625 -8.2375 51.4125 -8.875 51.625 C-14.71716856 52.65597092 -19.51605067 52.19357973 -25 50 C-25 49.34 -25 48.68 -25 48 C-26.299375 48.1546875 -26.299375 48.1546875 -27.625 48.3125 C-31.18078449 47.9832607 -33.08950317 47.17916858 -35.7421875 44.76953125 C-38.50147773 40.88767264 -39 35.67992812 -39 31 C-39.66 31 -40.32 31 -41 31 C-41.33 31.66 -41.66 32.32 -42 33 C-44.2085293 25.2610213 -43.86896509 17.94724933 -40.5 10.625 C-36.50708542 3.45462522 -30.99635992 -0.97660547 -23.19140625 -3.52734375 C-14.64812897 -5.3700114 -7.74469022 -3.76314666 0 0 Z M-33.3125 10.5625 C-33.80363281 11.14128906 -34.29476563 11.72007812 -34.80078125 12.31640625 C-38.35672953 17.30863332 -37.49225878 24.18431413 -37 30 C-35.30476299 35.74950866 -30.68879278 39.55847229 -26 43 C-22.90083704 44.54958148 -19.64928151 44.26681073 -16.25 44.3125 C-15.54617188 44.34150391 -14.84234375 44.37050781 -14.1171875 44.40039062 C-8.01221609 44.47414957 -4.54672477 42.48265622 -0.13671875 38.18359375 C0.34152344 37.60738281 0.81976563 37.03117188 1.3125 36.4375 C1.80363281 35.85871094 2.29476562 35.27992188 2.80078125 34.68359375 C6.35672953 29.69136668 5.49225878 22.81568587 5 17 C3.30476299 11.25049134 -1.31120722 7.44152771 -6 4 C-9.09916296 2.45041852 -12.35071849 2.73318927 -15.75 2.6875 C-16.80574219 2.64399414 -16.80574219 2.64399414 -17.8828125 2.59960938 C-24.69621904 2.51729127 -28.97212425 5.33299067 -33.3125 10.5625 Z " fill="#B84724" transform="translate(293,635)"/>
<path d="M0 0 C3.23148718 2.67751795 4.79100711 5.89011014 6.1875 9.8125 C6.4375 12.8125 6.4375 12.8125 6.1875 14.8125 C7.5075 14.8125 8.8275 14.8125 10.1875 14.8125 C13.03374868 21.00727653 12.39850979 27.41945759 10.62109375 33.8671875 C8.02899692 40.53257935 3.42278157 45.44544795 -2.8125 48.8125 C-5.875 49.5625 -5.875 49.5625 -9.8125 49.8125 C-11.25496094 49.95945312 -11.25496094 49.95945312 -12.7265625 50.109375 C-21.70039947 50.66622407 -27.70870332 48.29592653 -34.8125 42.8125 C-36.8125 39.8125 -36.8125 39.8125 -36.8125 36.8125 C-37.4725 36.8125 -38.1325 36.8125 -38.8125 36.8125 C-43.20504696 30.22367956 -44.58999974 26.74299736 -43.8125 18.8125 C-41.84620348 10.92362359 -37.64289932 3.9274304 -30.72265625 -0.53515625 C-19.96795314 -6.1227953 -10.81471903 -4.5662147 0 0 Z M-33.36328125 9.59765625 C-38.04538756 15.80969026 -38.53591397 21.26832572 -37.8125 28.8125 C-36.02856372 35.11000999 -32.04728452 39.08626176 -26.8125 42.8125 C-21.87363547 45.28193226 -14.22360267 44.56166696 -8.8125 43.8125 C-3.62978773 41.86985015 1.14624201 38.22424344 3.58984375 33.12109375 C5.28142029 26.58696475 5.55471608 19.31508537 3.08203125 12.98046875 C0.20103445 8.32298599 -3.36420901 4.21138552 -8.8125 2.8125 C-18.6741493 1.66784428 -26.61796787 1.83290005 -33.36328125 9.59765625 Z " fill="#B13C25" transform="translate(131.8125,635.1875)"/>
<path d="M0 0 C5.08794554 3.11339663 5.85838282 6.94623387 7.42578125 12.484375 C8.08578125 12.814375 8.74578125 13.144375 9.42578125 13.484375 C10.1137565 34.48036035 10.1137565 34.48036035 3.0390625 42.09765625 C-5.05815379 49.0577332 -13.38728824 49.09559083 -23.57421875 48.484375 C-23.57421875 47.824375 -23.57421875 47.164375 -23.57421875 46.484375 C-24.33347656 46.30261719 -25.09273438 46.12085938 -25.875 45.93359375 C-27.36580078 45.55654297 -27.36580078 45.55654297 -28.88671875 45.171875 C-29.87285156 44.92824219 -30.85898437 44.68460938 -31.875 44.43359375 C-34.65471517 43.45606729 -35.87301762 42.85724777 -37.57421875 40.484375 C-38.2307598 38.14544752 -38.57658206 35.84416122 -38.94921875 33.4453125 C-39.15546875 32.79820312 -39.36171875 32.15109375 -39.57421875 31.484375 C-40.56421875 31.154375 -41.55421875 30.824375 -42.57421875 30.484375 C-44.82079665 24.53291425 -44.30962543 17.50831795 -41.88671875 11.734375 C-39.5617933 7.09273937 -36.90283212 3.03678391 -32.51171875 0.109375 C-30.57421875 -0.515625 -30.57421875 -0.515625 -26.57421875 -0.515625 C-26.57421875 -1.175625 -26.57421875 -1.835625 -26.57421875 -2.515625 C-17.56256208 -5.51951056 -8.46509749 -3.71135533 0 0 Z M-33.8984375 9.11328125 C-38.03939361 14.9106198 -38.23473438 20.59614057 -37.57421875 27.484375 C-35.79028247 33.78188499 -31.80900327 37.75813676 -26.57421875 41.484375 C-21.63535422 43.95380726 -13.98532142 43.23354196 -8.57421875 42.484375 C-3.39150648 40.54172515 1.38452326 36.89611844 3.828125 31.79296875 C5.51970154 25.25883975 5.79299733 17.98696037 3.3203125 11.65234375 C0.43510994 6.98806186 -3.11180219 2.85670625 -8.57421875 1.484375 C-19.00388138 0.24769937 -26.90197659 0.50701518 -33.8984375 9.11328125 Z " fill="#B44226" transform="translate(371.57421875,636.515625)"/>
<path d="M0 0 C14.23943662 -0.57042254 14.23943662 -0.57042254 19 3 C19.495 4.485 19.495 4.485 20 6 C20.62648437 6.30679688 21.25296875 6.61359375 21.8984375 6.9296875 C24.50850147 8.25897658 25.21691011 9.59043819 26.625 12.125 C27.78041673 14.2703818 27.78041673 14.2703818 29 16 C29.66 16 30.32 16 31 16 C32.35690453 20.07071358 32.13538951 23.74591896 32 28 C31.979375 29.175625 31.95875 30.35125 31.9375 31.5625 C29.89397405 39.05542849 23.40536684 44.05823579 17 48 C16.01 48 15.02 48 14 48 C14 48.66 14 49.32 14 50 C11.93816367 50.08150744 9.87538651 50.1394194 7.8125 50.1875 C6.08966797 50.23970703 6.08966797 50.23970703 4.33203125 50.29296875 C0.658923 49.97001081 -0.9761105 49.01592634 -4 47 C-6.32009543 46.21397749 -8.64581477 45.57363941 -11.01171875 44.94140625 C-13.58275963 43.72407648 -14.01422347 42.62390518 -15 40 C-15.70491267 37.67793475 -16.37212429 35.34406932 -17 33 C-17.17789063 32.37609375 -17.35578125 31.7521875 -17.5390625 31.109375 C-19.02110834 24.32713131 -18.71925665 17.75448772 -15.19921875 11.71484375 C-11.89800486 6.99421541 -8.31047625 4.19345758 -3 2 C-2.01 2 -1.02 2 0 2 C0 1.34 0 0.68 0 0 Z M-11.32421875 10.62890625 C-15.46517486 16.4262448 -15.66051563 22.11176557 -15 29 C-13.21606372 35.29750999 -9.23478452 39.27376176 -4 43 C0.93886453 45.46943226 8.58889733 44.74916696 14 44 C19.18271227 42.05735015 23.95874201 38.41174344 26.40234375 33.30859375 C28.09392029 26.77446475 28.36721608 19.50258537 25.89453125 13.16796875 C23.00932869 8.50368686 19.46241656 4.37233125 14 3 C3.57033737 1.76332437 -4.32775784 2.02264018 -11.32421875 10.62890625 Z " fill="#B84B26" transform="translate(189,635)"/>
<path d="M0 0 C5.19445312 3.00304321 11.12480472 8.25274014 13.234375 13.98046875 C14.35391702 21.4040986 14.95843301 29.78443268 10.96875 36.41015625 C6.494562 41.96560634 1.29911436 46.59937118 -5.87109375 47.66796875 C-15.26447138 48.26123471 -21.54171155 46.71969123 -28.83984375 40.65234375 C-33.79347344 35.8923898 -35.55833387 32.05873845 -35.875 25.21875 C-35.58848065 18.58787356 -34.21138679 12.85334505 -29.4375 8.15625 C-29.1075 7.16625 -28.7775 6.17625 -28.4375 5.15625 C-26.7875 4.82625 -25.1375 4.49625 -23.4375 4.15625 C-23.4375 3.49625 -23.4375 2.83625 -23.4375 2.15625 C-16.45986826 -1.83096814 -7.65112208 -2.64846534 0 0 Z M-27.4375 8.15625 C-28.22060547 9.00896484 -28.22060547 9.00896484 -29.01953125 9.87890625 C-32.86293082 14.8657966 -33.17875958 19.86602008 -32.921875 26.03125 C-31.9792558 32.11266421 -28.93070444 36.0036626 -24.4375 40.03125 C-18.79885225 44.02529215 -14.24383659 44.86310573 -7.4375 44.15625 C-0.97650189 42.84255353 3.61038177 39.3901363 7.5625 34.15625 C10.84249355 27.67254183 10.5944045 19.63892769 8.5625 12.78125 C5.36016968 8.57819145 1.33091369 4.54045685 -3.4375 2.15625 C-16.81456793 0.91815484 -16.81456793 0.91815484 -27.4375 8.15625 Z " fill="#BA572E" transform="translate(47.4375,635.84375)"/>
<path d="M0 0 C0 0.66 0 1.32 0 2 C2.64 2.33 5.28 2.66 8 3 C8 3.66 8 4.32 8 5 C8.66 5 9.32 5 10 5 C11.35386936 6.65002828 12.68678142 8.3174387 14 10 C14.66 10.33 15.32 10.66 16 11 C18.60236432 19.67454772 20.16261417 29.75898019 15.8125 38.0625 C11.91477816 44.01795767 6.99244394 47.44238829 0 49 C-6.55859933 49.68045468 -13.37050647 50.04607882 -19.21875 46.6015625 C-24.67585489 41.69495503 -29.39335453 33.71913742 -30.3359375 26.38671875 C-30.44501325 18.84958438 -29.4300909 13.62713867 -24.1640625 8.05859375 C-16.33873535 0.87788167 -10.49822153 -0.45866016 0 0 Z M-23.55078125 10.78515625 C-28.23288756 16.99719026 -28.72341397 22.45582572 -28 30 C-26.21606372 36.29750999 -22.23478452 40.27376176 -17 44 C-12.06113547 46.46943226 -4.41110267 45.74916696 1 45 C6.18271227 43.05735015 10.95874201 39.41174344 13.40234375 34.30859375 C15.09392029 27.77446475 15.36721608 20.50258537 12.89453125 14.16796875 C10.01353445 9.51048599 6.44829099 5.39888552 1 4 C-8.8616493 2.85534428 -16.80546787 3.02040005 -23.55078125 10.78515625 Z " fill="#BF5D2C" transform="translate(122,634)"/>
<path d="M0 0 C1.73753812 1.42638945 3.38547245 2.78803672 4.87890625 4.46875 C4.87890625 5.12875 4.87890625 5.78875 4.87890625 6.46875 C5.53890625 6.46875 6.19890625 6.46875 6.87890625 6.46875 C6.87890625 8.11875 6.87890625 9.76875 6.87890625 11.46875 C5.82703125 10.3859375 5.82703125 10.3859375 4.75390625 9.28125 C-2.23905526 2.15902485 -2.23905526 2.15902485 -11.43359375 -0.796875 C-12.65046875 -0.79171875 -13.86734375 -0.7865625 -15.12109375 -0.78125 C-16.94640625 -0.78898438 -16.94640625 -0.78898438 -18.80859375 -0.796875 C-21.94265384 -0.54555886 -23.45269272 -0.03222558 -26.12109375 1.46875 C-27.11109375 1.46875 -28.10109375 1.46875 -29.12109375 1.46875 C-29.12109375 2.12875 -29.12109375 2.78875 -29.12109375 3.46875 C-30.77109375 3.79875 -32.42109375 4.12875 -34.12109375 4.46875 C-34.27578125 5.3659375 -34.27578125 5.3659375 -34.43359375 6.28125 C-35.12109375 8.46875 -35.12109375 8.46875 -36.55859375 9.71875 C-40.48652549 14.11803355 -40.60033529 21.36993323 -40.41015625 27.0234375 C-39.74670775 32.63585317 -37.8215476 35.84101293 -33.74609375 39.7421875 C-26.64087925 45.24486721 -20.52217686 46.74573834 -11.76953125 46.05078125 C-4.61235973 44.90900549 -1.07782126 41.92143457 3.31640625 36.34375 C6.66373867 31.65566046 7.12024638 27.41997484 7.44140625 21.78125 C7.50618164 20.7284082 7.50618164 20.7284082 7.57226562 19.65429688 C7.67807985 17.92599794 7.77897206 16.1973989 7.87890625 14.46875 C8.86890625 14.46875 9.85890625 14.46875 10.87890625 14.46875 C11.39236134 22.76960731 10.5861262 28.98810975 6.87890625 36.46875 C6.21890625 36.46875 5.55890625 36.46875 4.87890625 36.46875 C4.67265625 37.025625 4.46640625 37.5825 4.25390625 38.15625 C1.35343892 43.0343087 -3.83138646 46.64139657 -9.12109375 48.46875 C-20.8342546 49.40463301 -20.8342546 49.40463301 -26.12109375 46.46875 C-28.44604652 46.08125787 -30.77960643 45.73892161 -33.12109375 45.46875 C-33.61609375 43.98375 -33.61609375 43.98375 -34.12109375 42.46875 C-34.75789063 42.31921875 -35.3946875 42.1696875 -36.05078125 42.015625 C-38.12109375 41.46875 -38.12109375 41.46875 -39.31640625 39.796875 C-39.62320313 39.11109375 -39.93 38.4253125 -40.24609375 37.71875 C-40.57351562 36.99042969 -40.9009375 36.26210938 -41.23828125 35.51171875 C-41.52960937 34.83753906 -41.8209375 34.16335938 -42.12109375 33.46875 C-42.53359375 32.664375 -42.94609375 31.86 -43.37109375 31.03125 C-45.56062926 23.55033702 -44.06082442 15.55130396 -41.12109375 8.46875 C-36.8897889 1.71471597 -30.40547143 -3.24719561 -22.61328125 -5.140625 C-13.89874061 -6.50654046 -7.23151779 -5.22054323 0 0 Z " fill="#AC3427" transform="translate(53.12109375,636.53125)"/>
<path d="M0 0 C4.56306594 4.2028239 6.10112834 8.88190296 6.5 14.9375 C6.41645631 18.66911817 5.96321944 20.77410574 3.4375 23.5625 C0.21988158 26.28864449 -2.78912269 26.83156491 -7 27 C-7.66 26.01 -8.32 25.02 -9 24 C-9.99 23.67 -10.98 23.34 -12 23 C-14.19716867 18.13423949 -15.18210069 13.41128034 -14.5 8.125 C-11.06970226 0.97854637 -7.68704669 -1.22016614 0 0 Z " fill="#F0D272" transform="translate(194,646)"/>
<path d="M0 0 C2.50160818 1.87620613 3.61945652 3.23891303 5 6 C5.64158666 11.52681077 5.93498099 16.44235043 2.625 21.125 C-0.8170347 24.89484753 -0.8170347 24.89484753 -4.8125 25.25 C-8.495369 24.96114753 -10.1670461 24.36079492 -13 22 C-15.3691708 17.2616584 -15.6335903 12.20312031 -15 7 C-11.88766332 0.03429411 -7.09754795 -1.07810855 0 0 Z " fill="#F0D170" transform="translate(115,646)"/>
<path d="M0 0 C5.18271227 1.94264985 9.95874201 5.58825656 12.40234375 10.69140625 C14.09392029 17.22553525 14.36721608 24.49741463 11.89453125 30.83203125 C9.01912979 35.48046846 5.46048288 39.66600581 0 41 C-2.78118928 41.2396616 -5.46706215 41.40004333 -8.25 41.4375 C-8.9601123 41.44789307 -9.67022461 41.45828613 -10.40185547 41.46899414 C-15.50509168 41.38092353 -15.50509168 41.38092353 -17.984375 39.47265625 C-18.31953125 38.98667969 -18.6546875 38.50070312 -19 38 C-18.34515625 38.02320313 -17.6903125 38.04640625 -17.015625 38.0703125 C-4.5738781 38.67884839 -4.5738781 38.67884839 6.3203125 33.984375 C8.62763826 29.88484737 8.55317086 26.5606029 8.4375 21.9375 C8.44458984 21.13505859 8.45167969 20.33261719 8.45898438 19.50585938 C8.41058079 15.01921902 8.19617362 12.39964356 5 9 C5 8.34 5 7.68 5 7 C-2.13651043 4.1068201 -9.30323997 2.22566843 -16.8125 5.0625 C-23.19026614 10.64912212 -23.19026614 10.64912212 -26 18.4375 C-26.26180519 23.91670868 -25.4092212 28.83196738 -22.375 33.5 C-21.92125 33.995 -21.4675 34.49 -21 35 C-21.33 35.66 -21.66 36.32 -22 37 C-27.49691724 30.77980418 -29.50115352 26.20857157 -29.30859375 17.78125 C-28.5254752 10.72327016 -24.99363282 6.46214682 -19.5859375 2.12890625 C-14.3528949 -1.59609205 -6.18323717 -0.85606895 0 0 Z " fill="#F9D657" transform="translate(203,638)"/>
<path d="M0 0 C0.70382812 -0.02900391 1.40765625 -0.05800781 2.1328125 -0.08789062 C8.23778391 -0.16164957 11.70327523 1.82984378 16.11328125 6.12890625 C16.59152344 6.70511719 17.06976563 7.28132812 17.5625 7.875 C18.29919922 8.74318359 18.29919922 8.74318359 19.05078125 9.62890625 C22.60672953 14.62113332 21.74225878 21.49681413 21.25 27.3125 C19.55476299 33.06200866 14.93879278 36.87097229 10.25 40.3125 C7.15083704 41.86208148 3.89928151 41.57931073 0.5 41.625 C-0.20382812 41.65400391 -0.90765625 41.68300781 -1.6328125 41.71289062 C-6.9313711 41.77690667 -9.60786155 40.61448773 -13.75 37.3125 C-13.09 36.6525 -12.43 35.9925 -11.75 35.3125 C-11.75 35.9725 -11.75 36.6325 -11.75 37.3125 C-3.92781154 38.95927652 4.28262601 39.73410273 11.25 35.3125 C15.302703 31.45748983 17.09188645 27.98517497 17.62109375 22.38671875 C17.68454761 18.68451437 17.51277523 15.00595184 17.25 11.3125 C16.33927734 10.88130859 16.33927734 10.88130859 15.41015625 10.44140625 C13.25 9.3125 13.25 9.3125 10.6875 7.25 C5.78800546 3.35552998 0.24107645 3.84486075 -5.75 4.3125 C-10.53754144 6.12112676 -13.8046888 10.21143377 -16.75 14.3125 C-19.14657011 21.50221032 -17.39784597 27.50375322 -14.75 34.3125 C-17.75 33.3125 -17.75 33.3125 -19.4375 31.0625 C-21.54802386 25.03243182 -21.95003842 18.31262806 -20.09375 12.125 C-15.72718328 3.6930091 -9.02727343 0.12133432 0 0 Z " fill="#F9DC61" transform="translate(276.75,637.6875)"/>
<path d="M0 0 C0 0.66 0 1.32 0 2 C1.32 2.33 2.64 2.66 4 3 C4 3.66 4 4.32 4 5 C4.66 5 5.32 5 6 5 C6.34933594 5.63808594 6.69867188 6.27617188 7.05859375 6.93359375 C7.74115234 8.17302734 7.74115234 8.17302734 8.4375 9.4375 C8.88996094 10.26121094 9.34242188 11.08492187 9.80859375 11.93359375 C10.83662397 13.92308798 10.83662397 13.92308798 12 15 C12.45084429 21.6473321 12.28288174 27.72207522 10 34 C9.34 34 8.68 34 8 34 C7.95875 34.556875 7.9175 35.11375 7.875 35.6875 C6.57706572 39.11775488 4.04963183 41.12035271 1 43 C-5.50255429 45.6082669 -13.56238943 46.69673345 -20.2578125 44.13671875 C-21.88637711 43.16733506 -23.44891246 42.08906146 -25 41 C-26.32911682 40.65023242 -27.66082739 40.30903983 -29 40 C-29.33 39.34 -29.66 38.68 -30 38 C-30.99 37.67 -31.98 37.34 -33 37 C-36.34438631 29.68063602 -36.6781827 18.8750514 -34.0546875 11.25390625 C-31.74662624 7.41439553 -28.80298771 4.40188698 -25 2 C-24.01 2 -23.02 2 -22 2 C-22 1.34 -22 0.68 -22 0 C-14.78736852 -3.03689746 -7.21263148 -3.03689746 0 0 Z M-29.3125 8.5625 C-29.80363281 9.14128906 -30.29476563 9.72007812 -30.80078125 10.31640625 C-34.35672953 15.30863332 -33.49225878 22.18431413 -33 28 C-31.30476299 33.74950866 -26.68879278 37.55847229 -22 41 C-18.90083704 42.54958148 -15.64928151 42.26681073 -12.25 42.3125 C-11.54617188 42.34150391 -10.84234375 42.37050781 -10.1171875 42.40039062 C-4.01221609 42.47414957 -0.54672477 40.48265622 3.86328125 36.18359375 C4.34152344 35.60738281 4.81976563 35.03117188 5.3125 34.4375 C5.80363281 33.85871094 6.29476562 33.27992188 6.80078125 32.68359375 C10.35672953 27.69136668 9.49225878 20.81568587 9 15 C7.30476299 9.25049134 2.68879278 5.44152771 -2 2 C-5.09916296 0.45041852 -8.35071849 0.73318927 -11.75 0.6875 C-12.80574219 0.64399414 -12.80574219 0.64399414 -13.8828125 0.59960938 C-20.69621904 0.51729127 -24.97212425 3.33299067 -29.3125 8.5625 Z " fill="#C66D2D" transform="translate(289,637)"/>
<path d="M0 0 C4.64863916 2.90539947 8.74522826 6.45192644 10.15625 11.90234375 C11.06279806 19.0183449 11.47628749 25.81324829 7.59375 32.08984375 C3.32709368 37.28829857 0.10124311 39.5531473 -6.56640625 40.34375 C-12.89925182 40.72419722 -18.55355108 40.89601807 -23.84375 36.90234375 C-25.65625 35.21484375 -25.65625 35.21484375 -26.84375 33.90234375 C-26.51375 33.24234375 -26.18375 32.58234375 -25.84375 31.90234375 C-24.5753125 32.86140625 -24.5753125 32.86140625 -23.28125 33.83984375 C-19.86148383 36.10633983 -16.96459819 36.61814732 -12.84375 36.90234375 C-12.16828125 36.95390625 -11.4928125 37.00546875 -10.796875 37.05859375 C-6.19199605 37.26633265 -3.42762352 36.80818714 0.15625 33.90234375 C1.07159954 32.85661012 1.96689997 31.79306341 2.84375 30.71484375 C3.606875 29.78671875 4.37 28.85859375 5.15625 27.90234375 C5.81625 27.90234375 6.47625 27.90234375 7.15625 27.90234375 C7.5252219 20.59123381 6.97177726 14.68977553 4.15625 7.90234375 C3.49625 7.90234375 2.83625 7.90234375 2.15625 7.90234375 C1.723125 7.44859375 1.29 6.99484375 0.84375 6.52734375 C-2.63949176 3.17311094 -6.65216589 2.60961166 -11.34375 2.58984375 C-17.72457502 2.74359857 -20.68956411 4.56098112 -25.09375 9.02734375 C-29.0133658 13.82358314 -29.08194072 18.49000275 -28.6640625 24.4765625 C-28.44152623 26.62437471 -28.14912255 28.7647359 -27.84375 30.90234375 C-30.6770542 28.31541383 -31.69801386 26.38120718 -32.08203125 22.484375 C-32.25469386 16.04133337 -31.74799092 11.17187138 -27.84375 5.90234375 C-20.51443285 -1.77972129 -9.95832305 -3.84380327 0 0 Z " fill="#F8D85D" transform="translate(125.84375,639.09765625)"/>
<path d="M0 0 C3.52758712 2.47409956 5.62547482 5.28940274 6.55078125 9.515625 C6.78225976 13.93355776 6.41366783 16.35364401 4 20.125 C-0.12517552 22.7032347 -2.19036119 22.62059856 -7 22 C-10.00855277 20.09458325 -11.09673022 17.38726169 -12 14 C-12.01015753 8.9923387 -11.07291214 5.05624403 -8 1 C-5.01788442 -0.49105779 -3.31465295 -0.50994661 0 0 Z " fill="#EDD382" transform="translate(273,647)"/>
<path d="M0 0 C0.495 0.474375 0.99 0.94875 1.5 1.4375 C1.5 2.0975 1.5 2.7575 1.5 3.4375 C2.49 3.7675 3.48 4.0975 4.5 4.4375 C6.04613006 8.53474467 6.79227216 11.25607651 5.5 15.4375 C5.11328125 14.83421875 4.7265625 14.2309375 4.328125 13.609375 C-1.03103869 5.20150447 -1.03103869 5.20150447 -9.5 0.4375 C-11.76296407 0.15628758 -14.03630662 -0.04954889 -16.3125 -0.1875 C-17.47394531 -0.26226563 -18.63539063 -0.33703125 -19.83203125 -0.4140625 C-20.71246094 -0.46304688 -21.59289062 -0.51203125 -22.5 -0.5625 C-22.5 0.0975 -22.5 0.7575 -22.5 1.4375 C-23.08007812 1.64503906 -23.66015625 1.85257813 -24.2578125 2.06640625 C-31.06365611 4.75055909 -35.43812363 8.15189348 -38.64453125 14.81640625 C-39.57485709 17.66685664 -39.76680968 19.94537654 -39.75 22.9375 C-39.75773438 24.31421875 -39.75773438 24.31421875 -39.765625 25.71875 C-39.48185123 28.62325801 -38.62376514 30.76186872 -37.5 33.4375 C-37.5 34.4275 -37.5 35.4175 -37.5 36.4375 C-38.16 36.4375 -38.82 36.4375 -39.5 36.4375 C-40.16666667 35.10416667 -40.83333333 33.77083333 -41.5 32.4375 C-41.84417969 31.84710937 -42.18835938 31.25671875 -42.54296875 30.6484375 C-44.80945654 25.41238815 -44.28204745 19.0873501 -42.6953125 13.7109375 C-39.17383034 5.86653242 -33.18381917 -0.47208651 -25.0625 -3.5625 C-16.00510498 -5.99253281 -7.97787275 -4.98617047 0 0 Z " fill="#B43C21" transform="translate(211.5,635.5625)"/>
<path d="M0 0 C1.32 0.33 2.64 0.66 4 1 C3.52949219 1.35191406 3.05898438 1.70382812 2.57421875 2.06640625 C-2.62054796 6.1856519 -5.49367638 9.77219781 -6.3125 16.609375 C-6.64395206 24.10847794 -5.22598558 29.03543351 -0.515625 34.82421875 C4.33505786 39.42807483 9.71540999 39.7775 16.12695312 39.64282227 C21.89376358 39.28951697 25.94524502 38.15078865 30 34 C34.91509926 28.34763585 34.37376204 22.48721522 34.23828125 15.328125 C34.1382184 12.00186914 34.1382184 12.00186914 33 9 C36 10 36 10 37.1875 12.375 C38.87386558 19.89878489 38.95095887 26.50248051 35.16796875 33.34375 C33.91327248 35.12298484 32.65078056 36.57885558 31 38 C30.34 38 29.68 38 29 38 C28.67 38.99 28.34 39.98 28 41 C23.93580279 44.23770935 20.59709278 44.37876221 15.5 44.3125 C14.2109375 44.30863281 12.921875 44.30476562 11.59375 44.30078125 C6.505141 43.8748868 2.82479814 42.39982056 -1 39 C-1 38.34 -1 37.68 -1 37 C-1.928125 36.566875 -1.928125 36.566875 -2.875 36.125 C-5 35 -5 35 -7 33 C-7.36760731 30.67182036 -7.70241581 28.3381615 -8 26 C-8.33 25.67 -8.66 25.34 -9 25 C-9.70304567 16.1416245 -6.95233855 9.78005381 -3 2 C-2.01 2 -1.02 2 0 2 C0 1.34 0 0.68 0 0 Z " fill="#C56F31" transform="translate(341,639)"/>
<path d="M0 0 C2.875 0.8125 2.875 0.8125 5 3 C5.70295469 7.31720286 6.30133985 12.07467384 3.76171875 15.83203125 C1.47213299 17.34996061 0.03541159 17.30588746 -2.6875 17.1875 C-3.49574219 17.16042969 -4.30398437 17.13335938 -5.13671875 17.10546875 C-5.75160156 17.07066406 -6.36648437 17.03585937 -7 17 C-9.27611503 12.59002713 -9.8494418 7.87744001 -9 3 C-6.34541551 -0.4672124 -4.27403661 -0.51288439 0 0 Z " fill="#ECD388" transform="translate(33,651)"/>
<path d="M0 0 C1.6640625 1.1484375 1.6640625 1.1484375 3 3 C3.36328125 5.84765625 3.36328125 5.84765625 3.3125 9.0625 C3.30863281 10.12597656 3.30476563 11.18945312 3.30078125 12.28515625 C3 15 3 15 1 17 C-6.06398537 17.67276051 -6.06398537 17.67276051 -9 15.5625 C-10.51368916 11.68367154 -10.66990207 8.10220933 -10 4 C-7.34507849 -0.186607 -4.80760198 -0.71602583 0 0 Z " fill="#EBD592" transform="translate(353,651)"/>
<path d="M0 0 C4.0973075 0.11215258 7.48541758 0.76602926 11.3125 2.25 C11.6425 3.24 11.9725 4.23 12.3125 5.25 C13.63584494 5.93628012 14.97033903 6.60128886 16.3125 7.25 C20.52608603 11.47467442 21.66067199 15.81933658 21.75 21.6875 C21.64861065 23.87751 21.5051945 26.06612902 21.3125 28.25 C21.2403125 29.11625 21.168125 29.9825 21.09375 30.875 C20.45720336 35.15722285 19.33889449 37.67772904 16.125 40.625 C8.42143298 46.29633769 1.81556026 47.20030603 -7.6875 46.25 C-10.09255796 45.49733798 -11.59646939 44.68384956 -13.6875 43.25 C-13.6875 42.59 -13.6875 41.93 -13.6875 41.25 C-12.93726563 41.48589844 -12.93726563 41.48589844 -12.171875 41.7265625 C-5.10415623 43.21567306 4.67604718 43.87664415 11.0625 40.1875 C15.91318112 36.29193087 18.00403231 32.88519541 18.72265625 26.74609375 C18.98191048 20.05201657 19.10269566 14.20761113 14.84375 8.765625 C8.7521993 2.73623298 2.56874278 2.52114098 -5.6875 2.25 C-3.6875 0.25 -3.6875 0.25 0 0 Z " fill="#CB7831" transform="translate(196.6875,635.75)"/>
<path d="M0 0 C2.34765848 1.7998715 2.88599016 3.23289675 3.31640625 6.12890625 C3.51371334 9.99230641 3.47391734 12.28034775 1.3125 15.5625 C-1.48927182 17.30414195 -2.76275975 17.64744805 -6 17 C-8.3125 15.5625 -8.3125 15.5625 -10 13 C-10.79150471 8.64272661 -10.77259286 5.21831951 -8.375 1.4375 C-5.29288388 -0.42799134 -3.54177048 -0.60285455 0 0 Z " fill="#E9D7A0" transform="translate(113,651)"/>
<path d="M0 0 C4.22402889 0.81170704 6.36289625 2.77094686 9.0625 6.125 C10.92045892 9.84091784 10.49613222 14.06926339 10.0625 18.125 C8.625 21.1875 8.625 21.1875 6.0625 23.125 C2.21753025 24.18324856 -1.28012006 24.69042384 -5.1015625 23.38671875 C-8.04928034 21.3609467 -8.54803748 18.89888353 -9.52734375 15.5703125 C-10.3982255 10.37819842 -8.71636937 6.59286919 -6.3125 2.0625 C-3.9375 0.125 -3.9375 0.125 0 0 Z M-4.3125 6.5625 C-6.72236908 10.36267817 -6.57215483 13.74668503 -5.9375 18.125 C-5.16053517 20.80234485 -5.16053517 20.80234485 -2.9375 22.125 C-0.0885119 22.57361367 2.12960832 22.40432302 5.0625 22.125 C7.75351234 19.43398766 7.36137549 17.93424054 7.375 14.1875 C7.39175781 13.12660156 7.40851563 12.06570313 7.42578125 10.97265625 C7.29429684 8.13552919 7.29429684 8.13552919 5.7265625 6.2734375 C2.29913825 3.90803203 -0.90111808 4.4977162 -4.3125 6.5625 Z " fill="#EFD270" transform="translate(348.9375,645.875)"/>
<path d="M0 0 C2.97378636 2.7305479 3.14266633 5.30985893 3.3125 9.25 C3.13291039 13.09227234 2.96707084 15.66605656 0.1875 18.4375 C-1.0809375 19.3346875 -1.0809375 19.3346875 -2.375 20.25 C-2.705 20.58 -3.035 20.91 -3.375 21.25 C-6.86813199 21.63812578 -8.69283968 21.75674766 -11.5625 19.625 C-15.61567857 14.31393843 -16.74234959 10.8459388 -15.89453125 4.30078125 C-15.375 2.25 -15.375 2.25 -13.375 -0.75 C-8.59596068 -2.62747973 -4.51889029 -2.3431283 0 0 Z M-11.03515625 2.5 C-13.46886605 5.678723 -12.7835605 9.42560586 -12.375 13.25 C-11.50846586 16.18080674 -11.50846586 16.18080674 -10.375 18.25 C-8.93844146 18.33131463 -7.5005517 18.38933559 -6.0625 18.4375 C-5.26199219 18.47230469 -4.46148437 18.50710938 -3.63671875 18.54296875 C-1.34243611 18.41477681 -1.34243611 18.41477681 0.38671875 17.08203125 C2.92633985 13.32467384 2.32795469 8.56720286 1.625 4.25 C-1.05532359 1.49084336 -2.72866052 1.32756074 -6.5 0.875 C-9.33241076 1.00413577 -9.33241076 1.00413577 -11.03515625 2.5 Z " fill="#EFD274" transform="translate(36.375,649.75)"/>
<path d="M0 0 C0.72058594 -0.020625 1.44117188 -0.04125 2.18359375 -0.0625 C5.53290073 -0.08717261 7.73299026 0.01308446 10.6328125 1.765625 C11.12523437 2.25546875 11.61765625 2.7453125 12.125 3.25 C11.465 3.58 10.805 3.91 10.125 4.25 C9.568125 3.940625 9.01125 3.63125 8.4375 3.3125 C4.37787023 1.4472647 0.48511219 1.98955299 -3.8125 2.8125 C-9.21354497 5.34768437 -13.57439845 9.29909767 -16.875 14.25 C-18.35632635 20.30671339 -17.85887505 25.39756861 -15.875 31.25 C-14.40097456 33.66802092 -14.40097456 33.66802092 -12.875 35.25 C-13.205 35.91 -13.535 36.57 -13.875 37.25 C-19.37191724 31.02980418 -21.37615352 26.45857157 -21.18359375 18.03125 C-20.4004752 10.97327016 -16.86863282 6.71214682 -11.4609375 2.37890625 C-7.80782123 -0.22146469 -4.33144052 0.03066507 0 0 Z " fill="#F6D960" transform="translate(194.875,637.75)"/>
<path d="M0 0 C0.66 0 1.32 0 2 0 C4.82410973 6.70726061 6.20758528 11.94630526 3.75 19.0625 C0.42812394 27.00744781 -4.40370816 32.3923038 -12.23828125 36.04296875 C-19.31002607 38.64449146 -25.61442592 38.47711482 -33 37 C-29.33460332 34.62293582 -26.50943165 34.94905683 -22.25 35.375 C-21.07953125 35.48585938 -19.9090625 35.59671875 -18.703125 35.7109375 C-17.81109375 35.80632813 -16.9190625 35.90171875 -16 36 C-16 35.34 -16 34.68 -16 34 C-14.989375 33.46375 -13.97875 32.9275 -12.9375 32.375 C-7.78492671 29.4321685 -3.30360477 25.95540716 0 21 C1.37451606 14.12741968 1.76388217 6.83504342 0 0 Z " fill="#B33A22" transform="translate(219,649)"/>
<path d="M0 0 C4.23102971 0.48819574 7.25255661 2.89754988 10 6 C13.11123297 11.38482629 14.13498466 17.84262292 14 24 C12.27129179 29.87760792 7.83179407 33.49185833 3 37 C-1.77860615 39.33846684 -6.76120738 39.73325428 -12 39 C-16.48187452 37.44475124 -19.34162734 35.98755899 -22 32 C-21.01 32 -20.02 32 -19 32 C-19 32.66 -19 33.32 -19 34 C-12.26856736 36.39339827 -4.71553607 37.62554703 2 34.6875 C3.99560192 33.05189731 3.99560192 33.05189731 5.6875 31.3125 C6.120625 30.879375 6.55375 30.44625 7 30 C7.66 30 8.32 30 9 30 C10.81494636 23.86723771 11.14907019 16.18985813 8.9375 10.125 C6.8178243 6.70616822 4.57987991 4.60636663 1.42578125 2.1640625 C0.72001953 1.58785156 0.72001953 1.58785156 0 1 C0 0.67 0 0.34 0 0 Z " fill="#FAD656" transform="translate(43,641)"/>
<path d="M0 0 C4.29 0 8.58 0 13 0 C13.33 0.66 13.66 1.32 14 2 C13.38253906 1.95359375 12.76507813 1.9071875 12.12890625 1.859375 C4.05962094 1.51547852 -1.89759419 3.49433115 -8.375 8.3125 C-12.97478764 13.0218064 -14.16259746 17.02606325 -14.4375 23.4375 C-14.21626828 31.11740109 -10.9848782 36.30299634 -6 42 C-9.17538332 41.65978036 -10.02276865 40.97533396 -12.25 38.5625 C-14 36 -14 36 -14 34 C-14.99 33.67 -15.98 33.34 -17 33 C-18.99822477 27.81162692 -18.90822445 20.93198545 -17.28125 15.6796875 C-14.17551663 9.09252721 -9.77881156 4.79994391 -3 2 C-2.01 2 -1.02 2 0 2 C0 1.34 0 0.68 0 0 Z " fill="#C05C28" transform="translate(189,635)"/>
<path d="M0 0 C1.32 0.33 2.64 0.66 4 1 C3.52949219 1.35191406 3.05898438 1.70382812 2.57421875 2.06640625 C-2.62054796 6.1856519 -5.49367638 9.77219781 -6.3125 16.609375 C-6.5881801 22.84663733 -5.95979997 28.01479728 -2 33 C0.01756078 34.75899959 2.06398535 36.29296244 4.29296875 37.7734375 C6 39 6 39 7 41 C10.56045177 42.18681726 13.43808337 42.09689832 17.1875 42.0625 C18.45980469 42.05347656 19.73210937 42.04445313 21.04296875 42.03515625 C22.01878906 42.02355469 22.99460937 42.01195312 24 42 C23.505 42.99 23.505 42.99 23 44 C20.60385874 44.05425226 18.20896147 44.09379027 15.8125 44.125 C15.13896484 44.14175781 14.46542969 44.15851562 13.77148438 44.17578125 C7.77414479 44.23429188 3.50582157 43.00517473 -1 39 C-1 38.34 -1 37.68 -1 37 C-1.928125 36.566875 -1.928125 36.566875 -2.875 36.125 C-5 35 -5 35 -7 33 C-7.36760731 30.67182036 -7.70241581 28.3381615 -8 26 C-8.33 25.67 -8.66 25.34 -9 25 C-9.70304567 16.1416245 -6.95233855 9.78005381 -3 2 C-2.01 2 -1.02 2 0 2 C0 1.34 0 0.68 0 0 Z " fill="#BF5E2B" transform="translate(341,639)"/>
<path d="M0 0 C0.66 0.33 1.32 0.66 2 1 C3.53612337 6.35315718 5.30296916 12.7714241 2.5625 17.9375 C-0.75732933 21.90510091 -4.32409151 25.66204576 -9 28 C-11.59975932 28.17778623 -14.14824807 28.27753022 -16.75 28.3125 C-17.45382812 28.34150391 -18.15765625 28.37050781 -18.8828125 28.40039062 C-24.1813711 28.46440667 -26.85786155 27.30198773 -31 24 C-30.34 23.34 -29.68 22.68 -29 22 C-29 22.66 -29 23.32 -29 24 C-21.17781154 25.64677652 -12.96737399 26.42160273 -6 22 C-2.23121457 18.2646406 -0.19642255 14.84223676 0.37109375 9.51953125 C0.37457954 6.32306504 0.26579141 3.18457486 0 0 Z " fill="#FAD652" transform="translate(294,651)"/>
<path d="M0 0 C2.33329177 0.93664998 4.57356096 1.92583897 6.796875 3.09765625 C6.796875 3.75765625 6.796875 4.41765625 6.796875 5.09765625 C7.786875 5.42765625 8.776875 5.75765625 9.796875 6.09765625 C11.34300506 10.19490092 12.08914716 12.91623276 10.796875 17.09765625 C10.41015625 16.494375 10.0234375 15.89109375 9.625 15.26953125 C4.26583631 6.86166072 4.26583631 6.86166072 -4.203125 2.09765625 C-6.46608907 1.81644383 -8.73943162 1.61060736 -11.015625 1.47265625 C-12.17707031 1.39789062 -13.33851563 1.323125 -14.53515625 1.24609375 C-15.41558594 1.19710937 -16.29601562 1.148125 -17.203125 1.09765625 C-17.203125 1.75765625 -17.203125 2.41765625 -17.203125 3.09765625 C-18.10804688 3.46117187 -18.10804688 3.46117187 -19.03125 3.83203125 C-23.50218504 5.70693949 -27.05146217 7.26084932 -30.203125 11.09765625 C-28.84110916 6.64014987 -26.99817025 4.74536224 -23.203125 2.09765625 C-22.4709375 1.57300781 -21.73875 1.04835938 -20.984375 0.5078125 C-14.82036043 -2.61748141 -6.51409631 -1.83506859 0 0 Z " fill="#B94923" transform="translate(206.203125,633.90234375)"/>
<path d="M0 0 C1.8125 1 1.8125 1 3 3 C3.59473663 7.46052469 3.53637054 10.19544419 1 14 C-1.9375 14.4375 -1.9375 14.4375 -5 14 C-7.83268842 11.63942631 -7.98743809 10.11933812 -8.375 6.4375 C-8 3 -8 3 -6.8125 1.0625 C-4.33950907 -0.38718434 -2.82115488 -0.42317323 0 0 Z " fill="#E7D9B2" transform="translate(192,652)"/>
<path d="M0 0 C3.0625 0.25 3.0625 0.25 6.0625 2.25 C6.46453506 5.86831551 6.47349832 8.35950364 4.9375 11.6875 C2.31121143 13.8760738 0.37696363 13.54461899 -2.9375 13.25 C-5.26367985 9.61534398 -5.25154687 6.48963281 -4.9375 2.25 C-2.9375 0.25 -2.9375 0.25 0 0 Z " fill="#E7D8AC" transform="translate(270.9375,652.75)"/>
<path d="M0 0 C2.23652481 2.23652481 2.68283428 3.71203179 3.01171875 6.8203125 C2.96392382 15.71016948 -0.62887848 21.68235185 -6.7265625 27.8984375 C-13.02439048 33.72014103 -18.50591268 35.24994315 -27.03125 35.16796875 C-29.87280116 34.92553482 -32.36562277 34.05375089 -35 33 C-31.64668491 31.93772051 -28.92200944 32.10589008 -25.4375 32.375 C-18.1121646 32.4376097 -13.52799513 29.60071853 -8 25 C-2.38432066 19.47275655 -0.84460591 15.60333849 -0.4375 7.875 C-0.37272461 6.74384766 -0.37272461 6.74384766 -0.30664062 5.58984375 C-0.2005168 3.72678112 -0.09974999 1.86341476 0 0 Z " fill="#B13822" transform="translate(303,652)"/>
<path d="M0 0 C0.33 0.66 0.66 1.32 1 2 C1.66 2 2.32 2 3 2 C3.3540919 8.51791392 3.03901852 13.17521449 0 19 C3.50647501 16.1310659 6.85281112 13.2682346 10 10 C10.54233189 13.68785682 10.03130501 14.95256816 7.9375 18.125 C4.98667015 21.36923622 2.17724234 22.70885237 -2 24 C-4.4375 23.6875 -4.4375 23.6875 -6 23 C-5.34 23 -4.68 23 -4 23 C-4.33 22.01 -4.66 21.02 -5 20 C-4.55011719 19.27425781 -4.10023438 18.54851563 -3.63671875 17.80078125 C-1.61695637 14.34452915 -1.21976571 11.09201988 -0.8125 7.1875 C-0.73064453 6.49462891 -0.64878906 5.80175781 -0.56445312 5.08789062 C-0.36575707 3.39313016 -0.18140797 1.69669806 0 0 Z " fill="#F9C930" transform="translate(283,653)"/>
<path d="M0 0 C4.87349401 -0.74341434 7.92075486 -0.56208008 12 2.3125 C14.20195791 4.42417262 14.92702124 5.61813439 15.50390625 8.63671875 C15.62231863 14.42313688 15.39474812 20.32893479 11.375 24.8125 C7.94395925 26.52802038 4.81655594 26.68195367 1 27 C0.67 26.34 0.34 25.68 0 25 C1.0725 24.7525 2.145 24.505 3.25 24.25 C7.15350594 22.94883135 8.51068056 22.17509724 11 19 C11.80013137 14.93864353 11.64420112 11.08184075 11 7 C9.20454048 4.0299069 9.20454048 4.0299069 6 3 C3.23930254 2.71423464 0.79187622 2.81072026 -2 3 C-1.34 2.01 -0.68 1.02 0 0 Z " fill="#F2CD53" transform="translate(27,646)"/>
<path d="M0 0 C3.07703368 -0.42441844 5.03124078 -0.67036499 8 0 C11.5859129 2.745699 13.54224954 6.06693219 14.578125 10.44140625 C14.9859335 16.36389791 13.30264933 20.608599 9.79296875 25.34375 C8 27 8 27 4.25 27.625 C1 27 1 27 -1 26 C-1 25.34 -1 24.68 -1 24 C-0.37351562 23.81824219 0.25296875 23.63648438 0.8984375 23.44921875 C1.71570313 23.19785156 2.53296875 22.94648437 3.375 22.6875 C4.59316406 22.32205078 4.59316406 22.32205078 5.8359375 21.94921875 C8.33184629 21.08631815 8.33184629 21.08631815 10 18 C10.66388629 13.93981121 10.87656252 9.81107959 9.0546875 6.046875 C7.0376901 3.43365824 5.33650374 2.10469005 2.1875 1.125 C1.465625 1.08375 0.74375 1.0425 0 1 C0 0.67 0 0.34 0 0 Z " fill="#F1CE5D" transform="translate(268,646)"/>
<path d="M0 0 C0.70125 0.7425 1.4025 1.485 2.125 2.25 C7.43066731 7.32498613 11.45896935 9.71957839 18.875 9.5625 C19.93400513 9.55150269 19.93400513 9.55150269 21.0144043 9.5402832 C28.75164394 9.24994688 32.80762832 6.31711334 38 1 C36.22160201 6.33519397 33.87426603 8.88341598 29.0625 11.75 C22.7655004 14.22527846 14.39498739 14.15971066 8 12 C4.07014828 9.38009885 1.96520158 6.26548362 0 2 C0 1.34 0 0.68 0 0 Z " fill="#C1662E" transform="translate(96,669)"/>
<path d="M0 0 C3.9126984 1.3042328 6.37310241 2.78934739 9 6 C9 6.99 9 7.98 9 9 C9.99 9.33 10.98 9.66 12 10 C14.31926215 14.11707946 14.36643068 18.32292013 14.375 22.9375 C14.39949219 23.62779297 14.42398437 24.31808594 14.44921875 25.02929688 C14.47864237 30.2029508 13.24224404 33.03025597 10 37 C8.078125 38.8984375 8.078125 38.8984375 6.25 40.375 C5.63640625 40.87773438 5.0228125 41.38046875 4.390625 41.8984375 C3.93171875 42.26195312 3.4728125 42.62546875 3 43 C2.34 42.67 1.68 42.34 1 42 C2.52994792 40.79557292 4.05989583 39.59114583 5.58984375 38.38671875 C7.27155077 36.94316909 7.27155077 36.94316909 8 34 C8.99 33.505 8.99 33.505 10 33 C11.60957534 27.04457125 12.72041532 18.42879977 9.8828125 12.7734375 C8.64882755 11.1350959 7.32933571 9.56196947 6 8 C6 7.01 6 6.02 6 5 C5.34 5 4.68 5 4 5 C4 4.34 4 3.68 4 3 C2.68 2.67 1.36 2.34 0 2 C0 1.34 0 0.68 0 0 Z " fill="#BA4D26" transform="translate(289,637)"/>
<path d="M0 0 C3.74955836 0.95733405 4.9119729 1.40008979 6.9375 4.75 C7.56531915 9.39868337 7.9825155 13.86706048 5.65625 18.05859375 C3.9375 19.75 3.9375 19.75 0 20.3125 C-3.27770071 20.13744784 -3.93716954 19.85653089 -6.5625 17.625 C-8.37888468 14.14359602 -8.74682826 12.62786014 -8.0625 8.75 C-6.21608555 4.40503324 -4.75682107 1.16493577 0 0 Z M-4.875 4.8125 C-6.73834949 7.85270179 -6.42899683 10.26828011 -6.0625 13.75 C-5.11076062 16.27040427 -5.11076062 16.27040427 -3.0625 17.75 C-0.01996492 18.33345476 -0.01996492 18.33345476 2.9375 17.75 C5.47387054 13.94544419 5.53223663 11.21052469 4.9375 6.75 C3.91328739 4.64061215 3.91328739 4.64061215 1.9375 3.75 C-0.88365488 3.32682677 -2.40200907 3.36281566 -4.875 4.8125 Z " fill="#ECD48A" transform="translate(190.0625,648.25)"/>
<path d="M0 0 C3.95927982 3.57612371 4.78363949 5.69112424 5.2734375 10.91796875 C5.51142385 18.57929865 4.7998366 23.88750091 0 30 C-4.57649189 34.70018086 -9.94364285 36.83526515 -16.40625 37.18359375 C-19.6100909 37.18707619 -22.79908371 37.13174503 -26 37 C-26 36.67 -26 36.34 -26 36 C-24.90300781 35.89042969 -23.80601563 35.78085937 -22.67578125 35.66796875 C-21.22128484 35.50844334 -19.76686137 35.34825187 -18.3125 35.1875 C-17.59126953 35.11724609 -16.87003906 35.04699219 -16.12695312 34.97460938 C-11.75685548 34.47573978 -8.56484399 33.77848135 -5 31 C-3.60037519 29.2348064 -3.60037519 29.2348064 -2.6875 27.3125 C-2.130625 26.219375 -1.57375 25.12625 -1 24 C-0.01 24 0.98 24 2 24 C2.05425013 21.12474331 2.09379277 18.25052354 2.125 15.375 C2.14175781 14.56675781 2.15851563 13.75851562 2.17578125 12.92578125 C2.21420986 8.19906185 1.82737094 4.44612298 0 0 Z " fill="#BC5729" transform="translate(135,646)"/>
<path d="M0 0 C0.99 0.33 1.98 0.66 3 1 C2.52949219 1.36351562 2.05898438 1.72703125 1.57421875 2.1015625 C-2.44997419 5.35091083 -5.43199256 7.92703474 -7 13 C-7.82084288 20.94165483 -7.53038166 26.41035394 -3 33 C-2.25 35.9375 -2.25 35.9375 -2 38 C-2.66 38 -3.32 38 -4 38 C-4.33 37.34 -4.66 36.68 -5 36 C-5.99 35.67 -6.98 35.34 -8 35 C-11.34438631 27.68063602 -11.6781827 16.8750514 -9.0546875 9.25390625 C-6.76106944 5.43842212 -3.82716074 2.31643939 0 0 Z " fill="#BE5927" transform="translate(264,639)"/>
<path d="M0 0 C3.08026017 -0.39745293 5.04841166 -0.62662689 8 0 C12.56306594 4.2028239 14.10112834 8.88190296 14.5 14.9375 C14.41645631 18.66911817 13.96321944 20.77410574 11.4375 23.5625 C8.21988158 26.28864449 5.21087731 26.83156491 1 27 C0.34 25.68 -0.32 24.36 -1 23 C0.04800781 22.92652344 0.04800781 22.92652344 1.1171875 22.8515625 C2.02726563 22.77679687 2.93734375 22.70203125 3.875 22.625 C5.23238281 22.52058594 5.23238281 22.52058594 6.6171875 22.4140625 C9.17941903 22.20431868 9.17941903 22.20431868 11 20 C11.78568159 13.75536189 11.49306714 8.38514518 8 3 C4.7 3 1.4 3 -2 3 C-1.34 2.01 -0.68 1.02 0 0 Z " fill="#F2CE5C" transform="translate(186,646)"/>
<path d="M0 0 C4.55439473 3.65786033 6.70636306 7.06798198 7.3515625 12.9296875 C7.41684231 16.2154378 7.42273706 19.33602778 6.984375 22.59375 C6.324375 23.25375 5.664375 23.91375 4.984375 24.59375 C5.01917969 23.90410156 5.05398437 23.21445312 5.08984375 22.50390625 C5.2798332 15.90855814 4.51335751 10.69040427 1.984375 4.59375 C1.324375 4.59375 0.664375 4.59375 -0.015625 4.59375 C-0.6653125 3.913125 -0.6653125 3.913125 -1.328125 3.21875 C-5.38944512 -0.69215085 -9.92993437 -0.63215076 -15.328125 -0.53125 C-16.58238281 -0.51320313 -17.83664063 -0.49515625 -19.12890625 -0.4765625 C-20.55783203 -0.44175781 -20.55783203 -0.44175781 -22.015625 -0.40625 C-21.015625 -2.40625 -21.015625 -2.40625 -19.24609375 -3.0078125 C-12.0863456 -4.28678677 -6.23641155 -3.98068822 0 0 Z " fill="#FDD850" transform="translate(128.015625,642.40625)"/>
<path d="M0 0 C1.75 0.125 1.75 0.125 4 1 C8.45643302 6.72969959 9.15863659 10.80354023 9.25 17.9375 C9.28867187 19.74541016 9.28867187 19.74541016 9.328125 21.58984375 C8.9038218 25.99956628 7.5256592 28.49661319 4.39453125 31.58203125 C2.9296875 32.72135417 1.46484375 33.86067708 0 35 C-0.66 34.67 -1.32 34.34 -2 34 C-1.50628906 33.45730469 -1.01257812 32.91460938 -0.50390625 32.35546875 C0.13675781 31.64003906 0.77742188 30.92460938 1.4375 30.1875 C2.07558594 29.47980469 2.71367188 28.77210938 3.37109375 28.04296875 C7.38633768 23.00706329 6.42850991 16.10438686 6 10 C4.5719814 6.12394953 2.58569305 3.20133425 0 0 Z " fill="#C36B32" transform="translate(50,642)"/>
<path d="M0 0 C2.1875 -0.3125 2.1875 -0.3125 5 0 C8.61391365 3.03897284 10.73406312 5.26903276 11.203125 10.0859375 C11.32146833 15.86503663 10.71374133 19.11470031 6.640625 23.4453125 C5.125 24.875 5.125 24.875 2 27 C-0.875 26.8125 -0.875 26.8125 -3 26 C-3 25.34 -3 24.68 -3 24 C-2.37351562 23.81824219 -1.74703125 23.63648438 -1.1015625 23.44921875 C-0.28429687 23.19785156 0.53296875 22.94648437 1.375 22.6875 C2.59316406 22.32205078 2.59316406 22.32205078 3.8359375 21.94921875 C6.33184629 21.08631815 6.33184629 21.08631815 8 18 C8.59374381 13.45053445 8.50549579 9.27704199 6.8125 5 C4.7127547 2.68303967 2.97366555 1.88406273 0 1 C0 0.67 0 0.34 0 0 Z " fill="#F3CD52" transform="translate(350,646)"/>
<path d="M0 0 C2.375 -0.125 2.375 -0.125 5 0 C7 2 7 2 7.1875 5.5625 C7 9 7 9 6 10 C4.00041636 10.04080783 1.99954746 10.04254356 0 10 C-1.36952673 7.26094655 -1.12621361 5.02912668 -1 2 C-0.67 1.34 -0.34 0.68 0 0 Z " fill="#E5DBC1" transform="translate(28,654)"/>
<path d="M0 0 C2.375 -0.125 2.375 -0.125 5 0 C7 2 7 2 7.25 5 C7 8 7 8 5 10 C0.44444444 9.44444444 0.44444444 9.44444444 -1 8 C-1.23529412 2.47058824 -1.23529412 2.47058824 0 0 Z " fill="#E4DBC5" transform="translate(347,654)"/>
<path d="M0 0 C4.55555556 0.55555556 4.55555556 0.55555556 6 2 C5.28 8.72 5.28 8.72 4 10 C2.33382885 10.04063832 0.66611905 10.042721 -1 10 C-2.38125018 7.23749964 -2.19079306 5.05268901 -2 2 C-1.34 1.34 -0.68 0.68 0 0 Z " fill="#E4DBC4" transform="translate(108,654)"/>
<path d="M0 0 C3.67809371 0.25077912 5.50070028 0.51496598 8.1875 3.125 C13.44938269 11.47143461 14.22568842 19.11014542 12.484375 28.8984375 C12.24460938 29.93871094 12.24460938 29.93871094 12 31 C11.01 31 10.02 31 9 31 C9.15726563 30.48953125 9.31453125 29.9790625 9.4765625 29.453125 C10.9533267 22.53217041 11.5733867 13.54920554 7.8125 7.3125 C5.58260084 4.38814653 3.04104503 2.08528802 0 0 Z " fill="#CB7A32" transform="translate(125,639)"/>
<path d="M0 0 C0.33 0 0.66 0 1 0 C1.63706811 4.24712072 0.90262771 6.64037891 -1.5 10.0625 C-6.97375424 16.76688751 -13.47047975 19.9598146 -22 21 C-25.88606209 21.25726543 -29.2601752 21.24660827 -33 20 C-32.67 19.34 -32.34 18.68 -32 18 C-31.04480469 18.06960938 -30.08960938 18.13921875 -29.10546875 18.2109375 C-19.88822492 18.59690384 -13.63820291 17.74918499 -6 12 C-2.19985508 8.38522801 -1.17063037 4.97517908 0 0 Z " fill="#AC3024" transform="translate(380,666)"/>
<path d="M0 0 C0.72380859 0.00322266 1.44761719 0.00644531 2.19335938 0.00976562 C2.90556641 -0.00634766 3.61777344 -0.02246094 4.3515625 -0.0390625 C8.90571802 -0.04327541 11.75725172 0.54659541 15.38085938 3.32226562 C17.75585938 5.82226562 17.75585938 5.82226562 19.38085938 8.32226562 C19.05085938 9.31226563 18.72085937 10.30226563 18.38085938 11.32226562 C17.65898437 10.55914063 16.93710937 9.79601562 16.19335938 9.00976562 C10.93776965 3.98775767 7.11626426 2.85520948 0.06835938 2.63476562 C-0.67220703 2.60060547 -1.41277344 2.56644531 -2.17578125 2.53125 C-3.98972226 2.44933008 -5.80440416 2.38410741 -7.61914062 2.32226562 C-5.0952854 -0.2015896 -3.45106438 0.03531322 0 0 Z " fill="#C66E31" transform="translate(354.619140625,635.677734375)"/>
<path d="M0 0 C4.98133803 0.08166128 7.06162317 0.22134688 10.9375 3.4375 C13.80338364 6.99814331 14.12008808 8.63312938 14.0625 13.125 C14.05347656 14.03507813 14.04445313 14.94515625 14.03515625 15.8828125 C14.02355469 16.58148437 14.01195312 17.28015625 14 18 C13.67 18 13.34 18 13 18 C12.87882812 17.22914063 12.75765625 16.45828125 12.6328125 15.6640625 C12.46523438 14.66117188 12.29765625 13.65828125 12.125 12.625 C11.88136719 11.12839844 11.88136719 11.12839844 11.6328125 9.6015625 C11.2041198 6.8574885 11.2041198 6.8574885 9 5 C6.66439849 4.68076525 6.66439849 4.68076525 4.0625 4.75 C3.18722656 4.74484375 2.31195313 4.7396875 1.41015625 4.734375 C-1.26105634 4.84166163 -1.26105634 4.84166163 -4 7 C-2.92598892 4.08482708 -2.22189824 2.22189824 0 0 Z " fill="#F0D068" transform="translate(345,646)"/>
<path d="M0 0 C0.70125 0.7425 1.4025 1.485 2.125 2.25 C7.94497523 7.81693283 12.63742443 10.23299242 20.5703125 10.16796875 C24.21879242 9.91574265 27.49291377 9.02024327 31 8 C31 8.66 31 9.32 31 10 C25.47539088 13.68307275 16.82626056 12.7387049 10.41015625 11.5 C5.96204213 9.99737412 2.87062649 7.6779902 0 4 C0 2.68 0 1.36 0 0 Z " fill="#C46F33" transform="translate(17,669)"/>
<path d="M0 0 C2 1 2 1 2 1 Z M-4 3 C-3.34 3.33 -2.68 3.66 -2 4 C-2.4125 4.66 -2.825 5.32 -3.25 6 C-3.8275 6.99 -4.405 7.98 -5 9 C-5.70125 10.093125 -6.4025 11.18625 -7.125 12.3125 C-10.30823881 18.59392926 -9.8327283 26.10840596 -10 33 C-12.97672763 27.91075598 -12.79460213 22.72382888 -12 17 C-10.08465488 11.91199733 -7.87875275 6.87875275 -4 3 Z " fill="#B43B20" transform="translate(262,635)"/>
<path d="M0 0 C2.625 2.1875 2.625 2.1875 4 4 C0 2.66666667 -4 1.33333333 -8 0 C-9.33525717 -0.07973476 -10.67412083 -0.10771338 -12.01171875 -0.09765625 C-12.76904297 -0.09443359 -13.52636719 -0.09121094 -14.30664062 -0.08789062 C-15.48516602 -0.07532227 -15.48516602 -0.07532227 -16.6875 -0.0625 C-17.48478516 -0.05798828 -18.28207031 -0.05347656 -19.10351562 -0.04882812 C-21.06904257 -0.0370585 -23.03453085 -0.01912348 -25 0 C-25 0.66 -25 1.32 -25 2 C-26.32 1.67 -27.64 1.34 -29 1 C-19.23880133 -4.10244476 -10.24095511 -4.39423388 0 0 Z M-31 2 C-29 3 -29 3 -29 3 Z " fill="#B03522" transform="translate(370,634)"/>
<path d="M0 0 C1.98 0.99 1.98 0.99 4 2 C4 2.99 4 3.98 4 5 C4.66 5 5.32 5 6 5 C7.13480527 8.60993172 7.10015767 11.9842327 7.0625 15.75 C7.05347656 16.92046875 7.04445312 18.0909375 7.03515625 19.296875 C7.02355469 20.18890625 7.01195312 21.0809375 7 22 C6.01 22 5.02 22 4 22 C3.96261719 20.89140625 3.92523438 19.7828125 3.88671875 18.640625 C3.82104552 17.17705026 3.75459865 15.71351009 3.6875 14.25 C3.66494141 13.52039063 3.64238281 12.79078125 3.61914062 12.0390625 C3.40316224 7.71949488 2.91385036 5.21851568 0 2 C0 1.34 0 0.68 0 0 Z " fill="#FCD346" transform="translate(208,645)"/>
<path d="M0 0 C0.86625 -0.00773438 1.7325 -0.01546875 2.625 -0.0234375 C5 0.375 5 0.375 6.80078125 1.54296875 C8.4855311 4.1167397 8.29496499 6.01765862 8.1875 9.0625 C8.16042969 10.05636719 8.13335937 11.05023437 8.10546875 12.07421875 C8.07066406 12.83347656 8.03585937 13.59273437 8 14.375 C7.67 14.375 7.34 14.375 7 14.375 C6.95101563 13.67632813 6.90203125 12.97765625 6.8515625 12.2578125 C6.77679688 11.34773437 6.70203125 10.43765625 6.625 9.5 C6.55539062 8.59507812 6.48578125 7.69015625 6.4140625 6.7578125 C6.20431868 4.19558097 6.20431868 4.19558097 4 2.375 C-0.08503766 1.88439398 -0.08503766 1.88439398 -3.6484375 3.6015625 C-5.33720105 5.81745455 -5.48760328 7.30392532 -5.6875 10.0625 C-5.78611328 11.27486328 -5.78611328 11.27486328 -5.88671875 12.51171875 C-5.92410156 13.12660156 -5.96148437 13.74148438 -6 14.375 C-6.66 14.045 -7.32 13.715 -8 13.375 C-8.08121924 11.77167209 -8.13929134 10.16715974 -8.1875 8.5625 C-8.22230469 7.66917969 -8.25710938 6.77585937 -8.29296875 5.85546875 C-8 3.375 -8 3.375 -6.80078125 1.57421875 C-4.42681454 -0.00670919 -2.83633491 -0.02532442 0 0 Z " fill="#EDD381" transform="translate(349,649.625)"/>
<path d="M0 0 C2.375 0.875 2.375 0.875 4.375 2.875 C4.68904687 7.11463281 4.70117985 10.24034398 2.375 13.875 C-0.4375 14.125 -0.4375 14.125 -3.625 13.875 C-6.18502346 11.656313 -6.57423191 10.22312407 -7.0625 6.875 C-6.625 3.875 -6.625 3.875 -4.9375 1.4375 C-2.625 -0.125 -2.625 -0.125 0 0 Z M-3.625 1.875 C-5.00625018 4.63750036 -4.81579306 6.82231099 -4.625 9.875 C-3.965 10.535 -3.305 11.195 -2.625 11.875 C0.68183466 11.58516731 0.68183466 11.58516731 3.375 9.875 C3.62505386 6.91682893 3.62505386 6.91682893 3.375 3.875 C1.53616119 1.58771266 1.53616119 1.58771266 -1.25 1.75 C-2.425625 1.811875 -2.425625 1.811875 -3.625 1.875 Z " fill="#E8D8AB" transform="translate(350.625,652.125)"/>
<path d="M0 0 C2.375 0.6875 2.375 0.6875 5 2 C6.3125 4.625 6.3125 4.625 7 7 C7.66 7 8.32 7 9 7 C11.04898287 11.21896866 11.21207997 14.65372146 11.125 19.3125 C11.10695313 20.56675781 11.08890625 21.82101562 11.0703125 23.11328125 C11.04710937 24.06589844 11.02390625 25.01851562 11 26 C10.67 26 10.34 26 10 26 C9.86722656 25.16855469 9.73445313 24.33710937 9.59765625 23.48046875 C9.42105469 22.39378906 9.24445313 21.30710937 9.0625 20.1875 C8.88847656 19.10855469 8.71445312 18.02960937 8.53515625 16.91796875 C8.06128079 13.95066644 8.06128079 13.95066644 7 11 C6.34 10.67 5.68 10.34 5 10 C4.30959426 8.34302621 3.6469365 6.6744239 3 5 C2.02763513 3.3170608 1.03435556 1.64556566 0 0 Z " fill="#B95029" transform="translate(369,638)"/>
<path d="M0 0 C0.33 0.66 0.66 1.32 1 2 C1.66 2 2.32 2 3 2 C3.46656194 11.86692101 3.46656194 11.86692101 1.6875 16.1875 C1.130625 16.785625 0.57375 17.38375 0 18 C-0.99 18 -1.98 18 -3 18 C-2.690625 16.88625 -2.38125 15.7725 -2.0625 14.625 C-0.84199336 9.79490988 -0.38600363 4.95709931 0 0 Z " fill="#F7C72D" transform="translate(42,653)"/>
<path d="M0 0 C1.8125 1.0625 1.8125 1.0625 3 3 C3.1875 6.6875 3.1875 6.6875 3 10 C2.67 10 2.34 10 2 10 C1.34 7.69 0.68 5.38 0 3 C-1.65 2.67 -3.3 2.34 -5 2 C-5 5.3 -5 8.6 -5 12 C-3.35 12 -1.7 12 0 12 C0 12.66 0 13.32 0 14 C-2.3125 14.25 -2.3125 14.25 -5 14 C-7.77334669 11.60918389 -7.98943126 10.100403 -8.375 6.4375 C-8 3 -8 3 -6.8125 1.0625 C-4.33950907 -0.38718434 -2.82115488 -0.42317323 0 0 Z " fill="#E7D8AB" transform="translate(33,652)"/>
<path d="M0 0 C-0.8125 1.9375 -0.8125 1.9375 -2 4 C-5.0510635 5.01702117 -7.24199061 5.16582083 -10.4375 5.1875 C-11.85869141 5.20876953 -11.85869141 5.20876953 -13.30859375 5.23046875 C-16.04501644 4.99614518 -17.66428123 4.39701383 -20 3 C-20 2.67 -20 2.34 -20 2 C-18.86820312 1.93941406 -17.73640625 1.87882813 -16.5703125 1.81640625 C-15.08852855 1.73200083 -13.6067584 1.64735283 -12.125 1.5625 C-11.37863281 1.52318359 -10.63226563 1.48386719 -9.86328125 1.44335938 C-6.43744287 1.24274722 -3.2500626 0 0 0 Z " fill="#C87634" transform="translate(367,677)"/>
<path d="M0 0 C1.734375 1.14453125 1.734375 1.14453125 3 3 C3.29296875 5.91796875 3.29296875 5.91796875 3.1875 9.1875 C3.16042969 10.27417969 3.13335937 11.36085938 3.10546875 12.48046875 C3.07066406 13.31191406 3.03585938 14.14335938 3 15 C2.67 15 2.34 15 2 15 C1.95101562 14.38511719 1.90203125 13.77023437 1.8515625 13.13671875 C1.77679688 12.32847656 1.70203125 11.52023437 1.625 10.6875 C1.55539063 9.88699219 1.48578125 9.08648438 1.4140625 8.26171875 C1.10435574 5.72775559 1.10435574 5.72775559 -1 3 C-5.08634652 2.46502045 -5.08634652 2.46502045 -8.6484375 4.23046875 C-10.33896942 6.44379522 -10.48768027 7.92998766 -10.6875 10.6875 C-10.75324219 11.49574219 -10.81898437 12.30398438 -10.88671875 13.13671875 C-10.92410156 13.75160156 -10.96148437 14.36648438 -11 15 C-11.33 15 -11.66 15 -12 15 C-12.61016949 6.27118644 -12.61016949 6.27118644 -10.5 1.875 C-6.77081939 -0.92188546 -4.60133422 -0.58429641 0 0 Z " fill="#EDD382" transform="translate(114,649)"/>
<path d="M0 0 C0.33 0.66 0.66 1.32 1 2 C0.40794575 3.43997115 -0.2504858 4.8528398 -0.9375 6.25 C-3.71327434 12.75542301 -3.36082741 19.04404928 -3 26 C-3.66 26 -4.32 26 -5 26 C-7.36520032 17.59680861 -6.23020251 10.549522 -2 3 C-1.34 2.01 -0.68 1.02 0 0 Z " fill="#B13722" transform="translate(334,641)"/>
<path d="M0 0 C3 3 3 3 3.36328125 5.55859375 C3.34652344 6.50863281 3.32976562 7.45867188 3.3125 8.4375 C3.30863281 9.38496094 3.30476562 10.33242188 3.30078125 11.30859375 C2.99934156 14.00589177 2.37375963 15.68485928 1 18 C0.34 18 -0.32 18 -1 18 C-0.505 9.09 -0.505 9.09 0 0 Z " fill="#F7C72E" transform="translate(201,652)"/>
<path d="M0 0 C8.1627907 -0.62790698 8.1627907 -0.62790698 11.5 1.875 C13.96896627 5.37270221 14.11203845 7.36469303 14.0625 11.625 C14.05347656 12.62789062 14.04445313 13.63078125 14.03515625 14.6640625 C14.02355469 15.43492187 14.01195313 16.20578125 14 17 C13.67 17 13.34 17 13 17 C12.96132812 15.84371094 12.96132812 15.84371094 12.921875 14.6640625 C12.86515625 13.66117188 12.8084375 12.65828125 12.75 11.625 C12.70359375 10.62726562 12.6571875 9.62953125 12.609375 8.6015625 C12.27687975 5.9111174 12.27687975 5.9111174 10.25 4.71875 C7.92540998 3.97617263 5.64051269 3.36716438 3.25 2.875 C2.45078125 2.70742188 1.6515625 2.53984375 0.828125 2.3671875 C0.22484375 2.24601563 -0.3784375 2.12484375 -1 2 C-0.67 1.34 -0.34 0.68 0 0 Z " fill="#F2CD57" transform="translate(106,646)"/>
<path d="M0 0 C2.71332255 4.06998383 2.3980831 7.23112693 2 12 C1.1875 15.5 1.1875 15.5 0 18 C-0.99 18.33 -1.98 18.66 -3 19 C-2.69277348 16.02020106 -2.37948528 13.04126241 -2.0625 10.0625 C-1.97548828 9.21236328 -1.88847656 8.36222656 -1.79882812 7.48632812 C-1.71181641 6.67744141 -1.62480469 5.86855469 -1.53515625 5.03515625 C-1.456604 4.2862915 -1.37805176 3.53742676 -1.29711914 2.76586914 C-1 1 -1 1 0 0 Z " fill="#BF5927" transform="translate(219,651)"/>
<path d="M0 0 C0 0.33 0 0.66 0 1 C-1.22976562 1.19916016 -1.22976562 1.19916016 -2.484375 1.40234375 C-4.10085937 1.66724609 -4.10085937 1.66724609 -5.75 1.9375 C-7.35101563 2.19853516 -7.35101563 2.19853516 -8.984375 2.46484375 C-11.36347593 2.88704171 -13.66915211 3.37202884 -16 4 C-16 4.66 -16 5.32 -16 6 C-17.65 6.33 -19.3 6.66 -21 7 C-21.0825 7.598125 -21.165 8.19625 -21.25 8.8125 C-22.20455872 11.5966296 -23.57132271 12.43311142 -26 14 C-26 11.875 -26 11.875 -25 9 C-17.68185391 1.86034528 -10.02584622 -0.54466368 0 0 Z " fill="#B14029" transform="translate(40,634)"/>
<path d="M0 0 C8.10308032 -0.4089405 14.70046375 0.35023187 22 4 C23.6875 6.375 23.6875 6.375 25 9 C24.67 9.99 24.34 10.98 24 12 C22.62437146 10.71034824 21.29233607 9.37310707 20 8 C20 7.34 20 6.68 20 6 C19.34 6 18.68 6 18 6 C18 5.34 18 4.68 18 4 C15.36 3.67 12.72 3.34 10 3 C10 2.34 10 1.68 10 1 C6.7 1 3.4 1 0 1 C0 0.67 0 0.34 0 0 Z " fill="#B44124" transform="translate(112,633)"/>
<path d="M0 0 C1.03893131 3.11679393 0.98157688 4.94762147 0.8125 8.1875 C0.73942765 16.08975236 3.87229761 21.1397687 9 27 C5.91635318 26.66960927 5.02152903 26.02342865 2.875 23.6875 C-0.55435739 18.77208774 -1.29667591 15.3739289 -1.1875 9.375 C-1.18685547 8.694375 -1.18621094 8.01375 -1.18554688 7.3125 C-1.14080577 2.28161154 -1.14080577 2.28161154 0 0 Z " fill="#C4692C" transform="translate(174,650)"/>
<path d="M0 0 C4.3488459 0.50178991 6.89443878 3.09697538 10 6 C12.24073567 9.39844911 12.21220412 12.23861052 12.125 16.25 C12.10695313 17.32765625 12.08890625 18.4053125 12.0703125 19.515625 C12.04710937 20.33546875 12.02390625 21.1553125 12 22 C11.67 22 11.34 22 11 22 C10.91363281 21.19175781 10.82726563 20.38351562 10.73828125 19.55078125 C9.885608 13.06577091 9.36137697 9.21251048 4 5 C2.64444707 3.35135455 1.30368347 1.68996005 0 0 Z " fill="#FDD54A" transform="translate(43,641)"/>
<path d="M0 0 C0.66 0.66 1.32 1.32 2 2 C-5.92 2.495 -5.92 2.495 -14 3 C-14 3.66 -14 4.32 -14 5 C-15.98 5 -17.96 5 -20 5 C-20 5.66 -20 6.32 -20 7 C-20.66 6.67 -21.32 6.34 -22 6 C-20.44040305 2.88080609 -17.87837785 2.17267727 -14.7578125 0.828125 C-9.9405411 -0.61842108 -4.97047127 -0.6668651 0 0 Z " fill="#BB5027" transform="translate(361,634)"/>
<path d="M0 0 C1.4375 2.0625 1.4375 2.0625 2 4 C1.484375 3.649375 0.96875 3.29875 0.4375 2.9375 C-2.96469159 1.62896477 -5.48525684 2.270525 -9 3 C-10.66342837 4.66342837 -10.36048097 6.7825709 -10.5625 9.0625 C-10.68818359 10.44115234 -10.68818359 10.44115234 -10.81640625 11.84765625 C-10.87699219 12.55792969 -10.93757813 13.26820313 -11 14 C-13 12 -13 12 -13.3125 8.6875 C-12.98510557 4.82424573 -12.38898655 3.00835344 -10 0 C-6.21603308 -1.26132231 -3.85909105 -0.91214879 0 0 Z " fill="#EDD383" transform="translate(276,650)"/>
<path d="M0 0 C0.99 0 1.98 0 3 0 C3.05407567 2.58361518 3.093707 5.16609255 3.125 7.75 C3.14175781 8.47960937 3.15851563 9.20921875 3.17578125 9.9609375 C3.21072239 13.8044624 3.17499684 16.74606772 1 20 C0.09761253 17.29283758 -0.11851302 15.76223232 -0.09765625 12.98828125 C-0.09443359 12.23095703 -0.09121094 11.47363281 -0.08789062 10.69335938 C-0.07951172 9.90767578 -0.07113281 9.12199219 -0.0625 8.3125 C-0.05798828 7.51521484 -0.05347656 6.71792969 -0.04882812 5.89648438 C-0.0370585 3.93095743 -0.01912348 1.96546915 0 0 Z " fill="#B54325" transform="translate(139,650)"/>
<path d="M0 0 C0.99 0 1.98 0 3 0 C3 0.66 3 1.32 3 2 C8.95795479 3.98598493 14.74892565 4.57045059 21 5 C18.64979502 7.35020498 18.08090378 7.31914802 14.875 7.375 C9.95147406 7.271598 6.00429867 5.87118778 2 3 C1.34 2.01 0.68 1.02 0 0 Z " fill="#F1C855" transform="translate(21,673)"/>
<path d="M0 0 C0.33 0 0.66 0 1 0 C1.33 5.61 1.66 11.22 2 17 C2.66 17 3.32 17 4 17 C4.33 18.98 4.66 20.96 5 23 C1.16384614 19.54746153 -0.81957347 16.84518752 -1.15234375 11.59765625 C-1.2058444 7.54944069 -1.12850854 3.90915359 0 0 Z " fill="#B64C2B" transform="translate(13,652)"/>
<path d="M0 0 C0 0.33 0 0.66 0 1 C-0.969375 1.309375 -1.93875 1.61875 -2.9375 1.9375 C-5.84065792 2.69523342 -5.84065792 2.69523342 -7 4 C-7.33856828 9.32673036 -7.33856828 9.32673036 -5 14 C-2.43717258 14.72965366 -2.43717258 14.72965366 0 15 C0.66 13.68 1.32 12.36 2 11 C2.33 11.99 2.66 12.98 3 14 C1 16 1 16 -2.4375 16.375 C-6 16 -6 16 -7.9375 14.5625 C-9.49559391 10.80474409 -9.75236814 7.00525391 -9 3 C-6.37906425 -0.494581 -4.23143389 -0.28209559 0 0 Z " fill="#EAD597" transform="translate(33,651)"/>
<path d="M0 0 C0.33 0.66 0.66 1.32 1 2 C-2.18867925 7.64150943 -2.18867925 7.64150943 -5.6875 9.1875 C-9.37407286 10.09175372 -12.58410199 10.19652638 -16.375 10.125 C-17.62023437 10.10695313 -18.86546875 10.08890625 -20.1484375 10.0703125 C-21.55996094 10.03550781 -21.55996094 10.03550781 -23 10 C-23 9.67 -23 9.34 -23 9 C-22.154375 8.98582031 -21.30875 8.97164062 -20.4375 8.95703125 C-13.15789572 8.65095698 -7.53498266 8.02651969 -2 3 C-1.34 2.01 -0.68 1.02 0 0 Z " fill="#D4903F" transform="translate(133,670)"/>
<path d="M0 0 C0.57105469 0.33773437 1.14210938 0.67546875 1.73046875 1.0234375 C8.67474989 4.84334414 15.15665388 6.17632572 23 7 C23 7.33 23 7.66 23 8 C8.30798953 9.03303199 8.30798953 9.03303199 3.0625 5.125 C1.22265625 3.5078125 1.22265625 3.5078125 0 2 C0 1.34 0 0.68 0 0 Z " fill="#F7D75B" transform="translate(99,671)"/>
<path d="M0 0 C0.33 0.66 0.66 1.32 1 2 C-0.19202458 5.17658443 -1.8602561 7.03148306 -4.4375 9.1875 C-5.33275391 9.95126953 -5.33275391 9.95126953 -6.24609375 10.73046875 C-9.62923146 13.1792878 -12.65789954 13.10990706 -16.6875 13.0625 C-17.68136719 13.05347656 -18.67523438 13.04445313 -19.69921875 13.03515625 C-20.83810547 13.01775391 -20.83810547 13.01775391 -22 13 C-22 12.67 -22 12.34 -22 12 C-21.3709375 11.99742187 -20.741875 11.99484375 -20.09375 11.9921875 C-13.81864212 11.70867359 -10.33691103 10.40817046 -5.59375 6.27734375 C-4 5 -4 5 -2 5 C-1.34 3.35 -0.68 1.7 0 0 Z " fill="#FCD346" transform="translate(53,665)"/>
<path d="M0 0 C1.67542976 0.28604898 3.34385343 0.61781233 5 1 C5 2.98 5 4.96 5 7 C3.33388095 7.042721 1.66617115 7.04063832 0 7 C-1 6 -1 6 -1.125 3.5 C-1 1 -1 1 0 0 Z " fill="#E2DED7" transform="translate(270,655)"/>
<path d="M0 0 C1.32 0 2.64 0 4 0 C4.33 1.98 4.66 3.96 5 6 C3.34385343 6.38218767 1.67542976 6.71395102 0 7 C-1 6 -1 6 -1.125 3.5 C-1 1 -1 1 0 0 Z " fill="#E2DED9" transform="translate(188,655)"/>
<path d="M0 0 C12.99705256 -0.57622401 12.99705256 -0.57622401 19 3 C20.9375 5.1875 20.9375 5.1875 22 7 C21.67 7.66 21.34 8.32 21 9 C20.52949219 8.57847656 20.05898438 8.15695312 19.57421875 7.72265625 C18.95160156 7.17480469 18.32898438 6.62695312 17.6875 6.0625 C17.07261719 5.51722656 16.45773437 4.97195313 15.82421875 4.41015625 C12.57411268 1.89776162 9.28462964 1.76461656 5.3125 1.4375 C4.31863281 1.35371094 3.32476562 1.26992188 2.30078125 1.18359375 C1.16189453 1.09271484 1.16189453 1.09271484 0 1 C0 0.67 0 0.34 0 0 Z M-2 1 C0 2 0 2 0 2 Z " fill="#FCD74C" transform="translate(271,640)"/>
<path d="M0 0 C0.33 0.66 0.66 1.32 1 2 C1.66 2 2.32 2 3 2 C3.08107583 3.93681161 3.13922475 5.8745934 3.1875 7.8125 C3.22230469 8.89144531 3.25710938 9.97039063 3.29296875 11.08203125 C3 14 3 14 1.48828125 15.88671875 C0.99714844 16.25410156 0.50601562 16.62148438 0 17 C-0.33 16.34 -0.66 15.68 -1 15 C-0.67 14.01 -0.34 13.02 0 12 C0.068991 9.93854893 0.08467727 7.87498599 0.0625 5.8125 C0.05347656 4.72582031 0.04445313 3.63914062 0.03515625 2.51953125 C0.02355469 1.68808594 0.01195312 0.85664062 0 0 Z " fill="#F7C62A" transform="translate(361,652)"/>
<path d="M0 0 C0.33 0.99 0.66 1.98 1 3 C0.236875 2.690625 -0.52625 2.38125 -1.3125 2.0625 C-5.21252568 0.52062938 -8.51950936 -0.21925371 -12.6875 -0.5625 C-13.68136719 -0.64628906 -14.67523438 -0.73007812 -15.69921875 -0.81640625 C-16.83810547 -0.90728516 -16.83810547 -0.90728516 -18 -1 C-18 -1.33 -18 -1.66 -18 -2 C-11.3243198 -3.61834671 -5.92540407 -3.80918833 0 0 Z " fill="#FCD850" transform="translate(207,642)"/>
<path d="M0 0 C2.475 0.495 2.475 0.495 5 1 C5 2.98 5 4.96 5 7 C3.35 6.67 1.7 6.34 0 6 C0 4.02 0 2.04 0 0 Z " fill="#E2DEDA" transform="translate(28,655)"/>
<path d="M0 0 C0.33 0 0.66 0 1 0 C1.02578125 0.845625 1.0515625 1.69125 1.078125 2.5625 C1.43802892 9.76057833 2.24574973 14.82365278 6 21 C4.125 20.8125 4.125 20.8125 2 20 C-0.42511386 15.95051743 -0.23895536 11.7676288 -0.125 7.1875 C-0.11597656 6.49462891 -0.10695312 5.80175781 -0.09765625 5.08789062 C-0.07426157 3.39177605 -0.03839641 1.69584129 0 0 Z " fill="#C66D2D" transform="translate(255,652)"/>
<path d="M0 0 C0.66 0 1.32 0 2 0 C2.08107583 1.93681161 2.13922475 3.8745934 2.1875 5.8125 C2.23970703 7.43091797 2.23970703 7.43091797 2.29296875 9.08203125 C2 12 2 12 -1 15 C-0.67 10.05 -0.34 5.1 0 0 Z " fill="#F7C629" transform="translate(122,654)"/>
<path d="M0 0 C0.42667969 0.34933594 0.85335938 0.69867187 1.29296875 1.05859375 C7.52380896 5.59361765 13.44392242 5.87329748 21 6 C21 6.33 21 6.66 21 7 C6.21867882 7.738041 6.21867882 7.738041 0 3 C0 2.01 0 1.02 0 0 Z " fill="#CF8337" transform="translate(261,673)"/>
<path d="M0 0 C2 3 2 3 3 6 C6.00007271 7.70855022 6.00007271 7.70855022 9 9 C9 9.66 9 10.32 9 11 C10.32 11.33 11.64 11.66 13 12 C8.91212349 12.48665196 7.23847537 12.14848467 3.6875 9.9375 C0.56002333 6.51909527 0.17867376 4.55618095 0 0 Z " fill="#B23922" transform="translate(255,671)"/>
<path d="M0 0 C2.125 0.375 2.125 0.375 4 1 C3.01 1.33 2.02 1.66 1 2 C1 3.65 1 5.3 1 7 C2.32 7.33 3.64 7.66 5 8 C5 8.66 5 9.32 5 10 C2.625 10.125 2.625 10.125 0 10 C-2 8 -2 8 -2.25 5 C-2 2 -2 2 0 0 Z " fill="#E5DBC1" transform="translate(269,654)"/>
<path d="M0 0 C4.59600201 1.18182909 6.48574811 3.4866157 9.1796875 7.1484375 C10.21729813 9.49047293 9.84406458 10.63453507 9 13 C8.60167969 12.38511719 8.20335937 11.77023437 7.79296875 11.13671875 C7.26316406 10.32847656 6.73335937 9.52023437 6.1875 8.6875 C5.40439453 7.48673828 5.40439453 7.48673828 4.60546875 6.26171875 C3.19560965 4.27556687 1.73440027 2.69273299 0 1 C0 0.67 0 0.34 0 0 Z " fill="#BF5826" transform="translate(208,638)"/>
<path d="M0 0 C0.99 0.33 1.98 0.66 3 1 C2.52949219 1.36351562 2.05898438 1.72703125 1.57421875 2.1015625 C-2.47192944 5.36863868 -5.00283426 8.06582581 -7 13 C-7.6875 11.3125 -7.6875 11.3125 -8 9 C-6.17490179 4.9442262 -3.71784549 2.41659957 0 0 Z " fill="#C66A2C" transform="translate(264,639)"/>
<path d="M0 0 C2.31 0.66 4.62 1.32 7 2 C7 2.66 7 3.32 7 4 C10.96 4 14.92 4 19 4 C19 4.33 19 4.66 19 5 C5.18223235 5.55353075 5.18223235 5.55353075 0 2 C0 1.34 0 0.68 0 0 Z " fill="#C4672C" transform="translate(183,677)"/>
<path d="M0 0 C1.32 0 2.64 0 4 0 C4 1.98 4 3.96 4 6 C2.35 5.67 0.7 5.34 -1 5 C-0.67 3.35 -0.34 1.7 0 0 Z " fill="#E1DFDD" transform="translate(108,656)"/>
<path d="M0 0 C1.66666667 1.66666667 3.33333333 3.33333333 5 5 C5.8971875 5.8353125 5.8971875 5.8353125 6.8125 6.6875 C8 8 8 8 8 10 C4.12539202 8.74337038 2.0139745 7.60395437 0 4 C0 2.68 0 1.36 0 0 Z " fill="#BF6230" transform="translate(17,669)"/>
<path d="M0 0 C12.01989891 -0.5683665 12.01989891 -0.5683665 16 3 C16 3.66 16 4.32 16 5 C13.87892593 4.54548413 12.14218265 4.08124723 10.25 3 C6.90386169 1.51282742 3.63689196 1.3636892 0 1 C0 0.67 0 0.34 0 0 Z " fill="#FDD84F" transform="translate(353,640)"/>
<path d="M0 0 C1.4049404 3.89060419 0.69513239 7.23092362 0.0625 11.25 C-0.13214844 12.51328125 -0.32679687 13.7765625 -0.52734375 15.078125 C-0.68332031 16.04234375 -0.83929688 17.0065625 -1 18 C-1.33 18 -1.66 18 -2 18 C-2.05397335 15.5622037 -2.09365616 13.12560315 -2.125 10.6875 C-2.14175781 9.99720703 -2.15851562 9.30691406 -2.17578125 8.59570312 C-2.21217794 4.82864604 -2.14378864 3.21568296 0 0 Z " fill="#B03C28" transform="translate(13,648)"/>
<path d="M0 0 C0.33 0.66 0.66 1.32 1 2 C-0.8125 5 -0.8125 5 -3 8 C-3.99 8 -4.98 8 -6 8 C-4.02 5.36 -2.04 2.72 0 0 Z M-8 10 C-7.67 10.66 -7.34 11.32 -7 12 C-8.32 12.33 -9.64 12.66 -11 13 C-10.01 12.01 -9.02 11.02 -8 10 Z " fill="#FCC92F" transform="translate(371,662)"/>
<path d="M0 0 C1.65 0 3.3 0 5 0 C5 1.65 5 3.3 5 5 C3.35 4.67 1.7 4.34 0 4 C0 2.68 0 1.36 0 0 Z " fill="#E1DFDE" transform="translate(347,657)"/>
<path d="M0 0 C5.53846154 -0.36923077 5.53846154 -0.36923077 7.875 1.5 C8.24625 1.995 8.6175 2.49 9 3 C8.67 3.66 8.34 4.32 8 5 C7.34 4.34 6.68 3.68 6 3 C2.26703674 2.61713197 1.22373677 2.85084215 -2 5 C-1.34 3.35 -0.68 1.7 0 0 Z " fill="#EBD590" transform="translate(186,650)"/>
<path d="M0 0 C3 1 3 1 4.6875 2.9375 C6.55449986 7.29383301 6.24502682 11.3263402 6 16 C5.67 16 5.34 16 5 16 C4.89042969 15.43152344 4.78085938 14.86304688 4.66796875 14.27734375 C3.62061834 9.17683242 2.20728247 4.715558 0 0 Z " fill="#F4CB48" transform="translate(195,647)"/>
<path d="M0 0 C0.33 0 0.66 0 1 0 C1.4375 2.625 1.4375 2.625 1 6 C-1.0949488 8.33122122 -3.46073827 10.17328621 -6 12 C-6.66 11.67 -7.32 11.34 -8 11 C-7.50628906 10.45730469 -7.01257812 9.91460938 -6.50390625 9.35546875 C-5.86324219 8.64003906 -5.22257812 7.92460938 -4.5625 7.1875 C-3.92441406 6.47980469 -3.28632812 5.77210938 -2.62890625 5.04296875 C-0.80913988 3.00103848 -0.80913988 3.00103848 0 0 Z " fill="#C97937" transform="translate(56,665)"/>
<path d="M0 0 C2.08268593 -0.08126087 4.16628658 -0.13930839 6.25 -0.1875 C7.99023438 -0.23970703 7.99023438 -0.23970703 9.765625 -0.29296875 C13.22268407 0.02017066 14.51565563 0.65709108 17 3 C16.01 3.495 16.01 3.495 15 4 C14.12601563 3.55527344 14.12601563 3.55527344 13.234375 3.1015625 C10.51056391 1.75870459 8.26943267 1.59067376 5.25 1.375 C3.77273437 1.26285156 3.77273437 1.26285156 2.265625 1.1484375 C1.51796875 1.09945312 0.7703125 1.05046875 0 1 C0 0.67 0 0.34 0 0 Z " fill="#FBE168" transform="translate(190,638)"/>
<path d="M0 0 C0 0.99 0 1.98 0 3 C-0.639375 3.268125 -1.27875 3.53625 -1.9375 3.8125 C-4.33131686 4.88667752 -4.33131686 4.88667752 -5 8 C-7.0625 8.6875 -7.0625 8.6875 -9 9 C-7.49450444 4.78461243 -4.70682435 3.28718949 -1 1 C-0.67 0.67 -0.34 0.34 0 0 Z " fill="#BC5A2C" transform="translate(374,672)"/>
<path d="M0 0 C3 3.75 3 3.75 3 6 C4.98 6.66 6.96 7.32 9 8 C9 8.33 9 8.66 9 9 C5.72965541 9.36337162 4.39116247 9.28544288 1.6875 7.3125 C-0.28544288 4.60883753 -0.36337162 3.27034459 0 0 Z " fill="#AC3325" transform="translate(94,672)"/>
<path d="M0 0 C1.32 0 2.64 0 4 0 C6.66436316 3.33045394 7.3619323 5.7774565 7 10 C4.51137122 6.76478258 2.24578442 3.40739705 0 0 Z " fill="#CA7530" transform="translate(291,642)"/>
<path d="M0 0 C0.99 0 1.98 0 3 0 C3 0.66 3 1.32 3 2 C5.31 2.66 7.62 3.32 10 4 C9.67 4.66 9.34 5.32 9 6 C4.64464931 4.83857315 2.35380297 3.92300495 0 0 Z " fill="#F4D45C" transform="translate(21,673)"/>
<path d="M0 0 C0.33 0.66 0.66 1.32 1 2 C-2.625 7.875 -2.625 7.875 -6 9 C-5.52797514 4.75177626 -3.03344482 2.80010291 0 0 Z " fill="#C97732" transform="translate(133,670)"/>
<path d="M0 0 C0.33 1.32 0.66 2.64 1 4 C-1.97 6.475 -1.97 6.475 -5 9 C-5.66 8.67 -6.32 8.34 -7 8 C-6.21625 7.236875 -5.4325 6.47375 -4.625 5.6875 C-1.92742283 3.09108195 -1.92742283 3.09108195 0 0 Z " fill="#C97934" transform="translate(374,668)"/>
<path d="M0 0 C1.98 0.99 1.98 0.99 4 2 C4 2.99 4 3.98 4 5 C4.66 5 5.32 5 6 5 C5.67 6.32 5.34 7.64 5 9 C4.16094435 7.87926138 3.32892169 6.75325453 2.5 5.625 C2.0359375 4.99851562 1.571875 4.37203125 1.09375 3.7265625 C0 2 0 2 0 0 Z " fill="#FDD64C" transform="translate(208,645)"/>
<path d="M0 0 C0.99 0.33 1.98 0.66 3 1 C3 1.66 3 2.32 3 3 C4.32 3.66 5.64 4.32 7 5 C6.01 5.495 6.01 5.495 5 6 C2.375 4.75 2.375 4.75 0 3 C0 2.01 0 1.02 0 0 Z " fill="#B74624" transform="translate(257,674)"/>
<path d="M0 0 C2.8125 0.1875 2.8125 0.1875 6 1 C7.875 3.5625 7.875 3.5625 9 6 C5.56404834 4.47291037 2.88087546 2.40072955 0 0 Z " fill="#C66C2F" transform="translate(125,639)"/>
<path d="M0 0 C0 0.66 0 1.32 0 2 C-4.455 3.485 -4.455 3.485 -9 5 C-4.16129032 0 -4.16129032 0 0 0 Z " fill="#F4D765" transform="translate(31,638)"/>
</svg>
