<?xml version="1.0" encoding="UTF-8"?>
<svg version="1.1" xmlns="http://www.w3.org/2000/svg" width="4570" height="4570">
<path d="M0 0 C2.44431028 0.00073026 4.88862018 0.00097638 7.33293056 0.00108671 C56.7941376 0.0044864 106.22152246 0.23700806 155.65593624 2.03002119 C159.37379989 2.16478978 163.09185356 2.29314731 166.81001091 2.41952467 C247.98101465 5.180798 329.1150243 10.13416346 469.04942989 23.18822432 C470.15878021 23.30289171 470.15878021 23.30289171 471.29054165 23.41987562 C547.46754348 31.30821941 623.35535946 41.4424017 1349.04942989 234.18822432 C1350.14835567 234.66823896 1351.24728146 235.14825361 1352.37950802 235.64281416 C1370.40566811 243.53650232 1388.25207739 251.79511253 1406.04942989 260.18822432 C1407.12305782 260.69273115 1408.19668575 261.19723799 1409.30284786 261.71703291 C1420.69367784 267.07456139 1431.95438306 272.60393037 1443.05724239 278.53588057 C1446.68196553 280.47136253 1450.32466424 282.36807084 1453.97911739 284.24681807 C1468.20270285 291.56174144 1482.20450018 299.18009339 1496.04942989 307.18822432 C1496.61871212 307.51711653 1497.18799435 307.84600874 1497.77452755 308.18486738 C1512.52475671 316.70939608 1527.19332778 325.33110818 1541.51622677 334.56175947 C1544.46235289 336.45334508 1547.41966041 338.32681543 1550.37755489 340.19994307 C1552.6016624 341.61246862 1554.82562188 343.02522729 1557.04942989 344.43822432 C1558.59002071 345.41287642 1558.59002071 345.41287642 1560.16173458 346.40721846 C1566.09540597 350.19197758 1571.84776085 354.14605795 1577.5128088 358.32201338 C1581.04575127 360.92122534 1584.64203306 363.42589919 1588.23692989 365.93822432 C1601.4989033 375.26135143 1614.38611469 385.06919928 1627.04942989 395.18822432 C1628.00051632 395.94788496 1628.00051632 395.94788496 1628.97081661 396.72289228 C1642.58823503 407.6282392 1655.78905028 418.96184203 1668.57677364 430.82884932 C1670.05947582 432.19749748 1671.55287361 433.55349964 1673.04942989 434.90697432 C1679.67334679 440.91969383 1686.08798731 447.1231318 1692.42442989 453.43822432 C1693.54808956 454.55499556 1693.54808956 454.55499556 1694.69444942 455.69432783 C1698.78677604 459.79805496 1702.70780165 463.99324113 1706.49034786 468.3840251 C1708.58257053 470.80518475 1710.75321705 473.15040469 1712.92442989 475.50072432 C1717.8414998 480.90507142 1722.50836568 486.46628438 1727.04942989 492.18822432 C1727.57053341 492.84210127 1728.09163692 493.49597822 1728.62853146 494.16966963 C1768.34348595 544.13657126 1797.44404637 600.87662819 1808.04942989 664.18822432 C1808.17688595 664.9237956 1808.304342 665.65936689 1808.43566036 666.41722822 C1822.22282222 748.09540701 1791.81599463 830.72956814 1745.29064083 896.68138838 C1734.99721038 911.11288132 1723.98229929 924.98636583 1711.99864864 938.05541182 C1710.1016234 940.13111479 1708.2593496 942.24511115 1706.42442989 944.37572432 C1703.67776906 947.5337514 1700.78026896 950.47931557 1697.79552364 953.41088057 C1695.98465347 955.25416005 1694.29621636 957.16645231 1692.61192989 959.12572432 C1687.19671719 965.38706401 1681.32239829 971.0161421 1675.04942989 976.40697432 C1672.96605911 978.26247642 1671.00661782 980.20045532 1669.04942989 982.18822432 C1665.21375325 986.06832965 1661.19566672 989.64507648 1657.04942989 993.18822432 C1656.05298458 994.05060713 1655.05653927 994.91298994 1654.02989864 995.80150557 C1639.24260329 1008.58238658 1624.13745774 1020.79190958 1608.42589474 1032.42162275 C1606.20350738 1034.07368716 1603.99297833 1035.73996598 1601.78771114 1037.41478682 C1592.72666615 1044.29231527 1583.48608626 1050.83702718 1574.04942989 1057.18822432 C1573.24344357 1057.73236982 1572.43745724 1058.27651533 1571.60704708 1058.8371501 C1559.22977751 1067.18367962 1546.74705912 1075.33726005 1534.04942989 1083.18822432 C1533.00899532 1083.83162764 1531.96856075 1084.47503096 1530.89659786 1085.13793135 C1514.50750074 1095.24300335 1497.93872732 1104.93580279 1481.04942989 1114.18822432 C1480.07618771 1114.72366865 1479.10294552 1115.25911299 1478.10021114 1115.81078291 C1466.12599418 1122.39140649 1454.0598181 1128.78603484 1441.92442989 1135.06322432 C1441.0340704 1135.52388792 1441.0340704 1135.52388792 1440.12572384 1135.99385786 C1436.1065661 1138.07101908 1432.07978652 1140.13288949 1428.04942989 1142.18822432 C1427.4117065 1142.51488081 1426.77398312 1142.8415373 1426.11693478 1143.17809248 C1424.18253888 1144.16756949 1422.24531328 1145.15128092 1420.30724239 1146.13353682 C1419.15627071 1146.71893232 1418.00529903 1147.30432783 1416.81944942 1147.9074626 C1414.04942989 1149.18822432 1414.04942989 1149.18822432 1412.04942989 1149.18822432 C1420.35388972 1168.67733334 1428.78545267 1188.11022518 1437.23915768 1207.53496504 C1437.67799282 1208.54331404 1438.11682796 1209.55166304 1438.56896114 1210.59056807 C1439.01335537 1211.61164656 1439.4577496 1212.63272505 1439.91561031 1213.68474531 C1444.64938069 1224.56339634 1449.37156072 1235.44706975 1454.09307003 1246.33104658 C1464.24926438 1269.74294525 1474.41940912 1293.14874826 1484.59776974 1316.55101728 C1489.16731645 1327.05762264 1493.73512485 1337.56498392 1498.30327511 1348.07219648 C1499.55588923 1350.95332486 1500.80851447 1353.8344484 1502.06114864 1356.71556807 C1502.47425289 1357.66572798 1502.88735714 1358.61588789 1503.3129797 1359.59484053 C1505.78243879 1365.27457231 1508.25227738 1370.95413889 1510.72243404 1376.63356733 C1520.49629898 1399.10586264 1530.26016778 1421.58246497 1540.0138464 1444.06352949 C1549.19768689 1465.23072695 1558.39507303 1486.3920122 1567.59776974 1507.55101728 C1572.16731645 1518.05762264 1576.73512485 1528.56498392 1581.30327511 1539.07219648 C1582.55588923 1541.95332486 1583.80851447 1544.8344484 1585.06114864 1547.71556807 C1585.47425289 1548.66572798 1585.88735714 1549.61588789 1586.3129797 1550.59484053 C1588.78243879 1556.27457231 1591.25227738 1561.95413889 1593.72243404 1567.63356733 C1603.49629898 1590.10586264 1613.26016778 1612.58246497 1623.0138464 1635.06352949 C1632.19768689 1656.23072695 1641.39507303 1677.3920122 1650.59776974 1698.55101728 C1655.16731645 1709.05762264 1659.73512485 1719.56498392 1664.30327511 1730.07219648 C1665.55588923 1732.95332486 1666.80851447 1735.8344484 1668.06114864 1738.71556807 C1668.47425289 1739.66572798 1668.88735714 1740.61588789 1669.3129797 1741.59484053 C1671.78243879 1747.27457231 1674.25227738 1752.95413889 1676.72243404 1758.63356733 C1686.49629898 1781.10586264 1696.26016778 1803.58246497 1706.0138464 1826.06352949 C1715.19768689 1847.23072695 1724.39507303 1868.3920122 1733.59776974 1889.55101728 C1738.16731645 1900.05762264 1742.73512485 1910.56498392 1747.30327511 1921.07219648 C1748.55588923 1923.95332486 1749.80851447 1926.8344484 1751.06114864 1929.71556807 C1751.47425289 1930.66572798 1751.88735714 1931.61588789 1752.3129797 1932.59484053 C1754.78243879 1938.27457231 1757.25227738 1943.95413889 1759.72243404 1949.63356733 C1769.49629898 1972.10586264 1779.26016778 1994.58246497 1789.0138464 2017.06352949 C1795.74896346 2032.58683404 1802.4891031 2048.10794024 1809.23692989 2063.62572432 C1809.64378017 2064.56140242 1810.05063046 2065.49708052 1810.46980953 2066.4611125 C1815.42323171 2077.85286492 1820.37887341 2089.24364969 1825.33612728 2100.63373518 C1828.65102879 2108.25134526 1831.96034821 2115.87137159 1835.26834774 2123.49198103 C1837.88789515 2129.52353557 1840.51823133 2135.55028258 1843.15463924 2141.5744853 C1844.94530172 2145.6694319 1846.73009348 2149.76692088 1848.51375484 2153.86492109 C1849.36476712 2155.81645793 1850.21834838 2157.76687669 1851.0746069 2159.71611738 C1852.25519089 2162.40448255 1853.42675936 2165.09660507 1854.59630489 2167.78978682 C1854.94835491 2168.58542036 1855.30040493 2169.38105391 1855.66312313 2170.20079756 C1855.97977428 2170.9347978 1856.29642544 2171.66879805 1856.62267208 2172.42504072 C1857.03848537 2173.37608183 1857.03848537 2173.37608183 1857.46269894 2174.34633589 C1858.04942989 2176.18822432 1858.04942989 2176.18822432 1858.04942989 2180.18822432 C1765.2867121 2181.01025314 1672.52399327 2181.83216557 1516.14488888 2183.21752119 C1514.47186972 2183.23234191 1514.47186972 2183.23234191 1512.76505219 2183.24746205 C1392.71005027 2184.31098917 1272.65504669 2185.37432984 796.08347255 2189.59140418 C792.10251767 2189.6266082 788.1215628 2189.6618124 784.14060792 2189.69701666 C671.32220932 2190.69468861 558.50380928 2191.69219762 445.68540731 2192.68948862 C441.50919256 2192.72640548 437.3329778 2192.76332236 433.15676304 2192.80023924 C431.77743266 2192.81243223 430.39810227 2192.82462522 428.976974 2192.8371877 C377.11508372 2193.2956365 325.25319377 2193.7541225 273.39130402 2194.21263072 C267.75663459 2194.2624465 262.12196516 2194.31226185 256.48729573 2194.36207682 C123.57753612 2195.53710533 -9.33221755 2196.7127998 -142.24195194 2197.89067793 C-143.63945918 2197.90306293 -145.03696642 2197.91544793 -146.47682237 2197.92820823 C-192.94633547 2198.34003175 -239.41584799 2198.75192034 -285.88536044 2199.16381791 C-327.87377175 2199.53599559 -369.86218327 2199.90814989 -411.85059547 2200.28022718 C-413.23009919 2200.29245157 -414.6096029 2200.30467595 -416.03090975 2200.31727077 C-502.50757669 2201.08357202 -588.98425257 2201.84885934 -675.4609375 2202.61312819 C-676.79781433 2202.62494345 -678.13469116 2202.63675871 -679.5120794 2202.64893202 C-738.24272603 2203.16799032 -796.97337452 2203.68683786 -855.70402514 2204.20544485 C-879.33717682 2204.41413273 -902.97032823 2204.62285179 -926.60347949 2204.83158792 C-930.52181521 2204.86619575 -934.44015095 2204.90080257 -938.35848669 2204.93540928 C-998.20613832 2205.46399051 -1058.05378375 2205.99326166 -1117.90141129 2206.52456427 C-1119.1894126 2206.5359986 -1120.47741391 2206.54743294 -1121.80444556 2206.55921377 C-1142.52017143 2206.74312356 -1163.23589678 2206.92709157 -1183.95162204 2207.11106963 C-1242.85828877 2207.63422458 -1301.76495892 2208.1569772 -1360.67165554 2208.67675734 C-1361.87045937 2208.68733552 -1363.06926321 2208.6979137 -1364.30439443 2208.70881244 C-1390.47807722 2208.93975937 -1416.65176203 2209.17047713 -1442.82544881 2209.40097159 C-1453.26947953 2209.49294899 -1463.71350997 2209.5849577 -1474.15754032 2209.67697668 C-1475.29672184 2209.68701283 -1476.43590336 2209.69704897 -1477.60960553 2209.70738925 C-1513.55533235 2210.02408474 -1549.5010358 2210.34334142 -1585.44672635 2210.66412555 C-1620.93551306 2210.98082163 -1656.42432183 2211.2949081 -1691.91316372 2211.60536365 C-1696.81128774 2211.64821274 -1701.70941151 2211.69109103 -1706.60753512 2211.73398691 C-1708.04548537 2211.74657826 -1708.04548537 2211.74657826 -1709.51248511 2211.75942398 C-1723.52289772 2211.88217612 -1737.53328828 2212.00724081 -1751.54366774 2212.13371509 C-1771.97455336 2212.31802666 -1792.40546665 2212.49885918 -1812.83644295 2212.67285109 C-1813.62582331 2212.67958059 -1814.41520368 2212.68631009 -1815.22850466 2212.69324352 C-1869.46960466 2213.1548578 -1923.70731105 2213.36588026 -1977.95057011 2213.18822432 C-1977.38304936 2209.61939031 -1976.80898816 2206.39902702 -1975.4102869 2203.06200361 C-1975.09373142 2202.29772047 -1974.77717594 2201.53343733 -1974.45102787 2200.74599409 C-1974.104119 2199.92642225 -1973.75721012 2199.10685041 -1973.39978886 2198.26244307 C-1973.03402744 2197.38357435 -1972.66826603 2196.50470564 -1972.29142094 2195.59920454 C-1971.49676158 2193.69154443 -1970.69924667 2191.78507189 -1969.89920902 2189.87966108 C-1968.17382205 2185.76992083 -1966.46241959 2181.6544062 -1964.75035954 2177.53910017 C-1963.85027843 2175.375666 -1962.94952067 2173.21251324 -1962.04811954 2171.04962873 C-1957.22694501 2159.47420922 -1952.49201764 2147.86405254 -1947.76307011 2136.25072432 C-1946.08771369 2132.139874 -1944.41175934 2128.02926758 -1942.73572636 2123.91869307 C-1942.12684826 2122.4251203 -1942.12684826 2122.4251203 -1941.50566959 2120.90137434 C-1937.5837341 2111.28327914 -1933.64517523 2101.67204102 -1929.70057011 2092.06322432 C-1929.215797 2090.88229704 -1929.215797 2090.88229704 -1928.72123051 2089.67751265 C-1927.10980022 2085.75225963 -1925.49803941 2081.82714244 -1923.88611698 2077.9020915 C-1920.90701133 2070.64745248 -1917.93096084 2063.39155992 -1914.95459843 2056.13579512 C-1913.28670638 2052.06989002 -1911.61862914 2048.00406091 -1909.95057011 2043.93822432 C-1909.28390255 2042.31322468 -1908.61723588 2040.68822468 -1907.95057011 2039.06322432 C-1890.61723677 1996.81322432 -1873.28390344 1954.56322432 -1855.95057011 1912.31322432 C-1855.62056004 1911.50882414 -1855.29054996 1910.70442396 -1854.95053959 1909.87564802 C-1854.28397643 1908.2509016 -1853.61741149 1906.62615592 -1852.95084476 1905.00141096 C-1851.28257972 1900.93503719 -1849.61434586 1896.86865063 -1847.94617558 1892.80223799 C-1844.96528375 1885.53595667 -1841.98419276 1878.26975748 -1839.00190067 1871.00405073 C-1831.64063184 1853.06986012 -1824.28856709 1835.13195068 -1816.95057011 1817.18822432 C-1809.28664189 1798.44749286 -1801.60659851 1779.71342082 -1793.91834354 1760.98265791 C-1790.92880876 1753.69908095 -1787.94076448 1746.41489248 -1784.95258427 1739.13075972 C-1783.28530503 1735.06655712 -1781.61793295 1731.00239261 -1779.95057011 1726.93822432 C-1779.28390299 1725.3132245 -1778.61723633 1723.6882245 -1777.95057011 1722.06322432 C-1749.95057011 1653.81322432 -1721.95057011 1585.56322432 -1693.95057011 1517.31322432 C-1693.62056004 1516.50882414 -1693.29054996 1515.70442396 -1692.95053959 1514.87564802 C-1692.28397643 1513.2509016 -1691.61741149 1511.62615592 -1690.95084476 1510.00141096 C-1689.28257972 1505.93503719 -1687.61434586 1501.86865063 -1685.94617558 1497.80223799 C-1682.96528375 1490.53595667 -1679.98419276 1483.26975748 -1677.00190067 1476.00405073 C-1669.64063184 1458.06986012 -1662.28856709 1440.13195068 -1654.95057011 1422.18822432 C-1647.28664189 1403.44749286 -1639.60659851 1384.71342082 -1631.91834354 1365.98265791 C-1628.92880876 1358.69908095 -1625.94076448 1351.41489248 -1622.95258427 1344.13075972 C-1621.28530503 1340.06655712 -1619.61793295 1336.00239261 -1617.95057011 1331.93822432 C-1617.28390299 1330.3132245 -1616.61723633 1328.6882245 -1615.95057011 1327.06322432 C-1583.28390344 1247.43822432 -1550.61723677 1167.81322432 -1517.95057011 1088.18822432 C-1521.83070925 1085.02120965 -1525.82791764 1082.40687453 -1530.13807011 1079.87572432 C-1551.7727198 1066.90145657 -1572.76774978 1052.31146734 -1592.95057011 1037.18822432 C-1593.64811405 1036.66647627 -1594.345658 1036.14472822 -1595.06433964 1035.60716963 C-1604.96298099 1028.17706735 -1614.63170967 1020.48419587 -1624.19471073 1012.62816572 C-1625.75992603 1011.3445673 -1627.33138711 1010.0685936 -1628.90369511 1008.79369307 C-1647.98401762 993.31185243 -1665.62730899 976.59770884 -1683.01307011 959.25072432 C-1683.69755222 958.56892103 -1684.38203434 957.88711775 -1685.08725834 957.18465376 C-1698.92687243 943.38609508 -1698.92687243 943.38609508 -1704.95057011 936.18822432 C-1705.93438131 935.05769163 -1706.92004223 933.92876579 -1707.90760136 932.80150557 C-1714.55153292 925.14362687 -1720.90850685 917.33120804 -1726.95057011 909.18822432 C-1727.44138065 908.52870771 -1727.9321912 907.86919111 -1728.43787479 907.18968916 C-1762.4430637 861.30916793 -1787.85161543 810.71392274 -1797.95057011 754.18822432 C-1798.11573124 753.32439131 -1798.28089237 752.4605583 -1798.45105839 751.57054853 C-1801.24619951 736.51956632 -1801.26269175 721.38303348 -1801.32557011 706.12572432 C-1801.33351597 705.11622725 -1801.34146183 704.10673018 -1801.34964848 703.06664228 C-1801.46360427 684.193265 -1799.69261523 665.65682182 -1795.70057011 647.18822432 C-1795.49150028 646.20805342 -1795.28243046 645.22788252 -1795.06702518 644.21800947 C-1792.66202363 633.34027006 -1789.44552315 622.75887206 -1785.95057011 612.18822432 C-1785.67438847 611.32648603 -1785.39820683 610.46474775 -1785.11365604 609.57689619 C-1777.33016801 585.48208434 -1765.71193004 561.45393676 -1751.95057011 540.18822432 C-1751.43849003 539.39126143 -1750.92640995 538.59429853 -1750.39881229 537.77318525 C-1739.51203697 520.91931441 -1727.92200798 504.50972732 -1714.95057011 489.18822432 C-1714.08153155 488.14571294 -1713.21307163 487.10271903 -1712.34510136 486.05931807 C-1706.56867259 479.14158707 -1700.61063562 472.41396888 -1694.46765995 465.81859541 C-1692.81828555 464.04606206 -1691.17541927 462.2676163 -1689.53260136 460.48900557 C-1671.84357625 441.3818525 -1671.84357625 441.3818525 -1662.23182011 433.18822432 C-1659.75777085 431.01919483 -1657.36151811 428.77966923 -1654.96350956 426.52733564 C-1649.39432077 421.29779512 -1643.75398603 416.27039454 -1637.78650761 411.49291182 C-1635.09965448 409.30938104 -1632.47710004 407.06934178 -1629.86243534 404.80077314 C-1623.39170827 399.18762296 -1616.76595812 393.84294039 -1609.92517948 388.68578291 C-1607.61651541 386.93487472 -1605.32258962 385.16546776 -1603.02869511 383.39525557 C-1601.23190441 382.0136355 -1599.43502915 380.63212541 -1597.63807011 379.25072432 C-1596.82136845 378.61876143 -1596.00466679 377.98679853 -1595.16321659 377.33568525 C-1582.11550822 367.34363739 -1568.31006857 358.35759965 -1554.63807011 349.25072432 C-1553.92001194 348.77233107 -1553.20195377 348.29393782 -1552.46213627 347.8010478 C-1534.27696253 335.69465074 -1515.83950954 324.16846678 -1496.95057011 313.18822432 C-1495.38701786 312.27580976 -1495.38701786 312.27580976 -1493.7918787 311.3449626 C-1449.98742428 285.83219039 -1404.62536172 262.52504218 -1358.19629765 242.17339277 C-1355.79502021 241.11998681 -1353.3956954 240.06220977 -1350.99646854 239.00414228 C-1256.19540225 197.25267651 -1158.25036707 163.13867198 -838.95057011 81.18822432 C-837.70203251 80.92739058 -836.45349491 80.66655684 -835.16712284 80.39781904 C-754.48065878 63.56317033 -673.04649729 50.03823901 -145.82557011 2.00072432 C-144.686059 1.96379469 -143.54654789 1.92686506 -142.37250614 1.88881636 C-134.62734282 1.64327262 -126.88153008 1.43650218 -119.13488865 1.24371672 C-116.81241781 1.18471457 -114.49004763 1.12247619 -112.16767216 1.05983686 C-74.78047329 0.06207944 -37.39752888 -0.01333523 0 0 Z " fill="#623300" transform="translate(2344.9505701065063,847.8117756843567)"/>
<path d="M0 0 C2.44431028 0.00073026 4.88862018 0.00097638 7.33293056 0.00108671 C56.7941376 0.0044864 106.22152246 0.23700806 155.65593624 2.03002119 C159.37379989 2.16478978 163.09185356 2.29314731 166.81001091 2.41952467 C247.98101465 5.180798 329.1150243 10.13416346 469.04942989 23.18822432 C470.15878021 23.30289171 470.15878021 23.30289171 471.29054165 23.41987562 C547.46754348 31.30821941 623.35535946 41.4424017 1349.04942989 234.18822432 C1350.14835567 234.66823896 1351.24728146 235.14825361 1352.37950802 235.64281416 C1370.40566811 243.53650232 1388.25207739 251.79511253 1406.04942989 260.18822432 C1407.12305782 260.69273115 1408.19668575 261.19723799 1409.30284786 261.71703291 C1420.69367784 267.07456139 1431.95438306 272.60393037 1443.05724239 278.53588057 C1446.68196553 280.47136253 1450.32466424 282.36807084 1453.97911739 284.24681807 C1468.20270285 291.56174144 1482.20450018 299.18009339 1496.04942989 307.18822432 C1496.61871212 307.51711653 1497.18799435 307.84600874 1497.77452755 308.18486738 C1512.52475671 316.70939608 1527.19332778 325.33110818 1541.51622677 334.56175947 C1544.46235289 336.45334508 1547.41966041 338.32681543 1550.37755489 340.19994307 C1552.6016624 341.61246862 1554.82562188 343.02522729 1557.04942989 344.43822432 C1558.59002071 345.41287642 1558.59002071 345.41287642 1560.16173458 346.40721846 C1566.09540597 350.19197758 1571.84776085 354.14605795 1577.5128088 358.32201338 C1581.04575127 360.92122534 1584.64203306 363.42589919 1588.23692989 365.93822432 C1601.4989033 375.26135143 1614.38611469 385.06919928 1627.04942989 395.18822432 C1628.00051632 395.94788496 1628.00051632 395.94788496 1628.97081661 396.72289228 C1642.58823503 407.6282392 1655.78905028 418.96184203 1668.57677364 430.82884932 C1670.05947582 432.19749748 1671.55287361 433.55349964 1673.04942989 434.90697432 C1679.67334679 440.91969383 1686.08798731 447.1231318 1692.42442989 453.43822432 C1693.54808956 454.55499556 1693.54808956 454.55499556 1694.69444942 455.69432783 C1698.78677604 459.79805496 1702.70780165 463.99324113 1706.49034786 468.3840251 C1708.58257053 470.80518475 1710.75321705 473.15040469 1712.92442989 475.50072432 C1717.8414998 480.90507142 1722.50836568 486.46628438 1727.04942989 492.18822432 C1727.57053341 492.84210127 1728.09163692 493.49597822 1728.62853146 494.16966963 C1768.34348595 544.13657126 1797.44404637 600.87662819 1808.04942989 664.18822432 C1808.17688595 664.9237956 1808.304342 665.65936689 1808.43566036 666.41722822 C1822.22282222 748.09540701 1791.81599463 830.72956814 1745.29064083 896.68138838 C1734.99721038 911.11288132 1723.98229929 924.98636583 1711.99864864 938.05541182 C1710.1016234 940.13111479 1708.2593496 942.24511115 1706.42442989 944.37572432 C1703.67776906 947.5337514 1700.78026896 950.47931557 1697.79552364 953.41088057 C1695.98465347 955.25416005 1694.29621636 957.16645231 1692.61192989 959.12572432 C1687.19671719 965.38706401 1681.32239829 971.0161421 1675.04942989 976.40697432 C1672.96605911 978.26247642 1671.00661782 980.20045532 1669.04942989 982.18822432 C1665.21375325 986.06832965 1661.19566672 989.64507648 1657.04942989 993.18822432 C1656.05298458 994.05060713 1655.05653927 994.91298994 1654.02989864 995.80150557 C1639.24260329 1008.58238658 1624.13745774 1020.79190958 1608.42589474 1032.42162275 C1606.20350738 1034.07368716 1603.99297833 1035.73996598 1601.78771114 1037.41478682 C1592.72666615 1044.29231527 1583.48608626 1050.83702718 1574.04942989 1057.18822432 C1573.24344357 1057.73236982 1572.43745724 1058.27651533 1571.60704708 1058.8371501 C1559.22977751 1067.18367962 1546.74705912 1075.33726005 1534.04942989 1083.18822432 C1533.00899532 1083.83162764 1531.96856075 1084.47503096 1530.89659786 1085.13793135 C1514.50750074 1095.24300335 1497.93872732 1104.93580279 1481.04942989 1114.18822432 C1480.07618771 1114.72366865 1479.10294552 1115.25911299 1478.10021114 1115.81078291 C1456.10653846 1127.89775957 1433.91818619 1139.8294389 1411.04942989 1150.18822432 C1406.84295043 1142.05607554 1403.06440286 1133.79046905 1399.50316525 1125.35964155 C1397.88823983 1121.53826705 1396.25912302 1117.72293716 1394.63146114 1113.90697432 C1394.09656567 1112.65195868 1394.09656567 1112.65195868 1393.55086422 1111.37158918 C1388.68742075 1099.97476938 1383.73848243 1088.61491961 1378.79942989 1077.25072432 C1376.81731048 1072.68837568 1374.83558864 1068.12585449 1372.85411739 1063.56322432 C1372.36564831 1062.438477 1371.87717922 1061.31372969 1371.37390804 1060.15489912 C1366.54247215 1049.02662102 1361.73084872 1037.88982605 1356.92442989 1026.75072432 C1355.37367311 1023.15696376 1353.82290758 1019.56320697 1352.27208614 1015.96947432 C1351.90681316 1015.12300337 1351.54154018 1014.27653242 1351.16519833 1013.40441084 C1347.39326917 1004.66508238 1343.6083242 995.93142444 1339.82164669 987.19847822 C1335.62101941 977.51003097 1331.42774087 967.8184211 1327.23692989 958.12572432 C1326.90233761 957.35188398 1326.56774532 956.57804365 1326.22301388 955.78075361 C1323.48790645 949.45495453 1320.75309724 943.12902652 1318.01830196 936.80309248 C1315.63298305 931.28557656 1313.24754888 925.7681105 1310.86192989 920.25072432 C1310.52736782 919.47695448 1310.19280575 918.70318464 1309.84810543 917.90596724 C1304.89856029 906.45923642 1299.94256343 895.01532017 1294.98229122 883.57323408 C1290.32122432 872.81962499 1285.66953595 862.06197034 1281.01866817 851.30394697 C1277.05382308 842.133006 1273.08722995 832.96283404 1269.1131506 823.79589033 C1268.07726661 821.40599842 1267.0419403 819.0158647 1266.00719357 816.62548018 C1263.30298468 810.37953509 1260.59208334 804.13663994 1257.86916256 797.89882612 C1256.39273964 794.5146871 1254.91983639 791.12902203 1253.44737911 787.74315596 C1252.73102938 786.09825842 1252.01312508 784.4540369 1251.29357052 782.81053877 C1250.28758337 780.51238661 1249.28710154 778.21190758 1248.28771114 775.91088057 C1247.98935863 775.23299986 1247.69100613 774.55511915 1247.38361263 773.85669661 C1245.98401971 770.62003841 1244.96946161 767.81537721 1244.22203732 764.3305583 C1243.64159664 762.77510298 1243.64159664 762.77510298 1243.04942989 761.18822432 C1240.36878887 759.87068946 1240.36878887 759.87068946 1237.04942989 759.18822432 C1234.2992572 757.9761366 1231.63734036 756.58711505 1228.95958614 755.22338057 C1227.8017487 754.64028875 1227.8017487 754.64028875 1226.62052059 754.04541731 C1224.97168197 753.2148096 1223.3236991 752.38250131 1221.67650509 751.54863691 C1217.3431647 749.35556529 1213.00307082 747.17595683 1208.66271114 744.99681807 C1207.81135586 744.56917158 1206.96000057 744.1415251 1206.08284664 743.70091963 C1200.0233576 740.66254336 1193.93282624 737.69977533 1187.79942989 734.81322432 C1175.03144967 728.7921626 1162.44053256 722.41110766 1149.83360958 716.06175947 C1140.86511502 711.55180963 1131.8665551 707.12180965 1122.79942989 702.81322432 C1109.3935922 696.44023602 1096.14209239 689.76724309 1082.88341427 683.0949626 C1070.83273837 677.03426905 1058.75282066 671.05895323 1046.56770992 665.27294111 C1039.83433741 662.06629068 1033.15305641 658.76653813 1026.49474239 655.40697432 C1025.55700985 654.93417036 1024.61927731 654.46136641 1023.65312862 653.97423506 C1019.85457026 652.05686828 1016.05743848 650.13676483 1012.26378536 648.20970869 C1009.42682265 646.77001328 1006.5860927 645.33798651 1003.74474239 643.90697432 C1002.90089993 643.47574263 1002.05705746 643.04451094 1001.187644 642.60021162 C1000.38164761 642.19548628 999.57565121 641.79076094 998.74523067 641.37377119 C997.70678509 640.84728987 997.70678509 640.84728987 996.6473608 640.31017256 C989.53964854 637.24062007 982.34811057 635.49990798 974.74645138 634.14891768 C973.74408884 633.96529645 972.7417263 633.78167522 971.70898914 633.59248972 C968.36394568 632.98139069 965.01727648 632.37972931 961.67052364 631.77806807 C959.25832877 631.33946373 956.84623734 630.90029014 954.43424129 630.4605937 C948.53246102 629.3863111 942.62958996 628.3182197 936.72620243 627.25281835 C929.67890745 625.98062504 922.63303 624.70065832 915.58716106 623.42059505 C898.24320315 620.27005304 880.896629 617.13403353 863.54949856 614.00101423 C859.15179132 613.2067477 854.75413856 612.41217991 850.35649776 611.6175456 C825.78601817 607.17788309 801.21495447 602.74145647 776.64291763 598.31042051 C729.38903313 589.78913595 682.14435941 581.21789427 634.9039278 572.62235975 C618.97853009 569.72471443 603.05306647 566.82743128 587.12755489 563.93041182 C586.16782174 563.75582284 585.20808859 563.58123386 584.21927261 563.40135431 C535.79469647 554.59234355 487.36591247 545.80654857 438.93678188 537.02261686 C431.92893144 535.75154984 424.92109414 534.48041037 417.91326046 533.20925093 C416.17100628 532.8932215 416.17100628 532.8932215 414.39355505 532.57080764 C412.03671373 532.1432973 409.67987244 531.71578678 407.32303119 531.28827608 C391.54252018 528.42583325 375.76199885 525.56344728 359.98146725 522.70111799 C305.28801205 512.78061037 250.59469976 502.85931533 195.90186787 492.93537188 C192.89264492 492.38935417 189.8834216 491.84333854 186.87419796 491.29732466 C186.13255815 491.16275638 185.39091835 491.02818811 184.62680461 490.88954201 C172.94074546 488.76915461 161.25461507 486.64916013 149.56843822 484.52942152 C141.86731917 483.13252582 134.16622722 481.73548115 126.4652338 480.33789301 C124.4096653 479.96485127 122.35409678 479.59180964 120.29852824 479.21876813 C118.93970894 478.97216971 117.58089041 478.725567 116.22207268 478.47895997 C107.615078 476.91694476 99.0077885 475.35657042 90.40020382 473.7978093 C67.10453577 469.57868173 43.8115793 465.34863885 20.54028988 460.99677491 C17.56462482 460.44079609 14.588652 459.88650006 11.61254025 459.33291769 C10.66335594 459.15634677 9.71417164 458.97977586 8.73622417 458.7978543 C6.86939011 458.45063138 5.00254113 458.10348868 3.13567638 457.75643075 C-2.07028613 456.78742236 -7.27381076 455.80654603 -12.47558403 454.81530809 C-15.58956585 454.22460996 -18.70551472 453.64486306 -21.8220892 453.06801701 C-23.21944436 452.80696911 -24.61595633 452.54134993 -26.01140881 452.27031517 C-39.58437042 449.63725939 -52.30511206 449.41153628 -65.86512089 452.13060713 C-66.9677137 452.33988089 -68.07030651 452.54915464 -69.20631123 452.76477003 C-72.85545505 453.46067652 -76.50049888 454.17602988 -80.14588261 454.89134932 C-82.7822543 455.39785346 -85.41882261 455.90320047 -88.05570316 456.40703535 C-93.73566534 457.49444181 -99.41371056 458.59140719 -105.09058475 459.69481611 C-114.25881721 461.47651074 -123.43100299 463.23731596 -132.60389042 464.99486494 C-135.77663191 465.60295667 -138.94935656 466.2111362 -142.1220789 466.81932783 C-143.31093174 467.0471926 -143.31093174 467.0471926 -144.5238018 467.2796607 C-150.22223417 468.37207549 -155.92017166 469.46704813 -161.6179285 470.56298018 C-183.33734957 474.73963203 -205.06494803 478.87066149 -226.80213261 482.95384932 C-227.53455866 483.09143376 -228.26698471 483.22901821 -229.02160549 483.37077188 C-237.97499302 485.05241257 -246.9288439 486.73157848 -255.88284492 488.40994906 C-264.34748259 489.99671373 -272.81162257 491.58612743 -281.27576542 493.175529 C-294.11741324 495.58680542 -306.95921967 497.99723519 -319.80115604 500.40697432 C-354.85952055 506.98562824 -389.91705998 513.56867693 -424.97440577 520.15275717 C-427.82938946 520.68894162 -430.68437666 521.22510744 -433.53936481 521.76126814 C-494.07669648 533.1301208 -554.60904803 544.5252174 -615.13807011 555.93822432 C-631.02867042 558.93444899 -646.91927771 561.93063668 -662.80994511 564.92650557 C-663.8024034 565.11361451 -664.7948617 565.30072346 -665.8173945 565.49350238 C-708.842794 573.60501129 -751.87023833 581.70564092 -794.89885557 589.80006278 C-809.00641536 592.45395543 -823.11361911 595.10972899 -837.2204361 597.76756716 C-847.58993684 599.72123885 -857.95964137 601.67382759 -868.32947636 603.62572432 C-869.32869877 603.81381721 -870.32792119 604.00191011 -871.35742307 604.19570279 C-895.7264849 608.78245834 -920.1001315 613.34226747 -944.48780113 617.82909864 C-949.33281172 618.72050809 -954.1773924 619.61421707 -959.0216608 620.50965071 C-959.67629612 620.63063039 -960.33093143 620.75161008 -961.00540417 620.87625581 C-964.19351835 621.46544059 -967.38160701 622.05476293 -970.569664 622.64425707 C-977.52576578 623.92908178 -984.48420688 625.19994104 -991.44513512 626.45834112 C-995.55887856 627.2051602 -999.67017697 627.96480362 -1003.78090954 628.72800398 C-1005.59925937 629.06276362 -1007.41860814 629.39216271 -1009.2391119 629.71500349 C-1022.00547745 631.98126023 -1033.81920653 635.64063843 -1045.95057011 640.18822432 C-1047.3348948 640.6953761 -1048.7197834 641.20099224 -1050.10532475 641.70481062 C-1054.01362012 643.12923482 -1057.91225472 644.578831 -1061.80994511 646.03197432 C-1063.24148318 646.56407898 -1064.67307973 647.09602635 -1066.10472965 647.62783003 C-1069.86463027 649.02506321 -1073.62363574 650.42468849 -1077.38242054 651.82492018 C-1080.5197758 652.99330543 -1083.65767412 654.1602285 -1086.79556274 655.32718039 C-1105.30162106 662.20968032 -1123.79983218 669.11286394 -1142.28235722 676.0583415 C-1153.76763493 680.37402439 -1165.26302652 684.6620494 -1176.76307011 688.93822432 C-1178.10015018 689.43547514 -1178.10015018 689.43547514 -1179.46424198 689.94277143 C-1184.06800073 691.65485628 -1188.67185647 693.36668014 -1193.27576542 695.07836103 C-1195.16736835 695.78164512 -1197.0589699 696.4849329 -1198.95057011 697.18822432 C-1199.88912846 697.53717756 -1200.82768681 697.88613081 -1201.79468632 698.2456584 C-1228.88354178 708.31804473 -1255.95824363 718.42785987 -1283.01965809 728.57371473 C-1285.31760857 729.43523945 -1287.61560933 730.29662995 -1289.91361332 731.15801191 C-1305.89501828 737.14900445 -1321.87186631 743.15172212 -1337.83470631 749.19202757 C-1340.01617152 750.01741763 -1342.19777913 750.84243017 -1344.37943363 751.66731977 C-1345.79328622 752.20194741 -1347.20713514 752.73658475 -1348.62098026 753.27123213 C-1349.30835585 753.53116013 -1349.99573143 753.79108812 -1350.70393658 754.05889273 C-1354.74269808 755.58656196 -1358.78022531 757.11744071 -1362.81686115 758.65071726 C-1365.85790689 759.80497218 -1368.90047548 760.95520164 -1371.94275761 762.10619307 C-1373.58564762 762.73218649 -1373.58564762 762.73218649 -1375.26172733 763.37082624 C-1376.25329838 763.74522337 -1377.24486942 764.11962049 -1378.26648808 764.50536299 C-1379.55956379 764.99609549 -1379.55956379 764.99609549 -1380.87876225 765.49674177 C-1382.95057011 766.18822432 -1382.95057011 766.18822432 -1384.95057011 766.18822432 C-1385.20677128 766.99775557 -1385.46297245 767.80728682 -1385.72693729 768.64134932 C-1387.1668994 772.81528576 -1388.82875813 776.86476154 -1390.52869511 780.93822432 C-1391.06674023 782.23534094 -1391.06674023 782.23534094 -1391.61565495 783.55866194 C-1392.39697685 785.44223792 -1393.17912981 787.32546934 -1393.9620142 789.20839643 C-1396.11606119 794.39079414 -1398.26214422 799.57648443 -1400.40760136 804.76244307 C-1400.85974506 805.85530119 -1401.31188877 806.94815931 -1401.7777338 808.07413435 C-1406.85794589 820.36529836 -1411.87605514 832.68162804 -1416.88807011 845.00072432 C-1417.34721806 846.12903669 -1417.806366 847.25734907 -1418.27942753 848.41985273 C-1420.13652208 852.98357246 -1421.99344672 857.54736121 -1423.84995365 862.11132002 C-1428.6248368 873.84882176 -1433.41134867 885.58156695 -1438.20057011 897.31322432 C-1438.6126572 898.32277174 -1439.0247443 899.33231916 -1439.44931889 900.37245893 C-1445.64474494 915.54963309 -1451.84935486 930.72303788 -1458.05817509 945.89473677 C-1463.98813203 960.38534474 -1469.90940926 974.87947848 -1475.82557011 989.37572432 C-1476.23829166 990.38690321 -1476.65101322 991.3980821 -1477.07624149 992.43990278 C-1481.37475077 1002.97138685 -1485.67192843 1013.50341087 -1489.96506596 1024.03708601 C-1491.74151494 1028.39549107 -1493.51864916 1032.75361658 -1495.29584599 1037.11171675 C-1496.12866711 1039.15452564 -1496.96116311 1041.19746713 -1497.79328251 1043.24056196 C-1503.77232212 1057.92065898 -1509.83443808 1072.56471158 -1515.95057011 1087.18822432 C-1520.04573304 1085.9507324 -1523.42644129 1084.47317312 -1527.02088261 1082.16088057 C-1527.98566532 1081.54317793 -1528.95044804 1080.92547529 -1529.94446659 1080.28905439 C-1530.97773075 1079.61640547 -1532.01099491 1078.94375654 -1533.07557011 1078.25072432 C-1534.16361942 1077.54778242 -1535.25166874 1076.84484053 -1536.37268925 1076.12059736 C-1566.74205541 1056.4400323 -1596.22160494 1035.6081446 -1624.19471073 1012.62816572 C-1625.75992603 1011.3445673 -1627.33138711 1010.0685936 -1628.90369511 1008.79369307 C-1647.98401762 993.31185243 -1665.62730899 976.59770884 -1683.01307011 959.25072432 C-1683.69755222 958.56892103 -1684.38203434 957.88711775 -1685.08725834 957.18465376 C-1698.92687243 943.38609508 -1698.92687243 943.38609508 -1704.95057011 936.18822432 C-1705.93438131 935.05769163 -1706.92004223 933.92876579 -1707.90760136 932.80150557 C-1714.55153292 925.14362687 -1720.90850685 917.33120804 -1726.95057011 909.18822432 C-1727.44138065 908.52870771 -1727.9321912 907.86919111 -1728.43787479 907.18968916 C-1762.4430637 861.30916793 -1787.85161543 810.71392274 -1797.95057011 754.18822432 C-1798.11573124 753.32439131 -1798.28089237 752.4605583 -1798.45105839 751.57054853 C-1801.24619951 736.51956632 -1801.26269175 721.38303348 -1801.32557011 706.12572432 C-1801.33351597 705.11622725 -1801.34146183 704.10673018 -1801.34964848 703.06664228 C-1801.46360427 684.193265 -1799.69261523 665.65682182 -1795.70057011 647.18822432 C-1795.49150028 646.20805342 -1795.28243046 645.22788252 -1795.06702518 644.21800947 C-1792.66202363 633.34027006 -1789.44552315 622.75887206 -1785.95057011 612.18822432 C-1785.67438847 611.32648603 -1785.39820683 610.46474775 -1785.11365604 609.57689619 C-1777.33016801 585.48208434 -1765.71193004 561.45393676 -1751.95057011 540.18822432 C-1751.43849003 539.39126143 -1750.92640995 538.59429853 -1750.39881229 537.77318525 C-1739.51203697 520.91931441 -1727.92200798 504.50972732 -1714.95057011 489.18822432 C-1714.08153155 488.14571294 -1713.21307163 487.10271903 -1712.34510136 486.05931807 C-1706.56867259 479.14158707 -1700.61063562 472.41396888 -1694.46765995 465.81859541 C-1692.81828555 464.04606206 -1691.17541927 462.2676163 -1689.53260136 460.48900557 C-1671.84357625 441.3818525 -1671.84357625 441.3818525 -1662.23182011 433.18822432 C-1659.75777085 431.01919483 -1657.36151811 428.77966923 -1654.96350956 426.52733564 C-1649.39432077 421.29779512 -1643.75398603 416.27039454 -1637.78650761 411.49291182 C-1635.09965448 409.30938104 -1632.47710004 407.06934178 -1629.86243534 404.80077314 C-1623.39170827 399.18762296 -1616.76595812 393.84294039 -1609.92517948 388.68578291 C-1607.61651541 386.93487472 -1605.32258962 385.16546776 -1603.02869511 383.39525557 C-1601.23190441 382.0136355 -1599.43502915 380.63212541 -1597.63807011 379.25072432 C-1596.82136845 378.61876143 -1596.00466679 377.98679853 -1595.16321659 377.33568525 C-1582.11550822 367.34363739 -1568.31006857 358.35759965 -1554.63807011 349.25072432 C-1553.92001194 348.77233107 -1553.20195377 348.29393782 -1552.46213627 347.8010478 C-1534.27696253 335.69465074 -1515.83950954 324.16846678 -1496.95057011 313.18822432 C-1495.38701786 312.27580976 -1495.38701786 312.27580976 -1493.7918787 311.3449626 C-1449.98742428 285.83219039 -1404.62536172 262.52504218 -1358.19629765 242.17339277 C-1355.79502021 241.11998681 -1353.3956954 240.06220977 -1350.99646854 239.00414228 C-1256.19540225 197.25267651 -1158.25036707 163.13867198 -838.95057011 81.18822432 C-837.70203251 80.92739058 -836.45349491 80.66655684 -835.16712284 80.39781904 C-754.48065878 63.56317033 -673.04649729 50.03823901 -145.82557011 2.00072432 C-144.686059 1.96379469 -143.54654789 1.92686506 -142.37250614 1.88881636 C-134.62734282 1.64327262 -126.88153008 1.43650218 -119.13488865 1.24371672 C-116.81241781 1.18471457 -114.49004763 1.12247619 -112.16767216 1.05983686 C-74.78047329 0.06207944 -37.39752888 -0.01333523 0 0 Z " fill="#332200" transform="translate(2344.9505701065063,847.8117756843567)"/>
</svg>
